<svg version="1.1" viewBox="0.0 0.0 958.4304461942257 142.89763779527559" fill="none" stroke="none" stroke-linecap="square" stroke-miterlimit="10" xmlns:xlink="http://www.w3.org/1999/xlink" xmlns="http://www.w3.org/2000/svg"><clipPath id="p.0"><path d="m0 0l958.4304 0l0 142.89764l-958.4304 0l0 -142.89764z" clip-rule="nonzero"/></clipPath><g clip-path="url(#p.0)"><path fill="#000000" fill-opacity="0.0" d="m0 0l958.4304 0l0 142.89764l-958.4304 0z" fill-rule="evenodd"/><path fill="#ffffff" d="m3.1253166 4.1670885l953.22833 0l0 134.96063l-953.22833 0z" fill-rule="evenodd"/><path stroke="#ffffff" stroke-width="1.0" stroke-linejoin="round" stroke-linecap="butt" d="m3.1253166 4.1670885l953.22833 0l0 134.96063l-953.22833 0z" fill-rule="evenodd"/><path fill="#cfe2f3" d="m46.745407 42.50656l177.25984 0l0 58.04724l-177.25984 0z" fill-rule="evenodd"/><path stroke="#000000" stroke-width="1.0" stroke-linejoin="round" stroke-linecap="butt" d="m46.745407 42.50656l177.25984 0l0 58.04724l-177.25984 0z" fill-rule="evenodd"/><path fill="#000000" d="m58.636032 65.465805l-1.484375 0l0 -1.421875l9.578125 0l0 1.421875l-2.21875 0l0 14.390625l-1.484375 0l0 -3.78125q-3.125 1.109375 -5.28125 1.625q-0.359375 0.53125 -0.4375 0.234375l-0.453125 -1.859375q0.890625 -0.15625 1.78125 -0.296875l0 -10.3125zm6.390625 12.90625q2.296875 -1.5625 3.5625 -3.265625q-1.859375 -2.75 -2.375 -7.34375l-0.890625 0l0 -1.40625l6.375 0l0.296875 -0.375l1.265625 1.1875l-0.375 0.21875q-0.515625 4.53125 -2.375 7.796875q1.1875 1.5625 3.125 2.75l-0.890625 1.5625q-1.9375 -1.5 -3.1875 -3.046875q-1.484375 1.703125 -3.5 3.34375l-1.03125 -1.421875zm4.453125 -4.53125q1.1875 -1.78125 1.78125 -6.078125l-3.640625 0q0.375 3.484375 1.859375 6.078125zm-9.359375 -8.375l0 2.515625l2.90625 0l0 -2.515625l-2.90625 0zm0 3.703125l0 2.453125l2.90625 0l0 -2.453125l-2.90625 0zm0 3.640625l0 2.671875q1.421875 -0.296875 2.90625 -0.8125l0 -1.859375l-2.90625 0zm15.59375 -0.59375q2.8125 -1.859375 4.75 -5.265625l1.109375 0.890625q0.296875 0.21875 -0.21875 0.359375q-0.96875 1.5625 -1.40625 2.15625l0 9.796875l-1.484375 0l0 -8.234375q-0.828125 0.8125 -1.9375 1.703125l-0.8125 -1.40625zm0.4375 -5.203125q2.3125 -1.484375 3.71875 -3.859375l1.1875 0.890625q0.296875 0.296875 -0.21875 0.375q-1.71875 2.671875 -3.859375 4.015625l-0.828125 -1.421875zm7.875 8.015625q0.96875 0.671875 2.296875 2.375l-1.265625 1.046875q-1.109375 -1.5625 -2.21875 -2.53125l1.1875 -0.890625zm-3.125 -0.359375l0 -1.421875l7.578125 0l0 -1.25l-7.5 0l0 -1.421875l11.734375 0l0 1.421875l-2.75 0l0 1.25l2.671875 0l0 1.421875l-2.671875 0l0 4.234375q0 1.109375 -1.046875 1.109375l-1.703125 0l-0.296875 -1.40625l1.265625 0q0.296875 0 0.296875 -0.3125l0 -3.625l-7.578125 0zm8.546875 -7.578125l-5.34375 0l0 1.34375l5.34375 0l0 -1.34375zm0 -2.375l-5.34375 0l0 1.1875l5.34375 0l0 -1.1875zm1.25 -1.1875l0 6.09375l-7.859375 0l0 -6.09375l7.859375 0z" fill-rule="nonzero"/><path fill="#000000" d="m106.42871 78.45018l0 -1.21875q-0.90625 1.4375 -2.703125 1.4375q-1.15625 0 -2.125 -0.640625q-0.96875 -0.640625 -1.5 -1.78125q-0.53125 -1.140625 -0.53125 -2.625q0 -1.453125 0.484375 -2.625q0.484375 -1.1875 1.4375 -1.8125q0.96875 -0.625 2.171875 -0.625q0.875 0 1.546875 0.375q0.6875 0.359375 1.109375 0.953125l0 -4.796875l1.640625 0l0 13.359375l-1.53125 0zm-5.171875 -4.828125q0 1.859375 0.78125 2.78125q0.78125 0.921875 1.84375 0.921875q1.078125 0 1.828125 -0.875q0.75 -0.890625 0.75 -2.6875q0 -1.984375 -0.765625 -2.90625q-0.765625 -0.9375 -1.890625 -0.9375q-1.078125 0 -1.8125 0.890625q-0.734375 0.890625 -0.734375 2.8125zm15.594467 3.640625q-0.921875 0.765625 -1.765625 1.09375q-0.828125 0.3125 -1.796875 0.3125q-1.59375 0 -2.453125 -0.78125q-0.859375 -0.78125 -0.859375 -1.984375q0 -0.71875 0.328125 -1.296875q0.328125 -0.59375 0.84375 -0.9375q0.53125 -0.359375 1.1875 -0.546875q0.46875 -0.125 1.453125 -0.25q1.984375 -0.234375 2.921875 -0.5625q0.015625 -0.34375 0.015625 -0.421875q0 -1.0 -0.46875 -1.421875q-0.625 -0.546875 -1.875 -0.546875q-1.15625 0 -1.703125 0.40625q-0.546875 0.40625 -0.8125 1.421875l-1.609375 -0.21875q0.21875 -1.015625 0.71875 -1.640625q0.5 -0.640625 1.453125 -0.984375q0.953125 -0.34375 2.1875 -0.34375q1.25 0 2.015625 0.296875q0.78125 0.28125 1.140625 0.734375q0.375 0.4375 0.515625 1.109375q0.078125 0.421875 0.078125 1.515625l0 2.1875q0 2.28125 0.109375 2.890625q0.109375 0.59375 0.40625 1.15625l-1.703125 0q-0.265625 -0.515625 -0.328125 -1.1875zm-0.140625 -3.671875q-0.890625 0.375 -2.671875 0.625q-1.015625 0.140625 -1.4375 0.328125q-0.421875 0.1875 -0.65625 0.53125q-0.21875 0.34375 -0.21875 0.78125q0 0.65625 0.5 1.09375q0.5 0.4375 1.453125 0.4375q0.9375 0 1.671875 -0.40625q0.75 -0.421875 1.09375 -1.140625q0.265625 -0.5625 0.265625 -1.640625l0 -0.609375zm7.781967 3.390625l0.234375 1.453125q-0.6875 0.140625 -1.234375 0.140625q-0.890625 0 -1.390625 -0.28125q-0.484375 -0.28125 -0.6875 -0.734375q-0.203125 -0.46875 -0.203125 -1.9375l0 -5.578125l-1.203125 0l0 -1.265625l1.203125 0l0 -2.390625l1.625 -0.984375l0 3.375l1.65625 0l0 1.265625l-1.65625 0l0 5.671875q0 0.6875 0.078125 0.890625q0.09375 0.203125 0.28125 0.328125q0.203125 0.109375 0.578125 0.109375q0.265625 0 0.71875 -0.0625zm7.917679 0.28125q-0.921875 0.765625 -1.765625 1.09375q-0.828125 0.3125 -1.796875 0.3125q-1.59375 0 -2.453125 -0.78125q-0.859375 -0.78125 -0.859375 -1.984375q0 -0.71875 0.328125 -1.296875q0.328125 -0.59375 0.84375 -0.9375q0.53125 -0.359375 1.1875 -0.546875q0.46875 -0.125 1.453125 -0.25q1.984375 -0.234375 2.921875 -0.5625q0.015625 -0.34375 0.015625 -0.421875q0 -1.0 -0.46875 -1.421875q-0.625 -0.546875 -1.875 -0.546875q-1.15625 0 -1.703125 0.40625q-0.546875 0.40625 -0.8125 1.421875l-1.609375 -0.21875q0.21875 -1.015625 0.71875 -1.640625q0.5 -0.640625 1.453125 -0.984375q0.953125 -0.34375 2.1875 -0.34375q1.25 0 2.015625 0.296875q0.78125 0.28125 1.140625 0.734375q0.375 0.4375 0.515625 1.109375q0.078125 0.421875 0.078125 1.515625l0 2.1875q0 2.28125 0.109375 2.890625q0.109375 0.59375 0.40625 1.15625l-1.703125 0q-0.265625 -0.515625 -0.328125 -1.1875zm-0.140625 -3.671875q-0.890625 0.375 -2.671875 0.625q-1.015625 0.140625 -1.4375 0.328125q-0.421875 0.1875 -0.65625 0.53125q-0.21875 0.34375 -0.21875 0.78125q0 0.65625 0.5 1.09375q0.5 0.4375 1.453125 0.4375q0.9375 0 1.671875 -0.40625q0.75 -0.421875 1.09375 -1.140625q0.265625 -0.5625 0.265625 -1.640625l0 -0.609375zm9.387146 8.5625l0 -13.375l1.484375 0l0 1.25q0.53125 -0.734375 1.1875 -1.09375q0.671875 -0.375 1.625 -0.375q1.234375 0 2.171875 0.640625q0.953125 0.625 1.4375 1.796875q0.484375 1.15625 0.484375 2.546875q0 1.484375 -0.53125 2.671875q-0.53125 1.1875 -1.546875 1.828125q-1.015625 0.625 -2.140625 0.625q-0.8125 0 -1.46875 -0.34375q-0.65625 -0.34375 -1.0625 -0.875l0 4.703125l-1.640625 0zm1.484375 -8.484375q0 1.859375 0.75 2.765625q0.765625 0.890625 1.828125 0.890625q1.09375 0 1.875 -0.921875q0.78125 -0.9375 0.78125 -2.875q0 -1.84375 -0.765625 -2.765625q-0.75 -0.921875 -1.8125 -0.921875q-1.046875 0 -1.859375 0.984375q-0.796875 0.96875 -0.796875 2.84375zm8.875717 4.78125l0 -9.671875l1.46875 0l0 1.46875q0.5625 -1.03125 1.03125 -1.359375q0.484375 -0.328125 1.0625 -0.328125q0.828125 0 1.6875 0.53125l-0.5625 1.515625q-0.609375 -0.359375 -1.203125 -0.359375q-0.546875 0 -0.96875 0.328125q-0.421875 0.328125 -0.609375 0.890625q-0.28125 0.875 -0.28125 1.921875l0 5.0625l-1.625 0zm5.618927 -4.84375q0 -2.6875 1.484375 -3.96875q1.25 -1.078125 3.046875 -1.078125q2.0 0 3.265625 1.3125q1.265625 1.296875 1.265625 3.609375q0 1.859375 -0.5625 2.9375q-0.5625 1.0625 -1.640625 1.65625q-1.0625 0.59375 -2.328125 0.59375q-2.03125 0 -3.28125 -1.296875q-1.25 -1.3125 -1.25 -3.765625zm1.6875 0q0 1.859375 0.796875 2.796875q0.8125 0.921875 2.046875 0.921875q1.21875 0 2.03125 -0.921875q0.8125 -0.9375 0.8125 -2.84375q0 -1.796875 -0.8125 -2.71875q-0.8125 -0.921875 -2.03125 -0.921875q-1.234375 0 -2.046875 0.921875q-0.796875 0.90625 -0.796875 2.765625zm9.297592 8.546875l0 -13.375l1.484375 0l0 1.25q0.53125 -0.734375 1.1875 -1.09375q0.671875 -0.375 1.625 -0.375q1.234375 0 2.171875 0.640625q0.953125 0.625 1.4375 1.796875q0.484375 1.15625 0.484375 2.546875q0 1.484375 -0.53125 2.671875q-0.53125 1.1875 -1.546875 1.828125q-1.015625 0.625 -2.140625 0.625q-0.8125 0 -1.46875 -0.34375q-0.65625 -0.34375 -1.0625 -0.875l0 4.703125l-1.640625 0zm1.484375 -8.484375q0 1.859375 0.75 2.765625q0.765625 0.890625 1.828125 0.890625q1.09375 0 1.875 -0.921875q0.78125 -0.9375 0.78125 -2.875q0 -1.84375 -0.765625 -2.765625q-0.75 -0.921875 -1.8125 -0.921875q-1.046875 0 -1.859375 0.984375q-0.796875 0.96875 -0.796875 2.84375zm15.516342 1.671875l1.6875 0.203125q-0.40625 1.484375 -1.484375 2.3125q-1.078125 0.8125 -2.765625 0.8125q-2.125 0 -3.375 -1.296875q-1.234375 -1.3125 -1.234375 -3.671875q0 -2.453125 1.25 -3.796875q1.265625 -1.34375 3.265625 -1.34375q1.9375 0 3.15625 1.328125q1.234375 1.3125 1.234375 3.703125q0 0.15625 0 0.4375l-7.21875 0q0.09375 1.59375 0.90625 2.453125q0.8125 0.84375 2.015625 0.84375q0.90625 0 1.546875 -0.46875q0.640625 -0.484375 1.015625 -1.515625zm-5.390625 -2.65625l5.40625 0q-0.109375 -1.21875 -0.625 -1.828125q-0.78125 -0.953125 -2.03125 -0.953125q-1.125 0 -1.90625 0.765625q-0.765625 0.75 -0.84375 2.015625zm9.125717 5.765625l0 -9.671875l1.46875 0l0 1.46875q0.5625 -1.03125 1.03125 -1.359375q0.484375 -0.328125 1.0625 -0.328125q0.828125 0 1.6875 0.53125l-0.5625 1.515625q-0.609375 -0.359375 -1.203125 -0.359375q-0.546875 0 -0.96875 0.328125q-0.421875 0.328125 -0.609375 0.890625q-0.28125 0.875 -0.28125 1.921875l0 5.0625l-1.625 0zm9.806427 -1.46875l0.234375 1.453125q-0.6875 0.140625 -1.234375 0.140625q-0.890625 0 -1.390625 -0.28125q-0.484375 -0.28125 -0.6875 -0.734375q-0.203125 -0.46875 -0.203125 -1.9375l0 -5.578125l-1.203125 0l0 -1.265625l1.203125 0l0 -2.390625l1.625 -0.984375l0 3.375l1.65625 0l0 1.265625l-1.65625 0l0 5.671875q0 0.6875 0.078125 0.890625q0.09375 0.203125 0.28125 0.328125q0.203125 0.109375 0.578125 0.109375q0.265625 0 0.71875 -0.0625zm1.5270538 5.1875l-0.1875 -1.53125q0.546875 0.140625 0.9375 0.140625q0.546875 0 0.875 -0.1875q0.328125 -0.171875 0.546875 -0.5q0.15625 -0.25 0.5 -1.21875q0.046875 -0.140625 0.140625 -0.40625l-3.671875 -9.6875l1.765625 0l2.015625 5.59375q0.390625 1.078125 0.703125 2.25q0.28125 -1.125 0.671875 -2.203125l2.078125 -5.640625l1.640625 0l-3.6875 9.828125q-0.59375 1.609375 -0.921875 2.203125q-0.4375 0.8125 -1.0 1.1875q-0.5625 0.375 -1.34375 0.375q-0.484375 0 -1.0625 -0.203125z" fill-rule="nonzero"/><path fill="#cfe2f3" d="m323.92126 42.50656l177.25983 0l0 58.04724l-177.25983 0z" fill-rule="evenodd"/><path stroke="#000000" stroke-width="1.0" stroke-linejoin="round" stroke-linecap="butt" d="m323.92126 42.50656l177.25983 0l0 58.04724l-177.25983 0z" fill-rule="evenodd"/><path fill="#000000" d="m340.81863 74.153305l1.65625 -0.140625q0.125 1.0 0.546875 1.640625q0.4375 0.640625 1.34375 1.046875q0.921875 0.390625 2.0625 0.390625q1.0 0 1.78125 -0.296875q0.78125 -0.296875 1.15625 -0.8125q0.375 -0.53125 0.375 -1.15625q0 -0.625 -0.375 -1.09375q-0.359375 -0.46875 -1.1875 -0.796875q-0.546875 -0.203125 -2.390625 -0.640625q-1.828125 -0.453125 -2.5625 -0.84375q-0.96875 -0.5 -1.4375 -1.234375q-0.46875 -0.75 -0.46875 -1.671875q0 -1.0 0.578125 -1.875q0.578125 -0.890625 1.671875 -1.34375q1.109375 -0.453125 2.453125 -0.453125q1.484375 0 2.609375 0.484375q1.140625 0.46875 1.75 1.40625q0.609375 0.921875 0.65625 2.09375l-1.6875 0.125q-0.140625 -1.265625 -0.9375 -1.90625q-0.78125 -0.65625 -2.3125 -0.65625q-1.609375 0 -2.34375 0.59375q-0.734375 0.59375 -0.734375 1.421875q0 0.71875 0.53125 1.171875q0.5 0.46875 2.65625 0.96875q2.15625 0.484375 2.953125 0.84375q1.171875 0.53125 1.71875 1.359375q0.5625 0.828125 0.5625 1.90625q0 1.0625 -0.609375 2.015625q-0.609375 0.9375 -1.75 1.46875q-1.140625 0.515625 -2.578125 0.515625q-1.8125 0 -3.046875 -0.53125q-1.21875 -0.53125 -1.921875 -1.59375q-0.6875 -1.0625 -0.71875 -2.40625zm19.162323 4.296875l0 -1.421875q-1.125 1.640625 -3.0625 1.640625q-0.859375 0 -1.609375 -0.328125q-0.734375 -0.328125 -1.09375 -0.828125q-0.359375 -0.5 -0.5 -1.21875q-0.109375 -0.46875 -0.109375 -1.53125l0 -5.984375l1.640625 0l0 5.359375q0 1.28125 0.109375 1.734375q0.15625 0.640625 0.65625 1.015625q0.5 0.375 1.234375 0.375q0.734375 0 1.375 -0.375q0.65625 -0.390625 0.921875 -1.03125q0.265625 -0.65625 0.265625 -1.890625l0 -5.1875l1.640625 0l0 9.671875l-1.46875 0zm5.547577 0l-1.515625 0l0 -13.359375l1.640625 0l0 4.765625q1.046875 -1.296875 2.65625 -1.296875q0.890625 0 1.6875 0.359375q0.796875 0.359375 1.3125 1.015625q0.515625 0.640625 0.796875 1.5625q0.296875 0.921875 0.296875 1.96875q0 2.484375 -1.234375 3.84375q-1.21875 1.359375 -2.953125 1.359375q-1.703125 0 -2.6875 -1.4375l0 1.21875zm-0.015625 -4.90625q0 1.734375 0.484375 2.515625q0.765625 1.265625 2.09375 1.265625q1.078125 0 1.859375 -0.9375q0.78125 -0.9375 0.78125 -2.78125q0 -1.890625 -0.75 -2.796875q-0.75 -0.90625 -1.828125 -0.90625q-1.0625 0 -1.859375 0.9375q-0.78125 0.9375 -0.78125 2.703125zm8.875732 -6.546875l0 -1.90625l1.640625 0l0 1.90625l-1.640625 0zm-2.078125 15.203125l0.3125 -1.390625q0.5 0.125 0.78125 0.125q0.5 0 0.734375 -0.328125q0.25 -0.328125 0.25 -1.671875l0 -10.15625l1.640625 0l0 10.203125q0 1.78125 -0.46875 2.484375q-0.59375 0.90625 -1.96875 0.90625q-0.65625 0 -1.28125 -0.171875zm12.863556 -6.859375l1.6875 0.203125q-0.40625 1.484375 -1.484375 2.3125q-1.078125 0.8125 -2.765625 0.8125q-2.125 0 -3.375 -1.296875q-1.234375 -1.3125 -1.234375 -3.671875q0 -2.453125 1.25 -3.796875q1.265625 -1.34375 3.265625 -1.34375q1.9375 0 3.15625 1.328125q1.234375 1.3125 1.234375 3.703125q0 0.15625 0 0.4375l-7.21875 0q0.09375 1.59375 0.90625 2.453125q0.8125 0.84375 2.015625 0.84375q0.90625 0 1.546875 -0.46875q0.640625 -0.484375 1.015625 -1.515625zm-5.390625 -2.65625l5.40625 0q-0.109375 -1.21875 -0.625 -1.828125q-0.78125 -0.953125 -2.03125 -0.953125q-1.125 0 -1.90625 0.765625q-0.765625 0.75 -0.84375 2.015625zm15.453857 2.21875l1.609375 0.21875q-0.265625 1.65625 -1.359375 2.609375q-1.078125 0.9375 -2.671875 0.9375q-1.984375 0 -3.1875 -1.296875q-1.203125 -1.296875 -1.203125 -3.71875q0 -1.578125 0.515625 -2.75q0.515625 -1.171875 1.578125 -1.75q1.0625 -0.59375 2.3125 -0.59375q1.578125 0 2.578125 0.796875q1.0 0.796875 1.28125 2.265625l-1.59375 0.234375q-0.234375 -0.96875 -0.8125 -1.453125q-0.578125 -0.5 -1.390625 -0.5q-1.234375 0 -2.015625 0.890625q-0.78125 0.890625 -0.78125 2.8125q0 1.953125 0.75 2.84375q0.75 0.875 1.953125 0.875q0.96875 0 1.609375 -0.59375q0.65625 -0.59375 0.828125 -1.828125zm6.59375 2.078125l0.234375 1.453125q-0.6875 0.140625 -1.234375 0.140625q-0.890625 0 -1.390625 -0.28125q-0.484375 -0.28125 -0.6875 -0.734375q-0.203125 -0.46875 -0.203125 -1.9375l0 -5.578125l-1.203125 0l0 -1.265625l1.203125 0l0 -2.390625l1.625 -0.984375l0 3.375l1.65625 0l0 1.265625l-1.65625 0l0 5.671875q0 0.6875 0.078125 0.890625q0.09375 0.203125 0.28125 0.328125q0.203125 0.109375 0.578125 0.109375q0.265625 0 0.71875 -0.0625z" fill-rule="nonzero"/><path fill="#000000" d="m413.4789 63.82518q0.65625 0.453125 -0.078125 0.453125q-1.34375 2.375 -3.859375 4.453125l-0.96875 -1.265625q2.671875 -2.0 3.640625 -4.3125l1.265625 0.671875zm0.4375 3.640625q0.671875 0.4375 -0.140625 0.4375q-0.53125 1.046875 -1.265625 2.234375l0 9.875l-1.484375 0l0 -7.953125q-0.671875 0.890625 -1.640625 1.78125l-0.953125 -1.40625q2.8125 -2.515625 4.21875 -5.5625l1.265625 0.59375zm10.25 6.75l-3.9375 0l0 3.640625l5.421875 0l-0.53125 1.40625l-4.078125 0q-2.96875 0 -5.125 -2.21875q-0.890625 1.703125 -1.84375 2.59375l-1.125 -1.109375q2.453125 -2.671875 2.75 -6.53125l1.40625 0.21875q0.59375 0.21875 0 0.4375q-0.296875 1.9375 -0.734375 3.125q1.03125 1.265625 2.375 1.703125l0 -6.375l1.40625 0q0.59375 0.0625 0.078125 0.4375l0 1.265625l3.9375 0l0 1.40625zm-1.71875 -10.46875q0.59375 0.234375 0 0.453125q-0.21875 1.03125 -0.59375 2.15625q1.859375 1.1875 3.34375 2.515625l-0.96875 1.40625q-1.328125 -1.546875 -2.890625 -2.59375q-0.734375 1.703125 -1.78125 3.046875l-1.328125 -0.890625q2.078125 -2.296875 2.734375 -6.390625l1.484375 0.296875zm-4.671875 0q0.75 0.15625 0 0.453125q-0.296875 1.1875 -0.734375 2.453125q0.890625 0.4375 2.0 1.1875l-0.8125 1.328125q-0.75 -0.671875 -1.71875 -1.328125q-0.734375 1.84375 -1.703125 3.1875l-1.265625 -0.890625q2.234375 -3.34375 2.75 -6.6875l1.484375 0.296875z" fill-rule="nonzero"/><path fill="#000000" d="m432.3497 71.85643q0 -2.359375 0.484375 -3.796875q0.484375 -1.453125 1.4375 -2.234375q0.96875 -0.78125 2.421875 -0.78125q1.078125 0 1.890625 0.4375q0.8125 0.421875 1.328125 1.25q0.53125 0.8125 0.828125 1.984375q0.3125 1.15625 0.3125 3.140625q0 2.359375 -0.484375 3.8125q-0.484375 1.4375 -1.453125 2.234375q-0.953125 0.78125 -2.421875 0.78125q-1.921875 0 -3.03125 -1.390625q-1.3125 -1.671875 -1.3125 -5.4375zm1.671875 0q0 3.296875 0.765625 4.390625q0.78125 1.078125 1.90625 1.078125q1.140625 0 1.90625 -1.09375q0.765625 -1.09375 0.765625 -4.375q0 -3.296875 -0.765625 -4.375q-0.765625 -1.078125 -1.921875 -1.078125q-1.125 0 -1.796875 0.953125q-0.859375 1.21875 -0.859375 4.5z" fill-rule="nonzero"/><path fill="#000000" d="m457.59622 63.528305l6.96875 0l0 15.140625q0 1.1875 -1.1875 1.1875l-1.78125 0l-0.21875 -1.40625l1.40625 0q0.296875 0 0.296875 -0.296875l0 -8.46875l-2.734375 0l-2.75 0l0 -6.15625zm-6.15625 11.5l0 -1.1875l2.96875 0l0 -1.78125l-2.453125 0l0 -1.1875l9.34375 0l0 1.1875l-1.921875 0l0 1.78125l2.515625 0l0 1.1875l-2.515625 0l0 4.46875l-1.484375 0l0 -4.46875l-2.0 0q0.140625 3.265625 -3.34375 4.828125l-0.75 -1.40625q2.609375 -0.96875 2.609375 -3.421875l-2.96875 0zm2.671875 -10.3125l-3.71875 0l0 1.34375l3.71875 0l0 -1.34375zm1.484375 4.96875l-5.203125 0l0 10.40625l-1.484375 0l0 -16.5625l6.6875 0l0 6.15625zm2.296875 4.15625l0 -1.78125l-2.0 0l0 1.78125l2.0 0zm5.1875 -7.78125l0 -1.34375l-4.0 0l0 1.34375l4.0 0zm-4.0 2.4375l4.0 0l0 -1.25l-4.0 0l0 1.25zm-8.6875 0l3.71875 0l0 -1.25l-3.71875 0l0 1.25zm24.5625 2.453125q-0.359375 0.453125 -0.4375 0l-0.375 -1.5625l1.34375 0q0.8125 -2.375 1.703125 -6.234375l1.78125 0.53125q0.4375 0.359375 -0.296875 0.515625q-0.890625 2.671875 -1.78125 5.125l4.453125 -0.296875q-0.671875 -1.125 -1.5625 -2.3125l1.265625 -0.59375q1.703125 1.859375 3.046875 4.53125l-1.484375 0.75l-0.59375 -1.1875l-7.0625 0.734375zm-4.375 -2.671875q-0.375 2.375 -0.96875 4.609375q0.890625 0.59375 1.78125 1.1875q0.53125 -1.859375 0.828125 -5.796875l-1.640625 0zm2.0 6.609375q0.59375 0.4375 1.484375 1.1875l-0.8125 1.5625q-0.515625 -0.59375 -1.328125 -1.265625q-1.1875 1.921875 -3.5 3.421875l-0.953125 -1.1875q2.140625 -1.421875 3.328125 -3.203125q-0.8125 -0.59375 -1.625 -1.265625l-0.375 0.96875l-1.328125 -0.59375q1.109375 -2.75 1.703125 -6.234375l-1.78125 0l0 -1.40625l2.0 0q0.21875 -1.703125 0.453125 -3.484375l1.328125 0.296875q0.75 0.21875 0 0.515625q-0.140625 1.328125 -0.375 2.671875l1.71875 0l0.296875 -0.296875l1.109375 0.734375l-0.21875 0.296875q-0.296875 4.828125 -1.125 7.28125zm8.6875 4.15625l-4.671875 0l0 0.96875l-1.484375 0l0 -7.578125l7.640625 0l0 7.28125l-1.484375 0l0 -0.671875zm0 -1.40625l0 -3.796875l-4.671875 0l0 3.796875l4.671875 0z" fill-rule="nonzero"/><path fill="#cfe2f3" d="m601.0971 42.50656l300.53546 0l0 58.04724l-300.53546 0z" fill-rule="evenodd"/><path stroke="#000000" stroke-width="1.0" stroke-linejoin="round" stroke-linecap="butt" d="m601.0971 42.50656l300.53546 0l0 58.04724l-300.53546 0z" fill-rule="evenodd"/><path fill="#000000" d="m657.5524 73.778305q1.03125 0.59375 1.859375 1.40625l-1.046875 1.03125q-0.890625 -0.953125 -1.78125 -1.484375l0.96875 -0.953125zm0.078125 -3.9375q0.953125 0.515625 1.703125 1.328125l-0.96875 0.96875q-0.671875 -0.734375 -1.625 -1.40625l0.890625 -0.890625zm-4.015625 7.859375l-0.375 1.5625l-1.625 -0.296875q0.671875 -2.21875 1.109375 -5.34375l-2.890625 0l0 -1.40625l3.109375 0q0.453125 -3.34375 0.375 -3.859375l10.390625 0l-0.078125 3.859375l2.671875 0l0 1.40625l-2.734375 0l-0.15625 2.671875l2.75 0l0 1.40625l-2.890625 0l-0.078125 0.828125q-0.15625 1.484375 -1.5625 1.484375l-2.515625 0l-0.15625 -1.40625l2.078125 0q0.59375 0 0.671875 -0.453125l0.078125 -0.453125l-8.171875 0zm-3.859375 -8.75q3.125 -2.296875 4.3125 -5.859375l1.703125 0.4375q0.296875 0.296875 -0.21875 0.375q-0.296875 0.734375 -0.671875 1.328125l10.46875 0l0 1.421875l-11.28125 0q-1.34375 2.078125 -3.125 3.484375l-1.1875 -1.1875zm4.15625 7.34375l8.015625 0l0.15625 -2.671875l-7.796875 0l-0.375 2.671875zm0.515625 -4.078125l7.71875 0l0.078125 -2.453125l-7.5 0l-0.296875 2.453125zm30.515625 7.578125q-4.53125 -1.796875 -6.3125 -6.171875q-1.265625 4.53125 -7.125 6.234375l-0.8125 -1.5625q6.890625 -1.78125 6.890625 -7.78125l0 -2.90625l-0.953125 0q-0.96875 1.9375 -2.75 3.71875l-1.265625 -1.265625q2.890625 -2.890625 3.78125 -6.90625l1.71875 0.453125q0.296875 0.21875 -0.234375 0.515625q-0.21875 0.671875 -0.734375 2.078125l6.609375 0l0.296875 -0.296875l1.25 1.046875q0.296875 0.359375 -0.296875 0.4375q-0.953125 2.375 -3.03125 5.265625l-1.265625 -1.109375q1.78125 -2.21875 2.375 -3.9375l-3.78125 0l0 2.53125q0 5.265625 6.375 7.859375l-0.734375 1.796875zm-10.84375 -6.6875q-2.0 2.21875 -4.15625 3.703125q-0.140625 0.59375 -0.375 0.296875l-1.03125 -1.546875q2.515625 -1.640625 4.53125 -3.640625l1.03125 1.1875zm-2.15625 -4.53125q-1.109375 -1.265625 -2.671875 -2.078125l1.125 -1.484375q1.625 0.75 2.8125 1.9375l-1.265625 1.625zm15.671875 4.828125q4.375 -2.453125 5.640625 -6.3125l-4.984375 0l0 -1.40625l5.34375 0q0.234375 -0.890625 0.375 -2.671875l1.9375 0.375q0.296875 0.296875 -0.234375 0.359375l-0.359375 1.9375l8.90625 0l0 1.40625l-9.203125 0q-0.296875 1.046875 -0.671875 1.703125l7.34375 0l0 9.875q0 1.1875 -1.1875 1.1875l-1.703125 0l-0.375 -1.40625l1.484375 0q0.296875 0 0.296875 -0.296875l0 -2.0l-6.453125 0l0 3.9375l-1.484375 0l0 -8.171875q-1.78125 1.859375 -3.78125 3.046875l-0.890625 -1.5625zm6.15625 -0.296875l0 1.625l6.453125 0l0 -1.625l-6.453125 0zm6.453125 -1.40625l0 -1.484375l-6.453125 0l0 1.484375l6.453125 0zm13.0625 7.046875q3.046875 -1.640625 3.046875 -5.5625l0 -8.546875l1.5625 0.296875l4.0 -1.25l1.109375 1.484375q0.15625 0.4375 -0.515625 0.140625l-4.671875 0.890625l0 3.1875l5.859375 0l0 1.421875l-2.21875 0l0 9.28125l-1.484375 0l0 -9.28125l-2.15625 0l0 2.8125q0 4.375 -3.71875 6.53125l-0.8125 -1.40625zm-1.40625 1.40625l-1.484375 0l0 -4.453125q-1.1875 1.9375 -2.59375 3.046875l-1.125 -1.34375q2.078125 -1.484375 3.5 -3.703125l-3.125 0l0 -1.40625l3.34375 0l0 -1.640625l-3.78125 0l0 -1.40625l5.1875 0l0.8125 -2.671875l-5.484375 0l0 -1.40625l3.265625 0l0 -2.078125l1.40625 0q0.59375 0.0625 0.078125 0.4375l0 1.640625l3.265625 0l0 1.40625l-0.96875 0l-1.03125 2.671875l2.375 0l0 1.40625l-3.640625 0l0 1.640625l3.265625 0l0 1.40625l-3.265625 0l0 0.671875q1.03125 0.296875 2.890625 1.546875l-0.890625 1.484375q-1.03125 -1.03125 -2.0 -1.625l0 4.375zm-2.96875 -11.0625q-0.296875 -1.03125 -0.8125 -2.0l1.40625 -0.4375q0.59375 0.953125 0.890625 2.0l-1.484375 0.4375zm27.3125 -1.1875q-0.75 2.078125 -2.375 3.9375l-1.109375 -1.328125q2.515625 -2.53125 3.1875 -7.203125l1.5625 0.515625q0.65625 0.296875 -0.078125 0.453125q-0.21875 1.03125 -0.59375 2.21875l5.34375 0l-0.375 10.09375q-0.078125 2.96875 -2.375 2.96875l-2.078125 0l-0.21875 -1.40625l1.921875 0q1.046875 0 1.125 -1.34375l0.359375 -8.90625l-4.296875 0zm0.890625 6.90625q-1.046875 -1.484375 -2.296875 -2.671875l1.25 -1.328125q1.484375 1.328125 2.375 2.59375l-1.328125 1.40625zm-8.765625 -8.3125q0.453125 -1.40625 0.828125 -3.265625l1.78125 0.671875q0.296875 0.296875 -0.234375 0.375q-0.21875 0.953125 -0.8125 2.21875l2.75 0l0 12.25l-1.484375 0l0 -0.890625l-3.265625 0l0 1.484375l-1.484375 0l0 -12.84375l1.921875 0zm2.828125 1.40625l-3.265625 0l0 3.265625l3.265625 0l0 -3.265625zm0 4.6875l-3.265625 0l0 3.859375l3.265625 0l0 -3.859375z" fill-rule="nonzero"/><path fill="#000000" d="m749.5951 74.153305l1.65625 -0.140625q0.125 1.0 0.546875 1.640625q0.4375 0.640625 1.34375 1.046875q0.921875 0.390625 2.0625 0.390625q1.0 0 1.78125 -0.296875q0.78125 -0.296875 1.15625 -0.8125q0.375 -0.53125 0.375 -1.15625q0 -0.625 -0.375 -1.09375q-0.359375 -0.46875 -1.1875 -0.796875q-0.546875 -0.203125 -2.390625 -0.640625q-1.828125 -0.453125 -2.5625 -0.84375q-0.96875 -0.5 -1.4375 -1.234375q-0.46875 -0.75 -0.46875 -1.671875q0 -1.0 0.578125 -1.875q0.578125 -0.890625 1.671875 -1.34375q1.109375 -0.453125 2.453125 -0.453125q1.484375 0 2.609375 0.484375q1.140625 0.46875 1.75 1.40625q0.609375 0.921875 0.65625 2.09375l-1.6875 0.125q-0.140625 -1.265625 -0.9375 -1.90625q-0.78125 -0.65625 -2.3125 -0.65625q-1.609375 0 -2.34375 0.59375q-0.734375 0.59375 -0.734375 1.421875q0 0.71875 0.53125 1.171875q0.5 0.46875 2.65625 0.96875q2.15625 0.484375 2.953125 0.84375q1.171875 0.53125 1.71875 1.359375q0.5625 0.828125 0.5625 1.90625q0 1.0625 -0.609375 2.015625q-0.609375 0.9375 -1.75 1.46875q-1.140625 0.515625 -2.578125 0.515625q-1.8125 0 -3.046875 -0.53125q-1.21875 -0.53125 -1.921875 -1.59375q-0.6875 -1.0625 -0.71875 -2.40625zm19.162292 4.296875l0 -1.421875q-1.125 1.640625 -3.0625 1.640625q-0.859375 0 -1.609375 -0.328125q-0.734375 -0.328125 -1.09375 -0.828125q-0.359375 -0.5 -0.5 -1.21875q-0.109375 -0.46875 -0.109375 -1.53125l0 -5.984375l1.640625 0l0 5.359375q0 1.28125 0.109375 1.734375q0.15625 0.640625 0.65625 1.015625q0.5 0.375 1.234375 0.375q0.734375 0 1.375 -0.375q0.65625 -0.390625 0.921875 -1.03125q0.265625 -0.65625 0.265625 -1.890625l0 -5.1875l1.640625 0l0 9.671875l-1.46875 0zm5.5476074 0l-1.515625 0l0 -13.359375l1.640625 0l0 4.765625q1.046875 -1.296875 2.65625 -1.296875q0.890625 0 1.6875 0.359375q0.796875 0.359375 1.3125 1.015625q0.515625 0.640625 0.796875 1.5625q0.296875 0.921875 0.296875 1.96875q0 2.484375 -1.234375 3.84375q-1.21875 1.359375 -2.953125 1.359375q-1.703125 0 -2.6875 -1.4375l0 1.21875zm-0.015625 -4.90625q0 1.734375 0.484375 2.515625q0.765625 1.265625 2.09375 1.265625q1.078125 0 1.859375 -0.9375q0.78125 -0.9375 0.78125 -2.78125q0 -1.890625 -0.75 -2.796875q-0.75 -0.90625 -1.828125 -0.90625q-1.0625 0 -1.859375 0.9375q-0.78125 0.9375 -0.78125 2.703125zm8.875732 -6.546875l0 -1.90625l1.640625 0l0 1.90625l-1.640625 0zm-2.078125 15.203125l0.3125 -1.390625q0.5 0.125 0.78125 0.125q0.5 0 0.734375 -0.328125q0.25 -0.328125 0.25 -1.671875l0 -10.15625l1.640625 0l0 10.203125q0 1.78125 -0.46875 2.484375q-0.59375 0.90625 -1.96875 0.90625q-0.65625 0 -1.28125 -0.171875zm12.863586 -6.859375l1.6875 0.203125q-0.40625 1.484375 -1.484375 2.3125q-1.078125 0.8125 -2.765625 0.8125q-2.125 0 -3.375 -1.296875q-1.234375 -1.3125 -1.234375 -3.671875q0 -2.453125 1.25 -3.796875q1.265625 -1.34375 3.265625 -1.34375q1.9375 0 3.15625 1.328125q1.234375 1.3125 1.234375 3.703125q0 0.15625 0 0.4375l-7.21875 0q0.09375 1.59375 0.90625 2.453125q0.8125 0.84375 2.015625 0.84375q0.90625 0 1.546875 -0.46875q0.640625 -0.484375 1.015625 -1.515625zm-5.390625 -2.65625l5.40625 0q-0.109375 -1.21875 -0.625 -1.828125q-0.78125 -0.953125 -2.03125 -0.953125q-1.125 0 -1.90625 0.765625q-0.765625 0.75 -0.84375 2.015625zm15.453796 2.21875l1.609375 0.21875q-0.265625 1.65625 -1.359375 2.609375q-1.078125 0.9375 -2.671875 0.9375q-1.984375 0 -3.1875 -1.296875q-1.203125 -1.296875 -1.203125 -3.71875q0 -1.578125 0.515625 -2.75q0.515625 -1.171875 1.578125 -1.75q1.0625 -0.59375 2.3125 -0.59375q1.578125 0 2.578125 0.796875q1.0 0.796875 1.28125 2.265625l-1.59375 0.234375q-0.234375 -0.96875 -0.8125 -1.453125q-0.578125 -0.5 -1.390625 -0.5q-1.234375 0 -2.015625 0.890625q-0.78125 0.890625 -0.78125 2.8125q0 1.953125 0.75 2.84375q0.75 0.875 1.953125 0.875q0.96875 0 1.609375 -0.59375q0.65625 -0.59375 0.828125 -1.828125zm6.59375 2.078125l0.234375 1.453125q-0.6875 0.140625 -1.234375 0.140625q-0.890625 0 -1.390625 -0.28125q-0.484375 -0.28125 -0.6875 -0.734375q-0.203125 -0.46875 -0.203125 -1.9375l0 -5.578125l-1.203125 0l0 -1.265625l1.203125 0l0 -2.390625l1.625 -0.984375l0 3.375l1.65625 0l0 1.265625l-1.65625 0l0 5.671875q0 0.6875 0.078125 0.890625q0.09375 0.203125 0.28125 0.328125q0.203125 0.109375 0.578125 0.109375q0.265625 0 0.71875 -0.0625z" fill-rule="nonzero"/><path fill="#000000" d="m825.5835 74.29393l4.828125 -0.15625l-1.484375 -1.109375l0.96875 -0.734375q2.375 1.40625 3.78125 2.96875l-1.109375 0.953125l-1.046875 -1.109375l-5.1875 0.453125l0 4.53125l-1.484375 0l0 -4.46875l-6.09375 0.375q-0.0625 0.515625 -0.359375 0.21875l-0.375 -1.78125l5.640625 -0.0625l0.515625 -0.375l-3.484375 -1.78125l0.734375 -1.109375l1.34375 0.65625l1.703125 -1.703125l-3.703125 0l0 0.515625l-1.265625 0l0 -6.890625l12.171875 0l0 6.671875l-1.265625 0l0 -0.296875l-4.96875 0l0.515625 0.296875q0.375 0.375 -0.296875 0.296875l-1.78125 1.703125l1.40625 0.75l2.828125 -2.59375l1.1875 0.8125q0.296875 0.4375 -0.296875 0.375l-3.421875 2.59375zm3.640625 1.703125q1.78125 1.265625 4.234375 2.0l-0.59375 1.5q-2.59375 -0.75 -4.53125 -2.390625l0.890625 -1.109375zm-6.015625 1.265625q0.15625 0.515625 -0.359375 0.296875q-2.453125 1.9375 -4.015625 2.453125l-0.734375 -1.484375q2.296875 -0.890625 4.21875 -2.53125l0.890625 1.265625zm2.96875 -8.390625l4.234375 0l0 -1.40625l-4.234375 0l0 1.40625zm-1.25 -1.40625l-4.15625 0l0 1.40625l4.15625 0l0 -1.40625zm5.484375 -2.59375l-4.234375 0l0 1.40625l4.234375 0l0 -1.40625zm-5.484375 0l-4.15625 0l0 1.40625l4.15625 0l0 -1.40625zm18.171875 3.265625l-2.21875 0l0 1.25q0 6.234375 -3.640625 10.171875l-1.265625 -1.109375q3.421875 -3.859375 3.421875 -9.125l0 -1.1875l-2.75 0l0 -1.421875l2.75 0l0 -3.328125l1.40625 0q0.59375 0.0625 0.078125 0.4375l0 2.890625l3.703125 0l0 7.0625q0 2.96875 -0.4375 4.078125q-0.515625 1.265625 -2.15625 1.265625l-1.1875 0l-0.140625 -1.640625l1.1875 0q0.734375 0 0.953125 -0.671875q0.296875 -0.734375 0.296875 -2.8125l0 -5.859375zm2.75 -2.234375l6.53125 0l0 12.703125l-1.484375 0l0 -0.90625l-3.5625 0l0 1.203125l-1.484375 0l0 -13.0zm1.484375 1.40625l0 8.984375l3.5625 0l0 -8.984375l-3.5625 0z" fill-rule="nonzero"/><path fill="#000000" fill-opacity="0.0" d="m224.00525 71.53018l99.90552 0" fill-rule="evenodd"/><path stroke="#000000" stroke-width="1.0" stroke-linejoin="round" stroke-linecap="butt" d="m224.00525 71.53018l93.90552 0" fill-rule="evenodd"/><path fill="#000000" stroke="#000000" stroke-width="1.0" stroke-linecap="butt" d="m317.91077 73.181915l4.538086 -1.6517334l-4.538086 -1.6517334z" fill-rule="evenodd"/><path fill="#000000" fill-opacity="0.0" d="m501.1811 71.53018l99.90552 0" fill-rule="evenodd"/><path stroke="#000000" stroke-width="1.0" stroke-linejoin="round" stroke-linecap="butt" d="m501.1811 71.53018l93.90552 0" fill-rule="evenodd"/><path fill="#000000" stroke="#000000" stroke-width="1.0" stroke-linecap="butt" d="m595.0866 73.181915l4.538086 -1.6517334l-4.538086 -1.6517334z" fill-rule="evenodd"/></g></svg>