<svg version="1.1" viewBox="0.0 0.0 948.6509186351706 118.83202099737532" fill="none" stroke="none" stroke-linecap="square" stroke-miterlimit="10" xmlns:xlink="http://www.w3.org/1999/xlink" xmlns="http://www.w3.org/2000/svg"><clipPath id="p.0"><path d="m0 0l948.65094 0l0 118.83202l-948.65094 0l0 -118.83202z" clip-rule="nonzero"/></clipPath><g clip-path="url(#p.0)"><path fill="#000000" fill-opacity="0.0" d="m0 0l948.65094 0l0 118.83202l-948.65094 0z" fill-rule="evenodd"/><path fill="#ffffff" d="m0.005249344 0l963.33856 0l0 118.83465l-963.33856 0z" fill-rule="evenodd"/><path stroke="#ffffff" stroke-width="1.0" stroke-linejoin="round" stroke-linecap="butt" d="m0.005249344 0l963.33856 0l0 118.83465l-963.33856 0z" fill-rule="evenodd"/><path fill="#000000" fill-opacity="0.0" d="m592.8399 77.13367l0 -35.11811" fill-rule="evenodd"/><path stroke="#000000" stroke-width="1.0" stroke-linejoin="round" stroke-linecap="butt" d="m592.8399 77.13367l0 -35.11811" fill-rule="evenodd"/><path fill="#000000" fill-opacity="0.0" d="m439.85016 0l96.37793 0l0 42.015747l-96.37793 0z" fill-rule="evenodd"/><path fill="#000000" d="m458.35016 26.029373q-0.296875 -0.515625 -1.265625 -1.640625l1.265625 -0.734375q1.109375 0.96875 1.40625 1.5625l-1.40625 0.8125zm-5.265625 -1.1875q0.4375 0.375 -0.21875 0.4375q-0.53125 1.34375 -1.640625 2.6875l-1.484375 -0.96875q1.046875 -1.1875 1.859375 -2.90625l1.484375 0.75zm5.71875 -11.953125l5.9375 0l0 1.1875l-2.609375 0l-0.8125 1.703125l5.34375 0l0 1.1875l-17.0625 0l0 -1.1875l4.96875 0l-0.59375 -1.703125l-2.53125 0l0 -1.1875l5.875 0l0 -1.328125l1.40625 0q0.59375 0.0625 0.078125 0.4375l0 0.890625zm-2.75 2.890625l3.703125 0l0.828125 -1.703125l-5.125 0l0.59375 1.703125zm9.203125 11.8125q-0.890625 -1.421875 -2.296875 -2.828125l1.328125 -0.890625q1.484375 1.265625 2.453125 2.828125l-1.484375 0.890625zm-9.578125 -3.640625q0.59375 0.078125 0.078125 0.4375l0 1.78125q0 0.59375 0.515625 0.59375l4.75 0q0.375 0 0.375 -0.296875l0.078125 -1.109375l1.484375 0.296875l-0.078125 1.109375q-0.078125 1.421875 -1.40625 1.421875l-5.875 0q-1.328125 0 -1.328125 -1.265625l0 -2.96875l1.40625 0zm6.453125 -2.671875l-8.3125 0l0 0.96875l8.3125 0l0 -0.96875zm1.265625 2.15625l-10.828125 0l0 -5.5l10.828125 0l0 5.5zm-1.265625 -3.34375l0 -0.96875l-8.3125 0l0 0.96875l8.3125 0zm20.265625 5.125q-0.140625 2.890625 -1.78125 2.890625l-5.71875 0q-1.328125 0 -1.328125 -1.484375l0 -5.265625l1.40625 0q0.59375 0.0625 0.078125 0.4375l0 4.3125q0 0.59375 0.515625 0.59375l4.453125 0q0.515625 0 0.59375 -0.53125l0.21875 -1.328125l1.5625 0.375zm-10.3125 -2.375q-0.296875 2.375 -1.484375 4.75l-1.484375 -0.890625q1.109375 -2.078125 1.484375 -4.828125l1.5625 0.4375q0.59375 0.234375 -0.078125 0.53125zm6.015625 -7.28125l0 2.75l5.78125 0l0 1.40625l-13.203125 0l0 -1.40625l5.9375 0l0 -2.75l-7.125 0l0 -1.40625l7.125 0l0 -2.453125l1.40625 0q0.59375 0.078125 0.078125 0.453125l0 2.0l6.96875 0l0 1.40625l-6.96875 0zm6.234375 11.28125q-1.421875 -2.671875 -2.75 -4.15625l1.1875 -1.03125q1.625 1.703125 3.046875 4.0l-1.484375 1.1875zm-6.828125 -6.375q1.25 1.40625 2.140625 2.8125l-1.328125 1.109375q-0.96875 -1.625 -2.078125 -2.96875l1.265625 -0.953125zm16.09375 0.21875l-0.4375 5.640625q-0.15625 2.296875 -2.15625 2.296875l-2.078125 0l-0.140625 -1.40625l2.078125 0q0.734375 0 0.8125 -0.890625l0.375 -4.453125l-2.375 0l-0.078125 0.515625l-1.5625 -0.21875q0.453125 -2.375 0.75 -5.71875l3.484375 0l0 -2.8125l-4.234375 0l0 -1.1875l5.5 0l0 5.703125l-1.265625 0l0 -0.515625l-2.15625 0q-0.078125 1.703125 -0.375 3.046875l3.859375 0zm9.28125 6.390625q-4.453125 0.8125 -7.9375 1.109375q-0.453125 0.59375 -0.515625 0l-0.296875 -1.484375q2.296875 -0.078125 4.453125 -0.296875l0 -2.671875l-2.375 0l0 0.59375l-1.265625 0l0 -5.28125l3.640625 0l0 -2.0q-1.859375 0.15625 -3.5 0.296875q-0.4375 0.8125 -0.59375 -0.078125l-0.296875 -1.546875q0.890625 0.0625 1.78125 0q1.1875 -1.71875 2.3125 -4.09375l1.546875 0.59375q0.453125 0.234375 -0.21875 0.375q-1.03125 1.859375 -1.921875 3.125q1.78125 -0.078125 3.625 -0.234375q-0.890625 -0.953125 -1.109375 -1.1875l1.1875 -0.890625q1.78125 1.640625 3.265625 3.5625l-1.328125 0.96875q-0.375 -0.515625 -1.046875 -1.328125l-2.453125 0.296875l0 2.140625l3.796875 0l0 4.6875l-3.796875 0l0 2.59375q1.421875 -0.15625 2.453125 -0.296875q-0.4375 -0.671875 -1.03125 -1.34375l1.03125 -0.734375q1.640625 1.5625 2.671875 3.484375l-1.40625 0.828125q-0.15625 -0.453125 -0.671875 -1.1875zm-6.671875 -4.53125l2.375 0l0 -2.3125l-2.375 0l0 2.3125zm3.625 0l2.53125 0l0 -2.3125l-2.53125 0l0 2.3125zm23.390625 6.078125q-3.5625 -0.4375 -6.3125 -1.859375q-2.59375 1.5625 -6.234375 1.9375l-0.59375 -1.5625q3.34375 -0.296875 5.5625 -1.40625q-1.1875 -1.1875 -2.15625 -2.53125l-2.078125 0l0 -1.1875l8.6875 0l0.21875 -0.21875l1.125 0.890625q0.296875 0.453125 -0.296875 0.375q-1.265625 1.484375 -3.046875 2.75q2.59375 0.890625 5.484375 1.109375l-0.359375 1.703125zm-6.765625 -15.140625l6.6875 0l0 1.40625l-13.140625 0l0 6.53125q0 4.15625 -1.859375 6.984375l-1.328125 -1.109375q1.703125 -2.3125 1.703125 -6.171875l0 -7.640625l6.234375 0l0 -1.921875l1.640625 0q0.59375 0.0625 0.0625 0.4375l0 1.484375zm0.453125 11.5q0.890625 -0.59375 2.078125 -1.78125l-3.859375 0q0.734375 0.890625 1.78125 1.78125zm2.671875 -4.0l-1.484375 0l0 -0.453125l-3.1875 0l0 0.53125l-1.484375 0l0 -2.96875l-2.96875 0l0 -1.1875l2.96875 0l0 -1.421875l1.40625 0q0.59375 0.078125 0.078125 0.453125l0 0.96875l3.1875 0l0 -1.5625l1.40625 0q0.59375 0.078125 0.078125 0.4375l0 1.125l3.5625 0l0 1.1875l-3.5625 0l0 2.890625zm-1.484375 -2.890625l-3.1875 0l0 1.25l3.1875 0l0 -1.25z" fill-rule="nonzero"/><path fill="#000000" fill-opacity="0.0" d="m96.69969 76.824875l782.6771 0" fill-rule="evenodd"/><path stroke="#000000" stroke-width="1.0" stroke-linejoin="round" stroke-linecap="butt" d="m96.69969 76.824875l776.6772 0" fill-rule="evenodd"/><path fill="#000000" stroke="#000000" stroke-width="1.0" stroke-linecap="butt" d="m873.3769 78.47661l4.538086 -1.6517334l-4.538086 -1.6517334z" fill-rule="evenodd"/><path fill="#000000" fill-opacity="0.0" d="m849.8058 76.82415l56.188965 0l0 42.015747l-56.188965 0z" fill-rule="evenodd"/><path fill="#000000" fill-opacity="0.0" d="m384.9239 77.13367l0 -35.11811" fill-rule="evenodd"/><path stroke="#000000" stroke-width="1.0" stroke-linejoin="round" stroke-linecap="butt" d="m384.9239 77.13367l0 -35.11811" fill-rule="evenodd"/><path fill="#000000" fill-opacity="0.0" d="m320.4173 76.82415l125.35434 0l0 42.015747l-125.35434 0z" fill-rule="evenodd"/><path fill="#000000" d="m338.9173 102.85352q-0.296875 -0.515625 -1.265625 -1.640625l1.265625 -0.734375q1.109375 0.96875 1.40625 1.5625l-1.40625 0.8125zm-5.265625 -1.1875q0.4375 0.375 -0.21875 0.4375q-0.53125 1.34375 -1.640625 2.6875l-1.484375 -0.96875q1.046875 -1.1875 1.859375 -2.90625l1.484375 0.75zm5.71875 -11.953125l5.9375 0l0 1.1875l-2.609375 0l-0.8125 1.703125l5.34375 0l0 1.1875l-17.0625 0l0 -1.1875l4.96875 0l-0.59375 -1.703125l-2.53125 0l0 -1.1875l5.875 0l0 -1.328125l1.40625 0q0.59375 0.0625 0.078125 0.4375l0 0.890625zm-2.75 2.890625l3.703125 0l0.828125 -1.703125l-5.125 0l0.59375 1.703125zm9.203125 11.8125q-0.890625 -1.421875 -2.296875 -2.828125l1.328125 -0.890625q1.484375 1.265625 2.453125 2.828125l-1.484375 0.890625zm-9.578125 -3.640625q0.59375 0.078125 0.078125 0.4375l0 1.78125q0 0.59375 0.515625 0.59375l4.75 0q0.375 0 0.375 -0.296875l0.078125 -1.109375l1.484375 0.296875l-0.078125 1.109375q-0.078125 1.421875 -1.40625 1.421875l-5.875 0q-1.328125 0 -1.328125 -1.265625l0 -2.96875l1.40625 0zm6.453125 -2.671875l-8.3125 0l0 0.96875l8.3125 0l0 -0.96875zm1.265625 2.15625l-10.828125 0l0 -5.5l10.828125 0l0 5.5zm-1.265625 -3.34375l0 -0.96875l-8.3125 0l0 0.96875l8.3125 0zm9.4375 -4.453125l0 12.46875l-1.484375 0l0 -13.875l5.265625 0l1.109375 -2.75l1.78125 0.671875q0.296875 0.296875 -0.21875 0.359375l-1.109375 1.71875l7.640625 0l0 12.765625q0 1.1875 -1.1875 1.1875l-2.15625 0l-0.140625 -1.640625l1.703125 0q0.296875 0 0.296875 -0.296875l0 -10.609375l-11.5 0zm3.78125 3.78125l0 3.125l3.9375 0l0 -3.125l-3.9375 0zm3.9375 5.421875l0 -0.890625l-3.9375 0l0 1.328125l-1.484375 0l0 -7.265625l6.90625 0l0 6.828125l-1.484375 0z" fill-rule="nonzero"/><path fill="#000000" d="m372.6673 103.74415l-5.171875 -13.359375l1.921875 0l3.46875 9.703125q0.421875 1.171875 0.703125 2.1875q0.3125 -1.09375 0.71875 -2.1875l3.609375 -9.703125l1.796875 0l-5.234375 13.359375l-1.8125 0z" fill-rule="nonzero"/><path fill="#000000" d="m384.76712 88.9004l1.546875 0q0.828125 0.140625 0.15625 0.59375l0.140625 3.5625q0.078125 1.5625 0.53125 2.515625q2.078125 -0.890625 5.5625 -1.84375l0.734375 1.921875q-7.046875 1.265625 -9.421875 3.640625q-0.8125 0.8125 -0.8125 1.703125q0 0.671875 0.515625 1.1875q0.515625 0.515625 2.15625 0.515625l7.125 0l0 1.640625l-7.203125 0q-2.453125 0 -3.40625 -0.96875q-0.96875 -0.96875 -0.96875 -2.21875q0 -1.640625 1.1875 -2.828125q0.890625 -0.890625 2.96875 -2.078125q-0.453125 -1.109375 -0.515625 -2.453125l-0.296875 -4.890625zm22.1875 12.765625l1.5625 0.375l-0.15625 1.546875q-0.140625 1.421875 -1.625 1.421875l-5.5 0q-1.40625 0 -1.40625 -1.484375l0 -4.75l1.40625 0q0.59375 0.0625 0.078125 0.4375l0 3.78125q0 0.59375 0.515625 0.59375l4.3125 0q0.59375 0 0.65625 -0.515625l0.15625 -1.40625zm2.15625 -2.75q1.484375 1.640625 3.1875 4.15625l-1.484375 1.046875q-1.5625 -2.75 -2.96875 -4.390625l1.265625 -0.8125zm-9.875 -6.453125l3.9375 0l0 -2.234375l-3.9375 0l0 2.234375zm9.34375 0l0 -2.234375l-3.921875 0l0 2.234375l3.921875 0zm0 5.1875l0 -0.59375l-9.34375 0l0 0.828125l-1.484375 0l0 -8.84375l12.3125 0l0 8.609375l-1.484375 0zm-3.921875 -1.78125l3.921875 0l0 -2.21875l-3.921875 0l0 2.21875zm-5.421875 0l3.9375 0l0 -2.21875l-3.9375 0l0 2.21875zm5.046875 5.71875q-0.75 -1.703125 -1.78125 -3.046875l1.265625 -0.8125q1.25 1.40625 2.0 2.96875l-1.484375 0.890625zm-5.5625 -1.328125q-0.59375 2.375 -1.78125 4.375l-1.421875 -1.046875q1.125 -1.703125 1.78125 -4.21875l1.421875 0.4375q0.59375 0.15625 0 0.453125zm18.625 3.484375q3.046875 -0.671875 4.75 -2.375q1.40625 -1.40625 1.40625 -3.34375q0 -1.328125 -0.734375 -2.078125q-0.671875 -0.671875 -1.71875 -0.59375q-2.078125 0.21875 -5.9375 1.484375l-0.8125 -1.921875q2.828125 -0.53125 5.265625 -1.125q1.265625 -0.296875 1.9375 -0.296875q1.625 0 2.671875 1.046875q1.1875 1.1875 1.1875 3.40625q0 2.90625 -2.0 4.90625q-1.78125 1.78125 -4.828125 2.59375l-1.1875 -1.703125zm6.15625 -12.171875q-2.96875 -0.296875 -7.203125 -1.1875l0.453125 -1.859375q4.15625 0.96875 7.125 1.265625l-0.375 1.78125z" fill-rule="nonzero"/><path fill="#000000" fill-opacity="0.0" d="m224.92389 77.13367l0 -35.11811" fill-rule="evenodd"/><path stroke="#000000" stroke-width="1.0" stroke-linejoin="round" stroke-linecap="butt" d="m224.92389 77.13367l0 -35.11811" fill-rule="evenodd"/><path fill="#000000" fill-opacity="0.0" d="m188.43155 76.82415l74.74017 0l0 42.015747l-74.74017 0z" fill-rule="evenodd"/><path fill="#000000" d="m202.68155 103.74415l-5.171875 -13.359375l1.921875 0l3.46875 9.703125q0.421875 1.171875 0.703125 2.1875q0.3125 -1.09375 0.71875 -2.1875l3.609375 -9.703125l1.796875 0l-5.234375 13.359375l-1.8125 0z" fill-rule="nonzero"/><path fill="#000000" d="m226.12512 102.7754l0 1.640625l-3.265625 0q-2.8125 0 -5.34375 -1.34375l0.671875 -1.328125q1.9375 1.03125 4.671875 1.03125l3.265625 0zm-10.234375 -8.6875q-1.109375 6.609375 -2.75 10.46875l-1.625 -0.515625q2.0 -4.671875 2.8125 -9.796875q-1.78125 0.140625 -3.1875 0.140625l-0.296875 -1.484375q2.078125 0 3.703125 -0.140625q0.296875 -2.296875 0.53125 -4.015625l1.484375 0.296875q0.8125 0.234375 0.140625 0.59375q-0.21875 0.890625 -0.59375 2.96875q1.703125 -0.21875 3.125 -0.59375l0.296875 1.484375q-1.9375 0.375 -3.640625 0.59375zm9.875 2.53125q-4.3125 0.140625 -6.765625 1.1875l-0.4375 -1.484375q3.1875 -1.265625 6.90625 -1.265625l0.296875 1.5625zm9.9375 3.40625q-0.671875 1.71875 -1.40625 2.609375q-1.046875 1.265625 -2.078125 1.265625q-1.859375 0 -2.75 -2.15625q-0.515625 -1.265625 -0.515625 -5.421875q0 -2.96875 0.296875 -6.015625l1.5625 0.375q0.890625 0.21875 0.0625 0.734375q-0.296875 2.75 -0.296875 4.984375q0 3.03125 0.375 4.296875q0.375 1.265625 1.109375 1.265625q0.828125 0 1.421875 -1.1875q0.359375 -0.75 0.734375 -1.78125l1.484375 1.03125zm4.375 -8.671875q3.34375 3.484375 4.09375 8.453125l-2.015625 0.515625q-0.890625 -5.1875 -3.625 -8.078125l1.546875 -0.890625z" fill-rule="nonzero"/><path fill="#000000" fill-opacity="0.0" d="m530.9002 77.13386l125.35437 0l0 42.015747l-125.35437 0z" fill-rule="evenodd"/><path fill="#000000" d="m545.1502 104.053856l-5.171875 -13.359375l1.921875 0l3.46875 9.703125q0.421875 1.171875 0.703125 2.1875q0.3125 -1.09375 0.71875 -2.1875l3.609375 -9.703125l1.796875 0l-5.234375 13.359375l-1.8125 0z" fill-rule="nonzero"/><path fill="#000000" d="m562.81256 103.678856q1.1875 -0.140625 2.0 -0.96875q0.890625 -0.890625 0.890625 -2.375q0 -1.625 -0.96875 -2.59375q-0.953125 -0.96875 -3.03125 -0.96875q-2.453125 0 -3.796875 0.96875q-1.25 0.890625 -3.265625 3.1875l-1.25 -1.109375q5.34375 -5.34375 8.078125 -8.90625q-2.4375 0.296875 -4.890625 0.515625l-0.515625 -1.703125q3.625 0 6.453125 -0.375l0.671875 -0.296875l0.8125 0.828125q0.8125 0.734375 -0.375 0.953125q-2.21875 2.53125 -4.453125 4.984375q1.5625 -0.375 2.59375 -0.375q2.828125 0 4.15625 1.328125q1.34375 1.34375 1.34375 3.421875q0 2.15625 -1.1875 3.34375q-1.78125 1.78125 -4.53125 1.78125q-2.59375 0 -3.78125 -1.1875q-0.96875 -0.96875 -0.96875 -2.3125q0 -0.890625 0.671875 -1.546875q0.734375 -0.75 1.703125 -0.75q1.34375 0 2.234375 0.890625q1.03125 1.046875 1.40625 3.265625zm-1.484375 0.21875q-0.21875 -1.921875 -0.890625 -2.59375q-0.515625 -0.515625 -1.046875 -0.515625q-0.59375 0 -0.890625 0.296875q-0.359375 0.375 -0.359375 0.8125q0 0.671875 0.59375 1.265625q0.734375 0.734375 1.921875 0.734375q0.296875 0 0.671875 0zm13.730469 -2.078125q5.5625 -0.0625 7.34375 -1.84375q1.109375 -1.125 1.109375 -2.75q0 -1.703125 -1.1875 -2.890625q-0.890625 -0.890625 -3.109375 -0.890625q-1.859375 0 -4.375 0.890625q-1.9375 0.65625 -4.234375 1.703125l-0.8125 -1.9375l4.15625 -1.1875q3.625 -1.03125 5.484375 -1.03125q2.96875 0 4.375 1.40625q1.421875 1.40625 1.421875 3.78125q0 2.53125 -1.34375 3.859375q-2.515625 2.53125 -8.390625 2.609375l-0.4375 -1.71875zm18.109375 -1.40625q-0.15625 1.640625 0.671875 2.453125q0.8125 0.8125 2.296875 0.8125q1.921875 0 2.59375 -0.671875q0.671875 -0.65625 0.671875 -2.21875q0 -1.109375 -0.453125 -2.671875l1.5625 -0.21875q0.515625 2.078125 0.515625 2.8125q0 2.296875 -1.109375 3.421875q-1.1875 1.1875 -3.859375 1.1875q-2.15625 0 -3.40625 -1.265625q-1.1875 -1.1875 -1.046875 -3.265625l0.15625 -2.234375l-3.796875 0l0 -1.40625l4.015625 0l0.296875 -2.890625l-3.484375 0l0 -1.40625l3.703125 0l0.375 -4.234375l1.625 0.21875q0.828125 0.21875 0.15625 0.59375l-0.59375 3.421875l2.890625 0l0 1.40625l-3.109375 0l-0.296875 2.890625l3.5625 0l0 1.40625l-3.796875 0l-0.140625 1.859375zm19.226562 -3.265625q0 -5.046875 -0.296875 -7.796875l1.484375 0q0.8125 0.078125 0.140625 0.59375q0.21875 2.375 0.21875 7.28125q0 5.5625 -5.265625 8.390625l-1.265625 -1.265625q4.984375 -2.375 4.984375 -7.203125zm-5.046875 2.453125q-0.671875 0.515625 -1.484375 0.515625q-0.53125 0 -0.96875 -0.4375q-0.515625 -0.53125 -0.515625 -4.453125q0 -2.96875 0.296875 -5.421875l1.625 0q0.59375 0.21875 0 0.515625q-0.375 1.78125 -0.375 4.90625q0 3.1875 0.296875 3.1875q0.234375 0 0.59375 -0.296875q0.53125 -0.453125 1.71875 -2.0l1.109375 1.109375q-1.265625 1.5625 -2.296875 2.375zm24.863281 -2.671875q-4.3125 0.140625 -6.765625 1.1875l-0.4375 -1.484375q3.1875 -1.265625 6.90625 -1.265625l0.296875 1.5625zm0.359375 6.15625l0 1.640625l-3.265625 0q-2.8125 0 -5.34375 -1.34375l0.671875 -1.328125q1.9375 1.03125 4.671875 1.03125l3.265625 0zm-6.59375 -9.28125q-1.9375 0.375 -3.640625 0.59375q-1.109375 6.609375 -2.75 10.46875l-1.625 -0.515625q2.0 -4.671875 2.8125 -9.796875q-1.859375 0.140625 -3.1875 0.140625l-0.296875 -1.484375q2.078125 0 3.703125 -0.140625q0.296875 -2.296875 0.53125 -4.015625l1.484375 0.296875q0.8125 0.234375 0.140625 0.59375q-0.21875 0.890625 -0.59375 2.96875q1.703125 -0.21875 3.125 -0.59375l0.296875 1.484375zm4.453125 -5.046875q1.1875 0.671875 2.890625 1.9375l-0.671875 1.03125q-1.625 -1.1875 -2.890625 -1.921875l0.671875 -1.046875zm-1.484375 1.484375q1.328125 0.828125 2.890625 1.9375l-0.671875 1.03125q-1.625 -1.109375 -2.890625 -1.921875l0.671875 -1.046875z" fill-rule="nonzero"/><path fill="#000000" fill-opacity="0.0" d="m703.2633 76.82415l125.35437 0l0 42.015747l-125.35437 0z" fill-rule="evenodd"/><path fill="#000000" d="m717.5133 103.74415l-5.171875 -13.359375l1.921875 0l3.46875 9.703125q0.421875 1.171875 0.703125 2.1875q0.3125 -1.09375 0.71875 -2.1875l3.609375 -9.703125l1.796875 0l-5.234375 13.359375l-1.8125 0z" fill-rule="nonzero"/><path fill="#000000" d="m735.17566 103.36915q1.1875 -0.140625 2.0 -0.96875q0.890625 -0.890625 0.890625 -2.375q0 -1.625 -0.96875 -2.59375q-0.953125 -0.96875 -3.03125 -0.96875q-2.453125 0 -3.796875 0.96875q-1.25 0.890625 -3.265625 3.1875l-1.25 -1.109375q5.34375 -5.34375 8.078125 -8.90625q-2.4375 0.296875 -4.890625 0.515625l-0.515625 -1.703125q3.625 0 6.453125 -0.375l0.671875 -0.296875l0.8125 0.828125q0.8125 0.734375 -0.375 0.953125q-2.21875 2.53125 -4.453125 4.984375q1.5625 -0.375 2.59375 -0.375q2.828125 0 4.15625 1.328125q1.34375 1.34375 1.34375 3.421875q0 2.15625 -1.1875 3.34375q-1.78125 1.78125 -4.53125 1.78125q-2.59375 0 -3.78125 -1.1875q-0.96875 -0.96875 -0.96875 -2.3125q0 -0.890625 0.671875 -1.546875q0.734375 -0.75 1.703125 -0.75q1.34375 0 2.234375 0.890625q1.03125 1.046875 1.40625 3.265625zm-1.484375 0.21875q-0.21875 -1.921875 -0.890625 -2.59375q-0.515625 -0.515625 -1.046875 -0.515625q-0.59375 0 -0.890625 0.296875q-0.359375 0.375 -0.359375 0.8125q0 0.671875 0.59375 1.265625q0.734375 0.734375 1.921875 0.734375q0.296875 0 0.671875 0zm17.808594 -10.015625l1.046875 0.75l-0.59375 0.734375l4.8125 0l0.296875 -0.296875l1.34375 1.109375q0.296875 0.453125 -0.21875 0.375q-2.078125 2.828125 -4.828125 4.53125l-0.890625 -1.1875q2.296875 -1.5625 3.5625 -3.125l-4.828125 0l0 7.578125q0 1.1875 -1.1875 1.1875l-1.78125 0l-0.21875 -1.40625l1.40625 0q0.296875 0 0.296875 -0.296875l0 -7.0625l-7.046875 0l0 -1.40625l8.015625 0q-2.296875 -1.484375 -4.078125 -2.296875l1.03125 -1.1875q1.265625 0.4375 2.671875 1.265625l2.96875 -2.015625l-9.203125 0l0 -1.40625l10.609375 0l0.296875 -0.21875l1.1875 1.265625q0.296875 0.515625 -0.296875 0.359375l-4.375 2.75zm9.875 10.546875q3.640625 -2.234375 3.5625 -7.125l1.703125 0.296875q0.21875 0.21875 -0.140625 0.4375l-0.375 2.671875q1.109375 1.34375 2.890625 2.296875l0 -7.1875l-5.046875 0l0 -1.421875l11.203125 0l0 1.421875l-4.671875 0l0 2.734375l5.203125 0l0 1.421875l-5.203125 0l0 3.5625q1.109375 0.296875 2.234375 0.296875l4.890625 0l-0.296875 1.40625l-4.59375 0q-4.3125 0 -7.0625 -3.125q-1.109375 2.453125 -3.109375 3.71875l-1.1875 -1.40625zm9.046875 -13.59375l6.828125 0l0 3.9375l-1.484375 0l0 -2.515625l-12.3125 0l0 2.671875l-1.484375 0l0 -4.09375l6.75 0l0 -2.140625l1.640625 0q0.734375 0.140625 0.0625 0.59375l0 1.546875zm24.578125 6.09375q-4.3125 0.140625 -6.765625 1.1875l-0.4375 -1.484375q3.1875 -1.265625 6.90625 -1.265625l0.296875 1.5625zm0.359375 6.15625l0 1.640625l-3.265625 0q-2.8125 0 -5.34375 -1.34375l0.671875 -1.328125q1.9375 1.03125 4.671875 1.03125l3.265625 0zm-6.59375 -9.28125q-1.9375 0.375 -3.640625 0.59375q-1.109375 6.609375 -2.75 10.46875l-1.625 -0.515625q2.0 -4.671875 2.8125 -9.796875q-1.859375 0.140625 -3.1875 0.140625l-0.296875 -1.484375q2.078125 0 3.703125 -0.140625q0.296875 -2.296875 0.53125 -4.015625l1.484375 0.296875q0.8125 0.234375 0.140625 0.59375q-0.21875 0.890625 -0.59375 2.96875q1.703125 -0.21875 3.125 -0.59375l0.296875 1.484375zm4.453125 -5.046875q1.1875 0.671875 2.890625 1.9375l-0.671875 1.03125q-1.625 -1.1875 -2.890625 -1.921875l0.671875 -1.046875zm-1.484375 1.484375q1.328125 0.828125 2.890625 1.9375l-0.671875 1.03125q-1.625 -1.109375 -2.890625 -1.921875l0.671875 -1.046875z" fill-rule="nonzero"/><path fill="#000000" fill-opacity="0.0" d="m760.8399 77.13367l0 -35.11811" fill-rule="evenodd"/><path stroke="#000000" stroke-width="1.0" stroke-linejoin="round" stroke-linecap="butt" d="m760.8399 77.13367l0 -35.11811" fill-rule="evenodd"/><path fill="#000000" fill-opacity="0.0" d="m877.85046 77.13367l0 -35.11811" fill-rule="evenodd"/><path stroke="#000000" stroke-width="1.0" stroke-linejoin="round" stroke-linecap="butt" d="m877.85046 77.13367l0 -35.11811" fill-rule="evenodd"/><path fill="#000000" fill-opacity="0.0" d="m844.6457 0l66.299194 0l0 42.015747l-66.299194 0z" fill-rule="evenodd"/><path fill="#000000" d="m862.0363 27.138748q0.296875 0 0.296875 -0.296875l0 -1.484375l-5.859375 0l0 -1.1875l5.859375 0l0 -1.1875l-7.796875 0l0 -1.1875l7.796875 0l0 -1.109375l-5.859375 0l0 -1.1875l5.859375 0l0 -1.046875l-2.53125 0l-2.4375 0l0 -3.1875l4.96875 0l0 -0.96875l-7.34375 0l0 -1.1875l7.34375 0l0 -1.703125l1.40625 0q0.59375 0.078125 0.078125 0.453125l0 1.25l7.125 0l0 1.1875l-7.125 0l0 0.96875l4.828125 0l0 3.1875l-4.828125 0l0 1.046875l5.71875 0l0 2.296875l2.0 0l0 1.1875l-2.0 0l0 2.828125l-1.484375 0l0 -0.453125l-4.234375 0l0 2.015625q0 1.1875 -1.1875 1.1875l-1.640625 0l-0.21875 -1.421875l1.265625 0zm-3.421875 -9.578125l3.71875 0l0 -1.40625l-3.71875 0l0 1.40625zm5.203125 0l3.5625 0l0 -1.40625l-3.5625 0l0 1.40625zm0 6.609375l4.234375 0l0 -1.1875l-4.234375 0l0 1.1875zm4.234375 -2.375l0 -1.109375l-4.234375 0l0 1.109375l4.234375 0zm14.765625 -4.96875l4.96875 0l0 1.40625l-4.96875 0l0 1.109375l5.484375 0l0 1.421875l-5.484375 0l0 1.1875l7.640625 0l0 1.40625l-7.203125 0q1.640625 2.21875 7.203125 3.40625l-0.515625 1.71875q-5.859375 -1.40625 -7.640625 -4.453125q-1.78125 3.78125 -7.796875 4.671875l-0.59375 -1.5625q5.5625 -0.8125 6.96875 -3.78125l-7.046875 0l0 -1.40625l7.5 0l0 -1.1875l-5.265625 0l0 -1.421875l5.265625 0l0 -1.109375l-4.90625 0l0 -1.40625l4.90625 0l0 -1.484375l1.40625 0q0.59375 0.078125 0.078125 0.4375l0 1.046875zm-8.53125 -3.484375l7.046875 0l0 -1.71875l1.625 0q0.75 0.15625 0.078125 0.59375l0 1.125l6.984375 0l0 4.0l-1.484375 0l0 -2.59375l-12.765625 0l0 2.59375l-1.484375 0l0 -4.0z" fill-rule="nonzero"/></g></svg>