<svg version="1.1" viewBox="0.0 0.0 958.2467191601049 551.5590551181102" fill="none" stroke="none" stroke-linecap="square" stroke-miterlimit="10" xmlns:xlink="http://www.w3.org/1999/xlink" xmlns="http://www.w3.org/2000/svg"><clipPath id="p.0"><path d="m0 0l958.2467 0l0 551.5591l-958.2467 0l0 -551.5591z" clip-rule="nonzero"/></clipPath><g clip-path="url(#p.0)"><path fill="#000000" fill-opacity="0.0" d="m0 0l958.2467 0l0 551.5591l-958.2467 0z" fill-rule="evenodd"/><path fill="#ffffff" d="m9.217848 6.5039372l940.50397 0l0 539.93695l-940.50397 0z" fill-rule="evenodd"/><path stroke="#000000" stroke-width="1.0" stroke-linejoin="round" stroke-linecap="butt" d="m9.217848 6.5039372l940.50397 0l0 539.93695l-940.50397 0z" fill-rule="evenodd"/><path fill="#000000" fill-opacity="0.0" d="m712.4344 237.66273l211.84253 0" fill-rule="evenodd"/><path stroke="#000000" stroke-width="1.0" stroke-linejoin="round" stroke-linecap="butt" stroke-dasharray="4.0,3.0" d="m712.4344 237.66273l205.84253 0" fill-rule="evenodd"/><path fill="#000000" stroke="#000000" stroke-width="1.0" stroke-linecap="butt" d="m918.2769 239.31447l4.538086 -1.6517334l-4.538086 -1.6517334z" fill-rule="evenodd"/><path fill="#000000" fill-opacity="0.0" d="m74.450134 237.9147l637.98425 -0.25196838" fill-rule="evenodd"/><path stroke="#000000" stroke-width="1.0" stroke-linejoin="round" stroke-linecap="butt" d="m74.450134 237.9147l637.98425 -0.25196838" fill-rule="evenodd"/><path fill="#cfe2f3" d="m459.48032 237.93176l0 0c0 -11.332718 9.186981 -20.519684 20.519684 -20.519684l0 0c5.442169 0 10.661407 2.1618805 14.509613 6.010071c3.848175 3.8481903 6.010071 9.067444 6.010071 14.509613l0 0c0 11.332703 -9.186981 20.519684 -20.519684 20.519684l0 0c-11.332703 0 -20.519684 -9.186981 -20.519684 -20.519684z" fill-rule="evenodd"/><path stroke="#000000" stroke-width="1.0" stroke-linejoin="round" stroke-linecap="butt" d="m459.48032 237.93176l0 0c0 -11.332718 9.186981 -20.519684 20.519684 -20.519684l0 0c5.442169 0 10.661407 2.1618805 14.509613 6.010071c3.848175 3.8481903 6.010071 9.067444 6.010071 14.509613l0 0c0 11.332703 -9.186981 20.519684 -20.519684 20.519684l0 0c-11.332703 0 -20.519684 -9.186981 -20.519684 -20.519684z" fill-rule="evenodd"/><path fill="#cfe2f3" d="m117.72966 237.93176l0 0c0 -11.332718 9.186974 -20.519684 20.519684 -20.519684l0 0c5.442154 0 10.661423 2.1618805 14.509613 6.010071c3.8481903 3.8481903 6.010071 9.067444 6.010071 14.509613l0 0c0 11.332703 -9.186981 20.519684 -20.519684 20.519684l0 0c-11.33271 0 -20.519684 -9.186981 -20.519684 -20.519684z" fill-rule="evenodd"/><path stroke="#000000" stroke-width="1.0" stroke-linejoin="round" stroke-linecap="butt" d="m117.72966 237.93176l0 0c0 -11.332718 9.186974 -20.519684 20.519684 -20.519684l0 0c5.442154 0 10.661423 2.1618805 14.509613 6.010071c3.8481903 3.8481903 6.010071 9.067444 6.010071 14.509613l0 0c0 11.332703 -9.186981 20.519684 -20.519684 20.519684l0 0c-11.33271 0 -20.519684 -9.186981 -20.519684 -20.519684z" fill-rule="evenodd"/><path fill="#cfe2f3" d="m801.23096 237.76968l0 0c0 -11.332703 9.187012 -20.519684 20.519714 -20.519684l0 0c5.4421387 0 10.661377 2.1618958 14.5095825 6.010071c3.8482056 3.8481903 6.010071 9.067459 6.010071 14.509613l0 0c0 11.332718 -9.186951 20.519684 -20.519653 20.519684l0 0c-11.332703 0 -20.519714 -9.186966 -20.519714 -20.519684z" fill-rule="evenodd"/><path stroke="#000000" stroke-width="1.0" stroke-linejoin="round" stroke-linecap="butt" d="m801.23096 237.76968l0 0c0 -11.332703 9.187012 -20.519684 20.519714 -20.519684l0 0c5.4421387 0 10.661377 2.1618958 14.5095825 6.010071c3.8482056 3.8481903 6.010071 9.067459 6.010071 14.509613l0 0c0 11.332718 -9.186951 20.519684 -20.519653 20.519684l0 0c-11.332703 0 -20.519714 -9.186966 -20.519714 -20.519684z" fill-rule="evenodd"/><path fill="#cfe2f3" d="m288.60498 237.93176l0 0c0 -11.332718 9.186981 -20.519684 20.519684 -20.519684l0 0c5.442169 0 10.661438 2.1618805 14.509613 6.010071c3.8482056 3.8481903 6.010071 9.067444 6.010071 14.509613l0 0c0 11.332703 -9.186981 20.519684 -20.519684 20.519684l0 0c-11.332703 0 -20.519684 -9.186981 -20.519684 -20.519684z" fill-rule="evenodd"/><path stroke="#000000" stroke-width="1.0" stroke-linejoin="round" stroke-linecap="butt" d="m288.60498 237.93176l0 0c0 -11.332718 9.186981 -20.519684 20.519684 -20.519684l0 0c5.442169 0 10.661438 2.1618805 14.509613 6.010071c3.8482056 3.8481903 6.010071 9.067444 6.010071 14.509613l0 0c0 11.332703 -9.186981 20.519684 -20.519684 20.519684l0 0c-11.332703 0 -20.519684 -9.186981 -20.519684 -20.519684z" fill-rule="evenodd"/><path fill="#cfe2f3" d="m630.35565 237.93176l0 0c0 -11.332718 9.186951 -20.519684 20.519653 -20.519684l0 0c5.4421997 0 10.661438 2.1618805 14.509644 6.010071c3.8482056 3.8481903 6.010071 9.067444 6.010071 14.509613l0 0c0 11.332703 -9.187012 20.519684 -20.519714 20.519684l0 0c-11.332703 0 -20.519653 -9.186981 -20.519653 -20.519684z" fill-rule="evenodd"/><path stroke="#000000" stroke-width="1.0" stroke-linejoin="round" stroke-linecap="butt" d="m630.35565 237.93176l0 0c0 -11.332718 9.186951 -20.519684 20.519653 -20.519684l0 0c5.4421997 0 10.661438 2.1618805 14.509644 6.010071c3.8482056 3.8481903 6.010071 9.067444 6.010071 14.509613l0 0c0 11.332703 -9.187012 20.519684 -20.519714 20.519684l0 0c-11.332703 0 -20.519653 -9.186981 -20.519653 -20.519684z" fill-rule="evenodd"/><path fill="#4a86e8" d="m309.12598 172.68242l342.11023 0l0 28.724411l-342.11023 0z" fill-rule="evenodd"/><path stroke="#000000" stroke-width="1.0" stroke-linejoin="round" stroke-linecap="butt" d="m309.12598 172.68242l342.11023 0l0 28.724411l-342.11023 0z" fill-rule="evenodd"/><path fill="#000000" fill-opacity="0.0" d="m421.4593 318.6824l119.24408 0l0 43.62207l-119.24408 0z" fill-rule="evenodd"/><path fill="#000000" d="m442.6468 340.78867q0.625 0.078125 0.078125 0.46875l0 1.71875q0 4.921875 -4.453125 5.703125l-0.625 -1.640625q3.515625 -0.234375 3.515625 -4.21875l0 -2.03125l1.484375 0zm5.46875 4.140625l1.484375 0.46875l-0.3125 1.40625q-0.3125 1.328125 -1.5625 1.328125l-2.265625 0q-1.25 0 -1.25 -1.328125l0 -6.015625l1.484375 0q0.625 0.078125 0.078125 0.46875l0 4.765625q0 0.625 0.546875 0.625l1.015625 0q0.390625 0 0.546875 -0.625l0.234375 -1.09375zm1.015625 -3.125l-1.5625 0l0 -1.875l-7.8125 0l0 1.953125l-1.5625 0l0 -3.4375l10.9375 0l0 3.359375zm-6.40625 -11.09375l1.484375 0q0.625 0.078125 0.078125 0.46875l0 1.640625l4.609375 0l0 1.484375l-4.609375 0l0 1.640625l3.59375 0l0 1.484375l-8.4375 0l0 -1.484375l3.28125 0l0 -1.640625l-4.140625 0l0 -1.484375l4.140625 0l0 -2.109375zm-5.625 10.234375l-4.84375 0l0 -1.484375l4.84375 0l0 1.484375zm0 -2.734375l-4.84375 0l0 -1.484375l4.84375 0l0 1.484375zm0.625 -4.296875l0 1.484375l-6.25 0l0 -1.484375l6.25 0zm-0.625 -1.25l-4.84375 0l0 -1.484375l4.84375 0l0 1.484375zm-1.015625 15.703125l0 -0.625l-2.8125 0l0 0.9375l-1.328125 0l0 -6.328125l5.46875 0l0 6.015625l-1.328125 0zm0 -1.875l0 -2.890625l-2.8125 0l0 2.890625l2.8125 0zm23.28125 -4.921875q-0.15625 -0.9375 -1.09375 -0.9375q-1.953125 0 -3.359375 2.34375q-0.859375 1.40625 -1.71875 3.59375l-1.796875 -0.9375q3.203125 -5.0 7.65625 -14.21875l1.71875 0.9375q0.546875 0.546875 -0.234375 0.625q-1.640625 2.421875 -3.90625 6.640625q1.328125 -0.546875 2.34375 -0.546875q0.9375 0 1.484375 0.546875q0.546875 0.546875 0.703125 2.1875l0.46875 2.96875q0.15625 1.015625 1.25 1.015625q1.015625 0 1.71875 -0.703125q1.484375 -1.484375 2.34375 -5.859375l1.71875 0.859375q-1.015625 4.453125 -2.421875 5.859375q-1.5625 1.5625 -3.515625 1.5625q-2.421875 0 -2.8125 -2.578125l-0.546875 -3.359375zm27.1875 -6.953125q-2.734375 0 -4.296875 0.546875q-1.71875 0.625 -3.203125 2.109375q-1.484375 1.484375 -1.484375 3.828125q0 1.875 1.171875 3.046875q1.5625 1.5625 6.015625 1.71875l-0.625 1.71875q-4.609375 -0.234375 -6.40625 -2.03125q-1.796875 -1.796875 -1.796875 -4.375q0 -3.671875 2.890625 -5.78125q-3.671875 0.546875 -7.5 1.09375l-0.46875 -1.796875q7.65625 -0.546875 15.390625 -1.875l0.3125 1.796875zm-1.71875 6.09375q-1.71875 -1.25 -2.96875 -1.953125l0.78125 -0.9375q1.171875 0.703125 2.96875 1.953125l-0.78125 0.9375zm1.5625 -1.875q-1.875 -1.328125 -2.96875 -1.953125l0.78125 -0.9375q1.09375 0.625 2.96875 1.953125l-0.78125 0.9375zm10.078125 4.140625q-0.703125 1.796875 -1.484375 2.734375q-1.09375 1.328125 -2.1875 1.328125q-1.953125 0 -2.890625 -2.265625q-0.546875 -1.328125 -0.546875 -5.703125q0 -3.125 0.3125 -6.328125l1.640625 0.390625q0.9375 0.234375 0.078125 0.78125q-0.3125 2.890625 -0.3125 5.234375q0 3.203125 0.390625 4.53125q0.390625 1.328125 1.171875 1.328125q0.859375 0 1.484375 -1.25q0.390625 -0.78125 0.78125 -1.875l1.5625 1.09375zm4.609375 -9.140625q3.515625 3.671875 4.296875 8.90625l-2.109375 0.546875q-0.9375 -5.46875 -3.828125 -8.515625l1.640625 -0.9375zm16.5625 12.65625q1.25 -0.15625 2.109375 -1.015625q0.9375 -0.9375 0.9375 -2.5q0 -1.71875 -1.015625 -2.734375q-1.015625 -1.015625 -3.203125 -1.015625q-2.578125 0 -3.984375 1.015625q-1.328125 0.9375 -3.4375 3.359375l-1.328125 -1.171875q5.625 -5.625 8.515625 -9.375q-2.578125 0.3125 -5.15625 0.546875l-0.546875 -1.796875q3.828125 0 6.796875 -0.390625l0.703125 -0.3125l0.859375 0.859375q0.859375 0.78125 -0.390625 1.015625q-2.34375 2.65625 -4.6875 5.234375q1.640625 -0.390625 2.734375 -0.390625q2.96875 0 4.375 1.40625q1.40625 1.40625 1.40625 3.59375q0 2.265625 -1.25 3.515625q-1.875 1.875 -4.765625 1.875q-2.734375 0 -3.984375 -1.25q-1.015625 -1.015625 -1.015625 -2.421875q0 -0.9375 0.703125 -1.640625q0.78125 -0.78125 1.796875 -0.78125q1.40625 0 2.34375 0.9375q1.09375 1.09375 1.484375 3.4375zm-1.5625 0.234375q-0.234375 -2.03125 -0.9375 -2.734375q-0.546875 -0.546875 -1.09375 -0.546875q-0.625 0 -0.9375 0.3125q-0.390625 0.390625 -0.390625 0.859375q0 0.703125 0.625 1.328125q0.78125 0.78125 2.03125 0.78125q0.3125 0 0.703125 0z" fill-rule="nonzero"/><path fill="#000000" fill-opacity="0.0" d="m242.01494 30.931759l131.55907 0l0 43.622044l-131.55907 0z" fill-rule="evenodd"/><path fill="#000000" d="m263.20242 53.038006q0.625 0.078125 0.078125 0.46875l0 1.71875q0 4.921875 -4.453125 5.703125l-0.625 -1.640625q3.515625 -0.234375 3.515625 -4.21875l0 -2.03125l1.484375 0zm5.46875 4.140625l1.484375 0.46875l-0.3125 1.40625q-0.3125 1.328125 -1.5625 1.328125l-2.265625 0q-1.25 0 -1.25 -1.328125l0 -6.015625l1.484375 0q0.625 0.078125 0.078125 0.46875l0 4.765625q0 0.625 0.546875 0.625l1.015625 0q0.390625 0 0.546875 -0.625l0.234375 -1.09375zm1.015625 -3.125l-1.5625 0l0 -1.875l-7.8125 0l0 1.953125l-1.5625 0l0 -3.4375l10.9375 0l0 3.359375zm-6.40625 -11.09375l1.484375 0q0.625 0.078125 0.078125 0.46875l0 1.640625l4.609375 0l0 1.484375l-4.609375 0l0 1.640625l3.59375 0l0 1.484375l-8.4375 0l0 -1.484375l3.28125 0l0 -1.640625l-4.140625 0l0 -1.484375l4.140625 0l0 -2.109375zm-5.625 10.234375l-4.8437347 0l0 -1.484375l4.8437347 0l0 1.484375zm0 -2.734375l-4.8437347 0l0 -1.484375l4.8437347 0l0 1.484375zm0.625 -4.296875l0 1.484375l-6.2499847 0l0 -1.484375l6.2499847 0zm-0.625 -1.25l-4.8437347 0l0 -1.484375l4.8437347 0l0 1.484375zm-1.015625 15.703125l0 -0.625l-2.8124847 0l0 0.9375l-1.328125 0l0 -6.328125l5.4687347 0l0 6.015625l-1.328125 0zm0 -1.875l0 -2.890625l-2.8124847 0l0 2.890625l2.8124847 0zm29.6875 -4.53125q-0.78125 3.515625 -3.046875 6.015625l-1.640625 -0.9375q2.421875 -2.265625 3.203125 -5.625q-2.734375 -1.015625 -5.546875 -1.40625q-2.109375 4.53125 -2.8125 5.234375q-0.9375 0.9375 -2.1875 0.9375q-0.9375 0 -1.5625 -0.625q-0.703125 -0.703125 -0.703125 -2.109375q0 -1.640625 1.5625 -3.203125q1.71875 -1.71875 4.609375 -1.71875q0.9375 -2.421875 1.71875 -4.53125q-2.1875 0.546875 -4.375 1.015625l-0.703125 -1.5625q2.578125 -0.3125 4.921875 -0.859375l0.9375 -0.390625l1.328125 1.015625q0.78125 0.46875 -0.078125 0.703125q-1.015625 1.796875 -2.1875 4.6875q2.5 0.3125 5.3125 1.25q0.15625 -1.875 0.078125 -4.609375l1.484375 0.3125q0.859375 0.15625 0.15625 0.625q0 2.578125 -0.15625 4.21875q1.484375 0.546875 3.4375 1.5625l-0.78125 1.5625q-1.640625 -0.9375 -2.96875 -1.5625zm-8.671875 -1.953125q-1.796875 0 -2.890625 1.09375q-1.25 1.25 -1.25 2.34375q0 0.46875 0.3125 0.78125q0.234375 0.234375 0.703125 0.234375q0.703125 0 1.25 -0.859375q0.46875 -0.703125 1.875 -3.59375zm22.65625 -1.015625q-0.390625 0.46875 -0.46875 0l-0.390625 -1.640625l1.40625 0q0.859375 -2.5 1.796875 -6.5625l1.875 0.546875q0.46875 0.390625 -0.3125 0.546875q-0.9375 2.8125 -1.875 5.390625l4.6875 -0.3125q-0.703125 -1.171875 -1.640625 -2.421875l1.328125 -0.625q1.796875 1.953125 3.203125 4.765625l-1.5625 0.78125l-0.625 -1.25l-7.421875 0.78125zm-4.609375 -2.8125q-0.390625 2.5 -1.015625 4.84375q0.9375 0.625 1.875 1.25q0.546875 -1.953125 0.859375 -6.09375l-1.71875 0zm2.109375 6.953125q0.625 0.46875 1.5625 1.25l-0.859375 1.640625q-0.546875 -0.625 -1.40625 -1.328125q-1.25 2.03125 -3.671875 3.59375l-1.015625 -1.25q2.265625 -1.484375 3.515625 -3.359375q-0.859375 -0.625 -1.71875 -1.328125l-0.390625 1.015625l-1.40625 -0.625q1.171875 -2.890625 1.796875 -6.5625l-1.875 0l0 -1.484375l2.109375 0q0.234375 -1.796875 0.46875 -3.671875l1.40625 0.3125q0.78125 0.234375 0 0.546875q-0.15625 1.40625 -0.390625 2.8125l1.796875 0l0.3125 -0.3125l1.171875 0.78125l-0.234375 0.3125q-0.3125 5.078125 -1.171875 7.65625zm9.140625 4.375l-4.921875 0l0 1.015625l-1.5625 0l0 -7.96875l8.046875 0l0 7.65625l-1.5625 0l0 -0.703125zm0 -1.484375l0 -3.984375l-4.921875 0l0 3.984375l4.921875 0zm15.625 -11.328125q2.890625 0.15625 4.609375 1.875q1.71875 1.71875 1.71875 4.609375q0 2.65625 -1.5625 4.21875q-1.40625 1.40625 -3.90625 2.265625l-1.015625 -1.484375q2.578125 -0.859375 3.671875 -1.953125q1.171875 -1.171875 1.171875 -3.125q0 -2.1875 -1.171875 -3.359375q-1.484375 -1.484375 -3.828125 -1.640625q-0.859375 3.28125 -2.578125 6.71875l1.484375 1.71875l-1.25 0.9375l-1.09375 -1.25q-0.625 1.015625 -1.328125 1.71875q-1.015625 1.015625 -2.03125 1.015625q-1.09375 0 -2.03125 -0.9375q-1.015625 -1.015625 -1.015625 -2.890625q0 -2.8125 3.046875 -5.9375q-0.546875 -2.34375 -0.78125 -4.453125l1.484375 0q0.703125 0.15625 0.15625 0.625q0.15625 1.71875 0.46875 2.890625q2.03125 -1.25 4.140625 -1.5625q0.3125 -1.171875 0.625 -3.515625l1.5625 0.390625q0.78125 0.3125 0 0.625l-0.546875 2.5zm-4.84375 8.28125q-1.015625 -1.640625 -1.796875 -4.0625q-1.953125 2.34375 -1.953125 4.375q0 1.09375 0.625 1.71875q0.390625 0.390625 0.859375 0.390625q0.390625 0 0.9375 -0.546875q0.46875 -0.46875 1.328125 -1.875zm2.890625 -6.71875q-1.875 0.3125 -3.4375 1.5625q0.78125 2.65625 1.484375 3.671875q1.328125 -2.578125 1.953125 -5.234375zm21.015625 10.234375q1.25 -0.15625 2.109375 -1.015625q0.9375 -0.9375 0.9375 -2.5q0 -1.71875 -1.015625 -2.734375q-1.015625 -1.015625 -3.203125 -1.015625q-2.578125 0 -3.984375 1.015625q-1.328125 0.9375 -3.4375 3.359375l-1.328125 -1.171875q5.625 -5.625 8.515625 -9.375q-2.578125 0.3125 -5.15625 0.546875l-0.546875 -1.796875q3.828125 0 6.796875 -0.390625l0.703125 -0.3125l0.859375 0.859375q0.859375 0.78125 -0.390625 1.015625q-2.34375 2.65625 -4.6875 5.234375q1.640625 -0.390625 2.734375 -0.390625q2.96875 0 4.375 1.40625q1.40625 1.40625 1.40625 3.59375q0 2.265625 -1.25 3.515625q-1.875 1.875 -4.765625 1.875q-2.734375 0 -3.984375 -1.25q-1.015625 -1.015625 -1.015625 -2.421875q0 -0.9375 0.703125 -1.640625q0.78125 -0.78125 1.796875 -0.78125q1.40625 0 2.34375 0.9375q1.09375 1.09375 1.484375 3.4375zm-1.5625 0.234375q-0.234375 -2.03125 -0.9375 -2.734375q-0.546875 -0.546875 -1.09375 -0.546875q-0.625 0 -0.9375 0.3125q-0.390625 0.390625 -0.390625 0.859375q0 0.703125 0.625 1.328125q0.78125 0.78125 2.03125 0.78125q0.3125 0 0.703125 0z" fill-rule="nonzero"/><path fill="#000000" fill-opacity="0.0" d="m591.0475 30.931759l119.24414 0l0 43.622044l-119.24414 0z" fill-rule="evenodd"/><path fill="#000000" d="m612.235 53.038006q0.625 0.078125 0.078125 0.46875l0 1.71875q0 4.921875 -4.453125 5.703125l-0.625 -1.640625q3.515625 -0.234375 3.515625 -4.21875l0 -2.03125l1.484375 0zm5.46875 4.140625l1.484375 0.46875l-0.3125 1.40625q-0.3125 1.328125 -1.5625 1.328125l-2.265625 0q-1.25 0 -1.25 -1.328125l0 -6.015625l1.484375 0q0.625 0.078125 0.078125 0.46875l0 4.765625q0 0.625 0.546875 0.625l1.015625 0q0.390625 0 0.546875 -0.625l0.234375 -1.09375zm1.015625 -3.125l-1.5625 0l0 -1.875l-7.8125 0l0 1.953125l-1.5625 0l0 -3.4375l10.9375 0l0 3.359375zm-6.40625 -11.09375l1.484375 0q0.625 0.078125 0.078125 0.46875l0 1.640625l4.609375 0l0 1.484375l-4.609375 0l0 1.640625l3.59375 0l0 1.484375l-8.4375 0l0 -1.484375l3.28125 0l0 -1.640625l-4.140625 0l0 -1.484375l4.140625 0l0 -2.109375zm-5.625 10.234375l-4.84375 0l0 -1.484375l4.84375 0l0 1.484375zm0 -2.734375l-4.84375 0l0 -1.484375l4.84375 0l0 1.484375zm0.625 -4.296875l0 1.484375l-6.25 0l0 -1.484375l6.25 0zm-0.625 -1.25l-4.84375 0l0 -1.484375l4.84375 0l0 1.484375zm-1.015625 15.703125l0 -0.625l-2.8125 0l0 0.9375l-1.328125 0l0 -6.328125l5.46875 0l0 6.015625l-1.328125 0zm0 -1.875l0 -2.890625l-2.8125 0l0 2.890625l2.8125 0zm29.6875 -4.53125q-0.78125 3.515625 -3.046875 6.015625l-1.640625 -0.9375q2.421875 -2.265625 3.203125 -5.625q-2.734375 -1.015625 -5.546875 -1.40625q-2.109375 4.53125 -2.8125 5.234375q-0.9375 0.9375 -2.1875 0.9375q-0.9375 0 -1.5625 -0.625q-0.703125 -0.703125 -0.703125 -2.109375q0 -1.640625 1.5625 -3.203125q1.71875 -1.71875 4.609375 -1.71875q0.9375 -2.421875 1.71875 -4.53125q-2.1875 0.546875 -4.375 1.015625l-0.703125 -1.5625q2.578125 -0.3125 4.921875 -0.859375l0.9375 -0.390625l1.328125 1.015625q0.78125 0.46875 -0.078125 0.703125q-1.015625 1.796875 -2.1875 4.6875q2.5 0.3125 5.3125 1.25q0.15625 -1.875 0.078125 -4.609375l1.484375 0.3125q0.859375 0.15625 0.15625 0.625q0 2.578125 -0.15625 4.21875q1.484375 0.546875 3.4375 1.5625l-0.78125 1.5625q-1.640625 -0.9375 -2.96875 -1.5625zm-8.671875 -1.953125q-1.796875 0 -2.890625 1.09375q-1.25 1.25 -1.25 2.34375q0 0.46875 0.3125 0.78125q0.234375 0.234375 0.703125 0.234375q0.703125 0 1.25 -0.859375q0.46875 -0.703125 1.875 -3.59375zm19.609375 -8.203125q-1.09375 1.875 -2.34375 3.359375q0.625 0.46875 1.171875 1.171875q1.25 -1.640625 2.109375 -3.203125l1.171875 0.78125q0.390625 0.390625 -0.15625 0.390625q-1.328125 2.1875 -3.4375 4.53125l2.421875 -0.234375l-0.546875 -0.859375l0.859375 -0.78125q1.328125 1.328125 1.953125 2.8125l-1.171875 0.859375l-0.46875 -0.859375l-1.640625 0.234375l0 8.671875l-1.5625 0l0 -8.515625l-2.65625 0.390625q-0.078125 0.546875 -0.390625 0.234375l-0.546875 -1.71875l1.953125 -0.15625q0.703125 -0.703125 1.09375 -1.328125q-1.328125 -1.328125 -2.65625 -2.265625l0.78125 -1.328125l0.546875 0.3125q1.640625 -1.953125 2.5 -3.75l1.171875 0.859375q0.390625 0.390625 -0.15625 0.390625zm6.640625 6.09375q-0.9375 -1.171875 -1.71875 -2.578125q-0.703125 1.328125 -1.796875 2.5l-0.859375 -1.09375q2.34375 -2.734375 2.96875 -6.09375l1.484375 0.3125q0.3125 0.3125 -0.234375 0.390625l-0.390625 1.25l3.828125 0l0.234375 -0.3125l1.09375 0.859375q0.546875 0.546875 -0.15625 0.46875q-0.78125 2.421875 -2.5 4.375q1.484375 1.484375 4.21875 2.5l-0.78125 1.5625q-3.125 -1.484375 -4.453125 -3.046875q-1.640625 1.796875 -4.375 3.4375l-0.859375 -1.484375q2.5 -1.25 4.296875 -3.046875zm-1.953125 6.71875q3.28125 0.546875 6.640625 2.1875l-0.703125 1.640625q-2.734375 -1.40625 -6.484375 -2.265625l0.546875 -1.5625zm1.484375 -3.359375q2.265625 0.46875 4.296875 1.5625l-0.703125 1.5625q-1.640625 -1.09375 -4.21875 -1.796875l0.625 -1.328125zm-8.75 0.9375q0.46875 0.234375 -0.078125 0.390625q-0.234375 2.578125 -0.78125 4.375l-1.328125 -0.625q0.625 -2.34375 0.703125 -4.453125l1.484375 0.3125zm4.296875 -0.625q0.9375 1.640625 1.25 3.828125l-1.40625 0.46875q-0.3125 -1.953125 -1.09375 -3.75l1.25 -0.546875zm5.859375 -4.6875q1.40625 -1.5625 1.796875 -3.046875l-3.59375 0q0.546875 1.71875 1.796875 3.046875zm11.640625 4.84375l-3.203125 3.828125l-1.25 -1.25l2.109375 -2.34375q1.5625 -1.796875 2.34375 -3.203125l0 -1.953125l-3.671875 0.9375l-0.46875 -1.640625l4.140625 -0.78125l0 -4.53125l1.40625 0q0.859375 0.15625 0.15625 0.625l0 3.203125l1.171875 0.703125q0.78125 0.390625 -0.234375 0.859375l-0.9375 1.328125l0 0.9375q3.4375 -2.734375 6.5625 -2.734375q2.34375 0 3.59375 1.25q1.484375 1.484375 1.484375 3.828125q0 2.421875 -1.328125 3.75q-1.71875 1.71875 -5.078125 2.96875l-0.78125 -1.5625q2.96875 -1.09375 4.296875 -2.421875q1.09375 -1.09375 1.09375 -2.734375q0 -1.640625 -1.09375 -2.734375q-0.859375 -0.859375 -2.34375 -0.859375q-2.8125 0 -6.40625 3.28125l0 8.203125l-1.5625 0l0 -6.953125zm25.546875 4.765625q1.25 -0.15625 2.109375 -1.015625q0.9375 -0.9375 0.9375 -2.5q0 -1.71875 -1.015625 -2.734375q-1.015625 -1.015625 -3.203125 -1.015625q-2.578125 0 -3.984375 1.015625q-1.328125 0.9375 -3.4375 3.359375l-1.328125 -1.171875q5.625 -5.625 8.515625 -9.375q-2.578125 0.3125 -5.15625 0.546875l-0.546875 -1.796875q3.828125 0 6.796875 -0.390625l0.703125 -0.3125l0.859375 0.859375q0.859375 0.78125 -0.390625 1.015625q-2.34375 2.65625 -4.6875 5.234375q1.640625 -0.390625 2.734375 -0.390625q2.96875 0 4.375 1.40625q1.40625 1.40625 1.40625 3.59375q0 2.265625 -1.25 3.515625q-1.875 1.875 -4.765625 1.875q-2.734375 0 -3.984375 -1.25q-1.015625 -1.015625 -1.015625 -2.421875q0 -0.9375 0.703125 -1.640625q0.78125 -0.78125 1.796875 -0.78125q1.40625 0 2.34375 0.9375q1.09375 1.09375 1.484375 3.4375zm-1.5625 0.234375q-0.234375 -2.03125 -0.9375 -2.734375q-0.546875 -0.546875 -1.09375 -0.546875q-0.625 0 -0.9375 0.3125q-0.390625 0.390625 -0.390625 0.859375q0 0.703125 0.625 1.328125q0.78125 0.78125 2.03125 0.78125q0.3125 0 0.703125 0z" fill-rule="nonzero"/><path fill="#000000" fill-opacity="0.0" d="m68.678825 438.6824l142.4252 0l0 43.62207l-142.4252 0z" fill-rule="evenodd"/><path fill="#000000" d="m89.866325 460.78867q0.625 0.078125 0.078125 0.46875l0 1.71875q0 4.921875 -4.453125 5.703125l-0.625 -1.640625q3.515625 -0.234375 3.515625 -4.21875l0 -2.03125l1.484375 0zm5.46875 4.140625l1.484375 0.46875l-0.3125 1.40625q-0.3125 1.328125 -1.5625 1.328125l-2.265625 0q-1.25 0 -1.25 -1.328125l0 -6.015625l1.484375 0q0.625 0.078125 0.078125 0.46875l0 4.765625q0 0.625 0.546875 0.625l1.015625 0q0.390625 0 0.546875 -0.625l0.234375 -1.09375zm1.015625 -3.125l-1.5625 0l0 -1.875l-7.8125 0l0 1.953125l-1.5625 0l0 -3.4375l10.9375 0l0 3.359375zm-6.40625 -11.09375l1.484375 0q0.625 0.078125 0.078125 0.46875l0 1.640625l4.609375 0l0 1.484375l-4.609375 0l0 1.640625l3.59375 0l0 1.484375l-8.4375 0l0 -1.484375l3.28125 0l0 -1.640625l-4.140625 0l0 -1.484375l4.140625 0l0 -2.109375zm-5.625 10.234375l-4.84375 0l0 -1.484375l4.84375 0l0 1.484375zm0 -2.734375l-4.84375 0l0 -1.484375l4.84375 0l0 1.484375zm0.625 -4.296875l0 1.484375l-6.25 0l0 -1.484375l6.25 0zm-0.625 -1.25l-4.84375 0l0 -1.484375l4.84375 0l0 1.484375zm-1.015625 15.703125l0 -0.625l-2.8125 0l0 0.9375l-1.328125 0l0 -6.328125l5.46875 0l0 6.015625l-1.328125 0zm0 -1.875l0 -2.890625l-2.8125 0l0 2.890625l2.8125 0zm19.296875 -1.953125q-0.625 0.3125 -1.09375 0.3125q-0.9375 0 -1.640625 -0.703125q-0.859375 -0.859375 -0.859375 -2.421875q0 -1.875 1.015625 -2.890625q0.859375 -0.859375 2.1875 -0.859375q0.703125 0 1.25 0.234375l0 -2.265625l-3.90625 0.390625l-0.3125 -1.640625l4.21875 -0.3125l0 -3.359375l1.484375 0q0.625 0.234375 0.078125 0.546875l0 2.65625l3.515625 -0.3125l0.234375 1.5625l-3.75 0.3125l0 3.59375q0.3125 0.46875 0.3125 1.015625q0 1.484375 -1.171875 2.96875l0.15625 2.03125q0.078125 1.171875 1.875 1.171875l3.984375 0q1.640625 0 1.640625 -1.5625l0 -3.046875l1.5625 0.3125l0 3.046875q0 2.734375 -2.890625 2.734375l-4.296875 0q-3.125 0 -3.4375 -2.265625l-0.15625 -1.25zm12.578125 -5.234375q-2.421875 -2.34375 -4.375 -3.671875l0.9375 -1.40625q2.8125 1.953125 4.453125 3.671875l-1.015625 1.40625zm-12.96875 0q-0.703125 0 -1.171875 0.46875q-0.546875 0.546875 -0.546875 1.953125q0 0.9375 0.46875 1.40625q0.234375 0.234375 0.703125 0.234375q0.625 0 1.09375 -0.46875q0.78125 -0.78125 0.78125 -1.875q0 -1.015625 -0.234375 -1.25q-0.46875 -0.46875 -1.09375 -0.46875zm20.234375 -8.046875l1.640625 0q0.859375 0.15625 0.15625 0.625l0.15625 3.75q0.078125 1.640625 0.546875 2.65625q2.1875 -0.9375 5.8593674 -1.953125l0.78125 2.03125q-7.4218674 1.328125 -9.921867 3.828125q-0.859375 0.859375 -0.859375 1.796875q0 0.703125 0.546875 1.25q0.546875 0.546875 2.265625 0.546875l7.4999924 0l0 1.71875l-7.5781174 0q-2.578125 0 -3.59375 -1.015625q-1.015625 -1.015625 -1.015625 -2.34375q0 -1.71875 1.25 -2.96875q0.9375 -0.9375 3.125 -2.1875q-0.46875 -1.171875 -0.546875 -2.578125l-0.3125 -5.15625zm16.093742 15.234375q-2.421875 0 -3.359375 -0.9375q-0.9375 -0.9375 -0.9375 -2.5q0 -0.859375 0.3125 -2.03125l1.796875 0.234375q-0.390625 1.25 -0.390625 1.796875q0 0.703125 0.46875 1.171875q0.546875 0.546875 2.1875 0.546875l8.515625 0l0 1.71875l-8.59375 0zm-3.125 -13.203125l10.15625 0l0 1.71875l-10.15625 0l0 -1.71875zm18.671875 12.890625q5.859375 0.078125 7.34375 -1.40625q0.859375 -0.859375 0.859375 -2.1875q0 -1.484375 -0.78125 -2.265625q-0.859375 -0.859375 -2.890625 -0.859375q-4.765625 0 -7.578125 4.140625l-1.328125 -1.328125q5.078125 -5.0 7.34375 -8.75q-2.578125 0.390625 -5.15625 0.703125l-0.546875 -1.796875q2.8125 0 6.796875 -0.546875l0.546875 -0.234375l0.9375 0.859375q0.703125 0.703125 -0.234375 0.859375q-2.109375 2.734375 -4.140625 5.3125q2.265625 -0.625 3.671875 -0.625q2.5 0 3.828125 1.328125q1.171875 1.171875 1.171875 3.203125q0 2.03125 -1.25 3.28125q-1.875 1.875 -7.8125 1.953125l-0.78125 -1.640625zm28.046875 -6.796875q-4.53125 0.15625 -7.109375 1.25l-0.46875 -1.5625q3.359375 -1.328125 7.265625 -1.328125l0.3125 1.640625zm0.390625 6.484375l0 1.71875l-3.4375 0q-2.96875 0 -5.625 -1.40625l0.703125 -1.40625q2.03125 1.09375 4.921875 1.09375l3.4375 0zm-6.953125 -9.765625q-2.03125 0.390625 -3.828125 0.625q-1.171875 6.953125 -2.890625 11.015625l-1.71875 -0.546875q2.109375 -4.921875 2.96875 -10.3125q-1.953125 0.15625 -3.359375 0.15625l-0.3125 -1.5625q2.1875 0 3.90625 -0.15625q0.3125 -2.421875 0.546875 -4.21875l1.5625 0.3125q0.859375 0.234375 0.15625 0.625q-0.234375 0.9375 -0.625 3.125q1.796875 -0.234375 3.28125 -0.625l0.3125 1.5625zm4.6875 -5.3125q1.25 0.703125 3.046875 2.03125l-0.703125 1.09375q-1.71875 -1.25 -3.046875 -2.03125l0.703125 -1.09375zm-1.5625 1.5625q1.40625 0.859375 3.046875 2.03125l-0.703125 1.09375q-1.71875 -1.171875 -3.046875 -2.03125l0.703125 -1.09375z" fill-rule="nonzero"/><path fill="#000000" fill-opacity="0.0" d="m398.74017 438.6824l163.77954 0l0 43.62207l-163.77954 0z" fill-rule="evenodd"/><path fill="#000000" d="m419.92767 460.78867q0.625 0.078125 0.078125 0.46875l0 1.71875q0 4.921875 -4.453125 5.703125l-0.625 -1.640625q3.515625 -0.234375 3.515625 -4.21875l0 -2.03125l1.484375 0zm5.46875 4.140625l1.484375 0.46875l-0.3125 1.40625q-0.3125 1.328125 -1.5625 1.328125l-2.265625 0q-1.25 0 -1.25 -1.328125l0 -6.015625l1.484375 0q0.625 0.078125 0.078125 0.46875l0 4.765625q0 0.625 0.546875 0.625l1.015625 0q0.390625 0 0.546875 -0.625l0.234375 -1.09375zm1.015625 -3.125l-1.5625 0l0 -1.875l-7.8125 0l0 1.953125l-1.5625 0l0 -3.4375l10.9375 0l0 3.359375zm-6.40625 -11.09375l1.484375 0q0.625 0.078125 0.078125 0.46875l0 1.640625l4.609375 0l0 1.484375l-4.609375 0l0 1.640625l3.59375 0l0 1.484375l-8.4375 0l0 -1.484375l3.28125 0l0 -1.640625l-4.140625 0l0 -1.484375l4.140625 0l0 -2.109375zm-5.625 10.234375l-4.84375 0l0 -1.484375l4.84375 0l0 1.484375zm0 -2.734375l-4.84375 0l0 -1.484375l4.84375 0l0 1.484375zm0.625 -4.296875l0 1.484375l-6.25 0l0 -1.484375l6.25 0zm-0.625 -1.25l-4.84375 0l0 -1.484375l4.84375 0l0 1.484375zm-1.015625 15.703125l0 -0.625l-2.8125 0l0 0.9375l-1.328125 0l0 -6.328125l5.46875 0l0 6.015625l-1.328125 0zm0 -1.875l0 -2.890625l-2.8125 0l0 2.890625l2.8125 0zm23.28125 -4.921875q-0.15625 -0.9375 -1.09375 -0.9375q-1.953125 0 -3.359375 2.34375q-0.859375 1.40625 -1.71875 3.59375l-1.796875 -0.9375q3.203125 -5.0 7.65625 -14.21875l1.71875 0.9375q0.546875 0.546875 -0.234375 0.625q-1.640625 2.421875 -3.90625 6.640625q1.328125 -0.546875 2.34375 -0.546875q0.9375 0 1.484375 0.546875q0.546875 0.546875 0.703125 2.1875l0.46875 2.96875q0.15625 1.015625 1.25 1.015625q1.015625 0 1.71875 -0.703125q1.484375 -1.484375 2.34375 -5.859375l1.71875 0.859375q-1.015625 4.453125 -2.421875 5.859375q-1.5625 1.5625 -3.515625 1.5625q-2.421875 0 -2.8125 -2.578125l-0.546875 -3.359375zm27.1875 -6.953125q-2.734375 0 -4.296875 0.546875q-1.71875 0.625 -3.203125 2.109375q-1.484375 1.484375 -1.484375 3.828125q0 1.875 1.171875 3.046875q1.5625 1.5625 6.015625 1.71875l-0.625 1.71875q-4.609375 -0.234375 -6.40625 -2.03125q-1.796875 -1.796875 -1.796875 -4.375q0 -3.671875 2.890625 -5.78125q-3.671875 0.546875 -7.5 1.09375l-0.46875 -1.796875q7.65625 -0.546875 15.390625 -1.875l0.3125 1.796875zm-1.71875 6.09375q-1.71875 -1.25 -2.96875 -1.953125l0.78125 -0.9375q1.171875 0.703125 2.96875 1.953125l-0.78125 0.9375zm1.5625 -1.875q-1.875 -1.328125 -2.96875 -1.953125l0.78125 -0.9375q1.09375 0.625 2.96875 1.953125l-0.78125 0.9375zm6.484375 -7.578125l1.640625 0q0.859375 0.15625 0.15625 0.625l0.15625 3.75q0.078125 1.640625 0.546875 2.65625q2.1875 -0.9375 5.859375 -1.953125l0.78125 2.03125q-7.421875 1.328125 -9.921875 3.828125q-0.859375 0.859375 -0.859375 1.796875q0 0.703125 0.546875 1.25q0.546875 0.546875 2.265625 0.546875l7.5 0l0 1.71875l-7.578125 0q-2.578125 0 -3.59375 -1.015625q-1.015625 -1.015625 -1.015625 -2.34375q0 -1.71875 1.25 -2.96875q0.9375 -0.9375 3.125 -2.1875q-0.46875 -1.171875 -0.546875 -2.578125l-0.3125 -5.15625zm16.09375 15.234375q-2.421875 0 -3.359375 -0.9375q-0.9375 -0.9375 -0.9375 -2.5q0 -0.859375 0.3125 -2.03125l1.796875 0.234375q-0.390625 1.25 -0.390625 1.796875q0 0.703125 0.46875 1.171875q0.546875 0.546875 2.1875 0.546875l8.515625 0l0 1.71875l-8.59375 0zm-3.125 -13.203125l10.15625 0l0 1.71875l-10.15625 0l0 -1.71875zm18.671875 12.890625q5.859375 0.078125 7.34375 -1.40625q0.859375 -0.859375 0.859375 -2.1875q0 -1.484375 -0.78125 -2.265625q-0.859375 -0.859375 -2.890625 -0.859375q-4.765625 0 -7.578125 4.140625l-1.328125 -1.328125q5.078125 -5.0 7.34375 -8.75q-2.578125 0.390625 -5.15625 0.703125l-0.546875 -1.796875q2.8125 0 6.796875 -0.546875l0.546875 -0.234375l0.9375 0.859375q0.703125 0.703125 -0.234375 0.859375q-2.109375 2.734375 -4.140625 5.3125q2.265625 -0.625 3.671875 -0.625q2.5 0 3.828125 1.328125q1.171875 1.171875 1.171875 3.203125q0 2.03125 -1.25 3.28125q-1.875 1.875 -7.8125 1.953125l-0.78125 -1.640625zm28.046875 -6.796875q-4.53125 0.15625 -7.109375 1.25l-0.46875 -1.5625q3.359375 -1.328125 7.265625 -1.328125l0.3125 1.640625zm0.390625 6.484375l0 1.71875l-3.4375 0q-2.96875 0 -5.625 -1.40625l0.703125 -1.40625q2.03125 1.09375 4.921875 1.09375l3.4375 0zm-6.953125 -9.765625q-2.03125 0.390625 -3.828125 0.625q-1.171875 6.953125 -2.890625 11.015625l-1.71875 -0.546875q2.109375 -4.921875 2.96875 -10.3125q-1.953125 0.15625 -3.359375 0.15625l-0.3125 -1.5625q2.1875 0 3.90625 -0.15625q0.3125 -2.421875 0.546875 -4.21875l1.5625 0.3125q0.859375 0.234375 0.15625 0.625q-0.234375 0.9375 -0.625 3.125q1.796875 -0.234375 3.28125 -0.625l0.3125 1.5625zm4.6875 -5.3125q1.25 0.703125 3.046875 2.03125l-0.703125 1.09375q-1.71875 -1.25 -3.046875 -2.03125l0.703125 -1.09375zm-1.5625 1.5625q1.40625 0.859375 3.046875 2.03125l-0.703125 1.09375q-1.71875 -1.171875 -3.046875 -2.03125l0.703125 -1.09375z" fill-rule="nonzero"/><path fill="#000000" fill-opacity="0.0" d="m763.4112 318.6824l119.24408 0l0 43.62207l-119.24408 0z" fill-rule="evenodd"/><path fill="#000000" d="m784.5987 340.78867q0.625 0.078125 0.078125 0.46875l0 1.71875q0 4.921875 -4.453125 5.703125l-0.625 -1.640625q3.515625 -0.234375 3.515625 -4.21875l0 -2.03125l1.484375 0zm5.46875 4.140625l1.484375 0.46875l-0.3125 1.40625q-0.3125 1.328125 -1.5625 1.328125l-2.265625 0q-1.25 0 -1.25 -1.328125l0 -6.015625l1.484375 0q0.625 0.078125 0.078125 0.46875l0 4.765625q0 0.625 0.546875 0.625l1.015625 0q0.390625 0 0.546875 -0.625l0.234375 -1.09375zm1.015625 -3.125l-1.5625 0l0 -1.875l-7.8125 0l0 1.953125l-1.5625 0l0 -3.4375l10.9375 0l0 3.359375zm-6.40625 -11.09375l1.484375 0q0.625 0.078125 0.078125 0.46875l0 1.640625l4.609375 0l0 1.484375l-4.609375 0l0 1.640625l3.59375 0l0 1.484375l-8.4375 0l0 -1.484375l3.28125 0l0 -1.640625l-4.140625 0l0 -1.484375l4.140625 0l0 -2.109375zm-5.625 10.234375l-4.84375 0l0 -1.484375l4.84375 0l0 1.484375zm0 -2.734375l-4.84375 0l0 -1.484375l4.84375 0l0 1.484375zm0.625 -4.296875l0 1.484375l-6.25 0l0 -1.484375l6.25 0zm-0.625 -1.25l-4.84375 0l0 -1.484375l4.84375 0l0 1.484375zm-1.015625 15.703125l0 -0.625l-2.8125 0l0 0.9375l-1.328125 0l0 -6.328125l5.46875 0l0 6.015625l-1.328125 0zm0 -1.875l0 -2.890625l-2.8125 0l0 2.890625l2.8125 0zm23.28125 -4.921875q-0.15625 -0.9375 -1.09375 -0.9375q-1.953125 0 -3.359375 2.34375q-0.859375 1.40625 -1.71875 3.59375l-1.796875 -0.9375q3.203125 -5.0 7.65625 -14.21875l1.71875 0.9375q0.546875 0.546875 -0.234375 0.625q-1.640625 2.421875 -3.90625 6.640625q1.328125 -0.546875 2.34375 -0.546875q0.9375 0 1.484375 0.546875q0.546875 0.546875 0.703125 2.1875l0.46875 2.96875q0.15625 1.015625 1.25 1.015625q1.015625 0 1.71875 -0.703125q1.484375 -1.484375 2.34375 -5.859375l1.71875 0.859375q-1.015625 4.453125 -2.421875 5.859375q-1.5625 1.5625 -3.515625 1.5625q-2.421875 0 -2.8125 -2.578125l-0.546875 -3.359375zm27.1875 -6.953125q-2.734375 0 -4.296875 0.546875q-1.71875 0.625 -3.203125 2.109375q-1.484375 1.484375 -1.484375 3.828125q0 1.875 1.171875 3.046875q1.5625 1.5625 6.015625 1.71875l-0.625 1.71875q-4.609375 -0.234375 -6.40625 -2.03125q-1.796875 -1.796875 -1.796875 -4.375q0 -3.671875 2.890625 -5.78125q-3.671875 0.546875 -7.5 1.09375l-0.46875 -1.796875q7.65625 -0.546875 15.390625 -1.875l0.3125 1.796875zm-1.71875 6.09375q-1.71875 -1.25 -2.96875 -1.953125l0.78125 -0.9375q1.171875 0.703125 2.96875 1.953125l-0.78125 0.9375zm1.5625 -1.875q-1.875 -1.328125 -2.96875 -1.953125l0.78125 -0.9375q1.09375 0.625 2.96875 1.953125l-0.78125 0.9375zm11.640625 8.125q3.203125 -0.3125 4.296875 -1.40625q0.859375 -0.859375 0.859375 -2.421875q0 -1.71875 -0.859375 -2.578125q-1.015625 -1.015625 -2.8125 -1.171875q-1.25 4.0625 -2.8125 5.703125l0.46875 1.015625l-1.484375 1.09375l-0.390625 -0.859375q-2.03125 1.71875 -3.4375 1.71875q-0.9375 0 -1.71875 -0.78125q-0.859375 -0.859375 -0.859375 -2.34375q0 -2.65625 1.796875 -4.453125q1.09375 -1.09375 2.265625 -1.71875l0.15625 -2.96875l-3.28125 0.15625l-0.3125 -1.71875l3.671875 -0.078125q0.078125 -1.796875 0.234375 -3.4375l1.484375 0q0.78125 0.15625 0.15625 0.625q-0.15625 1.40625 -0.234375 2.734375q3.75 -0.234375 6.40625 -0.703125l0.3125 1.71875q-3.28125 0.390625 -6.796875 0.546875l-0.15625 2.5q1.09375 -0.390625 3.046875 -0.46875l0.234375 -1.25l1.484375 0.234375q0.703125 0.15625 0.15625 0.625l-0.078125 0.546875q2.421875 0.234375 3.75 1.5625q1.484375 1.484375 1.484375 3.828125q0 2.1875 -1.328125 3.515625q-1.40625 1.40625 -4.6875 1.953125l-1.015625 -1.71875zm-4.453125 -6.5625q-0.625 0.3125 -1.40625 1.09375q-1.40625 1.40625 -1.40625 3.671875q0 0.625 0.46875 1.09375q0.15625 0.15625 0.625 0.15625q1.171875 0 2.65625 -1.484375q-0.78125 -2.34375 -0.9375 -4.53125zm1.5625 -0.78125q0.078125 2.03125 0.78125 3.90625q1.25 -1.71875 1.796875 -4.296875q-1.40625 0 -2.578125 0.390625zm22.421875 6.875q1.25 -0.15625 2.109375 -1.015625q0.9375 -0.9375 0.9375 -2.5q0 -1.71875 -1.015625 -2.734375q-1.015625 -1.015625 -3.203125 -1.015625q-2.578125 0 -3.984375 1.015625q-1.328125 0.9375 -3.4375 3.359375l-1.328125 -1.171875q5.625 -5.625 8.515625 -9.375q-2.578125 0.3125 -5.15625 0.546875l-0.546875 -1.796875q3.828125 0 6.796875 -0.390625l0.703125 -0.3125l0.859375 0.859375q0.859375 0.78125 -0.390625 1.015625q-2.34375 2.65625 -4.6875 5.234375q1.640625 -0.390625 2.734375 -0.390625q2.96875 0 4.375 1.40625q1.40625 1.40625 1.40625 3.59375q0 2.265625 -1.25 3.515625q-1.875 1.875 -4.765625 1.875q-2.734375 0 -3.984375 -1.25q-1.015625 -1.015625 -1.015625 -2.421875q0 -0.9375 0.703125 -1.640625q0.78125 -0.78125 1.796875 -0.78125q1.40625 0 2.34375 0.9375q1.09375 1.09375 1.484375 3.4375zm-1.5625 0.234375q-0.234375 -2.03125 -0.9375 -2.734375q-0.546875 -0.546875 -1.09375 -0.546875q-0.625 0 -0.9375 0.3125q-0.390625 0.390625 -0.390625 0.859375q0 0.703125 0.625 1.328125q0.78125 0.78125 2.03125 0.78125q0.3125 0 0.703125 0z" fill-rule="nonzero"/><path fill="#cfe2f3" d="m671.395 237.66273l0 0c0 -11.332718 9.186951 -20.519684 20.519653 -20.519684l0 0c5.4421997 0 10.661438 2.1618805 14.509644 6.010071c3.8482056 3.8481903 6.010071 9.067444 6.010071 14.509613l0 0c0 11.332703 -9.186951 20.519669 -20.519714 20.519669l0 0c-11.332703 0 -20.519653 -9.186966 -20.519653 -20.519669z" fill-rule="evenodd"/><path stroke="#000000" stroke-width="1.0" stroke-linejoin="round" stroke-linecap="butt" d="m671.395 237.66273l0 0c0 -11.332718 9.186951 -20.519684 20.519653 -20.519684l0 0c5.4421997 0 10.661438 2.1618805 14.509644 6.010071c3.8482056 3.8481903 6.010071 9.067444 6.010071 14.509613l0 0c0 11.332703 -9.186951 20.519669 -20.519714 20.519669l0 0c-11.332703 0 -20.519653 -9.186966 -20.519653 -20.519669z" fill-rule="evenodd"/><path fill="#000000" fill-opacity="0.0" d="m609.1052 438.6824l163.77954 0l0 43.62207l-163.77954 0z" fill-rule="evenodd"/><path fill="#000000" d="m630.2927 460.78867q0.625 0.078125 0.078125 0.46875l0 1.71875q0 4.921875 -4.453125 5.703125l-0.625 -1.640625q3.515625 -0.234375 3.515625 -4.21875l0 -2.03125l1.484375 0zm5.46875 4.140625l1.484375 0.46875l-0.3125 1.40625q-0.3125 1.328125 -1.5625 1.328125l-2.265625 0q-1.25 0 -1.25 -1.328125l0 -6.015625l1.484375 0q0.625 0.078125 0.078125 0.46875l0 4.765625q0 0.625 0.546875 0.625l1.015625 0q0.390625 0 0.546875 -0.625l0.234375 -1.09375zm1.015625 -3.125l-1.5625 0l0 -1.875l-7.8125 0l0 1.953125l-1.5625 0l0 -3.4375l10.9375 0l0 3.359375zm-6.40625 -11.09375l1.484375 0q0.625 0.078125 0.078125 0.46875l0 1.640625l4.609375 0l0 1.484375l-4.609375 0l0 1.640625l3.59375 0l0 1.484375l-8.4375 0l0 -1.484375l3.28125 0l0 -1.640625l-4.140625 0l0 -1.484375l4.140625 0l0 -2.109375zm-5.625 10.234375l-4.84375 0l0 -1.484375l4.84375 0l0 1.484375zm0 -2.734375l-4.84375 0l0 -1.484375l4.84375 0l0 1.484375zm0.625 -4.296875l0 1.484375l-6.25 0l0 -1.484375l6.25 0zm-0.625 -1.25l-4.84375 0l0 -1.484375l4.84375 0l0 1.484375zm-1.015625 15.703125l0 -0.625l-2.8125 0l0 0.9375l-1.328125 0l0 -6.328125l5.46875 0l0 6.015625l-1.328125 0zm0 -1.875l0 -2.890625l-2.8125 0l0 2.890625l2.8125 0zm23.28125 -4.921875q-0.15625 -0.9375 -1.09375 -0.9375q-1.953125 0 -3.359375 2.34375q-0.859375 1.40625 -1.71875 3.59375l-1.796875 -0.9375q3.203125 -5.0 7.65625 -14.21875l1.71875 0.9375q0.546875 0.546875 -0.234375 0.625q-1.640625 2.421875 -3.90625 6.640625q1.328125 -0.546875 2.34375 -0.546875q0.9375 0 1.484375 0.546875q0.546875 0.546875 0.703125 2.1875l0.46875 2.96875q0.15625 1.015625 1.25 1.015625q1.015625 0 1.71875 -0.703125q1.484375 -1.484375 2.34375 -5.859375l1.71875 0.859375q-1.015625 4.453125 -2.421875 5.859375q-1.5625 1.5625 -3.515625 1.5625q-2.421875 0 -2.8125 -2.578125l-0.546875 -3.359375zm27.03125 -2.1875q-4.53125 0.15625 -7.109375 1.25l-0.46875 -1.5625q3.359375 -1.328125 7.265625 -1.328125l0.3125 1.640625zm0.390625 6.484375l0 1.71875l-3.4375 0q-2.96875 0 -5.625 -1.40625l0.703125 -1.40625q2.03125 1.09375 4.921875 1.09375l3.4375 0zm-6.953125 -9.765625q-2.03125 0.390625 -3.828125 0.625q-1.171875 6.953125 -2.890625 11.015625l-1.71875 -0.546875q2.109375 -4.921875 2.96875 -10.3125q-1.953125 0.15625 -3.359375 0.15625l-0.3125 -1.5625q2.1875 0 3.90625 -0.15625q0.3125 -2.421875 0.546875 -4.21875l1.5625 0.3125q0.859375 0.234375 0.15625 0.625q-0.234375 0.9375 -0.625 3.125q1.796875 -0.234375 3.28125 -0.625l0.3125 1.5625zm4.6875 -5.3125q1.25 0.703125 3.046875 2.03125l-0.703125 1.09375q-1.71875 -1.25 -3.046875 -2.03125l0.703125 -1.09375zm-1.5625 1.5625q1.40625 0.859375 3.046875 2.03125l-0.703125 1.09375q-1.71875 -1.171875 -3.046875 -2.03125l0.703125 -1.09375zm10.3125 -1.09375l1.640625 0q0.859375 0.15625 0.15625 0.625l0.15625 3.75q0.078125 1.640625 0.546875 2.65625q2.1875 -0.9375 5.859375 -1.953125l0.78125 2.03125q-7.421875 1.328125 -9.921875 3.828125q-0.859375 0.859375 -0.859375 1.796875q0 0.703125 0.546875 1.25q0.546875 0.546875 2.265625 0.546875l7.5 0l0 1.71875l-7.578125 0q-2.578125 0 -3.59375 -1.015625q-1.015625 -1.015625 -1.015625 -2.34375q0 -1.71875 1.25 -2.96875q0.9375 -0.9375 3.125 -2.1875q-0.46875 -1.171875 -0.546875 -2.578125l-0.3125 -5.15625zm16.09375 15.234375q-2.421875 0 -3.359375 -0.9375q-0.9375 -0.9375 -0.9375 -2.5q0 -0.859375 0.3125 -2.03125l1.796875 0.234375q-0.390625 1.25 -0.390625 1.796875q0 0.703125 0.46875 1.171875q0.546875 0.546875 2.1875 0.546875l8.515625 0l0 1.71875l-8.59375 0zm-3.125 -13.203125l10.15625 0l0 1.71875l-10.15625 0l0 -1.71875zm18.671875 12.890625q5.859375 0.078125 7.34375 -1.40625q0.859375 -0.859375 0.859375 -2.1875q0 -1.484375 -0.78125 -2.265625q-0.859375 -0.859375 -2.890625 -0.859375q-4.765625 0 -7.578125 4.140625l-1.328125 -1.328125q5.078125 -5.0 7.34375 -8.75q-2.578125 0.390625 -5.15625 0.703125l-0.546875 -1.796875q2.8125 0 6.796875 -0.546875l0.546875 -0.234375l0.9375 0.859375q0.703125 0.703125 -0.234375 0.859375q-2.109375 2.734375 -4.140625 5.3125q2.265625 -0.625 3.671875 -0.625q2.5 0 3.828125 1.328125q1.171875 1.171875 1.171875 3.203125q0 2.03125 -1.25 3.28125q-1.875 1.875 -7.8125 1.953125l-0.78125 -1.640625zm28.046875 -6.796875q-4.53125 0.15625 -7.109375 1.25l-0.46875 -1.5625q3.359375 -1.328125 7.265625 -1.328125l0.3125 1.640625zm0.390625 6.484375l0 1.71875l-3.4375 0q-2.96875 0 -5.625 -1.40625l0.703125 -1.40625q2.03125 1.09375 4.921875 1.09375l3.4375 0zm-6.953125 -9.765625q-2.03125 0.390625 -3.828125 0.625q-1.171875 6.953125 -2.890625 11.015625l-1.71875 -0.546875q2.109375 -4.921875 2.96875 -10.3125q-1.953125 0.15625 -3.359375 0.15625l-0.3125 -1.5625q2.1875 0 3.90625 -0.15625q0.3125 -2.421875 0.546875 -4.21875l1.5625 0.3125q0.859375 0.234375 0.15625 0.625q-0.234375 0.9375 -0.625 3.125q1.796875 -0.234375 3.28125 -0.625l0.3125 1.5625zm4.6875 -5.3125q1.25 0.703125 3.046875 2.03125l-0.703125 1.09375q-1.71875 -1.25 -3.046875 -2.03125l0.703125 -1.09375zm-1.5625 1.5625q1.40625 0.859375 3.046875 2.03125l-0.703125 1.09375q-1.71875 -1.171875 -3.046875 -2.03125l0.703125 -1.09375z" fill-rule="nonzero"/><path fill="#000000" fill-opacity="0.0" d="m138.24934 258.45145l1.6378021 180.22046" fill-rule="evenodd"/><path stroke="#000000" stroke-width="1.0" stroke-linejoin="round" stroke-linecap="butt" d="m138.24934 258.45145l1.5832672 174.2207" fill-rule="evenodd"/><path fill="#000000" stroke="#000000" stroke-width="1.0" stroke-linecap="butt" d="m138.18095 432.68716l1.6929016 4.5229187l1.6104279 -4.5529175z" fill-rule="evenodd"/><path fill="#000000" fill-opacity="0.0" d="m309.12466 217.41208l-1.322815 -107.2441" fill-rule="evenodd"/><path stroke="#000000" stroke-width="1.0" stroke-linejoin="round" stroke-linecap="butt" d="m309.12466 217.41208l-1.2488098 -101.24456" fill-rule="evenodd"/><path fill="#000000" stroke="#000000" stroke-width="1.0" stroke-linecap="butt" d="m309.52744 116.14715l-1.7075806 -4.5173798l-1.5956116 4.5581284z" fill-rule="evenodd"/><path fill="#000000" fill-opacity="0.0" d="m480.0 258.45145l1.0708618 60.22046" fill-rule="evenodd"/><path stroke="#000000" stroke-width="1.0" stroke-linejoin="round" stroke-linecap="butt" d="m480.0 258.45145l0.9642029 54.221405" fill-rule="evenodd"/><path fill="#000000" stroke="#000000" stroke-width="1.0" stroke-linecap="butt" d="m479.3127 312.70224l1.7321472 4.5079956l1.5708008 -4.566742z" fill-rule="evenodd"/><path fill="#000000" fill-opacity="0.0" d="m481.08133 362.30447l-0.4409485 76.37793" fill-rule="evenodd"/><path stroke="#000000" stroke-width="1.0" stroke-linejoin="round" stroke-linecap="butt" d="m481.08133 362.30447l-0.40631104 70.37802" fill-rule="evenodd"/><path fill="#000000" stroke="#000000" stroke-width="1.0" stroke-linecap="butt" d="m479.02332 432.67297l1.6254883 4.547577l1.6779175 -4.5285034z" fill-rule="evenodd"/><path fill="#000000" fill-opacity="0.0" d="m650.8753 217.41208l0.34649658 -107.2441" fill-rule="evenodd"/><path stroke="#000000" stroke-width="1.0" stroke-linejoin="round" stroke-linecap="butt" d="m650.8753 217.41208l0.3270874 -101.24413" fill-rule="evenodd"/><path fill="#000000" stroke="#000000" stroke-width="1.0" stroke-linecap="butt" d="m652.8541 116.17329l-1.637085 -4.5434113l-1.6663818 4.5327377z" fill-rule="evenodd"/><path fill="#000000" fill-opacity="0.0" d="m691.9084 259.94226l-0.9133911 178.74014" fill-rule="evenodd"/><path stroke="#000000" stroke-width="1.0" stroke-linejoin="round" stroke-linecap="butt" d="m691.9084 259.94226l-0.8826904 172.74023" fill-rule="evenodd"/><path fill="#000000" stroke="#000000" stroke-width="1.0" stroke-linecap="butt" d="m689.37396 432.67404l1.628479 4.5464783l1.6749268 -4.5295715z" fill-rule="evenodd"/><path fill="#000000" fill-opacity="0.0" d="m823.0332 258.30447l0 60.37793" fill-rule="evenodd"/><path stroke="#000000" stroke-width="1.0" stroke-linejoin="round" stroke-linecap="butt" d="m823.0332 258.30447l0 54.37793" fill-rule="evenodd"/><path fill="#000000" stroke="#000000" stroke-width="1.0" stroke-linecap="butt" d="m821.3815 312.6824l1.6517334 4.5381165l1.6517334 -4.5381165z" fill-rule="evenodd"/><path fill="#000000" fill-opacity="0.0" d="m98.45137 473.06824l80.88188 0l0 43.62207l-80.88188 0z" fill-rule="evenodd"/><path fill="#980000" d="m109.48262 486.81512l15.703125 0l0 1.484375l-6.484375 0l0 4.84375l5.078125 0l0 1.484375l-5.078125 0l0 5.546875l7.03125 0l0 1.484375l-16.796875 0l0 -1.484375l2.890625 0l0 -8.75l1.71875 0q0.625 0.078125 0.078125 0.46875l0 8.28125l3.28125 0l0 -11.875l-7.421875 0l0 -1.484375zm29.375 13.75q-2.65625 1.953125 -9.140625 2.5l-0.3125 -1.484375q5.390625 -0.3125 7.8125 -1.5625q-1.796875 -0.46875 -3.515625 -0.78125l-0.46875 0.546875l-1.40625 -0.78125l2.109375 -2.34375l-5.390625 0l0 -1.25l6.40625 0l1.25 -1.71875l-4.140625 0l0 0.546875l-1.328125 0l0 -5.234375l4.0625 0l0 -1.71875l-5.78125 0l0 -1.25l16.796875 0l0 1.25l-5.78125 0l0 1.71875l4.0625 0l0 5.15625l-1.328125 0l0 -0.46875l-5.859375 0l0.78125 0.390625q0.390625 0.234375 -0.234375 0.390625l-0.78125 0.9375l9.6875 0l0 1.25l-3.984375 0q-0.9375 1.5625 -2.265625 2.8125q2.5 0.703125 5.390625 2.03125l-1.015625 1.40625q-2.34375 -1.25 -5.625 -2.34375zm-2.96875 -3.90625l-1.328125 1.484375q1.796875 0.234375 3.984375 0.78125q1.25 -0.9375 1.953125 -2.265625l-4.609375 0zm0.234375 -9.375l0 1.71875l2.578125 0l0 -1.71875l-2.578125 0zm-4.0625 5.15625l2.734375 0l0 -2.1875l-2.734375 0l0 2.1875zm4.0625 -2.1875l0 2.1875l2.578125 0l0 -2.1875l-2.578125 0zm3.90625 0l0 2.1875l2.734375 0l0 -2.1875l-2.734375 0zm25.625 13.046875q-2.421875 -0.46875 -4.375 -1.71875l1.015625 -0.9375q1.5625 0.859375 4.0625 1.484375l-0.703125 1.171875zm-0.546875 -9.140625l0 6.25l-9.296875 0l0 -6.25l9.296875 0zm-8.828125 -2.734375l0.546875 0q1.640625 0 1.640625 -1.09375l-2.1875 0l0 1.09375zm0 0.78125l0 0.46875l8.359375 0l0 -0.625l-2.734375 0q-0.859375 0 -0.859375 -0.9375l0 -0.78125l-1.484375 0q0 1.875 -2.578125 1.875l-0.703125 0zm-1.640625 9.609375q2.34375 -0.546875 3.828125 -1.25l0.859375 0.78125q0.625 0.546875 -0.234375 0.390625q-2.421875 0.9375 -3.828125 1.25l-0.625 -1.171875zm-1.796875 -3.984375l-2.265625 0l0 2.8125l2.265625 0l0 -2.8125zm1.015625 -2.65625l-4.375 0l0 -1.484375l4.375 0l0 1.484375zm-3.28125 6.71875l0 1.015625l-1.328125 0l0 -6.328125l4.921875 0l0 6.015625l-1.328125 0l0 -0.703125l-2.265625 0zm3.28125 -9.453125l-4.375 0l0 -1.484375l4.375 0l0 1.484375zm0.46875 -2.734375l-5.859375 0l0 -1.484375l5.859375 0l0 1.484375zm-0.46875 -2.65625l-4.375 0l0 -1.484375l4.375 0l0 1.484375zm5.703125 0.703125l0 -0.703125l-4.53125 0l0 -0.9375l4.53125 0l0 -1.171875l1.484375 0q0.625 0.078125 0.078125 0.46875l0 0.703125l4.84375 0l0 0.9375l-4.84375 0l0 0.703125l3.828125 0l0 0.9375l-8.984375 0l0 -0.9375l3.59375 0zm6.40625 1.640625l0 4.21875l-11.015625 0l0 -4.21875l11.015625 0zm-8.828125 5.703125l0 0.78125l6.640625 0l0 -0.78125l-6.640625 0zm0 1.71875l0 0.859375l6.640625 0l0 -0.859375l-6.640625 0zm0 1.796875l0 0.859375l6.640625 0l0 -0.859375l-6.640625 0zm5.0 -7.8125q0 0.3125 0.3125 0.3125l2.1875 0l0 -0.78125l-2.5 0l0 0.46875z" fill-rule="nonzero"/><path fill="#000000" fill-opacity="0.0" d="m440.64035 474.07224l80.88193 0l0 43.62204l-80.88193 0z" fill-rule="evenodd"/><path fill="#980000" d="m451.6716 487.81912l15.703125 0l0 1.484375l-6.484375 0l0 4.84375l5.078125 0l0 1.484375l-5.078125 0l0 5.546875l7.03125 0l0 1.484375l-16.796875 0l0 -1.484375l2.890625 0l0 -8.75l1.71875 0q0.625 0.078125 0.078125 0.46875l0 8.28125l3.28125 0l0 -11.875l-7.421875 0l0 -1.484375zm22.34375 4.609375l1.015625 0.234375q0.46875 -0.46875 1.484375 -2.34375l-5.078125 0l0 -1.484375l5.703125 0q0.625 -1.484375 0.9375 -2.8125l1.71875 0.625q0.3125 0.3125 -0.234375 0.390625q-0.15625 0.703125 -0.703125 1.796875l9.0625 0l0 1.484375l-9.6875 0q-0.9375 2.109375 -2.65625 4.375l0 9.21875l-1.5625 0l0 -7.734375q-1.015625 1.015625 -2.890625 2.109375l-0.78125 -1.796875q2.1875 -1.015625 3.671875 -2.65625l0 -1.40625zm8.828125 -1.015625q0.625 0.078125 0.078125 0.46875l0 3.046875l3.984375 0l0 1.484375l-3.984375 0l0 5.15625l5.15625 0l0 1.484375l-11.796875 0l0 -1.484375l5.078125 0l0 -5.15625l-4.296875 0l0 -1.484375l4.296875 0l0 -3.515625l1.484375 0zm25.0 12.890625q-2.421875 -0.46875 -4.375 -1.71875l1.015625 -0.9375q1.5625 0.859375 4.0625 1.484375l-0.703125 1.171875zm-0.546875 -9.140625l0 6.25l-9.296875 0l0 -6.25l9.296875 0zm-8.828125 -2.734375l0.546875 0q1.640625 0 1.640625 -1.09375l-2.1875 0l0 1.09375zm0 0.78125l0 0.46875l8.359375 0l0 -0.625l-2.734375 0q-0.859375 0 -0.859375 -0.9375l0 -0.78125l-1.484375 0q0 1.875 -2.578125 1.875l-0.703125 0zm-1.640625 9.609375q2.34375 -0.546875 3.828125 -1.25l0.859375 0.78125q0.625 0.546875 -0.234375 0.390625q-2.421875 0.9375 -3.828125 1.25l-0.625 -1.171875zm-1.796875 -3.984375l-2.265625 0l0 2.8125l2.265625 0l0 -2.8125zm1.015625 -2.65625l-4.375 0l0 -1.484375l4.375 0l0 1.484375zm-3.28125 6.71875l0 1.015625l-1.328125 0l0 -6.328125l4.921875 0l0 6.015625l-1.328125 0l0 -0.703125l-2.265625 0zm3.28125 -9.453125l-4.375 0l0 -1.484375l4.375 0l0 1.484375zm0.46875 -2.734375l-5.859375 0l0 -1.484375l5.859375 0l0 1.484375zm-0.46875 -2.65625l-4.375 0l0 -1.484375l4.375 0l0 1.484375zm5.703125 0.703125l0 -0.703125l-4.53125 0l0 -0.9375l4.53125 0l0 -1.171875l1.484375 0q0.625 0.078125 0.078125 0.46875l0 0.703125l4.84375 0l0 0.9375l-4.84375 0l0 0.703125l3.828125 0l0 0.9375l-8.984375 0l0 -0.9375l3.59375 0zm6.40625 1.640625l0 4.21875l-11.015625 0l0 -4.21875l11.015625 0zm-8.828125 5.703125l0 0.78125l6.640625 0l0 -0.78125l-6.640625 0zm0 1.71875l0 0.859375l6.640625 0l0 -0.859375l-6.640625 0zm0 1.796875l0 0.859375l6.640625 0l0 -0.859375l-6.640625 0zm5.0 -7.8125q0 0.3125 0.3125 0.3125l2.1875 0l0 -0.78125l-2.5 0l0 0.46875z" fill-rule="nonzero"/><path fill="#000000" fill-opacity="0.0" d="m642.46716 472.47864l102.74017 0l0 43.62207l-102.74017 0z" fill-rule="evenodd"/><path fill="#980000" d="m667.8734 500.52237q0.3125 0 0.3125 -0.3125l0 -15.3125l1.484375 0q0.625 0.078125 0.078125 0.46875l0 15.390625q0 1.25 -1.25 1.25l-1.328125 0l-0.3125 -1.484375l1.015625 0zm-1.171875 -13.90625q0.625 0.078125 0.078125 0.46875l0 11.171875l-1.5625 0l0 -11.640625l1.484375 0zm-12.1875 0.15625l0 3.90625l4.140625 0l0.9375 -3.4375l1.328125 0.390625q0.78125 0.390625 0 0.546875l-1.015625 2.5l2.421875 0l0 -3.90625l-7.8125 0zm5.546875 12.578125l0 -0.703125l-3.28125 0l0 1.5625l-1.328125 0l0 -6.796875l1.25 0q0.625 0.078125 0.078125 0.46875l0 3.515625l0.9375 0l0 -5.234375l-3.203125 0l0 10.0l-1.328125 0l0 -16.875l10.46875 0l0 15.390625q0 1.328125 -1.09375 1.328125l-1.484375 0l-0.46875 -1.484375l1.328125 0q0.390625 0 0.390625 -0.3125l0 -8.046875l-3.28125 0l0 5.234375l1.015625 0l0 -3.984375l1.25 0q0.625 0.078125 0.078125 0.46875l0 5.46875l-1.328125 0zm-3.125 -11.875q0.546875 0.703125 1.015625 2.109375l-1.25 0.703125q-0.546875 -1.40625 -1.015625 -2.1875l1.25 -0.625zm30.9375 13.046875q0.3125 0 0.3125 -0.3125l0 -15.3125l1.484375 0q0.625 0.078125 0.078125 0.46875l0 15.390625q0 1.25 -1.25 1.25l-1.328125 0l-0.3125 -1.484375l1.015625 0zm-1.171875 -13.90625q0.625 0.078125 0.078125 0.46875l0 11.171875l-1.5625 0l0 -11.640625l1.484375 0zm-12.1875 0.15625l0 3.90625l4.140625 0l0.9375 -3.4375l1.328125 0.390625q0.78125 0.390625 0 0.546875l-1.015625 2.5l2.421875 0l0 -3.90625l-7.8125 0zm5.546875 12.578125l0 -0.703125l-3.28125 0l0 1.5625l-1.328125 0l0 -6.796875l1.25 0q0.625 0.078125 0.078125 0.46875l0 3.515625l0.9375 0l0 -5.234375l-3.203125 0l0 10.0l-1.328125 0l0 -16.875l10.46875 0l0 15.390625q0 1.328125 -1.09375 1.328125l-1.484375 0l-0.46875 -1.484375l1.328125 0q0.390625 0 0.390625 -0.3125l0 -8.046875l-3.28125 0l0 5.234375l1.015625 0l0 -3.984375l1.25 0q0.625 0.078125 0.078125 0.46875l0 5.46875l-1.328125 0zm-3.125 -11.875q0.546875 0.703125 1.015625 2.109375l-1.25 0.703125q-0.546875 -1.40625 -1.015625 -2.1875l1.25 -0.625zm32.734375 15.234375q-2.421875 -0.46875 -4.375 -1.71875l1.015625 -0.9375q1.5625 0.859375 4.0625 1.484375l-0.703125 1.171875zm-0.546875 -9.140625l0 6.25l-9.296875 0l0 -6.25l9.296875 0zm-8.828125 -2.734375l0.546875 0q1.640625 0 1.640625 -1.09375l-2.1875 0l0 1.09375zm0 0.78125l0 0.46875l8.359375 0l0 -0.625l-2.734375 0q-0.859375 0 -0.859375 -0.9375l0 -0.78125l-1.484375 0q0 1.875 -2.578125 1.875l-0.703125 0zm-1.640625 9.609375q2.34375 -0.546875 3.828125 -1.25l0.859375 0.78125q0.625 0.546875 -0.234375 0.390625q-2.421875 0.9375 -3.828125 1.25l-0.625 -1.171875zm-1.796875 -3.984375l-2.265625 0l0 2.8125l2.265625 0l0 -2.8125zm1.015625 -2.65625l-4.375 0l0 -1.484375l4.375 0l0 1.484375zm-3.28125 6.71875l0 1.015625l-1.328125 0l0 -6.328125l4.921875 0l0 6.015625l-1.328125 0l0 -0.703125l-2.265625 0zm3.28125 -9.453125l-4.375 0l0 -1.484375l4.375 0l0 1.484375zm0.46875 -2.734375l-5.859375 0l0 -1.484375l5.859375 0l0 1.484375zm-0.46875 -2.65625l-4.375 0l0 -1.484375l4.375 0l0 1.484375zm5.703125 0.703125l0 -0.703125l-4.53125 0l0 -0.9375l4.53125 0l0 -1.171875l1.484375 0q0.625 0.078125 0.078125 0.46875l0 0.703125l4.84375 0l0 0.9375l-4.84375 0l0 0.703125l3.828125 0l0 0.9375l-8.984375 0l0 -0.9375l3.59375 0zm6.40625 1.640625l0 4.21875l-11.015625 0l0 -4.21875l11.015625 0zm-8.828125 5.703125l0 0.78125l6.640625 0l0 -0.78125l-6.640625 0zm0 1.71875l0 0.859375l6.640625 0l0 -0.859375l-6.640625 0zm0 1.796875l0 0.859375l6.640625 0l0 -0.859375l-6.640625 0zm5.0 -7.8125q0 0.3125 0.3125 0.3125l2.1875 0l0 -0.78125l-2.5 0l0 0.46875zm16.015625 -3.75l7.421875 0l0 4.0625l-1.5625 0l0 -2.578125l-13.203125 0l0 2.578125l-1.5625 0l0 -4.0625l7.109375 0l0 -1.875l1.71875 0q0.78125 0.15625 0.078125 0.625l0 1.25zm-6.328125 3.4375l11.015625 0l0 1.484375l-11.015625 0l0 -1.484375zm-2.96875 3.515625l17.03125 0l0 1.484375l-5.703125 0l0 4.84375q0 0.625 0.546875 0.625l2.65625 0q0.78125 0 0.859375 -0.78125l0.15625 -1.328125l1.796875 0.390625l-0.390625 1.953125q-0.3125 1.484375 -2.109375 1.484375l-3.90625 0q-1.40625 0 -1.40625 -1.328125l0 -5.859375l-2.5 0l0 1.25q0 4.921875 -6.484375 6.328125l-0.625 -1.796875q5.3125 -0.859375 5.3125 -4.609375l0 -1.171875l-5.234375 0l0 -1.484375z" fill-rule="nonzero"/><path fill="#000000" fill-opacity="0.0" d="m267.35428 66.54593l80.8819 0l0 43.622047l-80.8819 0z" fill-rule="evenodd"/><path fill="#980000" d="m287.3699 79.04281l7.34375 0l0 15.9375q0 1.25 -1.25 1.25l-1.875 0l-0.234375 -1.484375l1.484375 0q0.3125 0 0.3125 -0.3125l0 -8.90625l-2.890625 0l-2.890625 0l0 -6.484375zm-6.484375 12.109375l0 -1.25l3.125 0l0 -1.875l-2.578125 0l0 -1.25l9.84375 0l0 1.25l-2.03125 0l0 1.875l2.65625 0l0 1.25l-2.65625 0l0 4.6875l-1.5625 0l0 -4.6875l-2.109375 0q0.15625 3.4375 -3.515625 5.078125l-0.78125 -1.484375q2.734375 -1.015625 2.734375 -3.59375l-3.125 0zm2.8125 -10.859375l-3.90625 0l0 1.40625l3.90625 0l0 -1.40625zm1.5625 5.234375l-5.46875 0l0 10.9375l-1.5625 0l0 -17.421875l7.03125 0l0 6.484375zm2.421875 4.375l0 -1.875l-2.109375 0l0 1.875l2.109375 0zm5.46875 -8.203125l0 -1.40625l-4.21875 0l0 1.40625l4.21875 0zm-4.21875 2.578125l4.21875 0l0 -1.328125l-4.21875 0l0 1.328125zm-9.140625 0l3.90625 0l0 -1.328125l-3.90625 0l0 1.328125zm25.859375 2.578125q-0.390625 0.46875 -0.46875 0l-0.390625 -1.640625l1.40625 0q0.859375 -2.5 1.796875 -6.5625l1.875 0.546875q0.46875 0.390625 -0.3125 0.546875q-0.9375 2.8125 -1.875 5.390625l4.6875 -0.3125q-0.703125 -1.171875 -1.640625 -2.421875l1.328125 -0.625q1.796875 1.953125 3.203125 4.765625l-1.5625 0.78125l-0.625 -1.25l-7.421875 0.78125zm-4.609375 -2.8125q-0.390625 2.5 -1.015625 4.84375q0.9375 0.625 1.875 1.25q0.546875 -1.953125 0.859375 -6.09375l-1.71875 0zm2.109375 6.953125q0.625 0.46875 1.5625 1.25l-0.859375 1.640625q-0.546875 -0.625 -1.40625 -1.328125q-1.25 2.03125 -3.671875 3.59375l-1.015625 -1.25q2.265625 -1.484375 3.515625 -3.359375q-0.859375 -0.625 -1.71875 -1.328125l-0.390625 1.015625l-1.40625 -0.625q1.171875 -2.890625 1.796875 -6.5625l-1.875 0l0 -1.484375l2.109375 0q0.234375 -1.796875 0.46875 -3.671875l1.40625 0.3125q0.78125 0.234375 0 0.546875q-0.15625 1.40625 -0.390625 2.8125l1.796875 0l0.3125 -0.3125l1.171875 0.78125l-0.234375 0.3125q-0.3125 5.078125 -1.171875 7.65625zm9.140625 4.375l-4.921875 0l0 1.015625l-1.5625 0l0 -7.96875l8.046875 0l0 7.65625l-1.5625 0l0 -0.703125zm0 -1.484375l0 -3.984375l-4.921875 0l0 3.984375l4.921875 0zm22.265625 2.890625q-2.421875 -0.46875 -4.375 -1.71875l1.015625 -0.9375q1.5625 0.859375 4.0625 1.484375l-0.703125 1.171875zm-0.546875 -9.140625l0 6.25l-9.296875 0l0 -6.25l9.296875 0zm-8.828125 -2.734375l0.546875 0q1.640625 0 1.640625 -1.09375l-2.1875 0l0 1.09375zm0 0.78125l0 0.46875l8.359375 0l0 -0.625l-2.734375 0q-0.859375 0 -0.859375 -0.9375l0 -0.78125l-1.484375 0q0 1.875 -2.578125 1.875l-0.703125 0zm-1.640625 9.609375q2.34375 -0.546875 3.828125 -1.25l0.859375 0.78125q0.625 0.546875 -0.234375 0.390625q-2.421875 0.9375 -3.828125 1.25l-0.625 -1.171875zm-1.796875 -3.984375l-2.265625 0l0 2.8125l2.265625 0l0 -2.8125zm1.015625 -2.65625l-4.375 0l0 -1.484375l4.375 0l0 1.484375zm-3.28125 6.71875l0 1.015625l-1.328125 0l0 -6.328125l4.921875 0l0 6.015625l-1.328125 0l0 -0.703125l-2.265625 0zm3.28125 -9.453125l-4.375 0l0 -1.484375l4.375 0l0 1.484375zm0.46875 -2.734375l-5.859375 0l0 -1.484375l5.859375 0l0 1.484375zm-0.46875 -2.65625l-4.375 0l0 -1.484375l4.375 0l0 1.484375zm5.703125 0.703125l0 -0.703125l-4.53125 0l0 -0.9375l4.53125 0l0 -1.171875l1.484375 0q0.625 0.078125 0.078125 0.46875l0 0.703125l4.84375 0l0 0.9375l-4.84375 0l0 0.703125l3.828125 0l0 0.9375l-8.984375 0l0 -0.9375l3.59375 0zm6.40625 1.640625l0 4.21875l-11.015625 0l0 -4.21875l11.015625 0zm-8.828125 5.703125l0 0.78125l6.640625 0l0 -0.78125l-6.640625 0zm0 1.71875l0 0.859375l6.640625 0l0 -0.859375l-6.640625 0zm0 1.796875l0 0.859375l6.640625 0l0 -0.859375l-6.640625 0zm5.0 -7.8125q0 0.3125 0.3125 0.3125l2.1875 0l0 -0.78125l-2.5 0l0 0.46875z" fill-rule="nonzero"/><path fill="#000000" fill-opacity="0.0" d="m620.7523 66.54593l60.944885 0l0 43.622047l-60.944885 0z" fill-rule="evenodd"/><path fill="#980000" d="m647.95544 96.77718q-2.421875 -0.46875 -4.375 -1.71875l1.015625 -0.9375q1.5625 0.859375 4.0625 1.484375l-0.703125 1.171875zm-0.546875 -9.140625l0 6.25l-9.296875 0l0 -6.25l9.296875 0zm-8.828125 -2.734375l0.546875 0q1.640625 0 1.640625 -1.09375l-2.1875 0l0 1.09375zm0 0.78125l0 0.46875l8.359375 0l0 -0.625l-2.734375 0q-0.859375 0 -0.859375 -0.9375l0 -0.78125l-1.484375 0q0 1.875 -2.578125 1.875l-0.703125 0zm-1.640625 9.609375q2.34375 -0.546875 3.828125 -1.25l0.859375 0.78125q0.625 0.546875 -0.234375 0.390625q-2.421875 0.9375 -3.828125 1.25l-0.625 -1.171875zm-1.796875 -3.984375l-2.265625 0l0 2.8125l2.265625 0l0 -2.8125zm1.015625 -2.65625l-4.375 0l0 -1.484375l4.375 0l0 1.484375zm-3.28125 6.71875l0 1.015625l-1.328125 0l0 -6.328125l4.921875 0l0 6.015625l-1.328125 0l0 -0.703125l-2.265625 0zm3.28125 -9.453125l-4.375 0l0 -1.484375l4.375 0l0 1.484375zm0.46875 -2.734375l-5.859375 0l0 -1.484375l5.859375 0l0 1.484375zm-0.46875 -2.65625l-4.375 0l0 -1.484375l4.375 0l0 1.484375zm5.703125 0.703125l0 -0.703125l-4.53125 0l0 -0.9375l4.53125 0l0 -1.171875l1.484375 0q0.625 0.078125 0.078125 0.46875l0 0.703125l4.84375 0l0 0.9375l-4.84375 0l0 0.703125l3.828125 0l0 0.9375l-8.984375 0l0 -0.9375l3.59375 0zm6.40625 1.640625l0 4.21875l-11.015625 0l0 -4.21875l11.015625 0zm-8.828125 5.703125l0 0.78125l6.640625 0l0 -0.78125l-6.640625 0zm0 1.71875l0 0.859375l6.640625 0l0 -0.859375l-6.640625 0zm0 1.796875l0 0.859375l6.640625 0l0 -0.859375l-6.640625 0zm5.0 -7.8125q0 0.3125 0.3125 0.3125l2.1875 0l0 -0.78125l-2.5 0l0 0.46875zm16.015625 -3.75l7.421875 0l0 4.0625l-1.5625 0l0 -2.578125l-13.203125 0l0 2.578125l-1.5625 0l0 -4.0625l7.109375 0l0 -1.875l1.71875 0q0.78125 0.15625 0.078125 0.625l0 1.25zm-6.328125 3.4375l11.015625 0l0 1.484375l-11.015625 0l0 -1.484375zm-2.96875 3.515625l17.03125 0l0 1.484375l-5.703125 0l0 4.84375q0 0.625 0.546875 0.625l2.65625 0q0.78125 0 0.859375 -0.78125l0.15625 -1.328125l1.796875 0.390625l-0.390625 1.953125q-0.3125 1.484375 -2.109375 1.484375l-3.90625 0q-1.40625 0 -1.40625 -1.328125l0 -5.859375l-2.5 0l0 1.25q0 4.921875 -6.484375 6.328125l-0.625 -1.796875q5.3125 -0.859375 5.3125 -4.609375l0 -1.171875l-5.234375 0l0 -1.484375z" fill-rule="nonzero"/><path fill="#000000" fill-opacity="0.0" d="m784.41895 350.18835l80.8819 0l0 43.62204l-80.8819 0z" fill-rule="evenodd"/><path fill="#980000" d="m811.6221 380.4196q-2.421875 -0.46875 -4.375 -1.71875l1.015625 -0.9375q1.5625 0.859375 4.0625 1.484375l-0.703125 1.171875zm-0.546875 -9.140625l0 6.25l-9.296875 0l0 -6.25l9.296875 0zm-8.828125 -2.734375l0.546875 0q1.640625 0 1.640625 -1.09375l-2.1875 0l0 1.09375zm0 0.78125l0 0.46875l8.359375 0l0 -0.625l-2.734375 0q-0.859375 0 -0.859375 -0.9375l0 -0.78125l-1.484375 0q0 1.875 -2.578125 1.875l-0.703125 0zm-1.640625 9.609375q2.34375 -0.546875 3.828125 -1.25l0.859375 0.78125q0.625 0.546875 -0.234375 0.390625q-2.421875 0.9375 -3.828125 1.25l-0.625 -1.171875zm-1.796875 -3.984375l-2.265625 0l0 2.8125l2.265625 0l0 -2.8125zm1.015625 -2.65625l-4.375 0l0 -1.484375l4.375 0l0 1.484375zm-3.28125 6.71875l0 1.015625l-1.328125 0l0 -6.328125l4.921875 0l0 6.015625l-1.328125 0l0 -0.703125l-2.265625 0zm3.28125 -9.453125l-4.375 0l0 -1.484375l4.375 0l0 1.484375zm0.46875 -2.734375l-5.859375 0l0 -1.484375l5.859375 0l0 1.484375zm-0.46875 -2.65625l-4.375 0l0 -1.484375l4.375 0l0 1.484375zm5.703125 0.703125l0 -0.703125l-4.53125 0l0 -0.9375l4.53125 0l0 -1.171875l1.484375 0q0.625 0.078125 0.078125 0.46875l0 0.703125l4.84375 0l0 0.9375l-4.84375 0l0 0.703125l3.828125 0l0 0.9375l-8.984375 0l0 -0.9375l3.59375 0zm6.40625 1.640625l0 4.21875l-11.015625 0l0 -4.21875l11.015625 0zm-8.828125 5.703125l0 0.78125l6.640625 0l0 -0.78125l-6.640625 0zm0 1.71875l0 0.859375l6.640625 0l0 -0.859375l-6.640625 0zm0 1.796875l0 0.859375l6.640625 0l0 -0.859375l-6.640625 0zm5.0 -7.8125q0 0.3125 0.3125 0.3125l2.1875 0l0 -0.78125l-2.5 0l0 0.46875zm11.796875 8.125q-1.40625 2.03125 -3.984375 3.75l-1.09375 -1.40625q2.578125 -1.640625 3.828125 -3.359375q-0.078125 -0.15625 -1.5625 -1.09375l-0.3125 0.9375l-1.484375 -0.625q1.09375 -3.046875 1.640625 -6.328125l-1.953125 0l0 -1.484375l2.1875 0q0.3125 -1.875 0.546875 -3.75l1.640625 0.234375q0.390625 0.078125 -0.078125 0.46875q-0.234375 1.5625 -0.546875 3.046875l1.875 0l0.234375 -0.390625l1.484375 0.9375l-0.234375 0.390625q-0.390625 4.765625 -1.40625 7.109375q1.09375 0.859375 2.265625 1.875l-1.015625 1.5625q-1.25 -1.25 -2.03125 -1.875zm8.359375 2.34375q0 1.40625 -1.015625 1.40625l-1.953125 0l-0.390625 -1.71875l1.484375 0q0.3125 0 0.3125 -0.3125l0 -5.46875l-4.140625 0l0 -1.484375l4.140625 0l0 -3.28125l0.546875 0.078125l1.796875 -2.34375l-5.9375 0l0 -1.484375l6.953125 0l0.3125 -0.3125l1.328125 1.328125q0.46875 0.390625 -0.3125 0.46875l-3.125 3.125l0 2.421875l4.140625 0l0 1.484375l-4.140625 0l0 6.09375zm-10.78125 -5.78125q0.703125 0.3125 1.796875 1.015625q0.859375 -2.265625 1.171875 -5.703125l-1.953125 0q-0.78125 3.828125 -1.015625 4.6875zm26.5625 -4.53125q2.5 -1.796875 3.59375 -2.8125l-11.484375 0l0 -1.484375l12.890625 0l0.3125 -0.3125l1.484375 1.484375q0.15625 0.3125 -0.390625 0.3125q-2.1875 2.03125 -6.015625 4.375l0 8.90625q0 1.09375 -1.09375 1.09375l-2.421875 0l-0.3125 -1.71875l1.71875 0q0.3125 0 0.3125 -0.3125l0 -9.765625l1.40625 0.234375z" fill-rule="nonzero"/></g></svg>