<svg version="1.1" viewBox="0.0 0.0 962.3412073490814 110.63517060367454" fill="none" stroke="none" stroke-linecap="square" stroke-miterlimit="10" xmlns:xlink="http://www.w3.org/1999/xlink" xmlns="http://www.w3.org/2000/svg"><clipPath id="p.0"><path d="m0 0l962.3412 0l0 110.63517l-962.3412 0l0 -110.63517z" clip-rule="nonzero"/></clipPath><g clip-path="url(#p.0)"><path fill="#000000" fill-opacity="0.0" d="m0 0l962.3412 0l0 110.63517l-962.3412 0z" fill-rule="evenodd"/><path fill="#ffffff" d="m0 0l962.3307 0l0 124.69292l-962.3307 0z" fill-rule="evenodd"/><path stroke="#ffffff" stroke-width="1.0" stroke-linejoin="round" stroke-linecap="butt" d="m0 0l962.3307 0l0 124.69292l-962.3307 0z" fill-rule="evenodd"/><path fill="#000000" fill-opacity="0.0" d="m255.55847 73.81628l418.86615 0" fill-rule="evenodd"/><path stroke="#000000" stroke-width="1.0" stroke-linejoin="round" stroke-linecap="butt" d="m255.55849 73.81628l412.86615 0" fill-rule="evenodd"/><path fill="#000000" stroke="#000000" stroke-width="1.0" stroke-linecap="butt" d="m668.4246 75.468l4.538086 -1.6517258l-4.538086 -1.6517334z" fill-rule="evenodd"/><path fill="#000000" fill-opacity="0.0" d="m641.0236 73.81628l56.188965 0l0 42.015747l-56.188965 0z" fill-rule="evenodd"/><path fill="#000000" d="m655.2736 100.736275l-5.171875 -13.359375l1.921875 0l3.46875 9.703125q0.421875 1.171875 0.703125 2.1875q0.3125 -1.09375 0.71875 -2.1875l3.609375 -9.703125l1.796875 0l-5.234375 13.359375l-1.8125 0z" fill-rule="nonzero"/><path fill="#000000" d="m678.7172 99.767525l0 1.640625l-3.265625 0q-2.8125 0 -5.34375 -1.34375l0.671875 -1.328125q1.9375 1.03125 4.671875 1.03125l3.265625 0zm-10.234375 -8.6875q-1.109375 6.609375 -2.75 10.46875l-1.625 -0.515625q2.0 -4.671875 2.8125 -9.796875q-1.78125 0.140625 -3.1875 0.140625l-0.296875 -1.484375q2.078125 0 3.703125 -0.140625q0.296875 -2.296875 0.53125 -4.015625l1.484375 0.296875q0.8125 0.234375 0.140625 0.59375q-0.21875 0.890625 -0.59375 2.96875q1.703125 -0.21875 3.125 -0.59375l0.296875 1.484375q-1.9375 0.375 -3.640625 0.59375zm9.875 2.53125q-4.3125 0.140625 -6.765625 1.1875l-0.4375 -1.484375q3.1875 -1.265625 6.90625 -1.265625l0.296875 1.5625z" fill-rule="nonzero"/><path fill="#000000" fill-opacity="0.0" d="m423.46457 73.81628l89.95273 0l0 42.015747l-89.95273 0z" fill-rule="evenodd"/><path fill="#000000" d="m437.71457 100.736275l-5.171875 -13.359375l1.921875 0l3.46875 9.703125q0.421875 1.171875 0.703125 2.1875q0.3125 -1.09375 0.71875 -2.1875l3.609375 -9.703125l1.796875 0l-5.234375 13.359375l-1.8125 0z" fill-rule="nonzero"/><path fill="#000000" d="m460.9394 89.080025q-2.59375 0 -4.078125 0.515625q-1.640625 0.59375 -3.046875 2.015625q-1.40625 1.40625 -1.40625 3.625q0 1.78125 1.109375 2.90625q1.484375 1.484375 5.71875 1.625l-0.59375 1.640625q-4.375 -0.21875 -6.09375 -1.9375q-1.703125 -1.703125 -1.703125 -4.15625q0 -3.484375 2.75 -5.484375q-3.484375 0.515625 -7.125 1.03125l-0.453125 -1.703125q7.28125 -0.515625 14.625 -1.78125l0.296875 1.703125zm9.425781 7.9375q-0.671875 1.71875 -1.40625 2.609375q-1.046875 1.265625 -2.078125 1.265625q-1.859375 0 -2.75 -2.15625q-0.515625 -1.265625 -0.515625 -5.421875q0 -2.96875 0.296875 -6.015625l1.5625 0.375q0.890625 0.21875 0.0625 0.734375q-0.296875 2.75 -0.296875 4.984375q0 3.03125 0.375 4.296875q0.375 1.265625 1.109375 1.265625q0.828125 0 1.421875 -1.1875q0.359375 -0.75 0.734375 -1.78125l1.484375 1.03125zm4.375 -8.671875q3.34375 3.484375 4.09375 8.453125l-2.015625 0.515625q-0.890625 -5.1875 -3.625 -8.078125l1.546875 -0.890625zm15.7421875 12.015625q1.1875 -0.140625 2.0 -0.96875q0.890625 -0.890625 0.890625 -2.375q0 -1.625 -0.96875 -2.59375q-0.953125 -0.96875 -3.03125 -0.96875q-2.453125 0 -3.796875 0.96875q-1.25 0.890625 -3.265625 3.1875l-1.25 -1.109375q5.34375 -5.34375 8.078125 -8.90625q-2.4375 0.296875 -4.890625 0.515625l-0.515625 -1.703125q3.625 0 6.453125 -0.375l0.671875 -0.296875l0.8125 0.828125q0.8125 0.734375 -0.375 0.953125q-2.21875 2.53125 -4.453125 4.984375q1.5625 -0.375 2.59375 -0.375q2.828125 0 4.15625 1.328125q1.34375 1.34375 1.34375 3.421875q0 2.15625 -1.1875 3.34375q-1.78125 1.78125 -4.53125 1.78125q-2.59375 0 -3.78125 -1.1875q-0.96875 -0.96875 -0.96875 -2.3125q0 -0.890625 0.671875 -1.546875q0.734375 -0.75 1.703125 -0.75q1.34375 0 2.234375 0.890625q1.03125 1.046875 1.40625 3.265625zm-1.484375 0.21875q-0.21875 -1.921875 -0.890625 -2.59375q-0.515625 -0.515625 -1.046875 -0.515625q-0.59375 0 -0.890625 0.296875q-0.359375 0.375 -0.359375 0.8125q0 0.671875 0.59375 1.265625q0.734375 0.734375 1.921875 0.734375q0.296875 0 0.671875 0z" fill-rule="nonzero"/><path fill="#000000" fill-opacity="0.0" d="m255.85826 75.37757l0 -35.118114" fill-rule="evenodd"/><path stroke="#000000" stroke-width="1.0" stroke-linejoin="round" stroke-linecap="butt" d="m255.85826 75.37757l0 -35.118114" fill-rule="evenodd"/><path fill="#000000" fill-opacity="0.0" d="m672.2439 73.62147l0 -35.118107" fill-rule="evenodd"/><path stroke="#000000" stroke-width="1.0" stroke-linejoin="round" stroke-linecap="butt" d="m672.2439 73.62147l0 -35.118107" fill-rule="evenodd"/><path fill="#000000" fill-opacity="0.0" d="m221.62204 0l68.47244 0l0 42.015747l-68.47244 0z" fill-rule="evenodd"/><path fill="#000000" d="m247.38766 28.669998q-1.828125 -1.09375 -3.28125 -3.0625q-1.453125 1.96875 -3.28125 3.359375q-0.359375 -0.59375 -0.953125 -1.09375q2.265625 -1.53125 3.359375 -3.28125q-0.953125 -1.53125 -1.53125 -5.03125q-0.296875 0.4375 -0.578125 1.015625q-0.59375 -0.5 -1.25 -0.875q0.953125 -1.234375 1.78125 -3.78125q0.84375 -2.5625 1.0625 -4.078125q0.875 0.28125 1.6875 0.4375q-0.4375 0.5 -1.3125 3.203125l2.828125 0q1.25 0 2.125 -0.078125l0 1.3125q-1.03125 -0.078125 -1.609375 -0.078125q-0.296875 4.453125 -1.609375 7.875q1.90625 2.265625 3.65625 2.703125q-0.65625 0.71875 -1.09375 1.453125zm-12.96875 -8.890625q-0.21875 4.734375 -2.046875 8.15625q-0.515625 -0.578125 -1.171875 -0.875q0.953125 -1.53125 1.5 -4.25q0.546875 -2.734375 0.546875 -5.078125q0 -2.40625 -0.078125 -3.421875l6.640625 0q-0.078125 1.390625 -0.078125 3.0625q0 1.609375 0.078125 2.40625l-5.390625 0zm5.53125 1.828125q-0.078125 0.71875 -0.078125 2.90625q0 2.1875 0.078125 3.140625l-1.234375 0l0 -0.296875l-2.921875 0l0 1.171875l-1.375 0q0.0625 -1.828125 0.0625 -3.71875q0 -1.96875 -0.0625 -3.203125l5.53125 0zm-1.453125 -2.921875l0 -3.28125l-4.015625 0l0 3.28125l4.015625 0zm4.15625 -0.359375q0.578125 3.421875 1.3125 4.953125q1.015625 -2.765625 1.234375 -6.640625l-2.40625 0q-0.21875 0.734375 -0.65625 1.828125l0.515625 -0.140625zm-3.9375 7.859375l0 -3.421875l-2.921875 0l0 3.421875l2.921875 0zm-1.90625 -14.5625q0.375 0.875 0.8125 2.109375q-0.875 0.21875 -1.390625 0.5q-0.140625 -0.9375 -0.734375 -2.109375q0.65625 -0.0625 1.3125 -0.5z" fill-rule="nonzero"/><path fill="#000000" d="m258.0439 27.294998q0.734375 -0.375 1.546875 -1.125l-8.3125 1.5625q-0.0625 0.53125 -0.359375 0.234375l-0.453125 -1.640625l4.3125 -0.515625l0 -1.34375l-3.5 0l0 -1.1875l3.5 0l0 -1.109375l-1.71875 0l-1.625 0l0 -5.265625l3.34375 0l0 -1.046875l-4.3125 0l0 -1.1875l4.3125 0l0 -0.890625q-1.859375 0.078125 -3.71875 0.15625l-0.21875 -1.265625q3.640625 0 7.796875 -0.8125l0.65625 1.25q0.234375 0.453125 -0.4375 0.15625q-1.5625 0.21875 -2.828125 0.375l0 1.03125l4.09375 0l0 1.1875l-4.09375 0l0 1.046875l3.421875 0l0 5.265625l-3.421875 0l0 1.109375l3.71875 0l0 1.1875l-3.71875 0l0 1.109375l3.71875 -0.59375l0 1.046875q2.15625 -1.9375 2.21875 -5.859375l0.078125 -2.90625l-1.78125 0l0 -1.40625l1.78125 0l0 -3.78125l1.40625 0q0.59375 0.078125 0.078125 0.4375l0 3.34375l3.265625 0l-0.140625 9.796875q-0.078125 2.671875 -1.9375 2.671875l-2.0 0l-0.21875 -1.40625l1.703125 0q0.890625 0 0.96875 -1.5625l0.21875 -8.09375l-1.859375 0l-0.078125 3.5q-0.0625 5.109375 -4.515625 7.9375l-0.890625 -1.40625zm-2.015625 -7.359375l0 1.34375l2.15625 0l0 -1.34375l-2.15625 0zm0 -2.140625l0 1.25l2.15625 0l0 -1.25l-2.15625 0zm-3.328125 2.140625l0 1.34375l2.078125 0l0 -1.34375l-2.078125 0zm0 -2.140625l0 1.25l2.078125 0l0 -1.25l-2.078125 0z" fill-rule="nonzero"/><path fill="#000000" fill-opacity="0.0" d="m636.2516 0l68.47241 0l0 42.015747l-68.47241 0z" fill-rule="evenodd"/><path fill="#000000" d="m655.42346 13.404373l7.046875 0l0 3.859375l-1.484375 0l0 -2.4375l-12.546875 0l0 2.4375l-1.484375 0l0 -3.859375l6.765625 0l0 -1.78125l1.625 0q0.75 0.15625 0.078125 0.59375l0 1.1875zm-6.015625 3.265625l10.46875 0l0 1.421875l-10.46875 0l0 -1.421875zm-2.8125 3.34375l16.171875 0l0 1.40625l-5.421875 0l0 4.609375q0 0.59375 0.53125 0.59375l2.515625 0q0.75 0 0.8125 -0.75l0.15625 -1.25l1.703125 0.359375l-0.375 1.859375q-0.296875 1.421875 -2.0 1.421875l-3.703125 0q-1.34375 0 -1.34375 -1.265625l0 -5.578125l-2.375 0l0 1.1875q0 4.6875 -6.15625 6.015625l-0.59375 -1.703125q5.046875 -0.8125 5.046875 -4.375l0 -1.125l-4.96875 0l0 -1.40625zm30.28125 2.15625q1.25 -1.9375 2.21875 -4.75l1.40625 0.8125q0.53125 0.296875 -0.140625 0.453125q-1.109375 2.734375 -2.671875 5.109375q1.625 2.3125 2.453125 2.3125q0.65625 0 0.890625 -1.78125l1.40625 0.734375q-0.59375 2.96875 -1.640625 2.96875q-2.078125 0 -4.15625 -3.1875q-2.078125 2.296875 -4.8125 3.640625l-0.890625 -1.40625q3.484375 -1.71875 4.890625 -3.640625q-1.03125 -2.53125 -1.03125 -6.6875l0 -0.671875l-6.3125 0l0 2.609375l4.75 0l-0.15625 5.046875q-0.0625 1.40625 -1.109375 1.40625l-1.921875 0l-0.234375 -1.40625l1.265625 0q0.59375 0 0.59375 -0.59375l0.15625 -3.046875l-3.34375 0l0 2.15625q0 3.703125 -1.859375 6.078125l-1.265625 -1.03125q1.640625 -2.015625 1.640625 -4.828125l0 -7.796875l7.796875 0l0 -3.1875l1.40625 0q0.59375 0.078125 0.078125 0.4375l0 2.75l5.640625 0l0 1.40625l-5.640625 0l0 0.671875q0 3.484375 0.59375 5.421875zm1.1875 -10.46875q1.1875 0.59375 2.078125 1.484375l-1.125 1.109375q-0.734375 -0.8125 -2.0 -1.546875l1.046875 -1.046875z" fill-rule="nonzero"/><path fill="#000000" fill-opacity="0.0" d="m227.46399 73.81628l56.188965 0l0 42.015747l-56.188965 0z" fill-rule="evenodd"/><path fill="#000000" d="m241.71399 100.736275l-5.171875 -13.359375l1.921875 0l3.46875 9.703125q0.421875 1.171875 0.703125 2.1875q0.3125 -1.09375 0.71875 -2.1875l3.609375 -9.703125l1.796875 0l-5.234375 13.359375l-1.8125 0z" fill-rule="nonzero"/><path fill="#000000" d="m259.3763 100.361275q1.1875 -0.140625 2.0 -0.96875q0.890625 -0.890625 0.890625 -2.375q0 -1.625 -0.96875 -2.59375q-0.953125 -0.96875 -3.03125 -0.96875q-2.453125 0 -3.796875 0.96875q-1.25 0.890625 -3.265625 3.1875l-1.25 -1.109375q5.34375 -5.34375 8.078125 -8.90625q-2.4375 0.296875 -4.890625 0.515625l-0.515625 -1.703125q3.625 0 6.453125 -0.375l0.671875 -0.296875l0.8125 0.828125q0.8125 0.734375 -0.375 0.953125q-2.21875 2.53125 -4.453125 4.984375q1.5625 -0.375 2.59375 -0.375q2.828125 0 4.15625 1.328125q1.34375 1.34375 1.34375 3.421875q0 2.15625 -1.1875 3.34375q-1.78125 1.78125 -4.53125 1.78125q-2.59375 0 -3.78125 -1.1875q-0.96875 -0.96875 -0.96875 -2.3125q0 -0.890625 0.671875 -1.546875q0.734375 -0.75 1.703125 -0.75q1.34375 0 2.234375 0.890625q1.03125 1.046875 1.40625 3.265625zm-1.484375 0.21875q-0.21875 -1.921875 -0.890625 -2.59375q-0.515625 -0.515625 -1.046875 -0.515625q-0.59375 0 -0.890625 0.296875q-0.359375 0.375 -0.359375 0.8125q0 0.671875 0.59375 1.265625q0.734375 0.734375 1.921875 0.734375q0.296875 0 0.671875 0z" fill-rule="nonzero"/><path fill="#000000" fill-opacity="0.0" d="m404.937 0l117.19684 0l0 42.015747l-117.19684 0z" fill-rule="evenodd"/><path fill="#000000" d="m422.70264 27.294998q0.734375 -0.375 1.546875 -1.125l-8.3125 1.5625q-0.0625 0.53125 -0.359375 0.234375l-0.453125 -1.640625l4.3125 -0.515625l0 -1.34375l-3.5 0l0 -1.1875l3.5 0l0 -1.109375l-1.71875 0l-1.625 0l0 -5.265625l3.34375 0l0 -1.046875l-4.3125 0l0 -1.1875l4.3125 0l0 -0.890625q-1.859375 0.078125 -3.71875 0.15625l-0.21875 -1.265625q3.640625 0 7.796875 -0.8125l0.65625 1.25q0.234375 0.453125 -0.4375 0.15625q-1.5625 0.21875 -2.828125 0.375l0 1.03125l4.09375 0l0 1.1875l-4.09375 0l0 1.046875l3.421875 0l0 5.265625l-3.421875 0l0 1.109375l3.71875 0l0 1.1875l-3.71875 0l0 1.109375l3.71875 -0.59375l0 1.046875q2.15625 -1.9375 2.21875 -5.859375l0.078125 -2.90625l-1.78125 0l0 -1.40625l1.78125 0l0 -3.78125l1.40625 0q0.59375 0.078125 0.078125 0.4375l0 3.34375l3.265625 0l-0.140625 9.796875q-0.078125 2.671875 -1.9375 2.671875l-2.0 0l-0.21875 -1.40625l1.703125 0q0.890625 0 0.96875 -1.5625l0.21875 -8.09375l-1.859375 0l-0.078125 3.5q-0.0625 5.109375 -4.515625 7.9375l-0.890625 -1.40625zm-2.015625 -7.359375l0 1.34375l2.15625 0l0 -1.34375l-2.15625 0zm0 -2.140625l0 1.25l2.15625 0l0 -1.25l-2.15625 0zm-3.328125 2.140625l0 1.34375l2.078125 0l0 -1.34375l-2.078125 0zm0 -2.140625l0 1.25l2.078125 0l0 -1.25l-2.078125 0zm33.171875 -2.96875l0 1.40625l-5.34375 0l0 2.75l4.671875 0l0 1.40625l-4.671875 0l0 2.453125l4.96875 0l0 1.40625l-4.96875 0l0 4.15625l-1.484375 0l0 -12.171875l-0.75 0q-1.1875 2.515625 -2.515625 3.859375l-1.40625 -1.046875q2.96875 -3.109375 3.703125 -7.34375l1.5625 0.453125q0.4375 0.21875 -0.078125 0.359375q-0.140625 0.75 -0.734375 2.3125l7.046875 0zm-16.625 5.1875q3.265625 -3.78125 4.296875 -8.15625l1.640625 0.515625q0.4375 0.296875 -0.078125 0.375q-0.515625 1.703125 -1.484375 3.703125l0.453125 0.15625q0.296875 0.296875 -0.234375 0.359375l0 11.4375l-1.484375 0l0 -9.65625q-0.8125 1.34375 -1.921875 2.53125l-1.1875 -1.265625zm29.6875 -3.640625q-0.75 2.078125 -2.375 3.9375l-1.109375 -1.328125q2.515625 -2.53125 3.1875 -7.203125l1.5625 0.515625q0.65625 0.296875 -0.078125 0.453125q-0.21875 1.03125 -0.59375 2.21875l5.34375 0l-0.375 10.09375q-0.078125 2.96875 -2.375 2.96875l-2.078125 0l-0.21875 -1.40625l1.921875 0q1.046875 0 1.125 -1.34375l0.359375 -8.90625l-4.296875 0zm0.890625 6.90625q-1.046875 -1.484375 -2.296875 -2.671875l1.25 -1.328125q1.484375 1.328125 2.375 2.59375l-1.328125 1.40625zm-8.765625 -8.3125q0.453125 -1.40625 0.828125 -3.265625l1.78125 0.671875q0.296875 0.296875 -0.234375 0.375q-0.21875 0.953125 -0.8125 2.21875l2.75 0l0 12.25l-1.484375 0l0 -0.890625l-3.265625 0l0 1.484375l-1.484375 0l0 -12.84375l1.921875 0zm2.828125 1.40625l-3.265625 0l0 3.265625l3.265625 0l0 -3.265625zm0 4.6875l-3.265625 0l0 3.859375l3.265625 0l0 -3.859375zm13.203125 5.5625q1.78125 -0.59375 2.96875 -1.640625l0 -4.515625l-2.671875 0l0 -1.421875l4.15625 0l0 6.09375q1.34375 1.484375 3.796875 1.484375l9.046875 0l-0.375 1.40625l-8.671875 0q-3.203125 0 -4.75 -2.078125q-0.890625 1.34375 -2.671875 2.3125l-0.828125 -1.640625zm6.6875 -8.90625q-0.890625 1.1875 -1.484375 1.5625l-0.75 -1.640625q2.828125 -2.515625 3.71875 -6.234375l1.625 0.453125q0.59375 0.21875 -0.140625 0.4375q-0.375 1.109375 -1.046875 2.296875l2.3125 0q1.03125 -1.546875 1.484375 -3.03125l1.625 0.59375q0.515625 0.359375 -0.21875 0.4375q-0.515625 0.890625 -1.40625 2.0l3.921875 0l0 1.1875l-3.921875 0l0 1.859375l3.328125 0l0 1.1875l-3.328125 0l0 1.703125l3.265625 0l0 1.1875l-3.265625 0l0 2.015625l4.453125 0l0 1.1875l-8.6875 0l0 0.8125l-1.484375 0l0 -8.015625zm1.484375 4.0l0 2.015625l2.75 0l0 -2.015625l-2.75 0zm0 -2.890625l0 1.703125l2.75 0l0 -1.703125l-2.75 0zm0 -3.046875l0 1.859375l2.75 0l0 -1.859375l-2.75 0zm-4.234375 -0.21875q-0.96875 -1.109375 -2.59375 -2.15625l1.03125 -1.1875q1.859375 1.046875 2.75 2.078125l-1.1875 1.265625zm20.9375 -2.296875q-2.3125 2.8125 -4.234375 3.9375l-0.890625 -1.34375q2.078125 -1.1875 4.15625 -3.9375l1.109375 0.96875q0.375 0.453125 -0.140625 0.375zm-1.046875 15.21875l-1.484375 0l0 -7.875q-0.734375 0.8125 -2.21875 1.78125l-0.96875 -1.484375q3.1875 -1.921875 5.421875 -5.421875l1.1875 0.96875q0.359375 0.453125 -0.15625 0.375q-0.890625 1.1875 -1.78125 2.296875l0 9.359375zm10.84375 -15.59375l0 1.40625l-8.015625 0l0 -1.40625l8.015625 0zm-8.84375 6.15625l0 -1.40625l10.328125 0l0 1.40625l-3.125 0l0 7.578125q0 1.5625 -1.265625 1.5625l-2.0 0l-0.296875 -1.421875l1.78125 0q0.296875 0 0.296875 -0.296875l0 -7.421875l-5.71875 0z" fill-rule="nonzero"/></g></svg>