<svg version="1.1" viewBox="0.0 0.0 948.6509186351706 118.83202099737532" fill="none" stroke="none" stroke-linecap="square" stroke-miterlimit="10" xmlns:xlink="http://www.w3.org/1999/xlink" xmlns="http://www.w3.org/2000/svg"><clipPath id="p.0"><path d="m0 0l948.65094 0l0 118.83202l-948.65094 0l0 -118.83202z" clip-rule="nonzero"/></clipPath><g clip-path="url(#p.0)"><path fill="#000000" fill-opacity="0.0" d="m0 0l948.65094 0l0 118.83202l-948.65094 0z" fill-rule="evenodd"/><path fill="#ffffff" d="m0.005249344 0l963.33856 0l0 118.83465l-963.33856 0z" fill-rule="evenodd"/><path stroke="#ffffff" stroke-width="1.0" stroke-linejoin="round" stroke-linecap="butt" d="m0.005249344 0l963.33856 0l0 118.83465l-963.33856 0z" fill-rule="evenodd"/><path fill="#000000" fill-opacity="0.0" d="m472.8399 77.13367l0 -35.11811" fill-rule="evenodd"/><path stroke="#000000" stroke-width="1.0" stroke-linejoin="round" stroke-linecap="butt" d="m472.8399 77.13367l0 -35.11811" fill-rule="evenodd"/><path fill="#000000" fill-opacity="0.0" d="m79.85827 77.13367l0 -35.11811" fill-rule="evenodd"/><path stroke="#000000" stroke-width="1.0" stroke-linejoin="round" stroke-linecap="butt" d="m79.85827 77.13367l0 -35.11811" fill-rule="evenodd"/><path fill="#000000" fill-opacity="0.0" d="m443.65714 0l68.47244 0l0 42.015747l-68.47244 0z" fill-rule="evenodd"/><path fill="#000000" d="m453.54776 24.248123q1.703125 -0.296875 2.828125 -0.515625l0 -4.015625l-2.3125 0l0 -1.40625l2.3125 0l0 -3.9375l-2.671875 0l0 -1.40625l6.59375 0l0 1.40625l-2.4375 0l0 3.9375l2.078125 0l0 1.40625l-2.078125 0l0 3.71875l2.375 -0.671875l0.359375 1.265625q-3.1875 1.03125 -6.078125 1.78125q-0.21875 0.515625 -0.453125 0.21875l-0.515625 -1.78125zm14.546875 -8.984375l0 -1.78125l-5.640625 0l0 1.78125l5.640625 0zm0 2.96875l0 -1.78125l-5.640625 0l0 1.78125l5.640625 0zm0 2.96875l0 -1.78125l-5.640625 0l0 1.78125l5.640625 0zm-2.15625 1.1875l-1.40625 0l0 0.75q0 4.53125 -6.96875 5.34375l-0.53125 -1.640625q6.015625 -0.515625 6.015625 -3.78125l0 -0.671875l-1.03125 0l-1.046875 0l0 -10.09375l8.609375 0l0 10.09375l-2.15625 0l0 3.9375q0 0.59375 0.53125 0.59375l0.515625 0q0.4375 0 0.59375 -0.453125q0.140625 -0.4375 0.296875 -1.78125l1.5625 0.453125q-0.15625 1.03125 -0.296875 1.625q-0.375 1.5625 -1.484375 1.5625l-1.9375 0q-1.265625 0 -1.265625 -1.25l0 -4.6875zm9.875 -4.828125l0.96875 0.234375q0.4375 -0.453125 1.40625 -2.234375l-4.828125 0l0 -1.40625l5.421875 0q0.59375 -1.40625 0.890625 -2.671875l1.640625 0.59375q0.296875 0.296875 -0.234375 0.375q-0.140625 0.65625 -0.65625 1.703125l8.609375 0l0 1.40625l-9.203125 0q-0.890625 2.0 -2.53125 4.15625l0 8.765625l-1.484375 0l0 -7.359375q-0.96875 0.96875 -2.75 2.015625l-0.734375 -1.71875q2.078125 -0.953125 3.484375 -2.515625l0 -1.34375zm8.390625 -0.953125q0.59375 0.0625 0.078125 0.4375l0 2.890625l3.78125 0l0 1.421875l-3.78125 0l0 4.890625l4.890625 0l0 1.421875l-11.203125 0l0 -1.421875l4.828125 0l0 -4.890625l-4.09375 0l0 -1.421875l4.09375 0l0 -3.328125l1.40625 0z" fill-rule="nonzero"/><path fill="#000000" fill-opacity="0.0" d="m53.622047 0l68.47244 0l0 42.015747l-68.47244 0z" fill-rule="evenodd"/><path fill="#000000" d="m63.434547 26.623123q1.34375 -0.515625 2.671875 -1.34375l0 -4.8125l-2.21875 0l0 -1.421875l3.703125 0l0 6.171875q0.828125 1.40625 4.15625 1.40625l9.0625 0l-0.375 1.40625l-9.578125 0q-2.515625 0 -4.078125 -1.78125q-0.890625 0.890625 -2.515625 2.078125l-0.828125 -1.703125zm2.671875 -14.171875q1.484375 1.03125 2.3125 2.296875l-1.265625 1.265625q-1.109375 -1.484375 -2.296875 -2.453125l1.25 -1.109375zm7.203125 12.390625l-1.265625 0l0 -4.671875l4.90625 0l0 3.78125l-3.640625 0l0 0.890625zm2.375 -2.078125l0 -1.40625l-2.375 0l0 1.40625l2.375 0zm4.15625 1.625q0 1.265625 -1.265625 1.265625l-1.328125 0l-0.15625 -1.40625l0.96875 0q0.296875 0 0.296875 -0.296875l0 -4.828125l-7.859375 0l0 6.6875l-1.484375 0l0 -8.09375l1.625 0l0 -5.421875l7.71875 0l0 5.421875l1.484375 0l0 6.671875zm-2.75 -8.375l-2.21875 0l0 1.703125l2.21875 0l0 -1.703125zm0 -1.1875l0 -1.34375l-5.1875 0l0 4.234375l1.703125 0l0 -2.890625l3.484375 0zm20.421875 13.4375l-1.1875 -1.5l-11.734375 1.046875q-0.078125 0.59375 -0.375 0.296875l-0.515625 -2.078125l2.53125 -0.078125q1.625 -2.59375 2.8125 -5.484375l-6.234375 0l0 -1.421875l7.5 0l0 -3.1875l-5.796875 0l0 -1.40625l5.796875 0l0 -2.671875l1.40625 0q0.59375 0.078125 0.078125 0.4375l0 2.234375l5.78125 0l0 1.40625l-5.78125 0l0 3.1875l7.5 0l0 1.421875l-8.171875 0q-1.5625 3.109375 -3.109375 5.484375l7.421875 -0.4375q-1.421875 -1.640625 -2.53125 -2.609375l1.109375 -1.109375q2.375 1.703125 5.046875 5.28125l-1.546875 1.1875z" fill-rule="nonzero"/><path fill="#000000" fill-opacity="0.0" d="m80.69969 76.824875l782.6771 0" fill-rule="evenodd"/><path stroke="#000000" stroke-width="1.0" stroke-linejoin="round" stroke-linecap="butt" d="m80.69969 76.824875l776.6772 0" fill-rule="evenodd"/><path fill="#000000" stroke="#000000" stroke-width="1.0" stroke-linecap="butt" d="m857.3769 78.47661l4.538086 -1.6517334l-4.538086 -1.6517334z" fill-rule="evenodd"/><path fill="#000000" fill-opacity="0.0" d="m832.72363 0l64.031555 0l0 42.015747l-64.031555 0z" fill-rule="evenodd"/><path fill="#000000" d="m842.47363 25.435623q4.8125 -1.859375 7.265625 -5.421875l-6.53125 0l0 -1.625l7.203125 0l0 -2.234375l-5.71875 0l0 -1.625l5.71875 0l0 -2.671875l1.40625 0q0.75 0.140625 0.078125 0.59375l0 2.078125l5.5625 0l0 1.625l-5.5625 0l0 2.234375l7.265625 0l0 1.625l-6.59375 0q2.140625 3.265625 7.125 4.96875l-0.53125 1.78125q-4.515625 -1.40625 -7.265625 -5.34375l0 6.984375l-1.484375 0l0 -6.75q-3.5625 4.296875 -7.125 5.34375l-0.8125 -1.5625zm28.5 -6.15625q0.296875 0.4375 0.65625 0.953125q1.265625 -1.78125 2.234375 -4.078125l1.40625 0.296875q0.671875 0.21875 -0.078125 0.515625q-0.359375 0.75 -0.65625 1.265625q1.484375 0.59375 3.328125 2.15625l-0.890625 1.328125q-2.0 -1.625 -3.03125 -2.296875q-0.671875 1.046875 -1.265625 1.859375q4.078125 3.5625 6.078125 4.453125l-1.25 1.640625q-3.5 -2.15625 -6.53125 -5.71875l0 6.828125l-1.484375 0l0 -6.6875q-2.15625 3.125 -6.53125 6.015625l-1.125 -1.5625q5.28125 -3.046875 7.65625 -6.90625l0 -3.5625l-7.28125 0l0 -1.40625l7.28125 0l0 -2.75l1.40625 0q0.59375 0.078125 0.078125 0.453125l0 2.296875l7.265625 0l0 1.40625l-7.265625 0l0 3.5zm-4.390625 -0.671875q0.828125 0.4375 1.78125 1.265625l-0.890625 1.1875q-0.890625 -0.671875 -1.703125 -1.1875q-1.03125 1.25 -2.15625 2.140625l-1.109375 -1.1875q2.453125 -1.703125 3.484375 -4.59375l1.421875 0.21875q0.734375 0.21875 0 0.515625q-0.375 0.96875 -0.828125 1.640625z" fill-rule="nonzero"/><path fill="#000000" fill-opacity="0.0" d="m861.89954 77.13367l0 -35.11811" fill-rule="evenodd"/><path stroke="#000000" stroke-width="1.0" stroke-linejoin="round" stroke-linecap="butt" d="m861.89954 77.13367l0 -35.11811" fill-rule="evenodd"/><path fill="#000000" fill-opacity="0.0" d="m833.8058 76.82415l56.188965 0l0 42.015747l-56.188965 0z" fill-rule="evenodd"/><path fill="#000000" fill-opacity="0.0" d="m245.2954 76.82415l188.50392 0l0 42.015747l-188.50392 0z" fill-rule="evenodd"/><path fill="#000000" d="m257.561 98.99415q0.515625 0.140625 0 0.4375q0 2.53125 -0.671875 4.46875l-1.4843597 -0.671875q0.67185974 -2.15625 0.59375 -4.390625l1.5624847 0.15625zm4.15625 -2.078125l-1.78125 0.21875l0 8.25l-1.484375 0l0 -8.03125l-2.7499847 0.234375q-0.0625 0.515625 -0.359375 0.21875l-0.296875 -1.703125l1.7031097 0q0.59375 -0.59375 1.109375 -1.265625q-1.265625 -1.046875 -2.5937347 -1.859375l0.734375 -1.1875l0.59373474 0.296875q1.421875 -2.078125 2.234375 -3.78125l1.40625 0.8125q0.296875 0.296875 -0.296875 0.375q-0.734375 1.484375 -2.21875 3.34375l1.03125 0.8125q1.1875 -1.703125 2.078125 -3.34375l1.265625 0.75q0.4375 0.296875 -0.15625 0.359375q-1.03125 1.859375 -3.484375 4.609375l2.828125 -0.15625q-0.375 -0.734375 -0.890625 -1.40625l1.25 -0.515625q1.125 1.03125 2.015625 3.34375l-1.484375 0.65625l-0.453125 -1.03125zm-0.21875 5.859375q-0.296875 -2.296875 -0.890625 -3.859375l1.328125 -0.4375q0.828125 1.40625 1.125 3.859375l-1.5625 0.4375zm8.53125 0.078125l0 -3.484375l-4.453125 0l0 3.484375l4.453125 0zm-4.453125 1.40625l0 1.046875l-1.484375 0l0 -7.359375l7.421875 0l0 7.140625l-1.484375 0l0 -0.828125l-4.453125 0zm2.828125 -9.421875l3.40625 0l0 1.40625l-8.15625 0l0 -1.40625l3.265625 0l0 -2.296875l-3.859375 0l0 -1.421875l3.859375 0l0 -2.671875l1.40625 0q0.59375 0.078125 0.078125 0.453125l0 2.21875l3.921875 0l0 1.421875l-3.921875 0l0 2.296875zm5.9375 8.984375q2.078125 -1.484375 3.328125 -3.265625q-0.734375 -0.75 -1.40625 -1.265625l-0.21875 0.8125l-1.484375 -0.4375q0.8125 -2.90625 1.40625 -6.234375l-1.484375 0l0 -1.421875l1.703125 0q0.234375 -1.625 0.453125 -3.265625l1.625 0.296875q0.296875 0.234375 -0.296875 0.453125q-0.140625 1.265625 -0.359375 2.515625l1.703125 0l0.21875 -0.21875l1.109375 0.75l-0.21875 0.296875q0.078125 3.1875 -0.96875 7.1875q0.75 0.59375 1.484375 1.1875l-0.890625 1.640625q-0.515625 -0.59375 -1.25 -1.265625q-1.484375 2.078125 -3.5 3.5625l-0.953125 -1.328125zm3.921875 -4.6875q0.671875 -3.328125 0.671875 -5.703125l-1.5625 0q-0.359375 2.296875 -0.8125 4.515625q0.75 0.375 1.703125 1.1875zm10.546875 -3.921875q1.265625 1.328125 1.265625 -0.234375l0 -0.59375l1.40625 0.53125l-0.15625 1.546875q-0.140625 1.421875 -1.484375 1.046875l0 7.640625l-1.25 0l0 -0.8125l-4.90625 0l0 1.046875l-1.265625 0l0 -8.03125l6.984375 0q-2.375 -1.03125 -3.1875 -4.078125l-3.125 0l0 2.0q1.484375 -0.296875 2.96875 -0.59375l0.15625 1.1875q-1.859375 0.53125 -4.6875 1.046875q-0.140625 0.515625 -0.296875 0.21875l-0.4375 -1.484375q0.515625 -0.078125 1.03125 -0.140625l0 -6.09375l1.34375 0.21875q2.21875 -0.21875 5.421875 -1.03125l1.03125 1.265625q0.15625 0.296875 -0.515625 0.0625q-1.046875 0.234375 -2.078125 0.375l0.296875 1.78125l3.484375 0l0 1.1875l-3.1875 0q0.140625 0.8125 1.1875 1.9375zm-3.046875 -4.6875q-1.328125 0.15625 -2.671875 0.296875l0 1.265625l2.890625 0l-0.21875 -1.5625zm-2.078125 9.734375l4.90625 0l0 -1.71875l-4.90625 0l0 1.71875zm0 2.890625l4.90625 0l0 -1.703125l-4.90625 0l0 1.703125zm22.421875 -2.078125q-3.203125 3.484375 -6.90625 3.484375q-2.671875 0 -3.9375 -1.265625q-0.96875 -0.953125 -0.96875 -3.703125l0 -9.953125l1.5625 0q0.671875 0.15625 0.15625 0.59375l0 9.359375q0 1.859375 0.65625 2.515625q0.828125 0.828125 2.453125 0.828125q2.890625 0 5.859375 -3.265625l1.125 1.40625zm16.765625 -8.984375q-2.59375 0 -4.078125 0.515625q-1.640625 0.59375 -3.046875 2.015625q-1.40625 1.40625 -1.40625 3.625q0 1.78125 1.109375 2.90625q1.484375 1.484375 5.71875 1.625l-0.59375 1.640625q-4.375 -0.21875 -6.09375 -1.9375q-1.703125 -1.703125 -1.703125 -4.15625q0 -3.484375 2.75 -5.484375q-3.484375 0.515625 -7.125 1.03125l-0.453125 -1.703125q7.28125 -0.515625 14.625 -1.78125l0.296875 1.703125zm9.425781 7.9375q-0.671875 1.71875 -1.40625 2.609375q-1.046875 1.265625 -2.078125 1.265625q-1.859375 0 -2.75 -2.15625q-0.515625 -1.265625 -0.515625 -5.421875q0 -2.96875 0.296875 -6.015625l1.5625 0.375q0.890625 0.21875 0.0625 0.734375q-0.296875 2.75 -0.296875 4.984375q0 3.03125 0.375 4.296875q0.375 1.265625 1.109375 1.265625q0.828125 0 1.421875 -1.1875q0.359375 -0.75 0.734375 -1.78125l1.484375 1.03125zm4.375 -8.671875q3.34375 3.484375 4.09375 8.453125l-2.015625 0.515625q-0.890625 -5.1875 -3.625 -8.078125l1.546875 -0.890625zm15.7421875 12.015625q1.1875 -0.140625 2.0 -0.96875q0.890625 -0.890625 0.890625 -2.375q0 -1.625 -0.96875 -2.59375q-0.953125 -0.96875 -3.03125 -0.96875q-2.453125 0 -3.796875 0.96875q-1.25 0.890625 -3.265625 3.1875l-1.25 -1.109375q5.34375 -5.34375 8.078125 -8.90625q-2.4375 0.296875 -4.890625 0.515625l-0.515625 -1.703125q3.625 0 6.453125 -0.375l0.671875 -0.296875l0.8125 0.828125q0.8125 0.734375 -0.375 0.953125q-2.21875 2.53125 -4.453125 4.984375q1.5625 -0.375 2.59375 -0.375q2.828125 0 4.15625 1.328125q1.34375 1.34375 1.34375 3.421875q0 2.15625 -1.1875 3.34375q-1.78125 1.78125 -4.53125 1.78125q-2.59375 0 -3.78125 -1.1875q-0.96875 -0.96875 -0.96875 -2.3125q0 -0.890625 0.671875 -1.546875q0.734375 -0.75 1.703125 -0.75q1.34375 0 2.234375 0.890625q1.03125 1.046875 1.40625 3.265625zm-1.484375 0.21875q-0.21875 -1.921875 -0.890625 -2.59375q-0.515625 -0.515625 -1.046875 -0.515625q-0.59375 0 -0.890625 0.296875q-0.359375 0.375 -0.359375 0.8125q0 0.671875 0.59375 1.265625q0.734375 0.734375 1.921875 0.734375q0.296875 0 0.671875 0z" fill-rule="nonzero"/><path fill="#cfe2f3" d="m304.88715 68.50656l167.9685 0l0 8.314964l-167.9685 0z" fill-rule="evenodd"/><path stroke="#000000" stroke-width="1.0" stroke-linejoin="round" stroke-linecap="butt" d="m304.88715 68.50656l167.9685 0l0 8.314964l-167.9685 0z" fill-rule="evenodd"/></g></svg>