<?xml version="1.0" standalone="no"?>
<!DOCTYPE svg PUBLIC "-//W3C//DTD SVG 20010904//EN"
 "http://www.w3.org/TR/2001/REC-SVG-20010904/DTD/svg10.dtd">
<svg version="1.0" xmlns="http://www.w3.org/2000/svg"
 width="180.000000pt" height="180.000000pt" viewBox="0 0 180.000000 180.000000"
 preserveAspectRatio="xMidYMid meet">
<metadata>
Created by potrace 1.11, written by Peter Selinger 2001-2013
</metadata>
<g transform="translate(0.000000,180.000000) scale(0.100000,-0.100000)"
fill="#000000" stroke="none">
<path d="M815 1783 c-145 -10 -295 -73 -394 -167 -70 -67 -154 -187 -171 -244
-6 -21 -18 -62 -27 -92 -20 -67 -25 -347 -7 -395 7 -16 18 -50 25 -75 13 -42
46 -110 134 -275 34 -63 38 -78 39 -150 1 -60 -4 -92 -18 -125 -34 -78 -83
-144 -135 -183 -28 -20 -51 -42 -51 -47 0 -7 169 -9 483 -8 l482 3 2 30 c5 52
25 138 45 194 19 49 25 55 74 77 34 15 74 24 104 24 30 0 68 8 95 21 36 17 49
31 70 74 29 63 31 81 10 123 -14 28 -14 34 0 61 9 19 15 57 15 103 0 70 1 74
30 93 63 42 59 98 -11 178 -73 83 -122 182 -113 227 14 69 -35 205 -110 307
-119 161 -348 260 -571 246z m35 -114 c19 -6 59 -11 89 -12 33 -2 56 -7 59
-15 2 -7 21 -12 44 -12 25 0 51 -8 71 -23 18 -12 43 -24 56 -26 26 -3 131 -88
131 -105 0 -5 8 -19 18 -30 10 -12 26 -42 36 -68 16 -43 16 -50 2 -70 -11 -15
-14 -34 -10 -59 5 -32 3 -39 -21 -55 -15 -11 -43 -34 -61 -51 -19 -18 -43 -33
-53 -33 -11 0 -43 -16 -73 -35 -29 -20 -64 -38 -78 -41 -14 -3 -37 -12 -52
-20 -34 -19 -68 -18 -97 2 -22 16 -25 16 -40 -2 -9 -11 -29 -26 -46 -34 -62
-30 -100 -62 -110 -91 -5 -17 -22 -38 -36 -46 -25 -15 -29 -15 -63 6 -20 13
-36 31 -36 40 0 14 -10 20 -40 24 -30 4 -51 16 -78 44 -47 47 -82 106 -82 138
0 20 -7 26 -39 35 -55 14 -63 28 -55 91 5 37 14 60 31 75 16 14 23 31 22 50
-3 35 9 74 22 74 5 0 20 18 34 41 16 24 40 46 61 55 19 8 34 19 34 25 0 16 41
47 72 54 15 4 32 13 39 21 6 8 19 14 29 14 10 0 31 7 46 15 16 8 45 15 64 15
19 0 42 5 50 10 19 12 18 12 60 -1z"/>
<path d="M576 1499 c-59 -47 -72 -121 -31 -181 28 -41 79 -63 125 -53 58 13
110 74 110 130 0 95 -131 162 -204 104z m128 -54 c52 -48 19 -125 -54 -125
-73 0 -106 75 -55 125 31 32 74 32 109 0z"/>
<path d="M935 1476 c-56 -25 -80 -61 -79 -121 0 -91 56 -143 141 -130 133 20
161 182 43 243 -51 25 -64 26 -105 8z m103 -40 c16 -8 33 -29 41 -51 11 -31
10 -41 -4 -71 -43 -91 -167 -76 -191 23 -8 30 12 79 40 98 26 19 79 19 114 1z"/>
<path d="M945 1380 c-10 -11 -13 -20 -7 -20 7 0 12 5 12 10 0 6 14 10 31 10
17 0 28 4 24 10 -10 16 -41 11 -60 -10z"/>
<path d="M944 1325 c28 -22 76 -16 76 8 0 7 -4 7 -12 -1 -15 -15 -48 -16 -48
-2 0 6 -8 10 -17 10 -16 -1 -16 -2 1 -15z"/>
<path d="M728 1233 c-28 -18 -38 -40 -38 -88 1 -35 19 -62 56 -81 39 -21 60
-17 99 17 26 23 35 39 35 63 0 55 -11 76 -47 91 -45 19 -71 19 -105 -2z m91
-47 c28 -30 24 -56 -11 -75 -59 -33 -111 44 -55 82 30 22 40 21 66 -7z"/>
</g>
</svg>
