<svg version="1.1" viewBox="0.0 0.0 954.7375328083989 347.36745406824144" fill="none" stroke="none" stroke-linecap="square" stroke-miterlimit="10" xmlns:xlink="http://www.w3.org/1999/xlink" xmlns="http://www.w3.org/2000/svg"><clipPath id="p.0"><path d="m0 0l954.73755 0l0 347.36746l-954.73755 0l0 -347.36746z" clip-rule="nonzero"/></clipPath><g clip-path="url(#p.0)"><path fill="#000000" fill-opacity="0.0" d="m0 0l954.73755 0l0 347.36746l-954.73755 0z" fill-rule="evenodd"/><path fill="#ffffff" d="m0 -0.010498688l954.7402 0l0 347.3701l-954.7402 0z" fill-rule="evenodd"/><path stroke="#ffffff" stroke-width="1.0" stroke-linejoin="round" stroke-linecap="butt" d="m0 -0.010498688l954.7402 0l0 347.3701l-954.7402 0z" fill-rule="evenodd"/><path fill="#cfe2f3" d="m302.9029 27.955381l132.12598 0l0 28.755903l-132.12598 0z" fill-rule="evenodd"/><path stroke="#000000" stroke-width="1.0" stroke-linejoin="round" stroke-linecap="butt" d="m302.9029 27.955381l132.12598 0l0 28.755903l-132.12598 0z" fill-rule="evenodd"/><path fill="#000000" d="m312.92944 49.25333l5.125 -13.359375l1.90625 0l5.46875 13.359375l-2.015625 0l-1.546875 -4.046875l-5.59375 0l-1.46875 4.046875l-1.875 0zm3.859375 -5.484375l4.53125 0l-1.40625 -3.703125q-0.625 -1.6875 -0.9375 -2.765625q-0.265625 1.28125 -0.71875 2.546875l-1.46875 3.921875zm16.177948 5.484375l0 -1.421875q-1.125 1.640625 -3.0625 1.640625q-0.859375 0 -1.609375 -0.328125q-0.734375 -0.328125 -1.09375 -0.828125q-0.359375 -0.5 -0.5 -1.21875q-0.109375 -0.46875 -0.109375 -1.53125l0 -5.984375l1.640625 0l0 5.359375q0 1.28125 0.109375 1.734375q0.15625 0.640625 0.65625 1.015625q0.5 0.375 1.234375 0.375q0.734375 0 1.375 -0.375q0.65625 -0.390625 0.921875 -1.03125q0.265625 -0.65625 0.265625 -1.890625l0 -5.1875l1.640625 0l0 9.671875l-1.46875 0zm10.313202 0l0 -1.21875q-0.90625 1.4375 -2.703125 1.4375q-1.15625 0 -2.125 -0.640625q-0.96875 -0.640625 -1.5 -1.78125q-0.53125 -1.140625 -0.53125 -2.625q0 -1.453125 0.484375 -2.625q0.484375 -1.1875 1.4375 -1.8125q0.96875 -0.625 2.171875 -0.625q0.875 0 1.546875 0.375q0.6875 0.359375 1.109375 0.953125l0 -4.796875l1.640625 0l0 13.359375l-1.53125 0zm-5.171875 -4.828125q0 1.859375 0.78125 2.78125q0.78125 0.921875 1.84375 0.921875q1.078125 0 1.828125 -0.875q0.75 -0.890625 0.75 -2.6875q0 -1.984375 -0.765625 -2.90625q-0.765625 -0.9375 -1.890625 -0.9375q-1.078125 0 -1.8125 0.890625q-0.734375 0.890625 -0.734375 2.8125zm9.281982 -6.640625l0 -1.890625l1.640625 0l0 1.890625l-1.640625 0zm0 11.46875l0 -9.671875l1.640625 0l0 9.671875l-1.640625 0zm3.535431 -4.84375q0 -2.6875 1.484375 -3.96875q1.25 -1.078125 3.046875 -1.078125q2.0 0 3.265625 1.3125q1.265625 1.296875 1.265625 3.609375q0 1.859375 -0.5625 2.9375q-0.5625 1.0625 -1.640625 1.65625q-1.0625 0.59375 -2.328125 0.59375q-2.03125 0 -3.28125 -1.296875q-1.25 -1.3125 -1.25 -3.765625zm1.6875 0q0 1.859375 0.796875 2.796875q0.8125 0.921875 2.046875 0.921875q1.21875 0 2.03125 -0.921875q0.8125 -0.9375 0.8125 -2.84375q0 -1.796875 -0.8125 -2.71875q-0.8125 -0.921875 -2.03125 -0.921875q-1.234375 0 -2.046875 0.921875q-0.796875 0.90625 -0.796875 2.765625zm19.031982 0.15625l1.765625 0.453125q-0.5625 2.171875 -2.0 3.328125q-1.4375 1.140625 -3.53125 1.140625q-2.15625 0 -3.515625 -0.875q-1.34375 -0.890625 -2.0625 -2.546875q-0.703125 -1.671875 -0.703125 -3.59375q0 -2.078125 0.796875 -3.625q0.796875 -1.5625 2.265625 -2.359375q1.484375 -0.8125 3.25 -0.8125q2.0 0 3.359375 1.015625q1.375 1.015625 1.90625 2.875l-1.734375 0.40625q-0.46875 -1.453125 -1.359375 -2.109375q-0.875 -0.671875 -2.203125 -0.671875q-1.546875 0 -2.578125 0.734375q-1.03125 0.734375 -1.453125 1.984375q-0.421875 1.234375 -0.421875 2.5625q0 1.703125 0.5 2.96875q0.5 1.265625 1.546875 1.90625q1.046875 0.625 2.265625 0.625q1.484375 0 2.515625 -0.859375q1.03125 -0.859375 1.390625 -2.546875zm3.129181 -0.15625q0 -2.6875 1.484375 -3.96875q1.25 -1.078125 3.046875 -1.078125q2.0 0 3.265625 1.3125q1.265625 1.296875 1.265625 3.609375q0 1.859375 -0.5625 2.9375q-0.5625 1.0625 -1.640625 1.65625q-1.0625 0.59375 -2.328125 0.59375q-2.03125 0 -3.28125 -1.296875q-1.25 -1.3125 -1.25 -3.765625zm1.6875 0q0 1.859375 0.796875 2.796875q0.8125 0.921875 2.046875 0.921875q1.21875 0 2.03125 -0.921875q0.8125 -0.9375 0.8125 -2.84375q0 -1.796875 -0.8125 -2.71875q-0.8125 -0.921875 -2.03125 -0.921875q-1.234375 0 -2.046875 0.921875q-0.796875 0.90625 -0.796875 2.765625zm9.297607 4.84375l0 -9.671875l1.46875 0l0 1.375q1.0625 -1.59375 3.078125 -1.59375q0.875 0 1.609375 0.3125q0.734375 0.3125 1.09375 0.828125q0.375 0.5 0.515625 1.203125q0.09375 0.453125 0.09375 1.59375l0 5.953125l-1.640625 0l0 -5.890625q0 -1.0 -0.203125 -1.484375q-0.1875 -0.5 -0.671875 -0.796875q-0.484375 -0.296875 -1.140625 -0.296875q-1.046875 0 -1.8125 0.671875q-0.75 0.65625 -0.75 2.515625l0 5.28125l-1.640625 0zm13.953827 -1.46875l0.234375 1.453125q-0.6875 0.140625 -1.234375 0.140625q-0.890625 0 -1.390625 -0.28125q-0.484375 -0.28125 -0.6875 -0.734375q-0.203125 -0.46875 -0.203125 -1.9375l0 -5.578125l-1.203125 0l0 -1.265625l1.203125 0l0 -2.390625l1.625 -0.984375l0 3.375l1.65625 0l0 1.265625l-1.65625 0l0 5.671875q0 0.6875 0.078125 0.890625q0.09375 0.203125 0.28125 0.328125q0.203125 0.109375 0.578125 0.109375q0.265625 0 0.71875 -0.0625zm8.230194 -1.640625l1.6875 0.203125q-0.40625 1.484375 -1.484375 2.3125q-1.078125 0.8125 -2.765625 0.8125q-2.125 0 -3.375 -1.296875q-1.234375 -1.3125 -1.234375 -3.671875q0 -2.453125 1.25 -3.796875q1.265625 -1.34375 3.265625 -1.34375q1.9375 0 3.15625 1.328125q1.234375 1.3125 1.234375 3.703125q0 0.15625 0 0.4375l-7.21875 0q0.09375 1.59375 0.90625 2.453125q0.8125 0.84375 2.015625 0.84375q0.90625 0 1.546875 -0.46875q0.640625 -0.484375 1.015625 -1.515625zm-5.390625 -2.65625l5.40625 0q-0.109375 -1.21875 -0.625 -1.828125q-0.78125 -0.953125 -2.03125 -0.953125q-1.125 0 -1.90625 0.765625q-0.765625 0.75 -0.84375 2.015625zm8.047577 5.765625l3.53125 -5.03125l-3.265625 -4.640625l2.046875 0l1.484375 2.265625q0.421875 0.640625 0.671875 1.078125q0.40625 -0.59375 0.734375 -1.0625l1.640625 -2.28125l1.953125 0l-3.34375 4.546875l3.59375 5.125l-2.015625 0l-1.984375 -3.0l-0.515625 -0.8125l-2.546875 3.8125l-1.984375 0zm14.0 -1.46875l0.234375 1.453125q-0.6875 0.140625 -1.234375 0.140625q-0.890625 0 -1.390625 -0.28125q-0.484375 -0.28125 -0.6875 -0.734375q-0.203125 -0.46875 -0.203125 -1.9375l0 -5.578125l-1.203125 0l0 -1.265625l1.203125 0l0 -2.390625l1.625 -0.984375l0 3.375l1.65625 0l0 1.265625l-1.65625 0l0 5.671875q0 0.6875 0.078125 0.890625q0.09375 0.203125 0.28125 0.328125q0.203125 0.109375 0.578125 0.109375q0.265625 0 0.71875 -0.0625z" fill-rule="nonzero"/><path fill="#cfe2f3" d="m302.9029 56.711285l132.12598 0l0 80.913376l-132.12598 0z" fill-rule="evenodd"/><path stroke="#000000" stroke-width="1.0" stroke-linejoin="round" stroke-linecap="butt" d="m302.9029 56.711285l132.12598 0l0 80.913376l-132.12598 0z" fill-rule="evenodd"/><path fill="#000000" d="m342.27353 97.3886q-0.390625 0.515625 -0.6875 1.03125l2.234375 0q0 -0.640625 -0.046875 -1.5l1.140625 0q-0.0625 0.6875 -0.0625 1.5l2.359375 0q0.625 0 1.421875 -0.0625l0 0.96875q-0.796875 -0.0625 -1.421875 -0.0625l-2.359375 0l0 1.203125l1.78125 0q0.625 0 1.25 -0.046875l0 0.96875q-0.625 -0.0625 -1.25 -0.0625l-1.78125 0l0 1.375l3.671875 0q0.5625 0 1.484375 -0.046875l0 0.96875q-0.921875 -0.0625 -1.4375 -0.0625l-7.78125 0q-1.03125 0 -1.890625 0.0625l0 -0.96875q0.921875 0.046875 1.890625 0.046875l3.03125 0l0 -1.375l-1.484375 0q-0.40625 0 -1.265625 0.0625l0 -0.96875q0.75 0.046875 1.265625 0.046875l1.484375 0l0 -1.203125l-2.6875 0q-0.28125 0.34375 -0.921875 1.375q-0.453125 -0.28125 -0.90625 -0.515625q0.625 -0.6875 1.046875 -1.359375q0.4375 -0.6875 0.84375 -1.78125q0.453125 0.171875 1.078125 0.40625zm4.9375 -1.609375q1.078125 0 2.171875 -0.109375l0 1.03125q-1.03125 -0.0625 -2.0625 -0.0625l-8.078125 0q0 1.265625 -0.0625 2.296875q-0.046875 1.015625 -0.21875 1.875q-0.171875 0.859375 -0.40625 1.578125q-0.21875 0.71875 -0.453125 1.34375q-0.625 -0.34375 -1.265625 -0.390625q0.34375 -0.46875 0.578125 -1.046875q0.234375 -0.5625 0.40625 -1.21875q0.171875 -0.65625 0.21875 -2.453125q0.0625 -1.8125 0 -2.84375l9.171875 0zm0.28125 -4.015625q0.796875 0 1.59375 -0.046875l0 1.03125q-0.859375 -0.0625 -1.65625 -0.0625l-7.671875 0q-0.96875 0 -1.71875 0.0625l0 -1.03125q0.75 0.046875 1.71875 0.046875l7.734375 0zm-0.859375 1.71875q-0.40625 0.0625 -0.890625 0.265625q-0.484375 0.203125 -0.890625 0.375q1.71875 0.515625 2.578125 0.796875q-0.34375 0.28125 -0.625 0.6875q-0.578125 -0.234375 -1.265625 -0.453125q-0.6875 -0.234375 -1.65625 -0.515625q-0.859375 0.34375 -1.75 0.546875q-0.890625 0.1875 -2.03125 0.421875q-0.109375 -0.34375 -0.515625 -0.859375q0.796875 0 1.65625 -0.171875l1.71875 -0.34375q-0.515625 -0.171875 -1.125 -0.390625q-0.59375 -0.234375 -1.328125 -0.40625q0.171875 -0.234375 0.5625 -0.640625q0.75 0.234375 1.375 0.46875q0.640625 0.21875 1.4375 0.515625q0.515625 -0.171875 0.96875 -0.421875q0.46875 -0.265625 0.921875 -0.5625q0.34375 0.296875 0.859375 0.6875zm-2.921875 -3.421875q0.234375 0.6875 0.515625 1.3125q-0.515625 0.109375 -1.09375 0.34375q-0.21875 -0.75 -0.515625 -1.265625q0.578125 -0.21875 1.09375 -0.390625z" fill-rule="nonzero"/><path fill="#000000" d="m355.72665 91.81048q-0.046875 0.296875 -0.34375 1.359375l2.6875 0l0 -2.9375l1.125 0q0.46875 0.0625 0.046875 0.359375l0 2.578125l4.8125 0l0 1.109375l-4.8125 0l0 2.6875l4.109375 0l0 1.125l-4.109375 0l0 3.453125l5.578125 0l0 1.109375l-12.84375 0l0 -1.109375l6.09375 0l0 -3.453125l-3.921875 0l0 -1.125l3.921875 0l0 -2.6875l-3.046875 0q-0.703125 1.8125 -2.109375 3.21875l-0.875 -0.9375q2.109375 -2.046875 2.515625 -5.390625l1.234375 0.296875q0.359375 0.109375 -0.0625 0.34375z" fill-rule="nonzero"/><path fill="#000000" d="m375.3924 102.24798l-1.28125 0l0 -8.203125q-0.46875 0.4375 -1.21875 0.890625q-0.75 0.4375 -1.359375 0.65625l0 -1.25q1.078125 -0.5 1.890625 -1.21875q0.8125 -0.734375 1.140625 -1.40625l0.828125 0l0 10.53125zm9.994843 -7.921875l-1.28125 0.09375q-0.171875 -0.75 -0.484375 -1.09375q-0.53125 -0.546875 -1.296875 -0.546875q-0.609375 0 -1.078125 0.34375q-0.609375 0.4375 -0.96875 1.296875q-0.34375 0.84375 -0.359375 2.421875q0.46875 -0.71875 1.140625 -1.0625q0.671875 -0.34375 1.40625 -0.34375q1.296875 0 2.203125 0.953125q0.90625 0.953125 0.90625 2.453125q0 0.984375 -0.4375 1.84375q-0.421875 0.84375 -1.171875 1.296875q-0.734375 0.4375 -1.6875 0.4375q-1.609375 0 -2.625 -1.171875q-1.015625 -1.1875 -1.015625 -3.90625q0 -3.046875 1.125 -4.421875q0.984375 -1.203125 2.640625 -1.203125q1.234375 0 2.03125 0.703125q0.796875 0.6875 0.953125 1.90625zm-5.265625 4.515625q0 0.671875 0.28125 1.28125q0.28125 0.609375 0.78125 0.9375q0.515625 0.3125 1.078125 0.3125q0.8125 0 1.390625 -0.65625q0.59375 -0.671875 0.59375 -1.796875q0 -1.09375 -0.578125 -1.71875q-0.578125 -0.625 -1.453125 -0.625q-0.875 0 -1.484375 0.625q-0.609375 0.625 -0.609375 1.640625zm8.276123 3.40625l-1.203125 0l0 -10.484375l1.296875 0l0 3.734375q0.8125 -1.015625 2.078125 -1.015625q0.703125 0 1.328125 0.28125q0.625 0.28125 1.03125 0.796875q0.40625 0.5 0.625 1.234375q0.234375 0.71875 0.234375 1.53125q0 1.96875 -0.96875 3.03125q-0.953125 1.0625 -2.3125 1.0625q-1.34375 0 -2.109375 -1.125l0 0.953125zm-0.015625 -3.859375q0 1.375 0.375 1.984375q0.609375 0.984375 1.640625 0.984375q0.84375 0 1.453125 -0.734375q0.625 -0.734375 0.625 -2.1875q0 -1.484375 -0.59375 -2.1875q-0.59375 -0.71875 -1.421875 -0.71875q-0.84375 0 -1.46875 0.734375q-0.609375 0.734375 -0.609375 2.125zm6.9792175 -5.15625l0 -1.46875l1.296875 0l0 1.46875l-1.296875 0zm0 9.015625l0 -7.59375l1.296875 0l0 7.59375l-1.296875 0zm6.0686646 -1.15625l0.1875 1.140625q-0.546875 0.109375 -0.984375 0.109375q-0.6875 0 -1.078125 -0.21875q-0.390625 -0.21875 -0.546875 -0.578125q-0.15625 -0.359375 -0.15625 -1.515625l0 -4.375l-0.953125 0l0 -1.0l0.953125 0l0 -1.890625l1.28125 -0.765625l0 2.65625l1.296875 0l0 1.0l-1.296875 0l0 4.4375q0 0.546875 0.0625 0.71875q0.078125 0.15625 0.21875 0.25q0.15625 0.078125 0.453125 0.078125q0.203125 0 0.5625 -0.046875z" fill-rule="nonzero"/><path fill="#cfe2f3" d="m100.04199 27.955381l132.12599 0l0 28.755903l-132.12599 0z" fill-rule="evenodd"/><path stroke="#000000" stroke-width="1.0" stroke-linejoin="round" stroke-linecap="butt" d="m100.04199 27.955381l132.12599 0l0 28.755903l-132.12599 0z" fill-rule="evenodd"/><path fill="#000000" d="m112.02333 49.25333l0 -13.359375l2.65625 0l3.15625 9.453125q0.4375 1.328125 0.640625 1.984375q0.234375 -0.734375 0.703125 -2.140625l3.203125 -9.296875l2.375 0l0 13.359375l-1.703125 0l0 -11.171875l-3.875 11.171875l-1.59375 0l-3.859375 -11.375l0 11.375l-1.703125 0zm22.009552 -3.109375l1.6875 0.203125q-0.40625 1.484375 -1.484375 2.3125q-1.078125 0.8125 -2.765625 0.8125q-2.125 0 -3.375 -1.296875q-1.234375 -1.3125 -1.234375 -3.671875q0 -2.453125 1.25 -3.796875q1.265625 -1.34375 3.265625 -1.34375q1.9375 0 3.15625 1.328125q1.234375 1.3125 1.234375 3.703125q0 0.15625 0 0.4375l-7.21875 0q0.09375 1.59375 0.90625 2.453125q0.8125 0.84375 2.015625 0.84375q0.90625 0 1.546875 -0.46875q0.640625 -0.484375 1.015625 -1.515625zm-5.390625 -2.65625l5.40625 0q-0.109375 -1.21875 -0.625 -1.828125q-0.78125 -0.953125 -2.03125 -0.953125q-1.125 0 -1.90625 0.765625q-0.765625 0.75 -0.84375 2.015625zm15.406967 5.765625l0 -1.21875q-0.90625 1.4375 -2.703125 1.4375q-1.15625 0 -2.125 -0.640625q-0.96875 -0.640625 -1.5 -1.78125q-0.53125 -1.140625 -0.53125 -2.625q0 -1.453125 0.484375 -2.625q0.484375 -1.1875 1.4375 -1.8125q0.96875 -0.625 2.171875 -0.625q0.875 0 1.546875 0.375q0.6875 0.359375 1.109375 0.953125l0 -4.796875l1.640625 0l0 13.359375l-1.53125 0zm-5.171875 -4.828125q0 1.859375 0.78125 2.78125q0.78125 0.921875 1.84375 0.921875q1.078125 0 1.828125 -0.875q0.75 -0.890625 0.75 -2.6875q0 -1.984375 -0.765625 -2.90625q-0.765625 -0.9375 -1.890625 -0.9375q-1.078125 0 -1.8125 0.890625q-0.734375 0.890625 -0.734375 2.8125zm9.281967 -6.640625l0 -1.890625l1.640625 0l0 1.890625l-1.640625 0zm0 11.46875l0 -9.671875l1.640625 0l0 9.671875l-1.640625 0zm10.457321 -1.1875q-0.921875 0.765625 -1.765625 1.09375q-0.828125 0.3125 -1.796875 0.3125q-1.59375 0 -2.453125 -0.78125q-0.859375 -0.78125 -0.859375 -1.984375q0 -0.71875 0.328125 -1.296875q0.328125 -0.59375 0.84375 -0.9375q0.53125 -0.359375 1.1875 -0.546875q0.46875 -0.125 1.453125 -0.25q1.984375 -0.234375 2.921875 -0.5625q0.015625 -0.34375 0.015625 -0.421875q0 -1.0 -0.46875 -1.421875q-0.625 -0.546875 -1.875 -0.546875q-1.15625 0 -1.703125 0.40625q-0.546875 0.40625 -0.8125 1.421875l-1.609375 -0.21875q0.21875 -1.015625 0.71875 -1.640625q0.5 -0.640625 1.453125 -0.984375q0.953125 -0.34375 2.1875 -0.34375q1.25 0 2.015625 0.296875q0.78125 0.28125 1.140625 0.734375q0.375 0.4375 0.515625 1.109375q0.078125 0.421875 0.078125 1.515625l0 2.1875q0 2.28125 0.109375 2.890625q0.109375 0.59375 0.40625 1.15625l-1.703125 0q-0.265625 -0.515625 -0.328125 -1.1875zm-0.140625 -3.671875q-0.890625 0.375 -2.671875 0.625q-1.015625 0.140625 -1.4375 0.328125q-0.421875 0.1875 -0.65625 0.53125q-0.21875 0.34375 -0.21875 0.78125q0 0.65625 0.5 1.09375q0.5 0.4375 1.453125 0.4375q0.9375 0 1.671875 -0.40625q0.75 -0.421875 1.09375 -1.140625q0.265625 -0.5625 0.265625 -1.640625l0 -0.609375zm3.8132172 0.5625l1.65625 -0.140625q0.125 1.0 0.546875 1.640625q0.4375 0.640625 1.34375 1.046875q0.921875 0.390625 2.0625 0.390625q1.0 0 1.78125 -0.296875q0.78125 -0.296875 1.15625 -0.8125q0.375 -0.53125 0.375 -1.15625q0 -0.625 -0.375 -1.09375q-0.359375 -0.46875 -1.1875 -0.796875q-0.546875 -0.203125 -2.390625 -0.640625q-1.828125 -0.453125 -2.5625 -0.84375q-0.96875 -0.5 -1.4375 -1.234375q-0.46875 -0.75 -0.46875 -1.671875q0 -1.0 0.578125 -1.875q0.578125 -0.890625 1.671875 -1.34375q1.109375 -0.453125 2.453125 -0.453125q1.484375 0 2.609375 0.484375q1.140625 0.46875 1.75 1.40625q0.609375 0.921875 0.65625 2.09375l-1.6875 0.125q-0.140625 -1.265625 -0.9375 -1.90625q-0.78125 -0.65625 -2.3125 -0.65625q-1.609375 0 -2.34375 0.59375q-0.734375 0.59375 -0.734375 1.421875q0 0.71875 0.53125 1.171875q0.5 0.46875 2.65625 0.96875q2.15625 0.484375 2.953125 0.84375q1.171875 0.53125 1.71875 1.359375q0.5625 0.828125 0.5625 1.90625q0 1.0625 -0.609375 2.015625q-0.609375 0.9375 -1.75 1.46875q-1.140625 0.515625 -2.578125 0.515625q-1.8125 0 -3.046875 -0.53125q-1.21875 -0.53125 -1.921875 -1.59375q-0.6875 -1.0625 -0.71875 -2.40625zm16.412323 2.828125l0.234375 1.453125q-0.6875 0.140625 -1.234375 0.140625q-0.890625 0 -1.390625 -0.28125q-0.484375 -0.28125 -0.6875 -0.734375q-0.203125 -0.46875 -0.203125 -1.9375l0 -5.578125l-1.203125 0l0 -1.265625l1.203125 0l0 -2.390625l1.625 -0.984375l0 3.375l1.65625 0l0 1.265625l-1.65625 0l0 5.671875q0 0.6875 0.078125 0.890625q0.09375 0.203125 0.28125 0.328125q0.203125 0.109375 0.578125 0.109375q0.265625 0 0.71875 -0.0625zm1.5895538 1.46875l0 -9.671875l1.46875 0l0 1.46875q0.5625 -1.03125 1.03125 -1.359375q0.484375 -0.328125 1.0625 -0.328125q0.828125 0 1.6875 0.53125l-0.5625 1.515625q-0.609375 -0.359375 -1.203125 -0.359375q-0.546875 0 -0.96875 0.328125q-0.421875 0.328125 -0.609375 0.890625q-0.28125 0.875 -0.28125 1.921875l0 5.0625l-1.625 0zm12.853302 -3.109375l1.6875 0.203125q-0.40625 1.484375 -1.484375 2.3125q-1.078125 0.8125 -2.765625 0.8125q-2.125 0 -3.375 -1.296875q-1.234375 -1.3125 -1.234375 -3.671875q0 -2.453125 1.25 -3.796875q1.265625 -1.34375 3.265625 -1.34375q1.9375 0 3.15625 1.328125q1.234375 1.3125 1.234375 3.703125q0 0.15625 0 0.4375l-7.21875 0q0.09375 1.59375 0.90625 2.453125q0.8125 0.84375 2.015625 0.84375q0.90625 0 1.546875 -0.46875q0.640625 -0.484375 1.015625 -1.515625zm-5.390625 -2.65625l5.40625 0q-0.109375 -1.21875 -0.625 -1.828125q-0.78125 -0.953125 -2.03125 -0.953125q-1.125 0 -1.90625 0.765625q-0.765625 0.75 -0.84375 2.015625zm15.453842 4.578125q-0.921875 0.765625 -1.765625 1.09375q-0.828125 0.3125 -1.796875 0.3125q-1.59375 0 -2.453125 -0.78125q-0.859375 -0.78125 -0.859375 -1.984375q0 -0.71875 0.328125 -1.296875q0.328125 -0.59375 0.84375 -0.9375q0.53125 -0.359375 1.1875 -0.546875q0.46875 -0.125 1.453125 -0.25q1.984375 -0.234375 2.921875 -0.5625q0.015625 -0.34375 0.015625 -0.421875q0 -1.0 -0.46875 -1.421875q-0.625 -0.546875 -1.875 -0.546875q-1.15625 0 -1.703125 0.40625q-0.546875 0.40625 -0.8125 1.421875l-1.609375 -0.21875q0.21875 -1.015625 0.71875 -1.640625q0.5 -0.640625 1.453125 -0.984375q0.953125 -0.34375 2.1875 -0.34375q1.25 0 2.015625 0.296875q0.78125 0.28125 1.140625 0.734375q0.375 0.4375 0.515625 1.109375q0.078125 0.421875 0.078125 1.515625l0 2.1875q0 2.28125 0.109375 2.890625q0.109375 0.59375 0.40625 1.15625l-1.703125 0q-0.265625 -0.515625 -0.328125 -1.1875zm-0.140625 -3.671875q-0.890625 0.375 -2.671875 0.625q-1.015625 0.140625 -1.4375 0.328125q-0.421875 0.1875 -0.65625 0.53125q-0.21875 0.34375 -0.21875 0.78125q0 0.65625 0.5 1.09375q0.5 0.4375 1.453125 0.4375q0.9375 0 1.671875 -0.40625q0.75 -0.421875 1.09375 -1.140625q0.265625 -0.5625 0.265625 -1.640625l0 -0.609375zm4.203842 4.859375l0 -9.671875l1.46875 0l0 1.359375q0.453125 -0.71875 1.203125 -1.140625q0.765625 -0.4375 1.71875 -0.4375q1.078125 0 1.765625 0.453125q0.6875 0.4375 0.96875 1.234375q1.15625 -1.6875 2.984375 -1.6875q1.453125 0 2.21875 0.796875q0.78125 0.796875 0.78125 2.453125l0 6.640625l-1.640625 0l0 -6.09375q0 -0.984375 -0.15625 -1.40625q-0.15625 -0.4375 -0.578125 -0.703125q-0.421875 -0.265625 -0.984375 -0.265625q-1.015625 0 -1.6875 0.6875q-0.671875 0.671875 -0.671875 2.15625l0 5.625l-1.640625 0l0 -6.28125q0 -1.09375 -0.40625 -1.640625q-0.40625 -0.546875 -1.3125 -0.546875q-0.6875 0 -1.28125 0.359375q-0.59375 0.359375 -0.859375 1.0625q-0.25 0.703125 -0.25 2.03125l0 5.015625l-1.640625 0z" fill-rule="nonzero"/><path fill="#cfe2f3" d="m100.04199 56.711285l132.12599 0l0 80.913376l-132.12599 0z" fill-rule="evenodd"/><path stroke="#000000" stroke-width="1.0" stroke-linejoin="round" stroke-linecap="butt" d="m100.04199 56.711285l132.12599 0l0 80.913376l-132.12599 0z" fill-rule="evenodd"/><path fill="#000000" d="m138.15186 96.15423l0.46875 0.171875q0.234375 0.234375 -0.171875 0.296875l-0.53125 1.046875l4.453125 0l0 1.125l-1.515625 0q-0.46875 1.515625 -1.109375 2.28125q1.453125 0.53125 2.75 1.296875l-0.703125 1.046875q-1.9375 -1.046875 -2.875 -1.46875q-1.9375 1.296875 -4.515625 1.703125l-0.40625 -1.046875q2.46875 -0.296875 3.75 -1.1875l-1.515625 -0.640625l-0.359375 0.53125l-0.9375 -0.46875l1.171875 -2.046875l-1.75 0l0 -1.125l2.34375 0l0.703125 -1.515625l-3.578125 0l0 -1.109375l2.40625 0l-0.65625 -2.109375l-0.875 0l0 -1.125l2.875 0l0 -1.640625l1.109375 0q0.46875 0.0625 0.0625 0.359375l0 1.28125l3.28125 0l0 1.125l-1.234375 0l-0.640625 2.109375l2.6875 0l0 1.109375l-4.6875 0zm0.53125 4.515625q0.59375 -0.65625 0.9375 -1.875l-2.21875 0l-0.703125 1.171875l1.984375 0.703125zm-1.234375 -5.625l1.53125 0l0.578125 -2.109375l-2.75 0l0.640625 2.109375zm-6.265625 -4.875l1.109375 0q0.46875 0.0625 0.0625 0.359375l0 2.28125l1.640625 0l0 1.109375l-1.640625 0l0 3.046875l1.234375 -0.40625l0.40625 1.0l-1.640625 0.640625l0 4.640625q0 0.8125 -0.8125 0.8125l-1.125 0l-0.171875 -1.109375l0.703125 0q0.234375 0 0.234375 -0.234375l0 -3.703125l-1.0 0.296875q-0.046875 0.40625 -0.28125 0.171875l-0.46875 -1.28125l1.75 -0.46875l0 -3.40625l-1.578125 0l0 -1.109375l1.578125 0l0 -2.640625zm17.109375 13.015625l0 -3.6875l-2.921875 1.046875q-0.1875 0.59375 -0.421875 0.125l-0.578125 -1.171875l1.171875 -0.359375l0 -7.265625l1.109375 0q0.46875 0.0625 0.0625 0.359375l0 6.5625l1.578125 -0.53125l0 -7.796875l1.109375 0q0.46875 0.0625 0.0625 0.359375l0 12.359375l-1.171875 0zm5.515625 -4.515625q0.984375 -1.703125 1.28125 -3.921875l-2.578125 0q0.296875 2.34375 1.296875 3.921875zm-4.046875 -1.75q1.9375 -2.234375 2.6875 -6.5625l0.9375 0.171875q0.703125 0.171875 0.0625 0.40625q-0.234375 1.0625 -0.703125 2.703125l4.859375 0l0 1.109375l-1.40625 0q-0.46875 2.921875 -1.6875 4.859375q1.28125 1.296875 3.15625 2.109375l-0.640625 1.171875q-1.8125 -0.875 -3.21875 -2.28125q-1.40625 1.640625 -3.34375 2.46875l-0.640625 -1.0625q2.21875 -0.9375 3.28125 -2.34375q-0.9375 -1.46875 -1.46875 -3.453125q-0.640625 1.046875 -1.0625 1.453125l-0.8125 -0.75zm16.875 -3.171875q0.296875 0.46875 0.8125 0.9375q0.703125 -0.875 1.234375 -1.9375l1.0 0.296875q0.46875 0.234375 -0.125 0.40625l-0.28125 0.421875q1.109375 0.578125 2.390625 1.28125l-0.515625 1.0625q-1.171875 -0.765625 -2.46875 -1.53125l-0.53125 0.703125q2.0 1.703125 4.515625 2.8125l-0.703125 1.109375q-2.75 -1.21875 -5.328125 -3.921875l0 1.40625l-1.171875 0l0 -1.40625q-2.234375 2.8125 -5.21875 4.21875l-0.578125 -1.0q2.28125 -0.984375 4.03125 -2.75l-1.109375 -0.875q-0.765625 0.8125 -1.40625 1.28125l-0.703125 -0.703125q1.765625 -1.40625 2.515625 -2.859375l0.9375 0.28125q0.46875 0.234375 -0.109375 0.359375q-0.40625 0.578125 -0.640625 0.875l1.28125 0.828125q0.59375 -0.65625 1.0 -1.296875l0 -1.171875l-5.328125 0l0 -0.9375l5.328125 0l0 -1.46875l1.109375 0q0.46875 0.0625 0.0625 0.359375l0 1.109375l5.453125 0l0 0.9375l-5.453125 0l0 1.171875zm2.453125 4.859375q-0.640625 1.125 -1.40625 2.0q1.59375 0.765625 3.109375 1.640625l-0.9375 0.9375q-1.109375 -0.703125 -2.984375 -1.703125q-2.109375 1.703125 -4.8125 2.171875l-0.640625 -1.0q2.515625 -0.34375 4.453125 -1.703125q-0.8125 -0.40625 -2.109375 -0.9375q-0.8125 0.65625 -1.75 1.125l-0.703125 -0.890625q2.34375 -1.109375 3.921875 -3.15625l1.109375 0.109375q0.46875 0.1875 -0.171875 0.421875l-0.234375 0.234375l2.28125 0l0.125 -0.234375l0.875 0.640625q0.46875 0.296875 -0.125 0.34375zm-4.5625 0.703125q1.234375 0.421875 2.171875 0.890625q0.703125 -0.703125 1.171875 -1.40625l-2.703125 0l-0.640625 0.515625zm17.515625 -0.9375l-1.9375 0l0 0.53125q0 3.875 -5.203125 4.578125l-0.359375 -1.296875q4.390625 -0.296875 4.390625 -3.28125l0 -0.53125l-0.984375 0l0 0.59375l-1.171875 0l0 -4.625l3.6875 0l0 -1.359375l-5.390625 0l0 -1.109375l5.390625 0l0 -1.75l1.109375 0q0.46875 0.046875 0.0625 0.34375l0 1.40625l5.453125 0l0 1.109375l-5.453125 0l0 1.359375l3.8125 0l0 4.5l-1.171875 0l0 -0.46875l-1.0625 0l0 3.109375q0 0.46875 0.40625 0.46875l1.765625 0q0.640625 0 0.765625 -0.578125l0.171875 -0.828125l1.28125 0.296875l-0.28125 1.109375q-0.296875 1.125 -1.359375 1.125l-2.921875 0q-1.0 0 -1.0 -1.0625l0 -3.640625zm2.234375 -3.09375l-6.328125 0l0 2.15625l6.328125 0l0 -2.15625zm7.78125 6.203125l3.171875 -0.109375l0 -2.34375l-1.296875 0l0 0.9375l-0.984375 0l0 -4.515625l2.28125 0l0 -1.109375l-2.40625 0.046875l-0.34375 -1.109375q3.390625 0.0625 5.671875 -0.40625l0.765625 1.046875q0.0625 0.421875 -0.34375 0.1875l-2.34375 0.171875l0 1.171875l2.34375 0l0 3.578125l-2.34375 0l0 2.28125l1.8125 -0.171875l-0.875 -1.125l0.9375 -0.640625q1.21875 1.296875 2.046875 2.75l-1.109375 0.71875l-0.53125 -0.890625l-5.75 0.765625q-0.046875 0.40625 -0.28125 0.171875l-0.421875 -1.40625zm9.265625 -0.875q0.53125 1.28125 0.703125 -0.9375l1.046875 0.875q-0.234375 2.0 -0.703125 2.34375q-0.984375 0.765625 -2.046875 -1.515625q-0.703125 -1.53125 -0.703125 -4.40625l0 -4.921875l-7.609375 0l0 6.390625q0 2.8125 -2.0 4.875l-0.8125 -1.125q1.640625 -1.515625 1.640625 -4.046875l0 -7.203125l9.953125 0l0 5.984375q0 2.390625 0.53125 3.6875zm-3.75 -4.21875l-1.34375 0l0 1.703125l1.34375 0l0 -1.703125zm-2.34375 0l-1.296875 0l0 1.703125l1.296875 0l0 -1.703125z" fill-rule="nonzero"/><path fill="#cfe2f3" d="m302.9029 213.44095l132.12598 0l0 28.755905l-132.12598 0z" fill-rule="evenodd"/><path stroke="#000000" stroke-width="1.0" stroke-linejoin="round" stroke-linecap="butt" d="m302.9029 213.44095l132.12598 0l0 28.755905l-132.12598 0z" fill-rule="evenodd"/><path fill="#000000" d="m333.5174 230.44202l1.65625 -0.140625q0.125 1.0 0.546875 1.640625q0.4375 0.640625 1.34375 1.046875q0.921875 0.390625 2.0625 0.390625q1.0 0 1.78125 -0.296875q0.78125 -0.296875 1.15625 -0.8125q0.375 -0.53125 0.375 -1.15625q0 -0.625 -0.375 -1.09375q-0.359375 -0.46875 -1.1875 -0.796875q-0.546875 -0.203125 -2.390625 -0.640625q-1.828125 -0.453125 -2.5625 -0.84375q-0.96875 -0.5 -1.4375 -1.234375q-0.46875 -0.75 -0.46875 -1.671875q0 -1.0 0.578125 -1.875q0.578125 -0.890625 1.671875 -1.34375q1.109375 -0.453125 2.453125 -0.453125q1.484375 0 2.609375 0.484375q1.140625 0.46875 1.75 1.40625q0.609375 0.921875 0.65625 2.09375l-1.6875 0.125q-0.140625 -1.265625 -0.9375 -1.90625q-0.78125 -0.65625 -2.3125 -0.65625q-1.609375 0 -2.34375 0.59375q-0.734375 0.59375 -0.734375 1.421875q0 0.71875 0.53125 1.171875q0.5 0.46875 2.65625 0.96875q2.15625 0.484375 2.953125 0.84375q1.171875 0.53125 1.71875 1.359375q0.5625 0.828125 0.5625 1.90625q0 1.0625 -0.609375 2.015625q-0.609375 0.9375 -1.75 1.46875q-1.140625 0.515625 -2.578125 0.515625q-1.8125 0 -3.046875 -0.53125q-1.21875 -0.53125 -1.921875 -1.59375q-0.6875 -1.0625 -0.71875 -2.40625zm12.818573 4.296875l0 -9.671875l1.46875 0l0 1.46875q0.5625 -1.03125 1.03125 -1.359375q0.484375 -0.328125 1.0625 -0.328125q0.828125 0 1.6875 0.53125l-0.5625 1.515625q-0.609375 -0.359375 -1.203125 -0.359375q-0.546875 0 -0.96875 0.328125q-0.421875 0.328125 -0.609375 0.890625q-0.28125 0.875 -0.28125 1.921875l0 5.0625l-1.625 0zm12.540802 -3.546875l1.609375 0.21875q-0.265625 1.65625 -1.359375 2.609375q-1.078125 0.9375 -2.671875 0.9375q-1.984375 0 -3.1875 -1.296875q-1.203125 -1.296875 -1.203125 -3.71875q0 -1.578125 0.515625 -2.75q0.515625 -1.171875 1.578125 -1.75q1.0625 -0.59375 2.3125 -0.59375q1.578125 0 2.578125 0.796875q1.0 0.796875 1.28125 2.265625l-1.59375 0.234375q-0.234375 -0.96875 -0.8125 -1.453125q-0.578125 -0.5 -1.390625 -0.5q-1.234375 0 -2.015625 0.890625q-0.78125 0.890625 -0.78125 2.8125q0 1.953125 0.75 2.84375q0.75 0.875 1.953125 0.875q0.96875 0 1.609375 -0.59375q0.65625 -0.59375 0.828125 -1.828125zm3.203125 3.546875l0 -13.359375l1.8125 0l7.015625 10.484375l0 -10.484375l1.6875 0l0 13.359375l-1.8125 0l-7.015625 -10.5l0 10.5l-1.6875 0zm12.676056 -4.84375q0 -2.6875 1.484375 -3.96875q1.25 -1.078125 3.046875 -1.078125q2.0 0 3.265625 1.3125q1.265625 1.296875 1.265625 3.609375q0 1.859375 -0.5625 2.9375q-0.5625 1.0625 -1.640625 1.65625q-1.0625 0.59375 -2.328125 0.59375q-2.03125 0 -3.28125 -1.296875q-1.25 -1.3125 -1.25 -3.765625zm1.6875 0q0 1.859375 0.796875 2.796875q0.8125 0.921875 2.046875 0.921875q1.21875 0 2.03125 -0.921875q0.8125 -0.9375 0.8125 -2.84375q0 -1.796875 -0.8125 -2.71875q-0.8125 -0.921875 -2.03125 -0.921875q-1.234375 0 -2.046875 0.921875q-0.796875 0.90625 -0.796875 2.765625zm15.563232 4.84375l0 -1.21875q-0.90625 1.4375 -2.703125 1.4375q-1.15625 0 -2.125 -0.640625q-0.96875 -0.640625 -1.5 -1.78125q-0.53125 -1.140625 -0.53125 -2.625q0 -1.453125 0.484375 -2.625q0.484375 -1.1875 1.4375 -1.8125q0.96875 -0.625 2.171875 -0.625q0.875 0 1.546875 0.375q0.6875 0.359375 1.109375 0.953125l0 -4.796875l1.640625 0l0 13.359375l-1.53125 0zm-5.171875 -4.828125q0 1.859375 0.78125 2.78125q0.78125 0.921875 1.84375 0.921875q1.078125 0 1.828125 -0.875q0.75 -0.890625 0.75 -2.6875q0 -1.984375 -0.765625 -2.90625q-0.765625 -0.9375 -1.890625 -0.9375q-1.078125 0 -1.8125 0.890625q-0.734375 0.890625 -0.734375 2.8125zm15.906952 1.71875l1.6875 0.203125q-0.40625 1.484375 -1.484375 2.3125q-1.078125 0.8125 -2.765625 0.8125q-2.125 0 -3.375 -1.296875q-1.234375 -1.3125 -1.234375 -3.671875q0 -2.453125 1.25 -3.796875q1.265625 -1.34375 3.265625 -1.34375q1.9375 0 3.15625 1.328125q1.234375 1.3125 1.234375 3.703125q0 0.15625 0 0.4375l-7.21875 0q0.09375 1.59375 0.90625 2.453125q0.8125 0.84375 2.015625 0.84375q0.90625 0 1.546875 -0.46875q0.640625 -0.484375 1.015625 -1.515625zm-5.390625 -2.65625l5.40625 0q-0.109375 -1.21875 -0.625 -1.828125q-0.78125 -0.953125 -2.03125 -0.953125q-1.125 0 -1.90625 0.765625q-0.765625 0.75 -0.84375 2.015625z" fill-rule="nonzero"/><path fill="#cfe2f3" d="m302.9029 242.19685l132.12598 0l0 80.913376l-132.12598 0z" fill-rule="evenodd"/><path stroke="#000000" stroke-width="1.0" stroke-linejoin="round" stroke-linecap="butt" d="m302.9029 242.19685l132.12598 0l0 80.913376l-132.12598 0z" fill-rule="evenodd"/><path fill="#000000" d="m352.8565 288.60855l-6.328125 0q-3.109375 0 -4.984375 -2.578125q-0.296875 1.828125 -1.0 3.0l-1.109375 -0.765625q1.296875 -2.171875 1.171875 -5.75l1.296875 0.171875q0.171875 0.1875 -0.125 0.359375q0 0.703125 -0.0625 1.46875q0.234375 0.640625 1.125 1.515625l0 -4.390625l-3.0 0l0 -1.109375l3.0 0l0 -1.9375l-2.40625 0l0 -1.109375l2.40625 0l0 -1.875l1.109375 0q0.46875 0.046875 0.0625 0.34375l0 1.53125l2.28125 0l0 1.109375l-2.28125 0l0 1.9375l2.6875 0l0 1.109375l-2.6875 0l0 1.9375l2.109375 0l0 1.109375l-2.109375 0l0 2.171875q1.171875 0.640625 2.8125 0.640625l6.4375 0l-0.40625 1.109375zm-0.53125 -12.0625l0 5.5l-1.171875 0l0 -0.578125l-2.8125 0l0 3.453125q0 0.46875 0.40625 0.46875l2.46875 0q0.40625 0 0.46875 -0.359375l0.171875 -1.109375l1.234375 0.234375l-0.171875 1.109375q-0.1875 1.234375 -1.40625 1.234375l-3.28125 0q-1.0625 0 -1.0625 -1.0l0 -5.15625l3.984375 0l0 -2.6875l-4.28125 0l0 -1.109375l5.453125 0zm8.609375 5.265625q-0.28125 0.359375 -0.34375 0l-0.296875 -1.234375l1.0625 0q0.640625 -1.875 1.34375 -4.921875l1.40625 0.421875q0.34375 0.28125 -0.234375 0.40625q-0.703125 2.109375 -1.40625 4.046875l3.515625 -0.234375q-0.53125 -0.890625 -1.234375 -1.828125l1.0 -0.46875q1.34375 1.46875 2.40625 3.578125l-1.171875 0.59375l-0.46875 -0.9375l-5.578125 0.578125zm-3.453125 -2.109375q-0.296875 1.875 -0.765625 3.640625q0.703125 0.46875 1.40625 0.9375q0.421875 -1.46875 0.65625 -4.578125l-1.296875 0zm1.578125 5.21875q0.46875 0.34375 1.171875 0.9375l-0.640625 1.234375q-0.40625 -0.46875 -1.046875 -1.0q-0.9375 1.515625 -2.765625 2.703125l-0.75 -0.9375q1.6875 -1.125 2.625 -2.53125q-0.640625 -0.46875 -1.28125 -1.0l-0.296875 0.765625l-1.046875 -0.46875q0.875 -2.171875 1.34375 -4.921875l-1.40625 0l0 -1.109375l1.578125 0q0.171875 -1.34375 0.359375 -2.75l1.046875 0.234375q0.59375 0.171875 0 0.40625q-0.109375 1.046875 -0.296875 2.109375l1.359375 0l0.234375 -0.234375l0.875 0.578125l-0.171875 0.234375q-0.234375 3.8125 -0.890625 5.75zm6.859375 3.28125l-3.6875 0l0 0.765625l-1.171875 0l0 -5.984375l6.03125 0l0 5.75l-1.171875 0l0 -0.53125zm0 -1.109375l0 -3.0l-3.6875 0l0 3.0l3.6875 0zm4.109375 0.109375l1.21875 -0.109375l0 -6.984375l4.6875 0l0 4.6875l-3.6875 0l0 2.109375l2.28125 -0.40625l-0.703125 -0.765625l0.890625 -0.578125q1.109375 1.046875 1.984375 2.40625l-1.046875 0.703125l-0.59375 -0.890625q-1.703125 0.53125 -4.15625 1.0625q-0.171875 0.359375 -0.359375 0.171875l-0.515625 -1.40625zm10.65625 -0.875q0.234375 0 0.234375 -0.234375l0 -4.859375l-2.578125 0l0 7.796875l-1.171875 0l0 -8.921875l4.921875 0l0 6.515625q0 0.8125 -0.8125 0.8125l-1.40625 0l-0.234375 -1.109375l1.046875 0zm-2.34375 -9.265625l4.625 0l0 1.125l-2.859375 0l0.703125 1.046875l-1.296875 0.359375l-0.640625 -1.40625l-0.9375 0q-0.296875 0.8125 -1.171875 1.984375l-0.828125 -0.875q1.125 -1.53125 1.640625 -3.8125l1.234375 0.359375q0.234375 0.234375 -0.171875 0.28125l-0.296875 0.9375zm-5.03125 1.125l-1.234375 0q-0.765625 1.40625 -1.578125 2.15625l-0.828125 -0.875q1.40625 -1.40625 2.171875 -3.8125l1.171875 0.296875q0.234375 0.234375 -0.171875 0.296875l-0.296875 0.8125l3.8125 0l0 1.125l-2.0 0l0.59375 1.171875l-1.234375 0.28125l-0.40625 -1.453125zm1.640625 4.734375l-2.703125 0l0 0.9375l2.703125 0l0 -0.9375zm0 -1.875l-2.703125 0l0 0.9375l2.703125 0l0 -0.9375zm16.34375 4.921875q0.578125 1.234375 0.765625 2.171875l-0.9375 0.296875q-0.234375 -1.109375 -0.765625 -2.28125l0.9375 -0.1875zm-1.578125 0.1875q0.28125 1.109375 0.515625 2.28125l-0.984375 0.234375q-0.234375 -1.296875 -0.46875 -2.40625l0.9375 -0.109375zm-1.640625 0.171875q0.171875 1.34375 0.234375 2.34375l-1.0625 0q0 -0.875 -0.0625 -2.34375l0.890625 0zm-3.234375 2.40625q0.53125 -1.125 0.828125 -2.53125l0.875 0.1875q-0.296875 1.703125 -0.703125 2.640625l-1.0 -0.296875zm7.328125 -4.28125l0 0.9375l-6.734375 0.40625q-0.296875 0.53125 -0.40625 -0.0625l-0.234375 -1.046875l3.09375 -0.0625l0 -1.234375l-2.578125 0l0 -0.9375l2.578125 0l0 -0.984375l-1.28125 0l-1.296875 0l0 -5.515625l6.28125 0l0 5.515625l-2.703125 0l0 0.984375l2.75 0l0 0.9375l-2.75 0l0 1.171875l3.28125 -0.109375zm-5.21875 -4.578125q-0.109375 -1.046875 -0.34375 -2.15625l0.640625 -0.1875q0.296875 1.171875 0.359375 2.234375l-0.65625 0.109375zm3.28125 -1.875q-0.109375 0.890625 -0.40625 1.828125l-0.703125 -0.0625q0.296875 -1.0625 0.40625 -2.171875l0.703125 0.0625q0.421875 0.109375 0 0.34375zm3.984375 4.28125l0 -6.5l1.125 0q0.46875 0.0625 0.046875 0.34375l0 2.0625l2.8125 0l0 1.109375l-2.8125 0l0 2.984375l2.578125 0l0 6.390625l-1.171875 0l0 -0.8125l-2.984375 0l0 1.046875l-1.171875 0l0 -6.625l1.578125 0zm-3.625 -1.75l0 -3.640625l-1.703125 0l0 3.640625l1.703125 0zm-2.703125 -3.640625l-1.578125 0l0 3.640625l1.578125 0l0 -3.640625zm8.90625 9.84375l0 -3.34375l-2.984375 0l0 3.34375l2.984375 0z" fill-rule="nonzero"/><path fill="#cfe2f3" d="m517.4829 213.44081l132.12604 0l0 28.755905l-132.12604 0z" fill-rule="evenodd"/><path stroke="#000000" stroke-width="1.0" stroke-linejoin="round" stroke-linecap="butt" d="m517.4829 213.44081l132.12604 0l0 28.755905l-132.12604 0z" fill-rule="evenodd"/><path fill="#000000" d="m543.50336 234.73875l0 -13.359375l4.609375 0q1.546875 0 2.375 0.203125q1.140625 0.25 1.953125 0.953125q1.0625 0.890625 1.578125 2.28125q0.53125 1.390625 0.53125 3.171875q0 1.515625 -0.359375 2.703125q-0.359375 1.171875 -0.921875 1.9375q-0.546875 0.765625 -1.203125 1.21875q-0.65625 0.4375 -1.59375 0.671875q-0.9375 0.21875 -2.140625 0.21875l-4.828125 0zm1.765625 -1.578125l2.859375 0q1.3125 0 2.0625 -0.234375q0.75 -0.25 1.203125 -0.703125q0.625 -0.625 0.96875 -1.6875q0.359375 -1.0625 0.359375 -2.578125q0 -2.09375 -0.6875 -3.21875q-0.6875 -1.125 -1.671875 -1.5q-0.703125 -0.28125 -2.28125 -0.28125l-2.8125 0l0 10.203125zm18.12915 -1.53125l1.6875 0.203125q-0.40625 1.484375 -1.484375 2.3125q-1.078125 0.8125 -2.765625 0.8125q-2.125 0 -3.375 -1.296875q-1.234375 -1.3125 -1.234375 -3.671875q0 -2.453125 1.25 -3.796875q1.265625 -1.34375 3.265625 -1.34375q1.9375 0 3.15625 1.328125q1.234375 1.3125 1.234375 3.703125q0 0.15625 0 0.4375l-7.21875 0q0.09375 1.59375 0.90625 2.453125q0.8125 0.84375 2.015625 0.84375q0.90625 0 1.546875 -0.46875q0.640625 -0.484375 1.015625 -1.515625zm-5.390625 -2.65625l5.40625 0q-0.109375 -1.21875 -0.625 -1.828125q-0.78125 -0.953125 -2.03125 -0.953125q-1.125 0 -1.90625 0.765625q-0.765625 0.75 -0.84375 2.015625zm8.485107 2.875l1.625 -0.25q0.125 0.96875 0.75 1.5q0.625 0.515625 1.75 0.515625q1.125 0 1.671875 -0.453125q0.546875 -0.46875 0.546875 -1.09375q0 -0.546875 -0.484375 -0.875q-0.328125 -0.21875 -1.671875 -0.546875q-1.8125 -0.46875 -2.515625 -0.796875q-0.6875 -0.328125 -1.046875 -0.90625q-0.359375 -0.59375 -0.359375 -1.3125q0 -0.640625 0.296875 -1.1875q0.296875 -0.5625 0.8125 -0.921875q0.375 -0.28125 1.03125 -0.46875q0.671875 -0.203125 1.421875 -0.203125q1.140625 0 2.0 0.328125q0.859375 0.328125 1.265625 0.890625q0.421875 0.5625 0.578125 1.5l-1.609375 0.21875q-0.109375 -0.75 -0.640625 -1.171875q-0.515625 -0.421875 -1.46875 -0.421875q-1.140625 0 -1.625 0.375q-0.46875 0.375 -0.46875 0.875q0 0.3125 0.1875 0.578125q0.203125 0.265625 0.640625 0.4375q0.234375 0.09375 1.4375 0.421875q1.75 0.453125 2.4375 0.75q0.6875 0.296875 1.078125 0.859375q0.390625 0.5625 0.390625 1.40625q0 0.828125 -0.484375 1.546875q-0.46875 0.71875 -1.375 1.125q-0.90625 0.390625 -2.046875 0.390625q-1.875 0 -2.875 -0.78125q-0.984375 -0.78125 -1.25 -2.328125zm13.5625 1.421875l0.234375 1.453125q-0.6875 0.140625 -1.234375 0.140625q-0.890625 0 -1.390625 -0.28125q-0.484375 -0.28125 -0.6875 -0.734375q-0.203125 -0.46875 -0.203125 -1.9375l0 -5.578125l-1.203125 0l0 -1.265625l1.203125 0l0 -2.390625l1.625 -0.984375l0 3.375l1.65625 0l0 1.265625l-1.65625 0l0 5.671875q0 0.6875 0.078125 0.890625q0.09375 0.203125 0.28125 0.328125q0.203125 0.109375 0.578125 0.109375q0.265625 0 0.71875 -0.0625zm1.7926636 1.46875l0 -13.359375l1.8125 0l7.015625 10.484375l0 -10.484375l1.6875 0l0 13.359375l-1.8125 0l-7.015625 -10.5l0 10.5l-1.6875 0zm12.676086 -4.84375q0 -2.6875 1.484375 -3.96875q1.25 -1.078125 3.046875 -1.078125q2.0 0 3.265625 1.3125q1.265625 1.296875 1.265625 3.609375q0 1.859375 -0.5625 2.9375q-0.5625 1.0625 -1.640625 1.65625q-1.0625 0.59375 -2.328125 0.59375q-2.03125 0 -3.28125 -1.296875q-1.25 -1.3125 -1.25 -3.765625zm1.6875 0q0 1.859375 0.796875 2.796875q0.8125 0.921875 2.046875 0.921875q1.21875 0 2.03125 -0.921875q0.8125 -0.9375 0.8125 -2.84375q0 -1.796875 -0.8125 -2.71875q-0.8125 -0.921875 -2.03125 -0.921875q-1.234375 0 -2.046875 0.921875q-0.796875 0.90625 -0.796875 2.765625zm15.563232 4.84375l0 -1.21875q-0.90625 1.4375 -2.703125 1.4375q-1.15625 0 -2.125 -0.640625q-0.96875 -0.640625 -1.5 -1.78125q-0.53125 -1.140625 -0.53125 -2.625q0 -1.453125 0.484375 -2.625q0.484375 -1.1875 1.4375 -1.8125q0.96875 -0.625 2.171875 -0.625q0.875 0 1.546875 0.375q0.6875 0.359375 1.109375 0.953125l0 -4.796875l1.640625 0l0 13.359375l-1.53125 0zm-5.171875 -4.828125q0 1.859375 0.78125 2.78125q0.78125 0.921875 1.84375 0.921875q1.078125 0 1.828125 -0.875q0.75 -0.890625 0.75 -2.6875q0 -1.984375 -0.765625 -2.90625q-0.765625 -0.9375 -1.890625 -0.9375q-1.078125 0 -1.8125 0.890625q-0.734375 0.890625 -0.734375 2.8125zm15.906982 1.71875l1.6875 0.203125q-0.40625 1.484375 -1.484375 2.3125q-1.078125 0.8125 -2.765625 0.8125q-2.125 0 -3.375 -1.296875q-1.234375 -1.3125 -1.234375 -3.671875q0 -2.453125 1.25 -3.796875q1.265625 -1.34375 3.265625 -1.34375q1.9375 0 3.15625 1.328125q1.234375 1.3125 1.234375 3.703125q0 0.15625 0 0.4375l-7.21875 0q0.09375 1.59375 0.90625 2.453125q0.8125 0.84375 2.015625 0.84375q0.90625 0 1.546875 -0.46875q0.640625 -0.484375 1.015625 -1.515625zm-5.390625 -2.65625l5.40625 0q-0.109375 -1.21875 -0.625 -1.828125q-0.78125 -0.953125 -2.03125 -0.953125q-1.125 0 -1.90625 0.765625q-0.765625 0.75 -0.84375 2.015625z" fill-rule="nonzero"/><path fill="#cfe2f3" d="m517.4829 242.19672l132.12604 0l0 80.91339l-132.12604 0z" fill-rule="evenodd"/><path stroke="#000000" stroke-width="1.0" stroke-linejoin="round" stroke-linecap="butt" d="m517.4829 242.19672l132.12604 0l0 80.91339l-132.12604 0z" fill-rule="evenodd"/><path fill="#000000" d="m567.4366 288.6084l-6.328125 0q-3.109375 0 -4.984375 -2.578125q-0.296875 1.828125 -1.0 3.0l-1.109375 -0.765625q1.296875 -2.171875 1.171875 -5.75l1.296875 0.171875q0.171875 0.1875 -0.125 0.359375q0 0.703125 -0.0625 1.46875q0.234375 0.640625 1.125 1.515625l0 -4.390625l-3.0 0l0 -1.109375l3.0 0l0 -1.9375l-2.40625 0l0 -1.109375l2.40625 0l0 -1.875l1.109375 0q0.46875 0.046875 0.0625 0.34375l0 1.53125l2.28125 0l0 1.109375l-2.28125 0l0 1.9375l2.6875 0l0 1.109375l-2.6875 0l0 1.9375l2.109375 0l0 1.109375l-2.109375 0l0 2.171875q1.171875 0.640625 2.8125 0.640625l6.4375 0l-0.40625 1.109375zm-0.53125 -12.0625l0 5.5l-1.171875 0l0 -0.578125l-2.8125 0l0 3.453125q0 0.46875 0.40625 0.46875l2.46875 0q0.40625 0 0.46875 -0.359375l0.171875 -1.109375l1.234375 0.234375l-0.171875 1.109375q-0.1875 1.234375 -1.40625 1.234375l-3.28125 0q-1.0625 0 -1.0625 -1.0l0 -5.15625l3.984375 0l0 -2.6875l-4.28125 0l0 -1.109375l5.453125 0zm8.609375 5.265625q-0.28125 0.359375 -0.34375 0l-0.296875 -1.234375l1.0625 0q0.640625 -1.875 1.34375 -4.921875l1.40625 0.421875q0.34375 0.28125 -0.234375 0.40625q-0.703125 2.109375 -1.40625 4.046875l3.515625 -0.234375q-0.53125 -0.890625 -1.234375 -1.828125l1.0 -0.46875q1.343689 1.46875 2.406189 3.578125l-1.171875 0.59375l-0.46868896 -0.9375l-5.578125 0.578125zm-3.453125 -2.109375q-0.296875 1.875 -0.765625 3.640625q0.703125 0.46875 1.40625 0.9375q0.421875 -1.46875 0.65625 -4.578125l-1.296875 0zm1.578125 5.21875q0.46875 0.34375 1.171875 0.9375l-0.640625 1.234375q-0.40625 -0.46875 -1.046875 -1.0q-0.9375 1.515625 -2.765625 2.703125l-0.75 -0.9375q1.6875 -1.125 2.625 -2.53125q-0.640625 -0.46875 -1.28125 -1.0l-0.296875 0.765625l-1.046875 -0.46875q0.875 -2.171875 1.34375 -4.921875l-1.40625 0l0 -1.109375l1.578125 0q0.171875 -1.34375 0.359375 -2.75l1.046875 0.234375q0.59375 0.171875 0 0.40625q-0.109375 1.046875 -0.296875 2.109375l1.359375 0l0.234375 -0.234375l0.875 0.578125l-0.171875 0.234375q-0.234375 3.8125 -0.890625 5.75zm6.859375 3.28125l-3.6875 0l0 0.765625l-1.171875 0l0 -5.984375l6.031189 0l0 5.75l-1.171814 0l0 -0.53125zm0 -1.109375l0 -3.0l-3.6875 0l0 3.0l3.6875 0zm4.109314 0.109375l1.21875 -0.109375l0 -6.984375l4.6875 0l0 4.6875l-3.6875 0l0 2.109375l2.28125 -0.40625l-0.703125 -0.765625l0.890625 -0.578125q1.109375 1.046875 1.984375 2.40625l-1.046875 0.703125l-0.59375 -0.890625q-1.703125 0.53125 -4.15625 1.0625q-0.171875 0.359375 -0.359375 0.171875l-0.515625 -1.40625zm10.65625 -0.875q0.234375 0 0.234375 -0.234375l0 -4.859375l-2.578125 0l0 7.796875l-1.171875 0l0 -8.921875l4.921875 0l0 6.515625q0 0.8125 -0.8125 0.8125l-1.40625 0l-0.234375 -1.109375l1.046875 0zm-2.34375 -9.265625l4.625 0l0 1.125l-2.859375 0l0.703125 1.046875l-1.296875 0.359375l-0.640625 -1.40625l-0.9375 0q-0.296875 0.8125 -1.171875 1.984375l-0.828125 -0.875q1.125 -1.53125 1.640625 -3.8125l1.234375 0.359375q0.234375 0.234375 -0.171875 0.28125l-0.296875 0.9375zm-5.03125 1.125l-1.234375 0q-0.765625 1.40625 -1.578125 2.15625l-0.828125 -0.875q1.40625 -1.40625 2.171875 -3.8125l1.171875 0.296875q0.234375 0.234375 -0.171875 0.296875l-0.296875 0.8125l3.8125 0l0 1.125l-2.0 0l0.59375 1.171875l-1.234375 0.28125l-0.40625 -1.453125zm1.640625 4.734375l-2.703125 0l0 0.9375l2.703125 0l0 -0.9375zm0 -1.875l-2.703125 0l0 0.9375l2.703125 0l0 -0.9375zm16.34375 4.921875q0.578125 1.234375 0.765625 2.171875l-0.9375 0.296875q-0.234375 -1.109375 -0.765625 -2.28125l0.9375 -0.1875zm-1.578125 0.1875q0.28125 1.109375 0.515625 2.28125l-0.984375 0.234375q-0.234375 -1.296875 -0.46875 -2.40625l0.9375 -0.109375zm-1.640625 0.171875q0.171875 1.34375 0.234375 2.34375l-1.0625 0q0 -0.875 -0.0625 -2.34375l0.890625 0zm-3.234375 2.40625q0.53125 -1.125 0.828125 -2.53125l0.875 0.1875q-0.296875 1.703125 -0.703125 2.640625l-1.0 -0.296875zm7.328125 -4.28125l0 0.9375l-6.734375 0.40625q-0.296875 0.53125 -0.40625 -0.0625l-0.234375 -1.046875l3.09375 -0.0625l0 -1.234375l-2.578125 0l0 -0.9375l2.578125 0l0 -0.984375l-1.28125 0l-1.296875 0l0 -5.515625l6.28125 0l0 5.515625l-2.703125 0l0 0.984375l2.75 0l0 0.9375l-2.75 0l0 1.171875l3.28125 -0.109375zm-5.21875 -4.578125q-0.109375 -1.046875 -0.34375 -2.15625l0.640625 -0.1875q0.296875 1.171875 0.359375 2.234375l-0.65625 0.109375zm3.28125 -1.875q-0.109375 0.890625 -0.40625 1.828125l-0.703125 -0.0625q0.296875 -1.0625 0.40625 -2.171875l0.703125 0.0625q0.421875 0.109375 0 0.34375zm3.984375 4.28125l0 -6.5l1.125 0q0.46875 0.0625 0.046875 0.34375l0 2.0625l2.8125 0l0 1.109375l-2.8125 0l0 2.984375l2.578125 0l0 6.390625l-1.171875 0l0 -0.8125l-2.984375 0l0 1.046875l-1.171875 0l0 -6.625l1.578125 0zm-3.625 -1.75l0 -3.640625l-1.703125 0l0 3.640625l1.703125 0zm-2.703125 -3.640625l-1.578125 0l0 3.640625l1.578125 0l0 -3.640625zm8.90625 9.84375l0 -3.34375l-2.984375 0l0 3.34375l2.984375 0z" fill-rule="nonzero"/><path fill="#cfe2f3" d="m732.063 213.44095l132.12598 0l0 28.755905l-132.12598 0z" fill-rule="evenodd"/><path stroke="#000000" stroke-width="1.0" stroke-linejoin="round" stroke-linecap="butt" d="m732.063 213.44095l132.12598 0l0 28.755905l-132.12598 0z" fill-rule="evenodd"/><path fill="#000000" d="m744.6221 233.6789l0 -11.453125l2.28125 0l2.71875 8.109375q0.375 1.125 0.546875 1.6875q0.1875 -0.625 0.609375 -1.828125l2.734375 -7.96875l2.046875 0l0 11.453125l-1.46875 0l0 -9.59375l-3.328125 9.59375l-1.359375 0l-3.3125 -9.75l0 9.75l-1.46875 0zm18.875 -2.671875l1.453125 0.171875q-0.34375 1.28125 -1.28125 1.984375q-0.921875 0.703125 -2.359375 0.703125q-1.828125 0 -2.890625 -1.125q-1.0625 -1.125 -1.0625 -3.140625q0 -2.09375 1.078125 -3.25q1.078125 -1.15625 2.796875 -1.15625q1.65625 0 2.703125 1.140625q1.0625 1.125 1.0625 3.171875q0 0.125 0 0.375l-6.1875 0q0.078125 1.375 0.765625 2.109375q0.703125 0.71875 1.734375 0.71875q0.78125 0 1.328125 -0.40625q0.546875 -0.40625 0.859375 -1.296875zm-4.609375 -2.28125l4.625 0q-0.09375 -1.046875 -0.53125 -1.5625q-0.671875 -0.8125 -1.734375 -0.8125q-0.96875 0 -1.640625 0.65625q-0.65625 0.640625 -0.71875 1.71875zm13.2109375 4.953125l0 -1.046875q-0.78125 1.234375 -2.3125 1.234375q-1.0 0 -1.828125 -0.546875q-0.828125 -0.546875 -1.296875 -1.53125q-0.453125 -0.984375 -0.453125 -2.25q0 -1.25 0.40625 -2.25q0.421875 -1.015625 1.25 -1.546875q0.828125 -0.546875 1.859375 -0.546875q0.75 0 1.328125 0.3125q0.59375 0.3125 0.953125 0.828125l0 -4.109375l1.40625 0l0 11.453125l-1.3125 0zm-4.4375 -4.140625q0 1.59375 0.671875 2.390625q0.671875 0.78125 1.578125 0.78125q0.921875 0 1.5625 -0.75q0.65625 -0.765625 0.65625 -2.3125q0 -1.703125 -0.65625 -2.5q-0.65625 -0.796875 -1.625 -0.796875q-0.9375 0 -1.5625 0.765625q-0.625 0.765625 -0.625 2.421875zm7.9609375 -5.703125l0 -1.609375l1.40625 0l0 1.609375l-1.40625 0zm0 9.84375l0 -8.296875l1.40625 0l0 8.296875l-1.40625 0zm8.9609375 -1.03125q-0.78125 0.671875 -1.5 0.953125q-0.71875 0.265625 -1.546875 0.265625q-1.375 0 -2.109375 -0.671875q-0.734375 -0.671875 -0.734375 -1.703125q0 -0.609375 0.28125 -1.109375q0.28125 -0.515625 0.71875 -0.8125q0.453125 -0.3125 1.015625 -0.46875q0.421875 -0.109375 1.25 -0.203125q1.703125 -0.203125 2.515625 -0.484375q0 -0.296875 0 -0.375q0 -0.859375 -0.390625 -1.203125q-0.546875 -0.484375 -1.609375 -0.484375q-0.984375 0 -1.46875 0.359375q-0.46875 0.34375 -0.6875 1.21875l-1.375 -0.1875q0.1875 -0.875 0.609375 -1.421875q0.4375 -0.546875 1.25 -0.828125q0.8125 -0.296875 1.875 -0.296875q1.0625 0 1.71875 0.25q0.671875 0.25 0.984375 0.625q0.3125 0.375 0.4375 0.953125q0.078125 0.359375 0.078125 1.296875l0 1.875q0 1.96875 0.078125 2.484375q0.09375 0.515625 0.359375 1.0l-1.46875 0q-0.21875 -0.4375 -0.28125 -1.03125zm-0.109375 -3.140625q-0.765625 0.3125 -2.296875 0.53125q-0.875 0.125 -1.234375 0.28125q-0.359375 0.15625 -0.5625 0.46875q-0.1875 0.296875 -0.1875 0.65625q0 0.5625 0.421875 0.9375q0.4375 0.375 1.25 0.375q0.8125 0 1.4375 -0.34375q0.640625 -0.359375 0.9375 -0.984375q0.234375 -0.46875 0.234375 -1.40625l0 -0.515625zm3.8046875 4.171875l0 -11.453125l5.078125 0q1.53125 0 2.328125 0.3125q0.796875 0.296875 1.265625 1.078125q0.484375 0.78125 0.484375 1.734375q0 1.21875 -0.796875 2.0625q-0.78125 0.828125 -2.4375 1.046875q0.609375 0.296875 0.921875 0.578125q0.65625 0.609375 1.25 1.515625l2.0 3.125l-1.90625 0l-1.515625 -2.390625q-0.671875 -1.03125 -1.109375 -1.578125q-0.421875 -0.546875 -0.765625 -0.765625q-0.328125 -0.21875 -0.6875 -0.296875q-0.25 -0.0625 -0.84375 -0.0625l-1.75 0l0 5.09375l-1.515625 0zm1.515625 -6.40625l3.25 0q1.046875 0 1.625 -0.203125q0.59375 -0.21875 0.890625 -0.6875q0.3125 -0.484375 0.3125 -1.03125q0 -0.8125 -0.59375 -1.328125q-0.59375 -0.53125 -1.859375 -0.53125l-3.625 0l0 3.78125zm15.5078125 3.734375l1.453125 0.171875q-0.34375 1.28125 -1.28125 1.984375q-0.921875 0.703125 -2.359375 0.703125q-1.828125 0 -2.890625 -1.125q-1.0625 -1.125 -1.0625 -3.140625q0 -2.09375 1.078125 -3.25q1.078125 -1.15625 2.796875 -1.15625q1.65625 0 2.703125 1.140625q1.0625 1.125 1.0625 3.171875q0 0.125 0 0.375l-6.1875 0q0.078125 1.375 0.765625 2.109375q0.703125 0.71875 1.734375 0.71875q0.78125 0 1.328125 -0.40625q0.546875 -0.40625 0.859375 -1.296875zm-4.609375 -2.28125l4.625 0q-0.09375 -1.046875 -0.53125 -1.5625q-0.671875 -0.8125 -1.734375 -0.8125q-0.96875 0 -1.640625 0.65625q-0.65625 0.640625 -0.71875 1.71875zm13.2421875 1.90625l1.390625 0.1875q-0.234375 1.421875 -1.171875 2.234375q-0.921875 0.8125 -2.28125 0.8125q-1.703125 0 -2.75 -1.109375q-1.03125 -1.125 -1.03125 -3.203125q0 -1.34375 0.4375 -2.34375q0.453125 -1.015625 1.359375 -1.515625q0.921875 -0.5 1.984375 -0.5q1.359375 0 2.21875 0.6875q0.859375 0.671875 1.09375 1.9375l-1.359375 0.203125q-0.203125 -0.828125 -0.703125 -1.25q-0.484375 -0.421875 -1.1875 -0.421875q-1.0625 0 -1.734375 0.765625q-0.65625 0.75 -0.65625 2.40625q0 1.671875 0.640625 2.4375q0.640625 0.75 1.671875 0.75q0.828125 0 1.375 -0.5q0.5625 -0.515625 0.703125 -1.578125zm2.0625 -1.109375q0 -2.296875 1.28125 -3.40625q1.078125 -0.921875 2.609375 -0.921875q1.71875 0 2.796875 1.125q1.09375 1.109375 1.09375 3.09375q0 1.59375 -0.484375 2.515625q-0.484375 0.921875 -1.40625 1.4375q-0.90625 0.5 -2.0 0.5q-1.734375 0 -2.8125 -1.109375q-1.078125 -1.125 -1.078125 -3.234375zm1.453125 0q0 1.59375 0.6875 2.390625q0.703125 0.796875 1.75 0.796875q1.046875 0 1.734375 -0.796875q0.703125 -0.796875 0.703125 -2.4375q0 -1.53125 -0.703125 -2.328125q-0.6875 -0.796875 -1.734375 -0.796875q-1.046875 0 -1.75 0.796875q-0.6875 0.78125 -0.6875 2.375zm7.9609375 4.15625l0 -8.296875l1.265625 0l0 1.25q0.484375 -0.875 0.890625 -1.15625q0.40625 -0.28125 0.90625 -0.28125q0.703125 0 1.4375 0.453125l-0.484375 1.296875q-0.515625 -0.296875 -1.03125 -0.296875q-0.453125 0 -0.828125 0.28125q-0.359375 0.265625 -0.515625 0.765625q-0.234375 0.75 -0.234375 1.640625l0 4.34375l-1.40625 0zm10.71875 0l0 -1.046875q-0.78125 1.234375 -2.3125 1.234375q-1.0 0 -1.828125 -0.546875q-0.828125 -0.546875 -1.296875 -1.53125q-0.453125 -0.984375 -0.453125 -2.25q0 -1.25 0.40625 -2.25q0.421875 -1.015625 1.25 -1.546875q0.828125 -0.546875 1.859375 -0.546875q0.75 0 1.328125 0.3125q0.59375 0.3125 0.953125 0.828125l0 -4.109375l1.40625 0l0 11.453125l-1.3125 0zm-4.4375 -4.140625q0 1.59375 0.671875 2.390625q0.671875 0.78125 1.578125 0.78125q0.921875 0 1.5625 -0.75q0.65625 -0.765625 0.65625 -2.3125q0 -1.703125 -0.65625 -2.5q-0.65625 -0.796875 -1.625 -0.796875q-0.9375 0 -1.5625 0.765625q-0.625 0.765625 -0.625 2.421875zm13.6328125 1.46875l1.453125 0.171875q-0.34375 1.28125 -1.28125 1.984375q-0.921875 0.703125 -2.359375 0.703125q-1.828125 0 -2.890625 -1.125q-1.0625 -1.125 -1.0625 -3.140625q0 -2.09375 1.078125 -3.25q1.078125 -1.15625 2.796875 -1.15625q1.65625 0 2.703125 1.140625q1.0625 1.125 1.0625 3.171875q0 0.125 0 0.375l-6.1875 0q0.078125 1.375 0.765625 2.109375q0.703125 0.71875 1.734375 0.71875q0.78125 0 1.328125 -0.40625q0.546875 -0.40625 0.859375 -1.296875zm-4.609375 -2.28125l4.625 0q-0.09375 -1.046875 -0.53125 -1.5625q-0.671875 -0.8125 -1.734375 -0.8125q-0.96875 0 -1.640625 0.65625q-0.65625 0.640625 -0.71875 1.71875zm7.8203125 4.953125l0 -8.296875l1.265625 0l0 1.25q0.484375 -0.875 0.890625 -1.15625q0.40625 -0.28125 0.90625 -0.28125q0.703125 0 1.4375 0.453125l-0.484375 1.296875q-0.515625 -0.296875 -1.03125 -0.296875q-0.453125 0 -0.828125 0.28125q-0.359375 0.265625 -0.515625 0.765625q-0.234375 0.75 -0.234375 1.640625l0 4.34375l-1.40625 0z" fill-rule="nonzero"/><path fill="#cfe2f3" d="m732.063 242.19685l132.12598 0l0 80.913376l-132.12598 0z" fill-rule="evenodd"/><path stroke="#000000" stroke-width="1.0" stroke-linejoin="round" stroke-linecap="butt" d="m732.063 242.19685l132.12598 0l0 80.913376l-132.12598 0z" fill-rule="evenodd"/><path fill="#000000" d="m746.599 287.73355l-2.796875 -10.484375l1.4375 0l1.59375 6.875q0.25 1.078125 0.4375 2.140625q0.40625 -1.6875 0.46875 -1.9375l2.0 -7.078125l1.671875 0l1.5 5.296875q0.578125 1.984375 0.828125 3.71875q0.203125 -1.0 0.515625 -2.28125l1.640625 -6.734375l1.40625 0l-2.875 10.484375l-1.34375 0l-2.203125 -8.0q-0.28125 -1.0 -0.34375 -1.21875q-0.15625 0.71875 -0.296875 1.21875l-2.234375 8.0l-1.40625 0zm16.771423 -2.453125l1.328125 0.171875q-0.3125 1.171875 -1.171875 1.8125q-0.84375 0.640625 -2.171875 0.640625q-1.671875 0 -2.65625 -1.015625q-0.96875 -1.03125 -0.96875 -2.890625q0 -1.921875 0.984375 -2.96875q1.0 -1.0625 2.578125 -1.0625q1.515625 0 2.484375 1.03125q0.96875 1.03125 0.96875 2.921875q0 0.109375 -0.015625 0.34375l-5.65625 0q0.0625 1.25 0.703125 1.921875q0.640625 0.65625 1.59375 0.65625q0.703125 0 1.203125 -0.359375q0.5 -0.375 0.796875 -1.203125zm-4.234375 -2.078125l4.25 0q-0.09375 -0.953125 -0.484375 -1.4375q-0.625 -0.75 -1.609375 -0.75q-0.875 0 -1.484375 0.59375q-0.609375 0.59375 -0.671875 1.59375zm8.369873 4.53125l-1.203125 0l0 -10.484375l1.296875 0l0 3.734375q0.8125 -1.015625 2.078125 -1.015625q0.703125 0 1.328125 0.28125q0.625 0.28125 1.03125 0.796875q0.40625 0.5 0.625 1.234375q0.234375 0.71875 0.234375 1.53125q0 1.96875 -0.96875 3.03125q-0.953125 1.0625 -2.3125 1.0625q-1.34375 0 -2.109375 -1.125l0 0.953125zm-0.015625 -3.859375q0 1.375 0.375 1.984375q0.609375 0.984375 1.640625 0.984375q0.84375 0 1.453125 -0.734375q0.625 -0.734375 0.625 -2.1875q0 -1.484375 -0.59375 -2.1875q-0.59375 -0.71875 -1.421875 -0.71875q-0.84375 0 -1.46875 0.734375q-0.609375 0.734375 -0.609375 2.125zm7.104248 3.859375l0 -10.484375l2.078125 0l2.484375 7.421875q0.34375 1.03125 0.5 1.546875q0.1875 -0.5625 0.5625 -1.671875l2.515625 -7.296875l1.859375 0l0 10.484375l-1.328125 0l0 -8.78125l-3.046875 8.78125l-1.265625 0l-3.03125 -8.9375l0 8.9375l-1.328125 0z" fill-rule="nonzero"/><path fill="#000000" d="m800.7346 282.28043l0 0.765625l1.125 -0.0625l-0.46875 -0.40625l0.640625 -0.296875l-1.296875 0zm-2.515625 3.578125q0.765625 0.640625 1.296875 1.40625l-0.890625 0.875q-0.515625 -0.875 -1.21875 -1.515625l0.8125 -0.765625zm2.515625 -8.09375l0 0.765625l2.53125 0l0 3.75l-0.9375 0q0.8125 0.640625 1.640625 1.53125l-0.890625 0.640625l-0.46875 -0.59375l-0.75 0.0625l0 0.9375l2.28125 0l0 0.9375l-2.28125 0l0 2.296875q0 0.9375 -0.828125 0.9375l-0.9375 0l-0.296875 -1.125l0.828125 0q0.234375 0 0.234375 -0.234375l0 -1.875l-4.046875 0l0 -0.9375l4.046875 0l0 -0.9375l-3.453125 0.171875q-0.234375 0.53125 -0.421875 0.0625l-0.234375 -1.046875l3.0 -0.0625l0 -0.765625l-1.234375 0l-1.234375 0l0 -3.75l2.46875 0l0 -0.765625l-2.8125 0l0 -0.9375l2.8125 0l0 -1.28125l0.9375 0q0.46875 0.0625 0.046875 0.34375l0 0.9375l3.171875 0l0 0.9375l-3.171875 0zm1.53125 3.8125l0 -0.8125l-1.53125 0l0 0.8125l1.53125 0zm-2.515625 -1.515625l0 -0.828125l-1.46875 0l0 0.828125l1.46875 0zm2.515625 0l0 -0.828125l-1.53125 0l0 0.828125l1.53125 0zm-2.515625 0.703125l-1.46875 0l0 0.8125l1.46875 0l0 -0.8125zm-5.625 2.515625l0.9375 0l0 -1.171875l-0.9375 0l0 1.171875zm-1.9375 0l0.9375 0l0 -1.171875l-0.9375 0l0 1.171875zm0 -2.109375l0.9375 0l0 -1.0625l-0.9375 0l0 1.0625zm1.9375 0l0.9375 0l0 -1.0625l-0.9375 0l0 1.0625zm1.921875 -2.0l0 5.046875l-1.921875 0l0 1.046875l2.390625 0l0 1.125l-2.390625 0l0 2.640625l-1.0 0l0 -2.640625l-2.578125 0l0 -1.125l2.578125 0l0 -1.046875l-1.0 0l-0.9375 0l0 -5.046875l1.9375 0l0 -0.984375l-2.234375 0l0 -1.125l2.234375 0l0 -1.40625l0.9375 0q0.46875 0.0625 0.0625 0.359375l0 1.046875l2.34375 0l0 1.125l-2.34375 0l0 0.984375l1.921875 0zm18.703125 4.8125q0.984375 -1.53125 1.75 -3.75l1.109375 0.640625q0.421875 0.234375 -0.109375 0.359375q-0.875 2.15625 -2.109375 4.03125q1.28125 1.828125 1.9375 1.828125q0.515625 0 0.703125 -1.40625l1.109375 0.578125q-0.46875 2.34375 -1.296875 2.34375q-1.640625 0 -3.28125 -2.515625q-1.640625 1.8125 -3.796875 2.875l-0.703125 -1.109375q2.75 -1.359375 3.859375 -2.875q-0.8125 -2.0 -0.8125 -5.28125l0 -0.53125l-4.984375 0l0 2.0625l3.75 0l-0.125 3.984375q-0.046875 1.109375 -0.875 1.109375l-1.515625 0l-0.1875 -1.109375l1.0 0q0.46875 0 0.46875 -0.46875l0.125 -2.40625l-2.640625 0l0 1.703125q0 2.921875 -1.46875 4.796875l-1.0 -0.8125q1.296875 -1.59375 1.296875 -3.8125l0 -6.15625l6.15625 0l0 -2.515625l1.109375 0q0.46875 0.0625 0.0625 0.34375l0 2.171875l4.453125 0l0 1.109375l-4.453125 0l0 0.53125q0 2.75 0.46875 4.28125zm0.9375 -8.265625q0.9375 0.46875 1.640625 1.171875l-0.890625 0.875q-0.578125 -0.640625 -1.578125 -1.21875l0.828125 -0.828125z" fill-rule="nonzero"/><path fill="#000000" d="m826.82227 287.73355l-2.796875 -10.484375l1.4375 0l1.59375 6.875q0.25 1.078125 0.4375 2.140625q0.40625 -1.6875 0.46875 -1.9375l2.0 -7.078125l1.671875 0l1.5 5.296875q0.578125 1.984375 0.828125 3.71875q0.203125 -1.0 0.515625 -2.28125l1.640625 -6.734375l1.40625 0l-2.875 10.484375l-1.34375 0l-2.203125 -8.0q-0.28125 -1.0 -0.34375 -1.21875q-0.15625 0.71875 -0.296875 1.21875l-2.234375 8.0l-1.40625 0zm16.242126 -0.9375q-0.71875 0.609375 -1.375 0.859375q-0.65625 0.25 -1.421875 0.25q-1.25 0 -1.921875 -0.609375q-0.671875 -0.609375 -0.671875 -1.5625q0 -0.5625 0.25 -1.015625q0.25 -0.46875 0.65625 -0.75q0.421875 -0.28125 0.9375 -0.421875q0.375 -0.09375 1.140625 -0.1875q1.5625 -0.1875 2.296875 -0.453125q0.015625 -0.265625 0.015625 -0.328125q0 -0.796875 -0.375 -1.109375q-0.484375 -0.4375 -1.453125 -0.4375q-0.921875 0 -1.359375 0.328125q-0.421875 0.3125 -0.625 1.109375l-1.265625 -0.171875q0.171875 -0.796875 0.5625 -1.296875q0.390625 -0.5 1.140625 -0.765625q0.75 -0.265625 1.71875 -0.265625q0.984375 0 1.59375 0.234375q0.609375 0.21875 0.890625 0.5625q0.28125 0.34375 0.40625 0.875q0.0625 0.328125 0.0625 1.1875l0 1.71875q0 1.796875 0.078125 2.28125q0.078125 0.46875 0.328125 0.90625l-1.34375 0q-0.203125 -0.40625 -0.265625 -0.9375zm-0.109375 -2.875q-0.703125 0.28125 -2.09375 0.484375q-0.796875 0.109375 -1.125 0.265625q-0.328125 0.140625 -0.515625 0.421875q-0.171875 0.265625 -0.171875 0.59375q0 0.515625 0.390625 0.859375q0.390625 0.34375 1.140625 0.34375q0.734375 0 1.3125 -0.3125q0.59375 -0.328125 0.859375 -0.890625q0.203125 -0.4375 0.203125 -1.296875l0 -0.46875zm5.416687 3.8125l-2.890625 -7.59375l1.359375 0l1.625 4.546875q0.265625 0.734375 0.5 1.53125q0.15625 -0.609375 0.46875 -1.453125l1.6875 -4.625l1.328125 0l-2.875 7.59375l-1.203125 0z" fill-rule="nonzero"/><path fill="#000000" fill-opacity="0.0" d="m232.16798 97.16798l70.74016 0" fill-rule="evenodd"/><path stroke="#000000" stroke-width="1.0" stroke-linejoin="round" stroke-linecap="butt" d="m232.16798 97.16798l64.74016 0" fill-rule="evenodd"/><path fill="#000000" stroke="#000000" stroke-width="1.0" stroke-linecap="butt" d="m296.90814 98.81971l4.538086 -1.6517334l-4.538086 -1.6517334z" fill-rule="evenodd"/><path fill="#000000" fill-opacity="0.0" d="m432.85025 247.03964l89.22836 0l0 38.771667l-89.22836 0z" fill-rule="evenodd"/><path fill="#000000" d="m448.319 268.35278l1.390625 0.1875q-0.234375 1.421875 -1.171875 2.234375q-0.921875 0.8125 -2.28125 0.8125q-1.703125 0 -2.75 -1.109375q-1.03125 -1.125 -1.03125 -3.203125q0 -1.34375 0.4375 -2.34375q0.453125 -1.015625 1.359375 -1.515625q0.921875 -0.5 1.984375 -0.5q1.359375 0 2.21875 0.6875q0.859375 0.671875 1.09375 1.9375l-1.359375 0.203125q-0.203125 -0.828125 -0.703125 -1.25q-0.484375 -0.421875 -1.1875 -0.421875q-1.0625 0 -1.734375 0.765625q-0.65625 0.75 -0.65625 2.40625q0 1.671875 0.640625 2.4375q0.640625 0.75 1.671875 0.75q0.828125 0 1.375 -0.5q0.5625 -0.515625 0.703125 -1.578125zm2.0625 -1.109375q0 -2.296875 1.28125 -3.40625q1.078125 -0.921875 2.609375 -0.921875q1.71875 0 2.796875 1.125q1.09375 1.109375 1.09375 3.09375q0 1.59375 -0.484375 2.515625q-0.484375 0.921875 -1.40625 1.4375q-0.90625 0.5 -2.0 0.5q-1.734375 0 -2.8125 -1.109375q-1.078125 -1.125 -1.078125 -3.234375zm1.453125 0q0 1.59375 0.6875 2.390625q0.703125 0.796875 1.75 0.796875q1.046875 0 1.734375 -0.796875q0.703125 -0.796875 0.703125 -2.4375q0 -1.53125 -0.703125 -2.328125q-0.6875 -0.796875 -1.734375 -0.796875q-1.046875 0 -1.75 0.796875q-0.6875 0.78125 -0.6875 2.375zm7.9765625 4.15625l0 -8.296875l1.265625 0l0 1.171875q0.90625 -1.359375 2.640625 -1.359375q0.75 0 1.375 0.265625q0.625 0.265625 0.9375 0.703125q0.3125 0.4375 0.4375 1.046875q0.078125 0.390625 0.078125 1.359375l0 5.109375l-1.40625 0l0 -5.046875q0 -0.859375 -0.171875 -1.28125q-0.15625 -0.4375 -0.578125 -0.6875q-0.40625 -0.25 -0.96875 -0.25q-0.90625 0 -1.5625 0.578125q-0.640625 0.5625 -0.640625 2.15625l0 4.53125l-1.40625 0zm8.8984375 0l0 -8.296875l1.265625 0l0 1.171875q0.90625 -1.359375 2.640625 -1.359375q0.75 0 1.375 0.265625q0.625 0.265625 0.9375 0.703125q0.3125 0.4375 0.4375 1.046875q0.078125 0.390625 0.078125 1.359375l0 5.109375l-1.40625 0l0 -5.046875q0 -0.859375 -0.171875 -1.28125q-0.15625 -0.4375 -0.578125 -0.6875q-0.40625 -0.25 -0.96875 -0.25q-0.90625 0 -1.5625 0.578125q-0.640625 0.5625 -0.640625 2.15625l0 4.53125l-1.40625 0zm14.5703125 -2.671875l1.453125 0.171875q-0.34375 1.28125 -1.28125 1.984375q-0.921875 0.703125 -2.359375 0.703125q-1.828125 0 -2.890625 -1.125q-1.0625 -1.125 -1.0625 -3.140625q0 -2.09375 1.078125 -3.25q1.078125 -1.15625 2.796875 -1.15625q1.65625 0 2.703125 1.140625q1.0625 1.125 1.0625 3.171875q0 0.125 0 0.375l-6.1875 0q0.078125 1.375 0.765625 2.109375q0.703125 0.71875 1.734375 0.71875q0.78125 0 1.328125 -0.40625q0.546875 -0.40625 0.859375 -1.296875zm-4.609375 -2.28125l4.625 0q-0.09375 -1.046875 -0.53125 -1.5625q-0.671875 -0.8125 -1.734375 -0.8125q-0.96875 0 -1.640625 0.65625q-0.65625 0.640625 -0.71875 1.71875zm13.2421875 1.90625l1.390625 0.1875q-0.234375 1.421875 -1.171875 2.234375q-0.921875 0.8125 -2.28125 0.8125q-1.703125 0 -2.75 -1.109375q-1.03125 -1.125 -1.03125 -3.203125q0 -1.34375 0.4375 -2.34375q0.453125 -1.015625 1.359375 -1.515625q0.921875 -0.5 1.984375 -0.5q1.359375 0 2.21875 0.6875q0.859375 0.671875 1.09375 1.9375l-1.359375 0.203125q-0.203125 -0.828125 -0.703125 -1.25q-0.484375 -0.421875 -1.1875 -0.421875q-1.0625 0 -1.734375 0.765625q-0.65625 0.75 -0.65625 2.40625q0 1.671875 0.640625 2.4375q0.640625 0.75 1.671875 0.75q0.828125 0 1.375 -0.5q0.5625 -0.515625 0.703125 -1.578125zm5.65625 1.78125l0.203125 1.25q-0.59375 0.125 -1.0625 0.125q-0.765625 0 -1.1875 -0.234375q-0.421875 -0.25 -0.59375 -0.640625q-0.171875 -0.40625 -0.171875 -1.671875l0 -4.765625l-1.03125 0l0 -1.09375l1.03125 0l0 -2.0625l1.40625 -0.84375l0 2.90625l1.40625 0l0 1.09375l-1.40625 0l0 4.84375q0 0.609375 0.0625 0.78125q0.078125 0.171875 0.25 0.28125q0.171875 0.09375 0.484375 0.09375q0.234375 0 0.609375 -0.0625zm4.0703125 4.640625q-1.171875 -1.46875 -1.984375 -3.4375q-0.796875 -1.984375 -0.796875 -4.09375q0 -1.859375 0.609375 -3.5625q0.703125 -1.96875 2.171875 -3.9375l1.0 0q-0.9375 1.625 -1.25 2.328125q-0.46875 1.078125 -0.75 2.25q-0.328125 1.453125 -0.328125 2.9375q0 3.75 2.328125 7.515625l-1.0 0zm3.5625 0l-1.015625 0q2.34375 -3.765625 2.34375 -7.515625q0 -1.46875 -0.34375 -2.921875q-0.265625 -1.171875 -0.734375 -2.25q-0.3125 -0.703125 -1.265625 -2.34375l1.015625 0q1.46875 1.96875 2.171875 3.9375q0.59375 1.703125 0.59375 3.5625q0 2.109375 -0.8125 4.09375q-0.796875 1.96875 -1.953125 3.4375z" fill-rule="nonzero"/><path fill="#000000" fill-opacity="0.0" d="m435.02844 282.6534l80.66144 0" fill-rule="evenodd"/><path stroke="#000000" stroke-width="1.0" stroke-linejoin="round" stroke-linecap="butt" d="m435.02847 282.6534l74.66141 0" fill-rule="evenodd"/><path fill="#000000" stroke="#000000" stroke-width="1.0" stroke-linecap="butt" d="m509.68988 284.30515l4.538086 -1.6517334l-4.538086 -1.6517334z" fill-rule="evenodd"/><path fill="#000000" fill-opacity="0.0" d="m649.60895 282.6534l85.480286 0" fill-rule="evenodd"/><path stroke="#000000" stroke-width="1.0" stroke-linejoin="round" stroke-linecap="butt" d="m649.60895 282.6534l79.480286 0" fill-rule="evenodd"/><path fill="#000000" stroke="#000000" stroke-width="1.0" stroke-linecap="butt" d="m729.08923 284.30515l4.538086 -1.6517334l-4.538086 -1.6517334z" fill-rule="evenodd"/><path fill="#000000" fill-opacity="0.0" d="m368.96588 137.62466l0 75.811035" fill-rule="evenodd"/><path stroke="#000000" stroke-width="1.0" stroke-linejoin="round" stroke-linecap="butt" d="m368.96588 137.62466l0 69.811035" fill-rule="evenodd"/><path fill="#000000" stroke="#000000" stroke-width="1.0" stroke-linecap="butt" d="m367.31415 207.4357l1.6517334 4.538101l1.6517334 -4.538101z" fill-rule="evenodd"/></g></svg>