<svg version="1.1" viewBox="0.0 0.0 891.010498687664 253.8713910761155" fill="none" stroke="none" stroke-linecap="square" stroke-miterlimit="10" xmlns:xlink="http://www.w3.org/1999/xlink" xmlns="http://www.w3.org/2000/svg"><clipPath id="p.0"><path d="m0 0l891.0105 0l0 253.87138l-891.0105 0l0 -253.87138z" clip-rule="nonzero"/></clipPath><g clip-path="url(#p.0)"><path fill="#000000" fill-opacity="0.0" d="m0 0l891.0105 0l0 253.87138l-891.0105 0z" fill-rule="evenodd"/><path fill="#ffffff" d="m0 0l891.0236 0l0 253.85826l-891.0236 0z" fill-rule="evenodd"/><path stroke="#ffffff" stroke-width="1.0" stroke-linejoin="round" stroke-linecap="butt" d="m0 0l891.0236 0l0 253.85826l-891.0236 0z" fill-rule="evenodd"/><path fill="#cfe2f3" d="m286.77167 134.61679l0 0c0 -11.471863 9.645264 -20.771645 21.543304 -20.771645l0 0c5.713623 0 11.193268 2.1884308 15.233398 6.0838776c4.040161 3.8954391 6.309906 9.178795 6.309906 14.687767l0 0c0 11.471878 -9.645264 20.771667 -21.543304 20.771667l0 0c-11.898041 0 -21.543304 -9.299789 -21.543304 -20.771667z" fill-rule="evenodd"/><path stroke="#000000" stroke-width="1.0" stroke-linejoin="round" stroke-linecap="butt" d="m286.77167 134.61679l0 0c0 -11.471863 9.645264 -20.771645 21.543304 -20.771645l0 0c5.713623 0 11.193268 2.1884308 15.233398 6.0838776c4.040161 3.8954391 6.309906 9.178795 6.309906 14.687767l0 0c0 11.471878 -9.645264 20.771667 -21.543304 20.771667l0 0c-11.898041 0 -21.543304 -9.299789 -21.543304 -20.771667z" fill-rule="evenodd"/><path fill="#cfe2f3" d="m777.54333 134.61679l0 0c0 -11.471863 9.645264 -20.771645 21.543274 -20.771645l0 0c5.713623 0 11.193298 2.1884308 15.233398 6.0838776c4.040161 3.8954391 6.3099365 9.178795 6.3099365 14.687767l0 0c0 11.471878 -9.645264 20.771667 -21.543335 20.771667l0 0c-11.89801 0 -21.543274 -9.299789 -21.543274 -20.771667z" fill-rule="evenodd"/><path stroke="#000000" stroke-width="1.0" stroke-linejoin="round" stroke-linecap="butt" d="m777.54333 134.61679l0 0c0 -11.471863 9.645264 -20.771645 21.543274 -20.771645l0 0c5.713623 0 11.193298 2.1884308 15.233398 6.0838776c4.040161 3.8954391 6.3099365 9.178795 6.3099365 14.687767l0 0c0 11.471878 -9.645264 20.771667 -21.543335 20.771667l0 0c-11.89801 0 -21.543274 -9.299789 -21.543274 -20.771667z" fill-rule="evenodd"/><path fill="#cfe2f3" d="m329.85828 130.00262l440.0 0l0 -3.8425217l7.6850586 7.6850357l-7.6850586 7.6850433l0 -3.842514l-440.0 0z" fill-rule="evenodd"/><path stroke="#000000" stroke-width="1.0" stroke-linejoin="round" stroke-linecap="butt" d="m329.85828 130.00262l440.0 0l0 -3.8425217l7.6850586 7.6850357l-7.6850586 7.6850433l0 -3.842514l-440.0 0z" fill-rule="evenodd"/><path fill="#cfe2f3" d="m26.17323 130.77428l252.91338 0l0 -3.8425217l7.6850586 7.6850357l-7.6850586 7.6850433l0 -3.842514l-252.91338 0z" fill-rule="evenodd"/><path stroke="#000000" stroke-width="1.0" stroke-linejoin="round" stroke-linecap="butt" d="m26.17323 130.77428l252.91338 0l0 -3.8425217l7.6850586 7.6850357l-7.6850586 7.6850433l0 -3.842514l-252.91338 0z" fill-rule="evenodd"/><path fill="#000000" fill-opacity="0.0" d="m239.38583 193.36745l133.41733 0l0 42.015762l-133.41733 0z" fill-rule="evenodd"/><path fill="#000000" d="m258.77646 215.91245q-3.9375 -2.015625 -6.453125 -2.671875l0 7.71875l-1.703125 0l0 -14.84375l1.484375 0q0.890625 0.0625 0.21875 0.59375l0 4.671875q3.640625 1.03125 7.34375 2.8125l-0.890625 1.71875zm-0.140625 -6.53125q-1.265625 -1.5625 -2.53125 -2.53125l0.96875 -0.734375q1.265625 0.953125 2.515625 2.515625l-0.953125 0.75zm1.78125 -1.421875q-0.96875 -1.25 -2.453125 -2.4375l0.96875 -0.75q1.25 0.890625 2.4375 2.453125l-0.953125 0.734375zm10.464844 4.75q0.140625 5.640625 -4.828125 8.765625l-1.265625 -1.40625q4.375 -2.375 4.375 -6.6875l0 -3.1875l1.5625 0q0.671875 0.078125 0.15625 0.515625l0 1.9375q2.671875 -2.015625 4.078125 -3.9375l-12.09375 0.4375l-0.15625 -1.703125l13.515625 -0.375l0.515625 -0.140625l1.109375 1.328125q0.21875 0.296875 -0.375 0.234375q-2.21875 2.890625 -5.34375 5.40625l-1.25 -1.1875zm21.664062 -4.296875q3.046875 3.109375 4.15625 7.5l-1.625 0.65625q-1.34375 -4.8125 -3.859375 -7.1875l1.328125 -0.96875zm-2.21875 5.9375q0 4.296875 -1.265625 5.5625q-0.75 0.75 -1.703125 0.75q-1.421875 0 -2.828125 -1.640625l0.96875 -1.328125q1.1875 1.1875 1.78125 1.1875q0.375 0 0.671875 -0.296875q0.8125 -0.828125 0.8125 -4.53125q0 -2.078125 -0.453125 -2.53125q-0.21875 -0.21875 -0.890625 -0.21875q-0.65625 0 -1.84375 0.15625q-1.5625 5.484375 -3.71875 9.421875l-1.703125 -0.59375q2.15625 -3.34375 3.78125 -8.6875q-1.625 0.21875 -3.1875 0.375l-0.15625 -1.640625q1.34375 0 3.71875 -0.21875q0.671875 -2.296875 1.109375 -4.671875l1.5625 0.515625q0.890625 0.375 -0.078125 0.671875q-0.4375 1.5625 -0.890625 3.34375q0.890625 -0.15625 1.859375 -0.15625q1.03125 0 1.5625 0.515625q0.890625 0.890625 0.890625 4.015625zm4.15625 -9.796875q1.328125 0.734375 2.96875 2.078125l-0.890625 0.890625q-1.640625 -1.265625 -2.96875 -2.078125l0.890625 -0.890625zm0.515625 4.75q-1.703125 -1.40625 -2.890625 -2.15625l0.890625 -0.890625q1.328125 0.75 2.96875 2.078125l-0.96875 0.96875zm13.359375 -3.9375l6.96875 0l0 15.140625q0 1.1875 -1.1875 1.1875l-1.78125 0l-0.21875 -1.40625l1.40625 0q0.296875 0 0.296875 -0.296875l0 -8.46875l-2.734375 0l-2.75 0l0 -6.15625zm-6.15625 11.5l0 -1.1875l2.96875 0l0 -1.78125l-2.453125 0l0 -1.1875l9.34375 0l0 1.1875l-1.921875 0l0 1.78125l2.515625 0l0 1.1875l-2.515625 0l0 4.46875l-1.484375 0l0 -4.46875l-2.0 0q0.140625 3.265625 -3.34375 4.828125l-0.75 -1.40625q2.609375 -0.96875 2.609375 -3.421875l-2.96875 0zm2.671875 -10.3125l-3.71875 0l0 1.34375l3.71875 0l0 -1.34375zm1.484375 4.96875l-5.203125 0l0 10.40625l-1.484375 0l0 -16.5625l6.6875 0l0 6.15625zm2.296875 4.15625l0 -1.78125l-2.0 0l0 1.78125l2.0 0zm5.1875 -7.78125l0 -1.34375l-4.0 0l0 1.34375l4.0 0zm-4.0 2.4375l4.0 0l0 -1.25l-4.0 0l0 1.25zm-8.6875 0l3.71875 0l0 -1.25l-3.71875 0l0 1.25zm24.046875 6.234375q-0.671875 1.71875 -1.40625 2.609375q-1.046875 1.265625 -2.078125 1.265625q-1.859375 0 -2.75 -2.15625q-0.515625 -1.265625 -0.515625 -5.421875q0 -2.96875 0.296875 -6.015625l1.5625 0.375q0.890625 0.21875 0.0625 0.734375q-0.296875 2.75 -0.296875 4.984375q0 3.03125 0.375 4.296875q0.375 1.265625 1.109375 1.265625q0.828125 0 1.421875 -1.1875q0.359375 -0.75 0.734375 -1.78125l1.484375 1.03125zm4.375 -8.671875q3.34375 3.484375 4.09375 8.453125l-2.015625 0.515625q-0.890625 -5.1875 -3.625 -8.078125l1.546875 -0.890625zm21.523438 11.421875l0 1.640625l-3.265625 0q-2.8125 0 -5.34375 -1.34375l0.671875 -1.328125q1.9375 1.03125 4.671875 1.03125l3.265625 0zm-10.234375 -8.6875q-1.109375 6.609375 -2.75 10.46875l-1.625 -0.515625q2.0 -4.671875 2.8125 -9.796875q-1.78125 0.140625 -3.1875 0.140625l-0.296875 -1.484375q2.078125 0 3.703125 -0.140625q0.296875 -2.296875 0.53125 -4.015625l1.484375 0.296875q0.8125 0.234375 0.140625 0.59375q-0.21875 0.890625 -0.59375 2.96875q1.703125 -0.21875 3.125 -0.59375l0.296875 1.484375q-1.9375 0.375 -3.640625 0.59375zm9.875 2.53125q-4.3125 0.140625 -6.765625 1.1875l-0.4375 -1.484375q3.1875 -1.265625 6.90625 -1.265625l0.296875 1.5625z" fill-rule="nonzero"/><path fill="#000000" fill-opacity="0.0" d="m706.1102 193.36745l170.36218 0l0 42.015762l-170.36218 0z" fill-rule="evenodd"/><path fill="#000000" d="m725.50085 215.91245q-3.9375 -2.015625 -6.453125 -2.671875l0 7.71875l-1.703125 0l0 -14.84375l1.484375 0q0.890625 0.0625 0.21875 0.59375l0 4.671875q3.640625 1.03125 7.34375 2.8125l-0.890625 1.71875zm-0.140625 -6.53125q-1.265625 -1.5625 -2.53125 -2.53125l0.96875 -0.734375q1.265625 0.953125 2.515625 2.515625l-0.953125 0.75zm1.78125 -1.421875q-0.96875 -1.25 -2.453125 -2.4375l0.96875 -0.75q1.25 0.890625 2.4375 2.453125l-0.953125 0.734375zm10.464844 4.75q0.140625 5.640625 -4.828125 8.765625l-1.265625 -1.40625q4.375 -2.375 4.375 -6.6875l0 -3.1875l1.5625 0q0.671875 0.078125 0.15625 0.515625l0 1.9375q2.671875 -2.015625 4.078125 -3.9375l-12.09375 0.4375l-0.15625 -1.703125l13.515625 -0.375l0.515625 -0.140625l1.109375 1.328125q0.21875 0.296875 -0.375 0.234375q-2.21875 2.890625 -5.34375 5.40625l-1.25 -1.1875zm21.664062 -4.296875q3.046875 3.109375 4.15625 7.5l-1.625 0.65625q-1.34375 -4.8125 -3.859375 -7.1875l1.328125 -0.96875zm-2.21875 5.9375q0 4.296875 -1.265625 5.5625q-0.75 0.75 -1.703125 0.75q-1.421875 0 -2.828125 -1.640625l0.96875 -1.328125q1.1875 1.1875 1.78125 1.1875q0.375 0 0.671875 -0.296875q0.8125 -0.828125 0.8125 -4.53125q0 -2.078125 -0.453125 -2.53125q-0.21875 -0.21875 -0.890625 -0.21875q-0.65625 0 -1.84375 0.15625q-1.5625 5.484375 -3.71875 9.421875l-1.703125 -0.59375q2.15625 -3.34375 3.78125 -8.6875q-1.625 0.21875 -3.1875 0.375l-0.15625 -1.640625q1.34375 0 3.71875 -0.21875q0.671875 -2.296875 1.109375 -4.671875l1.5625 0.515625q0.890625 0.375 -0.078125 0.671875q-0.4375 1.5625 -0.890625 3.34375q0.890625 -0.15625 1.859375 -0.15625q1.03125 0 1.5625 0.515625q0.890625 0.890625 0.890625 4.015625zm4.15625 -9.796875q1.328125 0.734375 2.96875 2.078125l-0.890625 0.890625q-1.640625 -1.265625 -2.96875 -2.078125l0.890625 -0.890625zm0.515625 4.75q-1.703125 -1.40625 -2.890625 -2.15625l0.890625 -0.890625q1.328125 0.75 2.96875 2.078125l-0.96875 0.96875zm13.359375 -3.9375l6.96875 0l0 15.140625q0 1.1875 -1.1875 1.1875l-1.78125 0l-0.21875 -1.40625l1.40625 0q0.296875 0 0.296875 -0.296875l0 -8.46875l-2.734375 0l-2.75 0l0 -6.15625zm-6.15625 11.5l0 -1.1875l2.96875 0l0 -1.78125l-2.453125 0l0 -1.1875l9.34375 0l0 1.1875l-1.921875 0l0 1.78125l2.515625 0l0 1.1875l-2.515625 0l0 4.46875l-1.484375 0l0 -4.46875l-2.0 0q0.140625 3.265625 -3.34375 4.828125l-0.75 -1.40625q2.609375 -0.96875 2.609375 -3.421875l-2.96875 0zm2.671875 -10.3125l-3.71875 0l0 1.34375l3.71875 0l0 -1.34375zm1.484375 4.96875l-5.203125 0l0 10.40625l-1.484375 0l0 -16.5625l6.6875 0l0 6.15625zm2.296875 4.15625l0 -1.78125l-2.0 0l0 1.78125l2.0 0zm5.1875 -7.78125l0 -1.34375l-4.0 0l0 1.34375l4.0 0zm-4.0 2.4375l4.0 0l0 -1.25l-4.0 0l0 1.25zm-8.6875 0l3.71875 0l0 -1.25l-3.71875 0l0 1.25zm24.046875 6.234375q-0.671875 1.71875 -1.40625 2.609375q-1.046875 1.265625 -2.078125 1.265625q-1.859375 0 -2.75 -2.15625q-0.515625 -1.265625 -0.515625 -5.421875q0 -2.96875 0.296875 -6.015625l1.5625 0.375q0.890625 0.21875 0.0625 0.734375q-0.296875 2.75 -0.296875 4.984375q0 3.03125 0.375 4.296875q0.375 1.265625 1.109375 1.265625q0.828125 0 1.421875 -1.1875q0.359375 -0.75 0.734375 -1.78125l1.484375 1.03125zm4.375 -8.671875q3.34375 3.484375 4.09375 8.453125l-2.015625 0.515625q-0.890625 -5.1875 -3.625 -8.078125l1.546875 -0.890625zm21.304688 0.734375q-2.59375 0 -4.078125 0.515625q-1.640625 0.59375 -3.046875 2.015625q-1.40625 1.40625 -1.40625 3.625q0 1.78125 1.109375 2.90625q1.484375 1.484375 5.71875 1.625l-0.59375 1.640625q-4.375 -0.21875 -6.09375 -1.9375q-1.703125 -1.703125 -1.703125 -4.15625q0 -3.484375 2.75 -5.484375q-3.484375 0.515625 -7.125 1.03125l-0.453125 -1.703125q7.28125 -0.515625 14.625 -1.78125l0.296875 1.703125zm9.425781 7.9375q-0.671875 1.71875 -1.40625 2.609375q-1.046875 1.265625 -2.078125 1.265625q-1.859375 0 -2.75 -2.15625q-0.515625 -1.265625 -0.515625 -5.421875q0 -2.96875 0.296875 -6.015625l1.5625 0.375q0.890625 0.21875 0.0625 0.734375q-0.296875 2.75 -0.296875 4.984375q0 3.03125 0.375 4.296875q0.375 1.265625 1.109375 1.265625q0.828125 0 1.421875 -1.1875q0.359375 -0.75 0.734375 -1.78125l1.484375 1.03125zm4.375 -8.671875q3.34375 3.484375 4.09375 8.453125l-2.015625 0.515625q-0.890625 -5.1875 -3.625 -8.078125l1.546875 -0.890625zm15.7421875 12.015625q1.1875 -0.140625 2.0 -0.96875q0.890625 -0.890625 0.890625 -2.375q0 -1.625 -0.96875 -2.59375q-0.953125 -0.96875 -3.03125 -0.96875q-2.453125 0 -3.796875 0.96875q-1.25 0.890625 -3.265625 3.1875l-1.25 -1.109375q5.34375 -5.34375 8.078125 -8.90625q-2.4375 0.296875 -4.890625 0.515625l-0.515625 -1.703125q3.625 0 6.453125 -0.375l0.671875 -0.296875l0.8125 0.828125q0.8125 0.734375 -0.375 0.953125q-2.21875 2.53125 -4.453125 4.984375q1.5625 -0.375 2.59375 -0.375q2.828125 0 4.15625 1.328125q1.34375 1.34375 1.34375 3.421875q0 2.15625 -1.1875 3.34375q-1.78125 1.78125 -4.53125 1.78125q-2.59375 0 -3.78125 -1.1875q-0.96875 -0.96875 -0.96875 -2.3125q0 -0.890625 0.671875 -1.546875q0.734375 -0.75 1.703125 -0.75q1.34375 0 2.234375 0.890625q1.03125 1.046875 1.40625 3.265625zm-1.484375 0.21875q-0.21875 -1.921875 -0.890625 -2.59375q-0.515625 -0.515625 -1.046875 -0.515625q-0.59375 0 -0.890625 0.296875q-0.359375 0.375 -0.359375 0.8125q0 0.671875 0.59375 1.265625q0.734375 0.734375 1.921875 0.734375q0.296875 0 0.671875 0z" fill-rule="nonzero"/><path fill="#000000" fill-opacity="0.0" d="m468.51968 193.36745l170.36221 0l0 42.015762l-170.36221 0z" fill-rule="evenodd"/><path fill="#000000" d="m487.9103 215.91245q-3.9375 -2.015625 -6.453125 -2.671875l0 7.71875l-1.703125 0l0 -14.84375l1.484375 0q0.890625 0.0625 0.21875 0.59375l0 4.671875q3.640625 1.03125 7.34375 2.8125l-0.890625 1.71875zm-0.140625 -6.53125q-1.265625 -1.5625 -2.53125 -2.53125l0.96875 -0.734375q1.265625 0.953125 2.515625 2.515625l-0.953125 0.75zm1.78125 -1.421875q-0.96875 -1.25 -2.453125 -2.4375l0.96875 -0.75q1.25 0.890625 2.4375 2.453125l-0.953125 0.734375zm10.464844 4.75q0.140625 5.640625 -4.828125 8.765625l-1.265625 -1.40625q4.375 -2.375 4.375 -6.6875l0 -3.1875l1.5625 0q0.671875 0.078125 0.15625 0.515625l0 1.9375q2.671875 -2.015625 4.078125 -3.9375l-12.09375 0.4375l-0.15625 -1.703125l13.515625 -0.375l0.515625 -0.140625l1.109375 1.328125q0.21875 0.296875 -0.375 0.234375q-2.21875 2.890625 -5.34375 5.40625l-1.25 -1.1875zm21.664093 -4.296875q3.046875 3.109375 4.15625 7.5l-1.625 0.65625q-1.34375 -4.8125 -3.859375 -7.1875l1.328125 -0.96875zm-2.21875 5.9375q0 4.296875 -1.265625 5.5625q-0.75 0.75 -1.703125 0.75q-1.421875 0 -2.828125 -1.640625l0.96875 -1.328125q1.1875 1.1875 1.78125 1.1875q0.375 0 0.671875 -0.296875q0.8125 -0.828125 0.8125 -4.53125q0 -2.078125 -0.453125 -2.53125q-0.21875 -0.21875 -0.890625 -0.21875q-0.65625 0 -1.84375 0.15625q-1.5625 5.484375 -3.7187805 9.421875l-1.703125 -0.59375q2.15625 -3.34375 3.7812805 -8.6875q-1.6250305 0.21875 -3.1875305 0.375l-0.15625 -1.640625q1.34375 0 3.7187805 -0.21875q0.671875 -2.296875 1.109375 -4.671875l1.5625 0.515625q0.890625 0.375 -0.078125 0.671875q-0.4375 1.5625 -0.890625 3.34375q0.890625 -0.15625 1.859375 -0.15625q1.03125 0 1.5625 0.515625q0.890625 0.890625 0.890625 4.015625zm4.15625 -9.796875q1.328125 0.734375 2.96875 2.078125l-0.890625 0.890625q-1.640625 -1.265625 -2.96875 -2.078125l0.890625 -0.890625zm0.515625 4.75q-1.703125 -1.40625 -2.890625 -2.15625l0.890625 -0.890625q1.328125 0.75 2.96875 2.078125l-0.96875 0.96875zm13.359375 -3.9375l6.96875 0l0 15.140625q0 1.1875 -1.1875 1.1875l-1.78125 0l-0.21875 -1.40625l1.40625 0q0.296875 0 0.296875 -0.296875l0 -8.46875l-2.734375 0l-2.75 0l0 -6.15625zm-6.15625 11.5l0 -1.1875l2.96875 0l0 -1.78125l-2.453125 0l0 -1.1875l9.34375 0l0 1.1875l-1.921875 0l0 1.78125l2.515625 0l0 1.1875l-2.515625 0l0 4.46875l-1.484375 0l0 -4.46875l-2.0 0q0.140625 3.265625 -3.34375 4.828125l-0.75 -1.40625q2.609375 -0.96875 2.609375 -3.421875l-2.96875 0zm2.671875 -10.3125l-3.71875 0l0 1.34375l3.71875 0l0 -1.34375zm1.484375 4.96875l-5.203125 0l0 10.40625l-1.484375 0l0 -16.5625l6.6875 0l0 6.15625zm2.296875 4.15625l0 -1.78125l-2.0 0l0 1.78125l2.0 0zm5.1875 -7.78125l0 -1.34375l-4.0 0l0 1.34375l4.0 0zm-4.0 2.4375l4.0 0l0 -1.25l-4.0 0l0 1.25zm-8.6875 0l3.71875 0l0 -1.25l-3.71875 0l0 1.25zm24.046875 6.234375q-0.671875 1.71875 -1.40625 2.609375q-1.046875 1.265625 -2.078125 1.265625q-1.859375 0 -2.75 -2.15625q-0.515625 -1.265625 -0.515625 -5.421875q0 -2.96875 0.296875 -6.015625l1.5625 0.375q0.890625 0.21875 0.0625 0.734375q-0.296875 2.75 -0.296875 4.984375q0 3.03125 0.375 4.296875q0.375 1.265625 1.109375 1.265625q0.828125 0 1.421875 -1.1875q0.359375 -0.75 0.734375 -1.78125l1.484375 1.03125zm4.375 -8.671875q3.34375 3.484375 4.09375 8.453125l-2.015625 0.515625q-0.890625 -5.1875 -3.625 -8.078125l1.546875 -0.890625zm21.304688 0.734375q-2.59375 0 -4.078125 0.515625q-1.640625 0.59375 -3.046875 2.015625q-1.40625 1.40625 -1.40625 3.625q0 1.78125 1.109375 2.90625q1.484375 1.484375 5.71875 1.625l-0.59375 1.640625q-4.375 -0.21875 -6.09375 -1.9375q-1.703125 -1.703125 -1.703125 -4.15625q0 -3.484375 2.75 -5.484375q-3.484375 0.515625 -7.125 1.03125l-0.453125 -1.703125q7.28125 -0.515625 14.625 -1.78125l0.296875 1.703125zm9.425781 7.9375q-0.671875 1.71875 -1.40625 2.609375q-1.046875 1.265625 -2.078125 1.265625q-1.859375 0 -2.75 -2.15625q-0.515625 -1.265625 -0.515625 -5.421875q0 -2.96875 0.296875 -6.015625l1.5625 0.375q0.890625 0.21875 0.0625 0.734375q-0.296875 2.75 -0.296875 4.984375q0 3.03125 0.375 4.296875q0.375 1.265625 1.109375 1.265625q0.828125 0 1.421875 -1.1875q0.359375 -0.75 0.734375 -1.78125l1.484375 1.03125zm4.375 -8.671875q3.34375 3.484375 4.09375 8.453125l-2.015625 0.515625q-0.890625 -5.1875 -3.625 -8.078125l1.546875 -0.890625zm21.523438 11.421875l0 1.640625l-3.265625 0q-2.8125 0 -5.34375 -1.34375l0.671875 -1.328125q1.9375 1.03125 4.671875 1.03125l3.265625 0zm-10.234375 -8.6875q-1.109375 6.609375 -2.75 10.46875l-1.625 -0.515625q2.0 -4.671875 2.8125 -9.796875q-1.78125 0.140625 -3.1875 0.140625l-0.296875 -1.484375q2.078125 0 3.703125 -0.140625q0.296875 -2.296875 0.53125 -4.015625l1.484375 0.296875q0.8125 0.234375 0.140625 0.59375q-0.21875 0.890625 -0.59375 2.96875q1.703125 -0.21875 3.125 -0.59375l0.296875 1.484375q-1.9375 0.375 -3.640625 0.59375zm9.875 2.53125q-4.3125 0.140625 -6.765625 1.1875l-0.4375 -1.484375q3.1875 -1.265625 6.90625 -1.265625l0.296875 1.5625z" fill-rule="nonzero"/><path fill="#000000" fill-opacity="0.0" d="m275.62204 33.850395l65.38583 0l0 42.015747l-65.38583 0z" fill-rule="evenodd"/><path fill="#ff0000" d="m285.43454 60.47352q1.34375 -0.515625 2.671875 -1.34375l0 -4.8125l-2.21875 0l0 -1.421875l3.703125 0l0 6.171875q0.828125 1.40625 4.15625 1.40625l9.0625 0l-0.375 1.40625l-9.578125 0q-2.515625 0 -4.078125 -1.78125q-0.890625 0.890625 -2.515625 2.078125l-0.828125 -1.703125zm2.671875 -14.171875q1.484375 1.03125 2.3125 2.296875l-1.265625 1.265625q-1.109375 -1.484375 -2.296875 -2.453125l1.25 -1.109375zm7.203125 12.390625l-1.265625 0l0 -4.671875l4.90625 0l0 3.78125l-3.640625 0l0 0.890625zm2.375 -2.078125l0 -1.40625l-2.375 0l0 1.40625l2.375 0zm4.15625 1.625q0 1.265625 -1.265625 1.265625l-1.328125 0l-0.15625 -1.40625l0.96875 0q0.296875 0 0.296875 -0.296875l0 -4.828125l-7.859375 0l0 6.6875l-1.484375 0l0 -8.09375l1.625 0l0 -5.421875l7.71875 0l0 5.421875l1.484375 0l0 6.671875zm-2.75 -8.375l-2.21875 0l0 1.703125l2.21875 0l0 -1.703125zm0 -1.1875l0 -1.34375l-5.1875 0l0 4.234375l1.703125 0l0 -2.890625l3.484375 0zm20.421875 13.4375l-1.1875 -1.5l-11.734375 1.046875q-0.078125 0.59375 -0.375 0.296875l-0.515625 -2.078125l2.53125 -0.078125q1.625 -2.59375 2.8125 -5.484375l-6.234375 0l0 -1.421875l7.5 0l0 -3.1875l-5.796875 0l0 -1.40625l5.796875 0l0 -2.671875l1.40625 0q0.59375 0.078125 0.078125 0.4375l0 2.234375l5.78125 0l0 1.40625l-5.78125 0l0 3.1875l7.5 0l0 1.421875l-8.171875 0q-1.5625 3.109375 -3.109375 5.484375l7.421875 -0.4375q-1.421875 -1.640625 -2.53125 -2.609375l1.109375 -1.109375q2.375 1.703125 5.046875 5.28125l-1.546875 1.1875z" fill-rule="nonzero"/><path fill="#000000" fill-opacity="0.0" d="m751.7638 33.850395l94.64563 0l0 42.015747l-94.64563 0z" fill-rule="evenodd"/><path fill="#ff0000" d="m761.6544 58.09852q1.703125 -0.296875 2.828125 -0.515625l0 -4.015625l-2.3125 0l0 -1.40625l2.3125 0l0 -3.9375l-2.671875 0l0 -1.40625l6.59375 0l0 1.40625l-2.4375 0l0 3.9375l2.078125 0l0 1.40625l-2.078125 0l0 3.71875l2.375 -0.671875l0.359375 1.265625q-3.1875 1.03125 -6.078125 1.78125q-0.21875 0.515625 -0.453125 0.21875l-0.515625 -1.78125zm14.546875 -8.984375l0 -1.78125l-5.640625 0l0 1.78125l5.640625 0zm0 2.96875l0 -1.78125l-5.640625 0l0 1.78125l5.640625 0zm0 2.96875l0 -1.78125l-5.640625 0l0 1.78125l5.640625 0zm-2.15625 1.1875l-1.40625 0l0 0.75q0 4.53125 -6.96875 5.34375l-0.53125 -1.640625q6.015625 -0.515625 6.015625 -3.78125l0 -0.671875l-1.03125 0l-1.046875 0l0 -10.09375l8.609375 0l0 10.09375l-2.15625 0l0 3.9375q0 0.59375 0.53125 0.59375l0.515625 0q0.4375 0 0.59375 -0.453125q0.140625 -0.4375 0.296875 -1.78125l1.5625 0.453125q-0.15625 1.03125 -0.296875 1.625q-0.375 1.5625 -1.484375 1.5625l-1.9375 0q-1.265625 0 -1.265625 -1.25l0 -4.6875zm9.875 -4.828125l0.96875 0.234375q0.4375 -0.453125 1.40625 -2.234375l-4.828125 0l0 -1.40625l5.421875 0q0.59375 -1.40625 0.890625 -2.671875l1.640625 0.59375q0.296875 0.296875 -0.234375 0.375q-0.140625 0.65625 -0.65625 1.703125l8.609375 0l0 1.40625l-9.203125 0q-0.890625 2.0 -2.53125 4.15625l0 8.765625l-1.484375 0l0 -7.359375q-0.96875 0.96875 -2.75 2.015625l-0.734375 -1.71875q2.078125 -0.953125 3.484375 -2.515625l0 -1.34375zm8.390625 -0.953125q0.59375 0.0625 0.078125 0.4375l0 2.890625l3.78125 0l0 1.421875l-3.78125 0l0 4.890625l4.890625 0l0 1.421875l-11.203125 0l0 -1.421875l4.828125 0l0 -4.890625l-4.09375 0l0 -1.421875l4.09375 0l0 -3.328125l1.40625 0zm13.0625 -4.6875q0.59375 0.078125 0.078125 0.453125l0 15.953125l-1.484375 0l0 -6.53125l-1.1875 0l0 2.234375q0 2.96875 -2.078125 4.375l-0.890625 -1.328125q1.484375 -1.046875 1.484375 -3.34375l0 -1.9375l-1.1875 0l0 -1.40625l3.859375 0l0 -2.234375l-1.859375 0l0 0.53125l-1.484375 0l0 -5.71875l1.484375 0l0 3.78125l1.859375 0l0 -4.828125l1.40625 0zm10.53125 16.265625q-4.15625 -2.609375 -5.265625 -7.359375q-0.375 5.125 -4.234375 7.5l-0.8125 -1.5625q3.859375 -2.21875 3.859375 -8.609375l-3.484375 0l0 -1.40625l3.5625 0l0 -5.046875l1.40625 0q0.59375 0.078125 0.078125 0.453125l0 4.59375l5.265625 0l0 1.40625l-4.890625 0q0.734375 5.578125 5.34375 8.171875l-0.828125 1.859375zm-2.8125 -15.515625q1.484375 0.8125 2.078125 2.0l-1.1875 1.1875q-0.75 -1.1875 -2.0 -2.078125l1.109375 -1.109375zm11.125 0.515625l0.890625 -0.671875q1.640625 1.125 2.671875 2.3125l-1.03125 0.890625l-0.671875 -0.671875l-6.375 0.515625q-0.078125 0.515625 -0.375 0.21875l-0.375 -1.484375l1.640625 0l1.484375 -2.8125l1.40625 0.375q0.296875 0.296875 -0.21875 0.359375l-1.34375 2.015625l3.265625 -0.15625l-0.96875 -0.890625zm2.234375 3.125l0 6.0q0 1.125 -0.8125 1.125l-1.5625 0l-0.296875 -1.1875l1.109375 0q0.296875 0 0.296875 -0.296875l0 -0.96875l-3.640625 0l0 2.453125l-1.25 0l0 -7.125l6.15625 0zm6.53125 7.5625q1.328125 0.96875 2.59375 2.828125l-1.40625 0.96875q-0.96875 -1.71875 -2.375 -2.984375l1.1875 -0.8125zm-3.421875 -4.375q2.234375 -0.59375 4.234375 -1.34375l0.8125 1.125q0.078125 0.515625 -0.4375 0.21875q-2.234375 0.671875 -4.609375 1.109375l0 0.96875q0 0.515625 0.53125 0.515625l3.1875 0q0.671875 0 0.734375 -1.40625l1.34375 0.4375q-0.21875 2.15625 -1.484375 2.15625l-4.234375 0q-1.328125 0 -1.328125 -1.328125l0 -4.15625l1.1875 0q0.59375 0.0625 0.0625 0.4375l0 1.265625zm-1.25 -7.875l1.1875 0q0.59375 0.078125 0.0625 0.453125l0 1.484375q1.9375 -0.453125 3.71875 -1.109375l0.8125 1.109375q0.078125 0.515625 -0.4375 0.21875q-1.9375 0.59375 -4.09375 0.96875l0 0.8125q0 0.515625 0.53125 0.515625l2.96875 0q0.4375 0 0.515625 -0.359375l0.140625 -0.96875l1.34375 0.4375l-0.296875 0.96875q-0.375 1.109375 -1.1875 1.109375l-3.9375 0q-1.328125 0 -1.328125 -1.328125l0 -4.3125zm-3.125 5.578125l-3.640625 0l0 1.03125l3.640625 0l0 -1.03125zm0 1.921875l-3.640625 0l0 0.96875l3.640625 0l0 -0.96875zm2.0 4.234375q1.046875 0.96875 1.5625 1.859375l-1.1875 0.890625q-0.59375 -1.125 -1.484375 -1.9375l1.109375 -0.8125zm-2.4375 0.59375q0.59375 0.078125 0.0625 0.4375l0 1.9375q0 0.59375 0.53125 0.59375l4.21875 0q1.046875 0 1.125 -1.484375l1.484375 0.4375q-0.53125 2.453125 -2.015625 2.453125l-5.484375 0q-1.34375 0 -1.34375 -1.25l0 -3.125l1.421875 0zm-5.578125 3.125q1.046875 -1.203125 1.78125 -2.828125l1.265625 0.671875q0.59375 0.359375 -0.140625 0.515625q-0.671875 1.40625 -1.71875 2.59375l-1.1875 -0.953125z" fill-rule="nonzero"/><path fill="#000000" fill-opacity="0.0" d="m499.063 32.307087l94.64569 0l0 42.01575l-94.64569 0z" fill-rule="evenodd"/><path fill="#ff0000" d="m508.8755 58.93021q1.34375 -0.515625 2.671875 -1.34375l0 -4.8125l-2.21875 0l0 -1.421875l3.703125 0l0 6.171875q0.828125 1.40625 4.15625 1.40625l9.0625 0l-0.375 1.40625l-9.578125 0q-2.515625 0 -4.078125 -1.78125q-0.890625 0.890625 -2.515625 2.078125l-0.828125 -1.703125zm2.671875 -14.171875q1.484375 1.03125 2.3125 2.296875l-1.265625 1.265625q-1.109375 -1.484375 -2.296875 -2.453125l1.25 -1.109375zm7.203125 12.390625l-1.265625 0l0 -4.671875l4.90625 0l0 3.78125l-3.640625 0l0 0.890625zm2.375 -2.078125l0 -1.40625l-2.375 0l0 1.40625l2.375 0zm4.15625 1.625q0 1.265625 -1.265625 1.265625l-1.328125 0l-0.15625 -1.40625l0.96875 0q0.296875 0 0.296875 -0.296875l0 -4.828125l-7.859375 0l0 6.6875l-1.484375 0l0 -8.09375l1.625 0l0 -5.421875l7.71875 0l0 5.421875l1.484375 0l0 6.671875zm-2.75 -8.375l-2.21875 0l0 1.703125l2.21875 0l0 -1.703125zm0 -1.1875l0 -1.34375l-5.1875 0l0 4.234375l1.703125 0l0 -2.890625l3.484375 0zm20.421875 13.4375l-1.1875 -1.5l-11.734375 1.046875q-0.078125 0.59375 -0.375 0.296875l-0.515625 -2.078125l2.53125 -0.078125q1.625 -2.59375 2.8125 -5.484375l-6.234375 0l0 -1.421875l7.5 0l0 -3.1875l-5.796875 0l0 -1.40625l5.796875 0l0 -2.671875l1.40625 0q0.59375 0.078125 0.078125 0.4375l0 2.234375l5.78125 0l0 1.40625l-5.78125 0l0 3.1875l7.5 0l0 1.421875l-8.171875 0q-1.5625 3.109375 -3.109375 5.484375l7.421875 -0.4375q-1.421875 -1.640625 -2.53125 -2.609375l1.109375 -1.109375q2.375 1.703125 5.046875 5.28125l-1.546875 1.1875zm9.71875 -16.34375q0.59375 0.078125 0.078125 0.453125l0 15.953125l-1.484375 0l0 -6.53125l-1.1875 0l0 2.234375q0 2.96875 -2.078125 4.375l-0.890625 -1.328125q1.484375 -1.046875 1.484375 -3.34375l0 -1.9375l-1.1875 0l0 -1.40625l3.859375 0l0 -2.234375l-1.859375 0l0 0.53125l-1.484375 0l0 -5.71875l1.484375 0l0 3.78125l1.859375 0l0 -4.828125l1.40625 0zm10.53125 16.265625q-4.15625 -2.609375 -5.265625 -7.359375q-0.375 5.125 -4.234375 7.5l-0.8125 -1.5625q3.859375 -2.21875 3.859375 -8.609375l-3.484375 0l0 -1.40625l3.5625 0l0 -5.046875l1.40625 0q0.59375 0.078125 0.078125 0.453125l0 4.59375l5.265625 0l0 1.40625l-4.890625 0q0.734375 5.578125 5.34375 8.171875l-0.828125 1.859375zm-2.8125 -15.515625q1.484375 0.8125 2.078125 2.0l-1.1875 1.1875q-0.75 -1.1875 -2.0 -2.078125l1.109375 -1.109375zm11.125 0.515625l0.890625 -0.671875q1.640625 1.125 2.671875 2.3125l-1.03125 0.890625l-0.671875 -0.671875l-6.375 0.515625q-0.078125 0.515625 -0.375 0.21875l-0.375 -1.484375l1.640625 0l1.484375 -2.8125l1.40625 0.375q0.296875 0.296875 -0.21875 0.359375l-1.34375 2.015625l3.265625 -0.15625l-0.96875 -0.890625zm2.234375 3.125l0 6.0q0 1.125 -0.8125 1.125l-1.5625 0l-0.296875 -1.1875l1.109375 0q0.296875 0 0.296875 -0.296875l0 -0.96875l-3.640625 0l0 2.453125l-1.25 0l0 -7.125l6.15625 0zm6.53125 7.5625q1.328125 0.96875 2.59375 2.828125l-1.40625 0.96875q-0.96875 -1.71875 -2.375 -2.984375l1.1875 -0.8125zm-3.421875 -4.375q2.234375 -0.59375 4.234375 -1.34375l0.8125 1.125q0.078125 0.515625 -0.4375 0.21875q-2.234375 0.671875 -4.609375 1.109375l0 0.96875q0 0.515625 0.53125 0.515625l3.1875 0q0.671875 0 0.734375 -1.40625l1.34375 0.4375q-0.21875 2.15625 -1.484375 2.15625l-4.234375 0q-1.328125 0 -1.328125 -1.328125l0 -4.15625l1.1875 0q0.59375 0.0625 0.0625 0.4375l0 1.265625zm-1.25 -7.875l1.1875 0q0.59375 0.078125 0.0625 0.453125l0 1.484375q1.9375 -0.453125 3.71875 -1.109375l0.8125 1.109375q0.078125 0.515625 -0.4375 0.21875q-1.9375 0.59375 -4.09375 0.96875l0 0.8125q0 0.515625 0.53125 0.515625l2.96875 0q0.4375 0 0.515625 -0.359375l0.140625 -0.96875l1.34375 0.4375l-0.296875 0.96875q-0.375 1.109375 -1.1875 1.109375l-3.9375 0q-1.328125 0 -1.328125 -1.328125l0 -4.3125zm-3.125 5.578125l-3.640625 0l0 1.03125l3.640625 0l0 -1.03125zm0 1.921875l-3.640625 0l0 0.96875l3.640625 0l0 -0.96875zm2.0 4.234375q1.046875 0.96875 1.5625 1.859375l-1.1875 0.890625q-0.59375 -1.125 -1.484375 -1.9375l1.109375 -0.8125zm-2.4375 0.59375q0.59375 0.078125 0.0625 0.4375l0 1.9375q0 0.59375 0.53125 0.59375l4.21875 0q1.046875 0 1.125 -1.484375l1.484375 0.4375q-0.53125 2.453125 -2.015625 2.453125l-5.484375 0q-1.34375 0 -1.34375 -1.25l0 -3.125l1.421875 0zm-5.578125 3.125q1.046875 -1.203125 1.78125 -2.828125l1.265625 0.671875q0.59375 0.359375 -0.140625 0.515625q-0.671875 1.40625 -1.71875 2.59375l-1.1875 -0.953125z" fill-rule="nonzero"/></g></svg>