<svg version="1.1" viewBox="0.0 0.0 962.8582677165355 169.08136482939634" fill="none" stroke="none" stroke-linecap="square" stroke-miterlimit="10" xmlns:xlink="http://www.w3.org/1999/xlink" xmlns="http://www.w3.org/2000/svg"><clipPath id="p.0"><path d="m0 0l962.8583 0l0 169.08136l-962.8583 0l0 -169.08136z" clip-rule="nonzero"/></clipPath><g clip-path="url(#p.0)"><path fill="#000000" fill-opacity="0.0" d="m0 0l962.8583 0l0 169.08136l-962.8583 0z" fill-rule="evenodd"/><path fill="#ffffff" d="m0 0l962.86615 0l0 169.07086l-962.86615 0z" fill-rule="evenodd"/><path stroke="#ffffff" stroke-width="1.0" stroke-linejoin="round" stroke-linecap="butt" d="m0 0l962.86615 0l0 169.07086l-962.86615 0z" fill-rule="evenodd"/><path fill="#000000" fill-opacity="0.0" d="m79.632545 106.28609l778.07874 0" fill-rule="evenodd"/><path stroke="#000000" stroke-width="1.0" stroke-linejoin="round" stroke-linecap="butt" d="m79.632545 106.28609l772.07874 0" fill-rule="evenodd"/><path fill="#000000" stroke="#000000" stroke-width="1.0" stroke-linecap="butt" d="m851.7113 107.93782l4.538086 -1.6517334l-4.538086 -1.6517334z" fill-rule="evenodd"/><path fill="#000000" fill-opacity="0.0" d="m626.5801 62.377567l0 44.787403" fill-rule="evenodd"/><path stroke="#000000" stroke-width="1.0" stroke-linejoin="round" stroke-linecap="butt" d="m626.5801 62.377567l0 44.787403" fill-rule="evenodd"/><path fill="#000000" fill-opacity="0.0" d="m506.58005 62.377567l0 44.787403" fill-rule="evenodd"/><path stroke="#000000" stroke-width="1.0" stroke-linejoin="round" stroke-linecap="butt" d="m506.58005 62.377567l0 44.787403" fill-rule="evenodd"/><path fill="#000000" fill-opacity="0.0" d="m386.58005 62.377567l0 44.787403" fill-rule="evenodd"/><path stroke="#000000" stroke-width="1.0" stroke-linejoin="round" stroke-linecap="butt" d="m386.58005 62.377567l0 44.787403" fill-rule="evenodd"/><path fill="#000000" fill-opacity="0.0" d="m266.58005 62.377567l0 44.787403" fill-rule="evenodd"/><path stroke="#000000" stroke-width="1.0" stroke-linejoin="round" stroke-linecap="butt" d="m266.58005 62.377567l0 44.787403" fill-rule="evenodd"/><path fill="#000000" fill-opacity="0.0" d="m597.24634 20.362206l68.031494 0l0 42.015747l-68.031494 0z" fill-rule="evenodd"/><path fill="#000000" d="m607.13696 44.61033q1.703125 -0.296875 2.828125 -0.515625l0 -4.015625l-2.3125 0l0 -1.40625l2.3125 0l0 -3.9375l-2.671875 0l0 -1.40625l6.59375 0l0 1.40625l-2.4375 0l0 3.9375l2.078125 0l0 1.40625l-2.078125 0l0 3.71875l2.375 -0.671875l0.359375 1.265625q-3.1875 1.03125 -6.078125 1.78125q-0.21875 0.515625 -0.453125 0.21875l-0.515625 -1.78125zm14.546875 -8.984375l0 -1.78125l-5.640625 0l0 1.78125l5.640625 0zm0 2.96875l0 -1.78125l-5.640625 0l0 1.78125l5.640625 0zm0 2.96875l0 -1.78125l-5.640625 0l0 1.78125l5.640625 0zm-2.15625 1.1875l-1.40625 0l0 0.75q0 4.53125 -6.96875 5.34375l-0.53125 -1.640625q6.015625 -0.515625 6.015625 -3.78125l0 -0.671875l-1.03125 0l-1.046875 0l0 -10.09375l8.609375 0l0 10.09375l-2.15625 0l0 3.9375q0 0.59375 0.53125 0.59375l0.515625 0q0.4375 0 0.59375 -0.453125q0.140625 -0.4375 0.296875 -1.78125l1.5625 0.453125q-0.15625 1.03125 -0.296875 1.625q-0.375 1.5625 -1.484375 1.5625l-1.9375 0q-1.265625 0 -1.265625 -1.25l0 -4.6875zm9.875 -4.828125l0.96875 0.234375q0.4375 -0.453125 1.40625 -2.234375l-4.828125 0l0 -1.40625l5.421875 0q0.59375 -1.40625 0.890625 -2.671875l1.640625 0.59375q0.296875 0.296875 -0.234375 0.375q-0.140625 0.65625 -0.65625 1.703125l8.609375 0l0 1.40625l-9.203125 0q-0.890625 2.0 -2.53125 4.15625l0 8.765625l-1.484375 0l0 -7.359375q-0.96875 0.96875 -2.75 2.015625l-0.734375 -1.71875q2.078125 -0.953125 3.484375 -2.515625l0 -1.34375zm8.390625 -0.953125q0.59375 0.0625 0.078125 0.4375l0 2.890625l3.78125 0l0 1.421875l-3.78125 0l0 4.890625l4.890625 0l0 1.421875l-11.203125 0l0 -1.421875l4.828125 0l0 -4.890625l-4.09375 0l0 -1.421875l4.09375 0l0 -3.328125l1.40625 0z" fill-rule="nonzero"/><path fill="#000000" fill-opacity="0.0" d="m489.95352 107.16535l68.031525 0l0 42.015755l-68.031525 0z" fill-rule="evenodd"/><path fill="#000000" d="m500.0004 125.39785q5.484375 -2.21875 7.78125 -6.53125l1.5625 0.375q0.515625 0.078125 -0.078125 0.4375l-0.140625 0.296875q3.7031555 3.5625 7.6406555 4.6875l-0.59375 1.921875q-5.0469055 -2.0 -7.8594055 -5.5625q-2.015625 2.59375 -3.796875 3.78125l7.8750305 0l0 1.640625l-8.3906555 0l0 -1.1875q-1.859375 1.25 -3.265625 1.78125l-0.734375 -1.640625zm12.7656555 2.296875l1.328125 0.8906326q0.296875 0.296875 -0.21875 0.375q-1.5625 4.53125 -2.8281555 6.828125l-1.78125 -0.734375q1.5625 -2.75 2.53125 -5.34375l-9.5 0l0 -1.640625l10.2344055 0l0.234375 -0.37500763z" fill-rule="nonzero"/><path fill="#000000" fill-opacity="0.0" d="m336.59558 107.16535l96.69293 0l0 42.015755l-96.69293 0z" fill-rule="evenodd"/><path fill="#000000" d="m361.84558 133.11661l0 1.640625l-3.265625 0q-2.8125 0 -5.34375 -1.34375l0.671875 -1.328125q1.9375 1.03125 4.671875 1.03125l3.265625 0zm-10.234375 -8.687508q-1.109375 6.6093826 -2.75 10.468758l-1.625 -0.515625q2.0 -4.671875 2.8125 -9.796883q-1.78125 0.140625 -3.1875 0.140625l-0.296875 -1.484375q2.078125 0 3.703125 -0.140625q0.296875 -2.296875 0.53125 -4.015625l1.484375 0.296875q0.8125 0.234375 0.140625 0.59375q-0.21875 0.890625 -0.59375 2.96875q1.703125 -0.21875 3.125 -0.59375l0.296875 1.484375q-1.9375 0.375 -3.640625 0.59375zm9.875 2.53125q-4.3125 0.140625 -6.765625 1.1875076l-0.4375 -1.4843826q3.1875 -1.265625 6.90625 -1.265625l0.296875 1.5625zm7.484375 -0.453125q-1.78125 0.59375 -4.15625 1.5625076l-0.734375 -1.5625076q2.375 -0.734375 4.296875 -1.328125q2.15625 -0.671875 4.09375 -0.671875q1.921875 0 3.109375 1.1875q1.265625 1.265625 1.265625 3.1250076q0 2.21875 -1.109375 3.328125q-2.015625 2.015625 -6.765625 2.15625l-0.59375 -1.5625q4.6875 -0.0625 6.171875 -1.546875q0.8125 -0.828125 0.8125 -2.375q0 -1.2656326 -1.046875 -2.3125076q-0.59375 -0.59375 -2.078125 -0.59375q-1.40625 0 -3.265625 0.59375zm25.679688 6.6093826l0 1.640625l-3.265625 0q-2.8125 0 -5.34375 -1.34375l0.671875 -1.328125q1.9375 1.03125 4.671875 1.03125l3.265625 0zm-10.234375 -8.687508q-1.109375 6.6093826 -2.75 10.468758l-1.625 -0.515625q2.0 -4.671875 2.8125 -9.796883q-1.78125 0.140625 -3.1875 0.140625l-0.296875 -1.484375q2.078125 0 3.703125 -0.140625q0.296875 -2.296875 0.53125 -4.015625l1.484375 0.296875q0.8125 0.234375 0.140625 0.59375q-0.21875 0.890625 -0.59375 2.96875q1.703125 -0.21875 3.125 -0.59375l0.296875 1.484375q-1.9375 0.375 -3.640625 0.59375zm9.875 2.53125q-4.3125 0.140625 -6.765625 1.1875076l-0.4375 -1.4843826q3.1875 -1.265625 6.90625 -1.265625l0.296875 1.5625zm2.671875 -1.5625q5.484375 -2.21875 7.78125 -6.53125l1.5625 0.375q0.515625 0.078125 -0.078125 0.4375l-0.140625 0.296875q3.703125 3.5625 7.640625 4.6875l-0.59375 1.921875q-5.046875 -2.0 -7.859375 -5.5625q-2.015625 2.59375 -3.796875 3.78125l7.875 0l0 1.640625l-8.390625 0l0 -1.1875q-1.859375 1.25 -3.265625 1.78125l-0.734375 -1.640625zm12.765625 2.296875l1.328125 0.8906326q0.296875 0.296875 -0.21875 0.375q-1.5625 4.53125 -2.828125 6.828125l-1.78125 -0.734375q1.5625 -2.75 2.53125 -5.34375l-9.5 0l0 -1.640625l10.234375 0l0.234375 -0.37500763z" fill-rule="nonzero"/><path fill="#000000" fill-opacity="0.0" d="m229.25642 107.16535l96.69292 0l0 42.015755l-96.69292 0z" fill-rule="evenodd"/><path fill="#000000" d="m245.75642 124.21035q-3.046875 0.21875 -6.015625 0.21875l-0.4375 -1.484375q3.625 0 5.859375 -0.140625q-0.75 -2.078125 -1.046875 -3.859375l1.640625 0q0.671875 0.140625 0.140625 0.59375q0.296875 1.40625 0.890625 3.109375q2.609375 -0.21875 4.453125 -0.65625l0.375 1.625q-2.15625 0.296875 -4.234375 0.453125q1.484375 2.8125 4.53125 4.8906326l-1.109375 1.34375q-2.75 -1.265625 -5.421875 -1.265625q-2.453125 0 -3.40625 0.96875q-0.453125 0.4375 -0.453125 1.25q0 0.75 0.671875 1.421875q1.03125 1.03125 4.890625 1.03125l2.609375 0l-0.375 1.640625l-2.828125 0q-3.859375 0 -5.40625 -1.5625q-1.125 -1.109375 -1.125 -2.53125q0 -1.40625 0.828125 -2.21875q1.328125 -1.3437576 4.15625 -1.3437576q2.8125 0 3.265625 0.296875q-1.78125 -2.21875 -2.453125 -3.78125zm12.906265 2.296875q-1.78125 0.59375 -4.1562653 1.5625076l-0.734375 -1.5625076q2.3750153 -0.734375 4.2968903 -1.328125q2.15625 -0.671875 4.09375 -0.671875q1.921875 0 3.109375 1.1875q1.265625 1.265625 1.265625 3.1250076q0 2.21875 -1.109375 3.328125q-2.015625 2.015625 -6.765625 2.15625l-0.59375 -1.5625q4.6875 -0.0625 6.171875 -1.546875q0.8125 -0.828125 0.8125 -2.375q0 -1.2656326 -1.046875 -2.3125076q-0.59375 -0.59375 -2.078125 -0.59375q-1.40625 0 -3.265625 0.59375zm18.257812 -3.40625q0.296875 0.890625 0.890625 1.859375q2.375 -0.375 4.6875 -1.046875l0.65625 1.5625q-1.921875 0.4375 -4.515625 0.8125q1.109375 1.484375 2.890625 2.8281326l-1.265625 1.25q-2.671875 -0.59375 -4.234375 -0.59375q-2.96875 0 -3.859375 0.890625q-0.515625 0.53125 -0.515625 1.125q0 0.734375 0.453125 1.1875q0.59375 0.59375 3.328125 0.59375l4.53125 0l-0.296875 1.625l-4.53125 0q-2.96875 0 -4.15625 -1.1875q-0.890625 -0.890625 -0.890625 -2.296875q0 -1.109375 0.828125 -1.9375q1.25 -1.25 5.1875 -1.25q1.34375 0 2.671875 0.21875q-1.03125 -1.1093826 -1.859375 -2.1562576q-3.484375 0.453125 -7.640625 0.453125l-0.21875 -1.5625q3.78125 0.078125 7.125 -0.296875q-0.515625 -0.96875 -0.8125 -1.859375q-2.75 0.21875 -5.71875 0.21875l-0.15625 -1.484375q3.046875 0.078125 5.5 -0.140625q-0.375 -1.34375 -0.59375 -3.046875l1.625 0q0.75 0.15625 0.078125 0.59375q0.15625 1.109375 0.375 2.234375q1.921875 -0.234375 3.9375 -0.75l0.515625 1.484375q-2.53125 0.453125 -4.015625 0.671875z" fill-rule="nonzero"/></g></svg>