<svg version="1.1" viewBox="0.0 0.0 956.8451443569554 334.46456692913387" fill="none" stroke="none" stroke-linecap="square" stroke-miterlimit="10" xmlns:xlink="http://www.w3.org/1999/xlink" xmlns="http://www.w3.org/2000/svg"><clipPath id="p.0"><path d="m0 0l956.84515 0l0 334.46457l-956.84515 0l0 -334.46457z" clip-rule="nonzero"/></clipPath><g clip-path="url(#p.0)"><path fill="#000000" fill-opacity="0.0" d="m0 0l956.84515 0l0 334.46457l-956.84515 0z" fill-rule="evenodd"/><path fill="#ffffff" d="m0 0l956.8504 0l0 334.4567l-956.8504 0z" fill-rule="evenodd"/><path stroke="#ffffff" stroke-width="1.0" stroke-linejoin="round" stroke-linecap="butt" d="m0 0l956.8504 0l0 334.4567l-956.8504 0z" fill-rule="evenodd"/><path fill="#cfe2f3" d="m302.9029 19.955381l132.12598 0l0 28.755903l-132.12598 0z" fill-rule="evenodd"/><path stroke="#000000" stroke-width="1.0" stroke-linejoin="round" stroke-linecap="butt" d="m302.9029 19.955381l132.12598 0l0 28.755903l-132.12598 0z" fill-rule="evenodd"/><path fill="#000000" d="m312.92944 41.25333l5.125 -13.359373l1.90625 0l5.46875 13.359373l-2.015625 0l-1.546875 -4.046875l-5.59375 0l-1.46875 4.046875l-1.875 0zm3.859375 -5.484375l4.53125 0l-1.40625 -3.703125q-0.625 -1.6874981 -0.9375 -2.765623q-0.265625 1.28125 -0.71875 2.546875l-1.46875 3.921873zm16.177948 5.484375l0 -1.421875q-1.125 1.640625 -3.0625 1.640625q-0.859375 0 -1.609375 -0.328125q-0.734375 -0.328125 -1.09375 -0.828125q-0.359375 -0.5 -0.5 -1.21875q-0.109375 -0.46875 -0.109375 -1.53125l0 -5.984373l1.640625 0l0 5.359373q0 1.28125 0.109375 1.734375q0.15625 0.640625 0.65625 1.015625q0.5 0.375 1.234375 0.375q0.734375 0 1.375 -0.375q0.65625 -0.390625 0.921875 -1.03125q0.265625 -0.65625 0.265625 -1.890625l0 -5.187498l1.640625 0l0 9.671873l-1.46875 0zm10.313202 0l0 -1.21875q-0.90625 1.4375 -2.703125 1.4375q-1.15625 0 -2.125 -0.640625q-0.96875 -0.640625 -1.5 -1.78125q-0.53125 -1.140625 -0.53125 -2.625q0 -1.453125 0.484375 -2.625q0.484375 -1.1875 1.4375 -1.8124981q0.96875 -0.625 2.171875 -0.625q0.875 0 1.546875 0.375q0.6875 0.3593731 1.109375 0.9531231l0 -4.796873l1.640625 0l0 13.359373l-1.53125 0zm-5.171875 -4.828125q0 1.859375 0.78125 2.78125q0.78125 0.921875 1.84375 0.921875q1.078125 0 1.828125 -0.875q0.75 -0.890625 0.75 -2.6875q0 -1.984375 -0.765625 -2.90625q-0.765625 -0.9375 -1.890625 -0.9375q-1.078125 0 -1.8125 0.890625q-0.734375 0.890625 -0.734375 2.8125zm9.281982 -6.640623l0 -1.890625l1.640625 0l0 1.890625l-1.640625 0zm0 11.468748l0 -9.671873l1.640625 0l0 9.671873l-1.640625 0zm3.535431 -4.84375q0 -2.6875 1.484375 -3.96875q1.25 -1.0781231 3.046875 -1.0781231q2.0 0 3.265625 1.3124981q1.265625 1.296875 1.265625 3.609375q0 1.859375 -0.5625 2.9375q-0.5625 1.0625 -1.640625 1.65625q-1.0625 0.59375 -2.328125 0.59375q-2.03125 0 -3.28125 -1.296875q-1.25 -1.3125 -1.25 -3.765625zm1.6875 0q0 1.859375 0.796875 2.796875q0.8125 0.921875 2.046875 0.921875q1.21875 0 2.03125 -0.921875q0.8125 -0.9375 0.8125 -2.84375q0 -1.796875 -0.8125 -2.71875q-0.8125 -0.921875 -2.03125 -0.921875q-1.234375 0 -2.046875 0.921875q-0.796875 0.90625 -0.796875 2.765625zm19.031982 0.15625l1.765625 0.453125q-0.5625 2.171875 -2.0 3.328125q-1.4375 1.140625 -3.53125 1.140625q-2.15625 0 -3.515625 -0.875q-1.34375 -0.890625 -2.0625 -2.546875q-0.703125 -1.671875 -0.703125 -3.59375q0 -2.078125 0.796875 -3.624998q0.796875 -1.5625 2.265625 -2.359375q1.484375 -0.8125 3.25 -0.8125q2.0 0 3.359375 1.015625q1.375 1.015625 1.90625 2.875l-1.734375 0.40625q-0.46875 -1.453125 -1.359375 -2.109375q-0.875 -0.671875 -2.203125 -0.671875q-1.546875 0 -2.578125 0.734375q-1.03125 0.734375 -1.453125 1.984375q-0.421875 1.2343731 -0.421875 2.562498q0 1.703125 0.5 2.96875q0.5 1.265625 1.546875 1.90625q1.046875 0.625 2.265625 0.625q1.484375 0 2.515625 -0.859375q1.03125 -0.859375 1.390625 -2.546875zm3.129181 -0.15625q0 -2.6875 1.484375 -3.96875q1.25 -1.0781231 3.046875 -1.0781231q2.0 0 3.265625 1.3124981q1.265625 1.296875 1.265625 3.609375q0 1.859375 -0.5625 2.9375q-0.5625 1.0625 -1.640625 1.65625q-1.0625 0.59375 -2.328125 0.59375q-2.03125 0 -3.28125 -1.296875q-1.25 -1.3125 -1.25 -3.765625zm1.6875 0q0 1.859375 0.796875 2.796875q0.8125 0.921875 2.046875 0.921875q1.21875 0 2.03125 -0.921875q0.8125 -0.9375 0.8125 -2.84375q0 -1.796875 -0.8125 -2.71875q-0.8125 -0.921875 -2.03125 -0.921875q-1.234375 0 -2.046875 0.921875q-0.796875 0.90625 -0.796875 2.765625zm9.297607 4.84375l0 -9.671873l1.46875 0l0 1.3749981q1.0625 -1.5937481 3.078125 -1.5937481q0.875 0 1.609375 0.3125q0.734375 0.3125 1.09375 0.8281231q0.375 0.5 0.515625 1.203125q0.09375 0.453125 0.09375 1.59375l0 5.953125l-1.640625 0l0 -5.890625q0 -1.0 -0.203125 -1.484375q-0.1875 -0.5 -0.671875 -0.796875q-0.484375 -0.296875 -1.140625 -0.296875q-1.046875 0 -1.8125 0.671875q-0.75 0.65625 -0.75 2.515625l0 5.28125l-1.640625 0zm13.953827 -1.46875l0.234375 1.453125q-0.6875 0.140625 -1.234375 0.140625q-0.890625 0 -1.390625 -0.28125q-0.484375 -0.28125 -0.6875 -0.734375q-0.203125 -0.46875 -0.203125 -1.9375l0 -5.578125l-1.203125 0l0 -1.2656231l1.203125 0l0 -2.390625l1.625 -0.984375l0 3.375l1.65625 0l0 1.2656231l-1.65625 0l0 5.671875q0 0.6875 0.078125 0.890625q0.09375 0.203125 0.28125 0.328125q0.203125 0.109375 0.578125 0.109375q0.265625 0 0.71875 -0.0625zm8.230194 -1.640625l1.6875 0.203125q-0.40625 1.484375 -1.484375 2.3125q-1.078125 0.8125 -2.765625 0.8125q-2.125 0 -3.375 -1.296875q-1.234375 -1.3125 -1.234375 -3.671875q0 -2.453125 1.25 -3.796875q1.265625 -1.3437481 3.265625 -1.3437481q1.9375 0 3.15625 1.3281231q1.234375 1.3125 1.234375 3.703125q0 0.15625 0 0.4375l-7.21875 0q0.09375 1.59375 0.90625 2.453125q0.8125 0.84375 2.015625 0.84375q0.90625 0 1.546875 -0.46875q0.640625 -0.484375 1.015625 -1.515625zm-5.390625 -2.65625l5.40625 0q-0.109375 -1.21875 -0.625 -1.828125q-0.78125 -0.953125 -2.03125 -0.953125q-1.125 0 -1.90625 0.765625q-0.765625 0.75 -0.84375 2.015625zm8.047577 5.765625l3.53125 -5.03125l-3.265625 -4.640623l2.046875 0l1.484375 2.265623q0.421875 0.640625 0.671875 1.078125q0.40625 -0.59375 0.734375 -1.0625l1.640625 -2.281248l1.953125 0l-3.34375 4.546873l3.59375 5.125l-2.015625 0l-1.984375 -3.0l-0.515625 -0.8125l-2.546875 3.8125l-1.984375 0zm14.0 -1.46875l0.234375 1.453125q-0.6875 0.140625 -1.234375 0.140625q-0.890625 0 -1.390625 -0.28125q-0.484375 -0.28125 -0.6875 -0.734375q-0.203125 -0.46875 -0.203125 -1.9375l0 -5.578125l-1.203125 0l0 -1.2656231l1.203125 0l0 -2.390625l1.625 -0.984375l0 3.375l1.65625 0l0 1.2656231l-1.65625 0l0 5.671875q0 0.6875 0.078125 0.890625q0.09375 0.203125 0.28125 0.328125q0.203125 0.109375 0.578125 0.109375q0.265625 0 0.71875 -0.0625z" fill-rule="nonzero"/><path fill="#cfe2f3" d="m302.9029 48.711285l132.12598 0l0 80.913376l-132.12598 0z" fill-rule="evenodd"/><path stroke="#000000" stroke-width="1.0" stroke-linejoin="round" stroke-linecap="butt" d="m302.9029 48.711285l132.12598 0l0 80.913376l-132.12598 0z" fill-rule="evenodd"/><path fill="#000000" d="m335.0372 89.90048q-0.5 0.65625 -0.875 1.3125l2.84375 0q0 -0.8125 -0.0625 -1.90625l1.453125 0q-0.078125 0.875 -0.078125 1.90625l3.0 0q0.796875 0 1.8125 -0.078125l0 1.234375q-1.015625 -0.078125 -1.8125 -0.078125l-3.0 0l0 1.53125l2.265625 0q0.796875 0 1.59375 -0.0625l0 1.234375q-0.796875 -0.078125 -1.59375 -0.078125l-2.265625 0l0 1.75l4.671875 0q0.71875 0 1.890625 -0.0625l0 1.234375q-1.171875 -0.078125 -1.828125 -0.078125l-9.90625 0q-1.3125 0 -2.40625 0.078125l0 -1.234375q1.171875 0.0625 2.40625 0.0625l3.859375 0l0 -1.75l-1.890625 0q-0.515625 0 -1.609375 0.078125l0 -1.234375q0.953125 0.0625 1.609375 0.0625l1.890625 0l0 -1.53125l-3.421875 0q-0.359375 0.4375 -1.171875 1.75q-0.578125 -0.359375 -1.15625 -0.65625q0.796875 -0.875 1.34375 -1.734375q0.546875 -0.875 1.0625 -2.265625q0.578125 0.21875 1.375 0.515625zm6.28125 -2.046875q1.375 0 2.765625 -0.140625l0 1.3125q-1.3125 -0.078125 -2.625 -0.078125l-10.28125 0q0 1.609375 -0.078125 2.921875q-0.0625 1.296875 -0.28125 2.390625q-0.21875 1.09375 -0.515625 2.0q-0.28125 0.921875 -0.578125 1.71875q-0.796875 -0.4375 -1.609375 -0.5q0.4375 -0.59375 0.734375 -1.328125q0.296875 -0.71875 0.515625 -1.546875q0.21875 -0.84375 0.28125 -3.140625q0.078125 -2.296875 0 -3.609375l11.671875 0zm0.359375 -5.109375q1.015625 0 2.03125 -0.0625l0 1.3125q-1.09375 -0.078125 -2.109375 -0.078125l-9.765625 0q-1.234375 0 -2.1875 0.078125l0 -1.3125q0.953125 0.0625 2.1875 0.0625l9.84375 0zm-1.09375 2.1875q-0.515625 0.078125 -1.140625 0.34375q-0.609375 0.25 -1.125 0.46875q2.1875 0.65625 3.28125 1.015625q-0.4375 0.359375 -0.796875 0.875q-0.734375 -0.296875 -1.609375 -0.578125q-0.875 -0.296875 -2.109375 -0.65625q-1.09375 0.4375 -2.234375 0.6875q-1.125 0.25 -2.578125 0.546875q-0.140625 -0.4375 -0.65625 -1.09375q1.015625 0 2.109375 -0.21875l2.1875 -0.4375q-0.65625 -0.21875 -1.421875 -0.5q-0.765625 -0.296875 -1.703125 -0.515625q0.21875 -0.296875 0.71875 -0.8125q0.953125 0.296875 1.75 0.59375q0.8125 0.28125 1.828125 0.65625q0.65625 -0.21875 1.234375 -0.546875q0.59375 -0.328125 1.171875 -0.703125q0.4375 0.375 1.09375 0.875zm-3.71875 -4.359375q0.296875 0.875 0.65625 1.671875q-0.65625 0.140625 -1.390625 0.4375q-0.28125 -0.953125 -0.65625 -1.609375q0.734375 -0.28125 1.390625 -0.5z" fill-rule="nonzero"/><path fill="#000000" d="m352.13095 82.86923q-0.0625 0.375 -0.4375 1.71875l3.40625 0l0 -3.71875l1.421875 0q0.59375 0.078125 0.0625 0.453125l0 3.265625l6.09375 0l0 1.40625l-6.09375 0l0 3.40625l5.203125 0l0 1.421875l-5.203125 0l0 4.375l7.0625 0l0 1.40625l-16.265625 0l0 -1.40625l7.71875 0l0 -4.375l-4.96875 0l0 -1.421875l4.96875 0l0 -3.40625l-3.859375 0q-0.890625 2.296875 -2.671875 4.078125l-1.109375 -1.1875q2.671875 -2.59375 3.1875 -6.828125l1.5625 0.375q0.453125 0.140625 -0.078125 0.4375z" fill-rule="nonzero"/><path fill="#000000" d="m377.11115 96.08798l-1.640625 0l0 -10.453125q-0.59375 0.5625 -1.5625 1.140625q-0.953125 0.5625 -1.71875 0.84375l0 -1.59375q1.375 -0.640625 2.40625 -1.5625q1.03125 -0.921875 1.453125 -1.78125l1.0625 0l0 13.40625zm12.703827 -10.078125l-1.625 0.125q-0.21875 -0.96875 -0.625 -1.40625q-0.65625 -0.703125 -1.640625 -0.703125q-0.78125 0 -1.375 0.4375q-0.765625 0.5625 -1.21875 1.65625q-0.453125 1.078125 -0.46875 3.078125q0.59375 -0.890625 1.453125 -1.328125q0.859375 -0.4375 1.796875 -0.4375q1.640625 0 2.78125 1.203125q1.15625 1.203125 1.15625 3.109375q0 1.265625 -0.546875 2.34375q-0.53125 1.078125 -1.484375 1.65625q-0.9375 0.578125 -2.140625 0.578125q-2.0625 0 -3.359375 -1.5q-1.28125 -1.515625 -1.28125 -4.984375q0 -3.875 1.421875 -5.625q1.25 -1.53125 3.375 -1.53125q1.5625 0 2.5625 0.890625q1.015625 0.875 1.21875 2.4375zm-6.6875 5.75q0 0.84375 0.359375 1.625q0.359375 0.765625 1.0 1.171875q0.640625 0.40625 1.359375 0.40625q1.03125 0 1.78125 -0.828125q0.75 -0.84375 0.75 -2.28125q0 -1.390625 -0.734375 -2.1875q-0.734375 -0.796875 -1.859375 -0.796875q-1.109375 0 -1.890625 0.796875q-0.765625 0.796875 -0.765625 2.09375zm10.516357 4.328125l-1.515625 0l0 -13.359375l1.640625 0l0 4.765625q1.046875 -1.296875 2.65625 -1.296875q0.890625 0 1.6875 0.359375q0.796875 0.359375 1.3125 1.015625q0.515625 0.640625 0.796875 1.5625q0.296875 0.921875 0.296875 1.96875q0 2.484375 -1.234375 3.84375q-1.21875 1.359375 -2.953125 1.359375q-1.703125 0 -2.6875 -1.4375l0 1.21875zm-0.015625 -4.90625q0 1.734375 0.484375 2.515625q0.765625 1.265625 2.09375 1.265625q1.078125 0 1.859375 -0.9375q0.78125 -0.9375 0.78125 -2.78125q0 -1.890625 -0.75 -2.796875q-0.75 -0.90625 -1.828125 -0.90625q-1.0625 0 -1.859375 0.9375q-0.78125 0.9375 -0.78125 2.703125zm8.891327 -6.5625l0 -1.890625l1.640625 0l0 1.890625l-1.640625 0zm0 11.46875l0 -9.671875l1.640625 0l0 9.671875l-1.640625 0zm7.7229614 -1.46875l0.234375 1.453125q-0.6875 0.140625 -1.234375 0.140625q-0.890625 0 -1.390625 -0.28125q-0.484375 -0.28125 -0.6875 -0.734375q-0.203125 -0.46875 -0.203125 -1.9375l0 -5.578125l-1.203125 0l0 -1.265625l1.203125 0l0 -2.390625l1.625 -0.984375l0 3.375l1.65625 0l0 1.265625l-1.65625 0l0 5.671875q0 0.6875 0.078125 0.890625q0.09375 0.203125 0.28125 0.328125q0.203125 0.109375 0.578125 0.109375q0.265625 0 0.71875 -0.0625z" fill-rule="nonzero"/><path fill="#cfe2f3" d="m102.30446 19.955381l132.12599 0l0 28.755903l-132.12599 0z" fill-rule="evenodd"/><path stroke="#000000" stroke-width="1.0" stroke-linejoin="round" stroke-linecap="butt" d="m102.30446 19.955381l132.12599 0l0 28.755903l-132.12599 0z" fill-rule="evenodd"/><path fill="#000000" d="m114.2858 41.25333l0 -13.359373l2.65625 0l3.15625 9.453123q0.4375 1.328125 0.640625 1.984375q0.234375 -0.734375 0.703125 -2.140625l3.203125 -9.296873l2.375 0l0 13.359373l-1.703125 0l0 -11.171873l-3.875 11.171873l-1.59375 0l-3.859375 -11.374998l0 11.374998l-1.703125 0zm22.009552 -3.109375l1.6875 0.203125q-0.40625 1.484375 -1.484375 2.3125q-1.078125 0.8125 -2.765625 0.8125q-2.125 0 -3.375 -1.296875q-1.234375 -1.3125 -1.234375 -3.671875q0 -2.453125 1.25 -3.796875q1.265625 -1.3437481 3.265625 -1.3437481q1.9375 0 3.15625 1.3281231q1.234375 1.3125 1.234375 3.703125q0 0.15625 0 0.4375l-7.21875 0q0.09375 1.59375 0.90625 2.453125q0.8125 0.84375 2.015625 0.84375q0.90625 0 1.546875 -0.46875q0.640625 -0.484375 1.015625 -1.515625zm-5.390625 -2.65625l5.40625 0q-0.109375 -1.21875 -0.625 -1.828125q-0.78125 -0.953125 -2.03125 -0.953125q-1.125 0 -1.90625 0.765625q-0.765625 0.75 -0.84375 2.015625zm15.406967 5.765625l0 -1.21875q-0.90625 1.4375 -2.703125 1.4375q-1.15625 0 -2.125 -0.640625q-0.96875 -0.640625 -1.5 -1.78125q-0.53125 -1.140625 -0.53125 -2.625q0 -1.453125 0.484375 -2.625q0.484375 -1.1875 1.4375 -1.8124981q0.96875 -0.625 2.171875 -0.625q0.875 0 1.546875 0.375q0.6875 0.3593731 1.109375 0.9531231l0 -4.796873l1.640625 0l0 13.359373l-1.53125 0zm-5.171875 -4.828125q0 1.859375 0.78125 2.78125q0.78125 0.921875 1.84375 0.921875q1.078125 0 1.828125 -0.875q0.75 -0.890625 0.75 -2.6875q0 -1.984375 -0.765625 -2.90625q-0.765625 -0.9375 -1.890625 -0.9375q-1.078125 0 -1.8125 0.890625q-0.734375 0.890625 -0.734375 2.8125zm9.281967 -6.640623l0 -1.890625l1.640625 0l0 1.890625l-1.640625 0zm0 11.468748l0 -9.671873l1.640625 0l0 9.671873l-1.640625 0zm10.457321 -1.1875q-0.921875 0.765625 -1.765625 1.09375q-0.828125 0.3125 -1.796875 0.3125q-1.59375 0 -2.453125 -0.78125q-0.859375 -0.78125 -0.859375 -1.984375q0 -0.71875 0.328125 -1.296875q0.328125 -0.59375 0.84375 -0.9375q0.53125 -0.359375 1.1875 -0.546875q0.46875 -0.125 1.453125 -0.25q1.984375 -0.234375 2.921875 -0.5625q0.015625 -0.34375 0.015625 -0.421875q0 -1.0 -0.46875 -1.421875q-0.625 -0.546875 -1.875 -0.546875q-1.15625 0 -1.703125 0.40625q-0.546875 0.40625 -0.8125 1.421875l-1.609375 -0.21875q0.21875 -1.015625 0.71875 -1.640625q0.5 -0.640625 1.453125 -0.9843731q0.953125 -0.34375 2.1875 -0.34375q1.25 0 2.015625 0.296875q0.78125 0.28125 1.140625 0.7343731q0.375 0.4375 0.515625 1.109375q0.078125 0.421875 0.078125 1.515625l0 2.1875q0 2.28125 0.109375 2.890625q0.109375 0.59375 0.40625 1.15625l-1.703125 0q-0.265625 -0.515625 -0.328125 -1.1875zm-0.140625 -3.671875q-0.890625 0.375 -2.671875 0.625q-1.015625 0.140625 -1.4375 0.328125q-0.421875 0.1875 -0.65625 0.53125q-0.21875 0.34375 -0.21875 0.78125q0 0.65625 0.5 1.09375q0.5 0.4375 1.453125 0.4375q0.9375 0 1.671875 -0.40625q0.75 -0.421875 1.09375 -1.140625q0.265625 -0.5625 0.265625 -1.640625l0 -0.609375zm3.8132172 0.5625l1.65625 -0.140625q0.125 1.0 0.546875 1.640625q0.4375 0.640625 1.34375 1.046875q0.921875 0.390625 2.0625 0.390625q1.0 0 1.78125 -0.296875q0.78125 -0.296875 1.15625 -0.8125q0.375 -0.53125 0.375 -1.15625q0 -0.625 -0.375 -1.09375q-0.359375 -0.46875 -1.1875 -0.796875q-0.546875 -0.203125 -2.390625 -0.640625q-1.828125 -0.453125 -2.5625 -0.84375q-0.96875 -0.5 -1.4375 -1.234375q-0.46875 -0.75 -0.46875 -1.6718731q0 -1.0 0.578125 -1.875q0.578125 -0.890625 1.671875 -1.34375q1.109375 -0.453125 2.453125 -0.453125q1.484375 0 2.609375 0.484375q1.140625 0.46875 1.75 1.40625q0.609375 0.921875 0.65625 2.09375l-1.6875 0.125q-0.140625 -1.265625 -0.9375 -1.90625q-0.78125 -0.65625 -2.3125 -0.65625q-1.609375 0 -2.34375 0.59375q-0.734375 0.59375 -0.734375 1.421875q0 0.71875 0.53125 1.1718731q0.5 0.46875 2.65625 0.96875q2.15625 0.484375 2.953125 0.84375q1.171875 0.53125 1.71875 1.359375q0.5625 0.828125 0.5625 1.90625q0 1.0625 -0.609375 2.015625q-0.609375 0.9375 -1.75 1.46875q-1.140625 0.515625 -2.578125 0.515625q-1.8125 0 -3.046875 -0.53125q-1.21875 -0.53125 -1.921875 -1.59375q-0.6875 -1.0625 -0.71875 -2.40625zm16.412323 2.828125l0.234375 1.453125q-0.6875 0.140625 -1.234375 0.140625q-0.890625 0 -1.390625 -0.28125q-0.484375 -0.28125 -0.6875 -0.734375q-0.203125 -0.46875 -0.203125 -1.9375l0 -5.578125l-1.203125 0l0 -1.2656231l1.203125 0l0 -2.390625l1.625 -0.984375l0 3.375l1.65625 0l0 1.2656231l-1.65625 0l0 5.671875q0 0.6875 0.078125 0.890625q0.09375 0.203125 0.28125 0.328125q0.203125 0.109375 0.578125 0.109375q0.265625 0 0.71875 -0.0625zm1.5895538 1.46875l0 -9.671873l1.46875 0l0 1.4687481q0.5625 -1.03125 1.03125 -1.3593731q0.484375 -0.328125 1.0625 -0.328125q0.828125 0 1.6875 0.53125l-0.5625 1.5156231q-0.609375 -0.359375 -1.203125 -0.359375q-0.546875 0 -0.96875 0.328125q-0.421875 0.328125 -0.609375 0.890625q-0.28125 0.875 -0.28125 1.921875l0 5.0625l-1.625 0zm12.853302 -3.109375l1.6875 0.203125q-0.40625 1.484375 -1.484375 2.3125q-1.078125 0.8125 -2.765625 0.8125q-2.125 0 -3.375 -1.296875q-1.234375 -1.3125 -1.234375 -3.671875q0 -2.453125 1.25 -3.796875q1.265625 -1.3437481 3.265625 -1.3437481q1.9375 0 3.15625 1.3281231q1.234375 1.3125 1.234375 3.703125q0 0.15625 0 0.4375l-7.21875 0q0.09375 1.59375 0.90625 2.453125q0.8125 0.84375 2.015625 0.84375q0.90625 0 1.546875 -0.46875q0.640625 -0.484375 1.015625 -1.515625zm-5.390625 -2.65625l5.40625 0q-0.109375 -1.21875 -0.625 -1.828125q-0.78125 -0.953125 -2.03125 -0.953125q-1.125 0 -1.90625 0.765625q-0.765625 0.75 -0.84375 2.015625zm15.453842 4.578125q-0.921875 0.765625 -1.765625 1.09375q-0.828125 0.3125 -1.796875 0.3125q-1.59375 0 -2.453125 -0.78125q-0.859375 -0.78125 -0.859375 -1.984375q0 -0.71875 0.328125 -1.296875q0.328125 -0.59375 0.84375 -0.9375q0.53125 -0.359375 1.1875 -0.546875q0.46875 -0.125 1.453125 -0.25q1.984375 -0.234375 2.921875 -0.5625q0.015625 -0.34375 0.015625 -0.421875q0 -1.0 -0.46875 -1.421875q-0.625 -0.546875 -1.875 -0.546875q-1.15625 0 -1.703125 0.40625q-0.546875 0.40625 -0.8125 1.421875l-1.609375 -0.21875q0.21875 -1.015625 0.71875 -1.640625q0.5 -0.640625 1.453125 -0.9843731q0.953125 -0.34375 2.1875 -0.34375q1.25 0 2.015625 0.296875q0.78125 0.28125 1.140625 0.7343731q0.375 0.4375 0.515625 1.109375q0.078125 0.421875 0.078125 1.515625l0 2.1875q0 2.28125 0.109375 2.890625q0.109375 0.59375 0.40625 1.15625l-1.703125 0q-0.265625 -0.515625 -0.328125 -1.1875zm-0.140625 -3.671875q-0.890625 0.375 -2.671875 0.625q-1.015625 0.140625 -1.4375 0.328125q-0.421875 0.1875 -0.65625 0.53125q-0.21875 0.34375 -0.21875 0.78125q0 0.65625 0.5 1.09375q0.5 0.4375 1.453125 0.4375q0.9375 0 1.671875 -0.40625q0.75 -0.421875 1.09375 -1.140625q0.265625 -0.5625 0.265625 -1.640625l0 -0.609375zm4.203842 4.859375l0 -9.671873l1.46875 0l0 1.3593731q0.453125 -0.71875 1.203125 -1.1406231q0.765625 -0.4375 1.71875 -0.4375q1.078125 0 1.765625 0.453125q0.6875 0.4374981 0.96875 1.2343731q1.15625 -1.6874981 2.984375 -1.6874981q1.453125 0 2.21875 0.7968731q0.78125 0.796875 0.78125 2.453125l0 6.640625l-1.640625 0l0 -6.09375q0 -0.984375 -0.15625 -1.40625q-0.15625 -0.4375 -0.578125 -0.703125q-0.421875 -0.265625 -0.984375 -0.265625q-1.015625 0 -1.6875 0.6875q-0.671875 0.671875 -0.671875 2.15625l0 5.625l-1.640625 0l0 -6.28125q0 -1.09375 -0.40625 -1.640625q-0.40625 -0.546875 -1.3125 -0.546875q-0.6875 0 -1.28125 0.359375q-0.59375 0.359375 -0.859375 1.0625q-0.25 0.703125 -0.25 2.03125l0 5.015625l-1.640625 0z" fill-rule="nonzero"/><path fill="#cfe2f3" d="m102.30446 48.711285l132.12599 0l0 80.913376l-132.12599 0z" fill-rule="evenodd"/><path stroke="#000000" stroke-width="1.0" stroke-linejoin="round" stroke-linecap="butt" d="m102.30446 48.711285l132.12599 0l0 80.913376l-132.12599 0z" fill-rule="evenodd"/><path fill="#000000" d="m132.9612 88.36923l0.59375 0.21875q0.296875 0.296875 -0.21875 0.375l-0.671875 1.328125l5.640625 0l0 1.421875l-1.921875 0q-0.59375 1.921875 -1.40625 2.890625q1.84375 0.671875 3.484375 1.640625l-0.890625 1.328125q-2.453125 -1.328125 -3.640625 -1.859375q-2.453125 1.640625 -5.71875 2.15625l-0.5156174 -1.328125q3.1249924 -0.375 4.7499924 -1.5l-1.921875 -0.8125l-0.453125 0.671875l-1.1875 -0.59375l1.484375 -2.59375l-2.21875 0l0 -1.421875l2.96875 0l0.890625 -1.921875l-4.5312424 0l0 -1.40625l3.0468674 0l-0.828125 -2.671875l-1.109375 0l0 -1.421875l3.640625 0l0 -2.078125l1.40625 0q0.59375 0.078125 0.078125 0.453125l0 1.625l4.15625 0l0 1.421875l-1.5625 0l-0.8125 2.671875l3.40625 0l0 1.40625l-5.9375 0zm0.671875 5.71875q0.75 -0.828125 1.1875 -2.375l-2.8125 0l-0.890625 1.484375l2.515625 0.890625zm-1.5625 -7.125l1.9375 0l0.734375 -2.671875l-3.484375 0l0.8125 2.671875zm-7.9374924 -6.171875l1.40625 0q0.59375 0.078125 0.078125 0.453125l0 2.890625l2.078125 0l0 1.40625l-2.078125 0l0 3.859375l1.5625 -0.515625l0.515625 1.265625l-2.078125 0.8125l0 5.875q0 1.03125 -1.03125 1.03125l-1.421875 0l-0.21875 -1.40625l0.890625 0q0.296875 0 0.296875 -0.296875l0 -4.6875l-1.265625 0.375q-0.0625 0.515625 -0.359375 0.21875l-0.59375 -1.625l2.21875 -0.59375l0 -4.3125l-2.0 0l0 -1.40625l2.0 0l0 -3.34375zm21.671867 16.484375l0 -4.671875l-3.703125 1.328125q-0.234375 0.75 -0.53125 0.15625l-0.734375 -1.484375l1.484375 -0.453125l0 -9.203125l1.40625 0q0.59375 0.078125 0.078125 0.453125l0 8.3125l2.0 -0.671875l0 -9.875l1.40625 0q0.59375 0.078125 0.078125 0.453125l0 15.65625l-1.484375 0zm6.984375 -5.71875q1.25 -2.15625 1.625 -4.96875l-3.265625 0q0.375 2.96875 1.640625 4.96875zm-5.125 -2.21875q2.453125 -2.828125 3.40625 -8.3125l1.1875 0.21875q0.890625 0.21875 0.078125 0.515625q-0.296875 1.34375 -0.890625 3.421875l6.15625 0l0 1.40625l-1.78125 0q-0.59375 3.703125 -2.140625 6.15625q1.625 1.640625 4.0 2.671875l-0.8125 1.484375q-2.296875 -1.109375 -4.078125 -2.890625q-1.78125 2.078125 -4.234375 3.125l-0.8125 -1.34375q2.8125 -1.1875 4.15625 -2.96875q-1.1875 -1.859375 -1.859375 -4.375q-0.8125 1.328125 -1.34375 1.84375l-1.03125 -0.953125zm21.375 -4.015625q0.375 0.59375 1.03125 1.1875q0.890625 -1.109375 1.5625 -2.453125l1.265625 0.375q0.59375 0.296875 -0.15625 0.515625l-0.359375 0.53125q1.40625 0.734375 3.03125 1.625l-0.65625 1.34375q-1.484375 -0.96875 -3.125 -1.9375l-0.671875 0.890625q2.53125 2.15625 5.71875 3.5625l-0.890625 1.40625q-3.484375 -1.546875 -6.75 -4.96875l0 1.78125l-1.484375 0l0 -1.78125q-2.828125 3.5625 -6.609375 5.34375l-0.734375 -1.265625q2.890625 -1.25 5.109375 -3.484375l-1.40625 -1.109375q-0.96875 1.03125 -1.78125 1.625l-0.890625 -0.890625q2.234375 -1.78125 3.1875 -3.625l1.1875 0.359375q0.59375 0.296875 -0.140625 0.453125q-0.515625 0.734375 -0.8125 1.109375l1.625 1.046875q0.75 -0.828125 1.265625 -1.640625l0 -1.484375l-6.75 0l0 -1.1875l6.75 0l0 -1.859375l1.40625 0q0.59375 0.078125 0.078125 0.453125l0 1.40625l6.90625 0l0 1.1875l-6.90625 0l0 1.484375zm3.109375 6.15625q-0.8125 1.421875 -1.78125 2.53125q2.015625 0.96875 3.9375 2.078125l-1.1875 1.1875q-1.40625 -0.890625 -3.78125 -2.15625q-2.671875 2.15625 -6.09375 2.75l-0.8125 -1.265625q3.1875 -0.4375 5.640625 -2.15625q-1.03125 -0.515625 -2.671875 -1.1875q-1.03125 0.828125 -2.21875 1.421875l-0.890625 -1.125q2.96875 -1.40625 4.96875 -4.0l1.40625 0.140625q0.59375 0.234375 -0.21875 0.53125l-0.296875 0.296875l2.890625 0l0.15625 -0.296875l1.109375 0.8125q0.59375 0.375 -0.15625 0.4375zm-5.78125 0.890625q1.5625 0.53125 2.75 1.125q0.890625 -0.890625 1.484375 -1.78125l-3.421875 0l-0.8125 0.65625zm22.1875 -1.1875l-2.453125 0l0 0.671875q0 4.90625 -6.59375 5.796875l-0.453125 -1.640625q5.5625 -0.375 5.5625 -4.15625l0 -0.671875l-1.25 0l0 0.75l-1.484375 0l0 -5.859375l4.671875 0l0 -1.71875l-6.828125 0l0 -1.40625l6.828125 0l0 -2.21875l1.40625 0q0.59375 0.0625 0.078125 0.4375l0 1.78125l6.90625 0l0 1.40625l-6.90625 0l0 1.71875l4.828125 0l0 5.703125l-1.484375 0l0 -0.59375l-1.34375 0l0 3.9375q0 0.59375 0.515625 0.59375l2.234375 0q0.8125 0 0.96875 -0.734375l0.21875 -1.046875l1.625 0.375l-0.359375 1.40625q-0.375 1.421875 -1.71875 1.421875l-3.703125 0q-1.265625 0 -1.265625 -1.34375l0 -4.609375zm2.828125 -3.921875l-8.015625 0l0 2.734375l8.015625 0l0 -2.734375zm9.859375 7.859375l4.015625 -0.140625l0 -2.96875l-1.640625 0l0 1.1875l-1.25 0l0 -5.71875l2.890625 0l0 -1.40625l-3.046875 0.0625l-0.4375 -1.40625q4.296875 0.078125 7.1875 -0.515625l0.96875 1.328125q0.078125 0.53125 -0.4375 0.234375l-2.96875 0.21875l0 1.484375l2.96875 0l0 4.53125l-2.96875 0l0 2.890625l2.296875 -0.21875l-1.109375 -1.421875l1.1875 -0.8125q1.546875 1.640625 2.59375 3.484375l-1.40625 0.90625l-0.671875 -1.125l-7.28125 0.96875q-0.0625 0.515625 -0.359375 0.21875l-0.53125 -1.78125zm11.734375 -1.109375q0.671875 1.625 0.890625 -1.1875l1.328125 1.109375q-0.296875 2.53125 -0.890625 2.96875q-1.25 0.96875 -2.59375 -1.921875q-0.890625 -1.9375 -0.890625 -5.578125l0 -6.234375l-9.640625 0l0 8.09375q0 3.5625 -2.53125 6.171875l-1.03125 -1.421875q2.078125 -1.921875 2.078125 -5.125l0 -9.125l12.609375 0l0 7.578125q0 3.03125 0.671875 4.671875zm-4.75 -5.34375l-1.703125 0l0 2.15625l1.703125 0l0 -2.15625zm-2.96875 0l-1.640625 0l0 2.15625l1.640625 0l0 -2.15625z" fill-rule="nonzero"/><path fill="#cfe2f3" d="m302.9029 196.83202l132.12598 0l0 28.755905l-132.12598 0z" fill-rule="evenodd"/><path stroke="#000000" stroke-width="1.0" stroke-linejoin="round" stroke-linecap="butt" d="m302.9029 196.83202l132.12598 0l0 28.755905l-132.12598 0z" fill-rule="evenodd"/><path fill="#000000" d="m333.5174 213.8331l1.65625 -0.140625q0.125 1.0 0.546875 1.640625q0.4375 0.640625 1.34375 1.046875q0.921875 0.390625 2.0625 0.390625q1.0 0 1.78125 -0.296875q0.78125 -0.296875 1.15625 -0.8125q0.375 -0.53125 0.375 -1.15625q0 -0.625 -0.375 -1.09375q-0.359375 -0.46875 -1.1875 -0.796875q-0.546875 -0.203125 -2.390625 -0.640625q-1.828125 -0.453125 -2.5625 -0.84375q-0.96875 -0.5 -1.4375 -1.234375q-0.46875 -0.75 -0.46875 -1.671875q0 -1.0 0.578125 -1.875q0.578125 -0.890625 1.671875 -1.34375q1.109375 -0.453125 2.453125 -0.453125q1.484375 0 2.609375 0.484375q1.140625 0.46875 1.75 1.40625q0.609375 0.921875 0.65625 2.09375l-1.6875 0.125q-0.140625 -1.265625 -0.9375 -1.90625q-0.78125 -0.65625 -2.3125 -0.65625q-1.609375 0 -2.34375 0.59375q-0.734375 0.59375 -0.734375 1.421875q0 0.71875 0.53125 1.171875q0.5 0.46875 2.65625 0.96875q2.15625 0.484375 2.953125 0.84375q1.171875 0.53125 1.71875 1.359375q0.5625 0.828125 0.5625 1.90625q0 1.0625 -0.609375 2.015625q-0.609375 0.9375 -1.75 1.46875q-1.140625 0.515625 -2.578125 0.515625q-1.8125 0 -3.046875 -0.53125q-1.21875 -0.53125 -1.921875 -1.59375q-0.6875 -1.0625 -0.71875 -2.40625zm12.818573 4.296875l0 -9.671875l1.46875 0l0 1.46875q0.5625 -1.03125 1.03125 -1.359375q0.484375 -0.328125 1.0625 -0.328125q0.828125 0 1.6875 0.53125l-0.5625 1.515625q-0.609375 -0.359375 -1.203125 -0.359375q-0.546875 0 -0.96875 0.328125q-0.421875 0.328125 -0.609375 0.890625q-0.28125 0.875 -0.28125 1.921875l0 5.0625l-1.625 0zm12.540802 -3.546875l1.609375 0.21875q-0.265625 1.65625 -1.359375 2.609375q-1.078125 0.9375 -2.671875 0.9375q-1.984375 0 -3.1875 -1.296875q-1.203125 -1.296875 -1.203125 -3.71875q0 -1.578125 0.515625 -2.75q0.515625 -1.171875 1.578125 -1.75q1.0625 -0.59375 2.3125 -0.59375q1.578125 0 2.578125 0.796875q1.0 0.796875 1.28125 2.265625l-1.59375 0.234375q-0.234375 -0.96875 -0.8125 -1.453125q-0.578125 -0.5 -1.390625 -0.5q-1.234375 0 -2.015625 0.890625q-0.78125 0.890625 -0.78125 2.8125q0 1.953125 0.75 2.84375q0.75 0.875 1.953125 0.875q0.96875 0 1.609375 -0.59375q0.65625 -0.59375 0.828125 -1.828125zm3.203125 3.546875l0 -13.359375l1.8125 0l7.015625 10.484375l0 -10.484375l1.6875 0l0 13.359375l-1.8125 0l-7.015625 -10.5l0 10.5l-1.6875 0zm12.676056 -4.84375q0 -2.6875 1.484375 -3.96875q1.25 -1.078125 3.046875 -1.078125q2.0 0 3.265625 1.3125q1.265625 1.296875 1.265625 3.609375q0 1.859375 -0.5625 2.9375q-0.5625 1.0625 -1.640625 1.65625q-1.0625 0.59375 -2.328125 0.59375q-2.03125 0 -3.28125 -1.296875q-1.25 -1.3125 -1.25 -3.765625zm1.6875 0q0 1.859375 0.796875 2.796875q0.8125 0.921875 2.046875 0.921875q1.21875 0 2.03125 -0.921875q0.8125 -0.9375 0.8125 -2.84375q0 -1.796875 -0.8125 -2.71875q-0.8125 -0.921875 -2.03125 -0.921875q-1.234375 0 -2.046875 0.921875q-0.796875 0.90625 -0.796875 2.765625zm15.563232 4.84375l0 -1.21875q-0.90625 1.4375 -2.703125 1.4375q-1.15625 0 -2.125 -0.640625q-0.96875 -0.640625 -1.5 -1.78125q-0.53125 -1.140625 -0.53125 -2.625q0 -1.453125 0.484375 -2.625q0.484375 -1.1875 1.4375 -1.8125q0.96875 -0.625 2.171875 -0.625q0.875 0 1.546875 0.375q0.6875 0.359375 1.109375 0.953125l0 -4.796875l1.640625 0l0 13.359375l-1.53125 0zm-5.171875 -4.828125q0 1.859375 0.78125 2.78125q0.78125 0.921875 1.84375 0.921875q1.078125 0 1.828125 -0.875q0.75 -0.890625 0.75 -2.6875q0 -1.984375 -0.765625 -2.90625q-0.765625 -0.9375 -1.890625 -0.9375q-1.078125 0 -1.8125 0.890625q-0.734375 0.890625 -0.734375 2.8125zm15.906952 1.71875l1.6875 0.203125q-0.40625 1.484375 -1.484375 2.3125q-1.078125 0.8125 -2.765625 0.8125q-2.125 0 -3.375 -1.296875q-1.234375 -1.3125 -1.234375 -3.671875q0 -2.453125 1.25 -3.796875q1.265625 -1.34375 3.265625 -1.34375q1.9375 0 3.15625 1.328125q1.234375 1.3125 1.234375 3.703125q0 0.15625 0 0.4375l-7.21875 0q0.09375 1.59375 0.90625 2.453125q0.8125 0.84375 2.015625 0.84375q0.90625 0 1.546875 -0.46875q0.640625 -0.484375 1.015625 -1.515625zm-5.390625 -2.65625l5.40625 0q-0.109375 -1.21875 -0.625 -1.828125q-0.78125 -0.953125 -2.03125 -0.953125q-1.125 0 -1.90625 0.765625q-0.765625 0.75 -0.84375 2.015625z" fill-rule="nonzero"/><path fill="#cfe2f3" d="m302.9029 225.58792l132.12598 0l0 80.91339l-132.12598 0z" fill-rule="evenodd"/><path stroke="#000000" stroke-width="1.0" stroke-linejoin="round" stroke-linecap="butt" d="m302.9029 225.58792l132.12598 0l0 80.91339l-132.12598 0z" fill-rule="evenodd"/><path fill="#000000" d="m348.55963 274.074l-8.015625 0q-3.9375 0 -6.3125 -3.265625q-0.375 2.3125 -1.265625 3.796875l-1.40625 -0.96875q1.640625 -2.75 1.484375 -7.28125l1.640625 0.21875q0.21875 0.234375 -0.15625 0.453125q0 0.890625 -0.078125 1.859375q0.296875 0.8125 1.421875 1.921875l0 -5.5625l-3.796875 0l0 -1.40625l3.796875 0l0 -2.453125l-3.046875 0l0 -1.40625l3.046875 0l0 -2.375l1.40625 0q0.59375 0.0625 0.078125 0.4375l0 1.9375l2.890625 0l0 1.40625l-2.890625 0l0 2.453125l3.40625 0l0 1.40625l-3.40625 0l0 2.453125l2.671875 0l0 1.40625l-2.671875 0l0 2.75q1.484375 0.8125 3.5625 0.8125l8.15625 0l-0.515625 1.40625zm-0.671875 -15.28125l0 6.96875l-1.484375 0l0 -0.734375l-3.5625 0l0 4.375q0 0.59375 0.515625 0.59375l3.125 0q0.515625 0 0.59375 -0.453125l0.21875 -1.40625l1.5625 0.296875l-0.21875 1.40625q-0.234375 1.5625 -1.78125 1.5625l-4.15625 0q-1.34375 0 -1.34375 -1.265625l0 -6.53125l5.046875 0l0 -3.40625l-5.421875 0l0 -1.40625l6.90625 0zm10.90625 6.671875q-0.359375 0.453125 -0.4375 0l-0.375 -1.5625l1.34375 0q0.8125 -2.375 1.703125 -6.234375l1.78125 0.53125q0.4375 0.359375 -0.296875 0.515625q-0.890625 2.671875 -1.78125 5.125l4.453125 -0.296875q-0.671875 -1.125 -1.5625 -2.3125l1.265625 -0.59375q1.703125 1.859375 3.046875 4.53125l-1.484375 0.75l-0.59375 -1.1875l-7.0625 0.734375zm-4.375 -2.671875q-0.375 2.375 -0.96875 4.609375q0.890625 0.59375 1.78125 1.1875q0.53125 -1.859375 0.828125 -5.796875l-1.640625 0zm2.0 6.609375q0.59375 0.4375 1.484375 1.1875l-0.8125 1.5625q-0.515625 -0.59375 -1.328125 -1.265625q-1.1875 1.921875 -3.5 3.421875l-0.953125 -1.1875q2.140625 -1.421875 3.328125 -3.203125q-0.8125 -0.59375 -1.625 -1.265625l-0.375 0.96875l-1.328125 -0.59375q1.109375 -2.75 1.703125 -6.234375l-1.78125 0l0 -1.40625l2.0 0q0.21875 -1.703125 0.453125 -3.484375l1.328125 0.296875q0.75 0.21875 0 0.515625q-0.140625 1.328125 -0.375 2.671875l1.71875 0l0.296875 -0.296875l1.109375 0.734375l-0.21875 0.296875q-0.296875 4.828125 -1.125 7.28125zm8.6875 4.15625l-4.671875 0l0 0.96875l-1.484375 0l0 -7.578125l7.640625 0l0 7.28125l-1.484375 0l0 -0.671875zm0 -1.40625l0 -3.796875l-4.671875 0l0 3.796875l4.671875 0zm5.203125 0.140625l1.546875 -0.140625l0 -8.84375l5.9375 0l0 5.9375l-4.671875 0l0 2.671875l2.890625 -0.515625l-0.890625 -0.96875l1.125 -0.734375q1.40625 1.328125 2.515625 3.046875l-1.328125 0.890625l-0.75 -1.125q-2.15625 0.671875 -5.265625 1.34375q-0.21875 0.453125 -0.453125 0.21875l-0.65625 -1.78125zm13.5 -1.109375q0.296875 0 0.296875 -0.296875l0 -6.15625l-3.265625 0l0 9.875l-1.484375 0l0 -11.296875l6.234375 0l0 8.25q0 1.03125 -1.03125 1.03125l-1.78125 0l-0.296875 -1.40625l1.328125 0zm-2.96875 -11.734375l5.859375 0l0 1.421875l-3.625 0l0.890625 1.328125l-1.640625 0.453125l-0.8125 -1.78125l-1.1875 0q-0.375 1.03125 -1.484375 2.515625l-1.046875 -1.109375q1.421875 -1.9375 2.078125 -4.828125l1.5625 0.453125q0.296875 0.296875 -0.21875 0.359375l-0.375 1.1875zm-6.375 1.421875l-1.5625 0q-0.96875 1.78125 -2.0 2.734375l-1.046875 -1.109375q1.78125 -1.78125 2.75 -4.828125l1.484375 0.375q0.296875 0.296875 -0.21875 0.375l-0.375 1.03125l4.828125 0l0 1.421875l-2.53125 0l0.75 1.484375l-1.5625 0.359375l-0.515625 -1.84375zm2.078125 6.0l-3.421875 0l0 1.1875l3.421875 0l0 -1.1875zm0 -2.375l-3.421875 0l0 1.1875l3.421875 0l0 -1.1875zm20.703125 6.234375q0.734375 1.5625 0.96875 2.75l-1.1875 0.375q-0.296875 -1.40625 -0.96875 -2.890625l1.1875 -0.234375zm-2.0 0.234375q0.359375 1.40625 0.65625 2.890625l-1.25 0.296875q-0.296875 -1.640625 -0.59375 -3.046875l1.1875 -0.140625zm-2.078125 0.21875q0.21875 1.703125 0.296875 2.96875l-1.34375 0q0 -1.109375 -0.078125 -2.96875l1.125 0zm-4.09375 3.046875q0.671875 -1.421875 1.046875 -3.203125l1.109375 0.234375q-0.375 2.15625 -0.890625 3.34375l-1.265625 -0.375zm9.28125 -5.421875l0 1.1875l-8.53125 0.515625q-0.375 0.671875 -0.515625 -0.078125l-0.296875 -1.328125l3.921875 -0.078125l0 -1.5625l-3.265625 0l0 -1.1875l3.265625 0l0 -1.25l-1.625 0l-1.640625 0l0 -6.984375l7.953125 0l0 6.984375l-3.421875 0l0 1.25l3.484375 0l0 1.1875l-3.484375 0l0 1.484375l4.15625 -0.140625zm-6.609375 -5.796875q-0.140625 -1.328125 -0.4375 -2.734375l0.8125 -0.234375q0.375 1.484375 0.453125 2.828125l-0.828125 0.140625zm4.15625 -2.375q-0.140625 1.125 -0.515625 2.3125l-0.890625 -0.078125q0.375 -1.34375 0.515625 -2.75l0.890625 0.078125q0.53125 0.140625 0 0.4375zm5.046875 5.421875l0 -8.234375l1.421875 0q0.59375 0.078125 0.0625 0.4375l0 2.609375l3.5625 0l0 1.40625l-3.5625 0l0 3.78125l3.265625 0l0 8.09375l-1.484375 0l0 -1.03125l-3.78125 0l0 1.328125l-1.484375 0l0 -8.390625l2.0 0zm-4.59375 -2.21875l0 -4.609375l-2.15625 0l0 4.609375l2.15625 0zm-3.421875 -4.609375l-2.0 0l0 4.609375l2.0 0l0 -4.609375zm11.28125 12.46875l0 -4.234375l-3.78125 0l0 4.234375l3.78125 0z" fill-rule="nonzero"/><path fill="#cfe2f3" d="m728.44617 196.83202l132.12604 0l0 28.755905l-132.12604 0z" fill-rule="evenodd"/><path stroke="#000000" stroke-width="1.0" stroke-linejoin="round" stroke-linecap="butt" d="m728.44617 196.83202l132.12604 0l0 28.755905l-132.12604 0z" fill-rule="evenodd"/><path fill="#000000" d="m754.4666 218.12997l0 -13.359375l4.609375 0q1.546875 0 2.375 0.203125q1.140625 0.25 1.953125 0.953125q1.0625 0.890625 1.578125 2.28125q0.53125 1.390625 0.53125 3.171875q0 1.515625 -0.359375 2.703125q-0.359375 1.171875 -0.921875 1.9375q-0.546875 0.765625 -1.203125 1.21875q-0.65625 0.4375 -1.59375 0.671875q-0.9375 0.21875 -2.140625 0.21875l-4.828125 0zm1.765625 -1.578125l2.859375 0q1.3125 0 2.0625 -0.234375q0.75 -0.25 1.203125 -0.703125q0.625 -0.625 0.96875 -1.6875q0.359375 -1.0625 0.359375 -2.578125q0 -2.09375 -0.6875 -3.21875q-0.6875 -1.125 -1.671875 -1.5q-0.703125 -0.28125 -2.28125 -0.28125l-2.8125 0l0 10.203125zm18.12915 -1.53125l1.6875 0.203125q-0.40625 1.484375 -1.484375 2.3125q-1.078125 0.8125 -2.765625 0.8125q-2.125 0 -3.375 -1.296875q-1.234375 -1.3125 -1.234375 -3.671875q0 -2.453125 1.25 -3.796875q1.265625 -1.34375 3.265625 -1.34375q1.9375 0 3.15625 1.328125q1.234375 1.3125 1.234375 3.703125q0 0.15625 0 0.4375l-7.21875 0q0.09375 1.59375 0.90625 2.453125q0.8125 0.84375 2.015625 0.84375q0.90625 0 1.546875 -0.46875q0.640625 -0.484375 1.015625 -1.515625zm-5.390625 -2.65625l5.40625 0q-0.109375 -1.21875 -0.625 -1.828125q-0.78125 -0.953125 -2.03125 -0.953125q-1.125 0 -1.90625 0.765625q-0.765625 0.75 -0.84375 2.015625zm8.485107 2.875l1.625 -0.25q0.125 0.96875 0.75 1.5q0.625 0.515625 1.75 0.515625q1.125 0 1.671875 -0.453125q0.546875 -0.46875 0.546875 -1.09375q0 -0.546875 -0.484375 -0.875q-0.328125 -0.21875 -1.671875 -0.546875q-1.8125 -0.46875 -2.515625 -0.796875q-0.6875 -0.328125 -1.046875 -0.90625q-0.359375 -0.59375 -0.359375 -1.3125q0 -0.640625 0.296875 -1.1875q0.296875 -0.5625 0.8125 -0.921875q0.375 -0.28125 1.03125 -0.46875q0.671875 -0.203125 1.421875 -0.203125q1.140625 0 2.0 0.328125q0.859375 0.328125 1.265625 0.890625q0.421875 0.5625 0.578125 1.5l-1.609375 0.21875q-0.109375 -0.75 -0.640625 -1.171875q-0.515625 -0.421875 -1.46875 -0.421875q-1.140625 0 -1.625 0.375q-0.46875 0.375 -0.46875 0.875q0 0.3125 0.1875 0.578125q0.203125 0.265625 0.640625 0.4375q0.234375 0.09375 1.4375 0.421875q1.75 0.453125 2.4375 0.75q0.6875 0.296875 1.078125 0.859375q0.390625 0.5625 0.390625 1.40625q0 0.828125 -0.484375 1.546875q-0.46875 0.71875 -1.375 1.125q-0.90625 0.390625 -2.046875 0.390625q-1.875 0 -2.875 -0.78125q-0.984375 -0.78125 -1.25 -2.328125zm13.5625 1.421875l0.234375 1.453125q-0.6875 0.140625 -1.234375 0.140625q-0.890625 0 -1.390625 -0.28125q-0.484375 -0.28125 -0.6875 -0.734375q-0.203125 -0.46875 -0.203125 -1.9375l0 -5.578125l-1.203125 0l0 -1.265625l1.203125 0l0 -2.390625l1.625 -0.984375l0 3.375l1.65625 0l0 1.265625l-1.65625 0l0 5.671875q0 0.6875 0.078125 0.890625q0.09375 0.203125 0.28125 0.328125q0.203125 0.109375 0.578125 0.109375q0.265625 0 0.71875 -0.0625zm1.7926636 1.46875l0 -13.359375l1.8125 0l7.015625 10.484375l0 -10.484375l1.6875 0l0 13.359375l-1.8125 0l-7.015625 -10.5l0 10.5l-1.6875 0zm12.676086 -4.84375q0 -2.6875 1.484375 -3.96875q1.25 -1.078125 3.046875 -1.078125q2.0 0 3.265625 1.3125q1.265625 1.296875 1.265625 3.609375q0 1.859375 -0.5625 2.9375q-0.5625 1.0625 -1.640625 1.65625q-1.0625 0.59375 -2.328125 0.59375q-2.03125 0 -3.28125 -1.296875q-1.25 -1.3125 -1.25 -3.765625zm1.6875 0q0 1.859375 0.796875 2.796875q0.8125 0.921875 2.046875 0.921875q1.21875 0 2.03125 -0.921875q0.8125 -0.9375 0.8125 -2.84375q0 -1.796875 -0.8125 -2.71875q-0.8125 -0.921875 -2.03125 -0.921875q-1.234375 0 -2.046875 0.921875q-0.796875 0.90625 -0.796875 2.765625zm15.563232 4.84375l0 -1.21875q-0.90625 1.4375 -2.703125 1.4375q-1.15625 0 -2.125 -0.640625q-0.96875 -0.640625 -1.5 -1.78125q-0.53125 -1.140625 -0.53125 -2.625q0 -1.453125 0.484375 -2.625q0.484375 -1.1875 1.4375 -1.8125q0.96875 -0.625 2.171875 -0.625q0.875 0 1.546875 0.375q0.6875 0.359375 1.109375 0.953125l0 -4.796875l1.640625 0l0 13.359375l-1.53125 0zm-5.171875 -4.828125q0 1.859375 0.78125 2.78125q0.78125 0.921875 1.84375 0.921875q1.078125 0 1.828125 -0.875q0.75 -0.890625 0.75 -2.6875q0 -1.984375 -0.765625 -2.90625q-0.765625 -0.9375 -1.890625 -0.9375q-1.078125 0 -1.8125 0.890625q-0.734375 0.890625 -0.734375 2.8125zm15.906982 1.71875l1.6875 0.203125q-0.40625 1.484375 -1.484375 2.3125q-1.078125 0.8125 -2.765625 0.8125q-2.125 0 -3.375 -1.296875q-1.234375 -1.3125 -1.234375 -3.671875q0 -2.453125 1.25 -3.796875q1.265625 -1.34375 3.265625 -1.34375q1.9375 0 3.15625 1.328125q1.234375 1.3125 1.234375 3.703125q0 0.15625 0 0.4375l-7.21875 0q0.09375 1.59375 0.90625 2.453125q0.8125 0.84375 2.015625 0.84375q0.90625 0 1.546875 -0.46875q0.640625 -0.484375 1.015625 -1.515625zm-5.390625 -2.65625l5.40625 0q-0.109375 -1.21875 -0.625 -1.828125q-0.78125 -0.953125 -2.03125 -0.953125q-1.125 0 -1.90625 0.765625q-0.765625 0.75 -0.84375 2.015625z" fill-rule="nonzero"/><path fill="#cfe2f3" d="m728.44617 225.58792l132.12604 0l0 80.91339l-132.12604 0z" fill-rule="evenodd"/><path stroke="#000000" stroke-width="1.0" stroke-linejoin="round" stroke-linecap="butt" d="m728.44617 225.58792l132.12604 0l0 80.91339l-132.12604 0z" fill-rule="evenodd"/><path fill="#000000" d="m759.77484 268.21463q0.515625 0.140625 0 0.4375q0 2.53125 -0.671875 4.46875l-1.484375 -0.671875q0.671875 -2.15625 0.59375 -4.390625l1.5625 0.15625zm4.15625 -2.078125l-1.78125 0.21875l0 8.25l-1.484375 0l0 -8.03125l-2.75 0.234375q-0.0625 0.515625 -0.359375 0.21875l-0.296875 -1.703125l1.703125 0q0.59375 -0.59375 1.109375 -1.265625q-1.265625 -1.046875 -2.59375 -1.859375l0.734375 -1.1875l0.59375 0.296875q1.421875 -2.078125 2.234375 -3.78125l1.40625 0.8125q0.296875 0.296875 -0.296875 0.375q-0.734375 1.484375 -2.21875 3.34375l1.03125 0.8125q1.1875 -1.703125 2.078125 -3.34375l1.265625 0.75q0.4375 0.296875 -0.15625 0.359375q-1.03125 1.859375 -3.484375 4.609375l2.828125 -0.15625q-0.375 -0.734375 -0.890625 -1.40625l1.25 -0.515625q1.125 1.03125 2.015625 3.34375l-1.484375 0.65625l-0.453125 -1.03125zm-0.21875 5.859375q-0.296875 -2.296875 -0.890625 -3.859375l1.328125 -0.4375q0.828125 1.40625 1.125 3.859375l-1.5625 0.4375zm8.53125 0.078125l0 -3.484375l-4.453125 0l0 3.484375l4.453125 0zm-4.453125 1.40625l0 1.046875l-1.484375 0l0 -7.359375l7.421875 0l0 7.140625l-1.484375 0l0 -0.828125l-4.453125 0zm2.828125 -9.421875l3.40625 0l0 1.40625l-8.15625 0l0 -1.40625l3.265625 0l0 -2.296875l-3.859375 0l0 -1.421875l3.859375 0l0 -2.671875l1.40625 0q0.59375 0.078125 0.078125 0.453125l0 2.21875l3.921875 0l0 1.421875l-3.921875 0l0 2.296875zm22.328064 10.015625q-4.218689 -1.40625 -7.265564 -4.671875l0 5.046875l-1.484375 0l0 -4.90625q-3.125 3.265625 -7.046875 4.53125l-0.671875 -1.703125q4.296875 -1.109375 7.265625 -4.3125l-3.1875 0l0 0.671875l-1.484375 0l0 -5.640625l5.125 0l0 -1.703125l-7.28125 0l0 -1.40625l7.28125 0l0 -2.3125l1.40625 0q0.59375 0.078125 0.078125 0.453125l0 1.859375l7.124939 0l0 1.40625l-7.124939 0l0 1.703125l5.125 0l0 5.640625l-1.484375 0l0 -0.671875l-3.203125 0q3.203125 3.125 7.499939 4.3125l-0.671875 1.703125zm-8.749939 -7.421875l0 -2.15625l-3.640625 0l0 2.15625l3.640625 0zm5.125 0l0 -2.15625l-3.640625 0l0 2.15625l3.640625 0zm6.531189 5.640625l1.546875 -0.140625l0 -8.84375l5.9375 0l0 5.9375l-4.671875 0l0 2.671875l2.890625 -0.515625l-0.890625 -0.96875l1.125 -0.734375q1.40625 1.328125 2.515625 3.046875l-1.328125 0.890625l-0.75 -1.125q-2.15625 0.671875 -5.265625 1.34375q-0.21875 0.453125 -0.453125 0.21875l-0.65625 -1.78125zm13.5 -1.109375q0.296875 0 0.296875 -0.296875l0 -6.15625l-3.265625 0l0 9.875l-1.484375 0l0 -11.296875l6.234375 0l0 8.25q0 1.03125 -1.03125 1.03125l-1.78125 0l-0.296875 -1.40625l1.328125 0zm-2.96875 -11.734375l5.859375 0l0 1.421875l-3.625 0l0.890625 1.328125l-1.640625 0.453125l-0.8125 -1.78125l-1.1875 0q-0.375 1.03125 -1.484375 2.515625l-1.046875 -1.109375q1.421875 -1.9375 2.078125 -4.828125l1.5625 0.453125q0.296875 0.296875 -0.21875 0.359375l-0.375 1.1875zm-6.375 1.421875l-1.5625 0q-0.96875 1.78125 -2.0 2.734375l-1.046875 -1.109375q1.78125 -1.78125 2.75 -4.828125l1.484375 0.375q0.296875 0.296875 -0.21875 0.375l-0.375 1.03125l4.828125 0l0 1.421875l-2.53125 0l0.75 1.484375l-1.5625 0.359375l-0.515625 -1.84375zm2.078125 6.0l-3.421875 0l0 1.1875l3.421875 0l0 -1.1875zm0 -2.375l-3.421875 0l0 1.1875l3.421875 0l0 -1.1875zm20.703125 6.234375q0.734375 1.5625 0.96875 2.75l-1.1875 0.375q-0.296875 -1.40625 -0.96875 -2.890625l1.1875 -0.234375zm-2.0 0.234375q0.359375 1.40625 0.65625 2.890625l-1.25 0.296875q-0.296875 -1.640625 -0.59375 -3.046875l1.1875 -0.140625zm-2.078125 0.21875q0.21875 1.703125 0.296875 2.96875l-1.34375 0q0 -1.109375 -0.078125 -2.96875l1.125 0zm-4.09375 3.046875q0.671875 -1.421875 1.046875 -3.203125l1.109375 0.234375q-0.375 2.15625 -0.890625 3.34375l-1.265625 -0.375zm9.28125 -5.421875l0 1.1875l-8.53125 0.515625q-0.375 0.671875 -0.515625 -0.078125l-0.296875 -1.328125l3.921875 -0.078125l0 -1.5625l-3.265625 0l0 -1.1875l3.265625 0l0 -1.25l-1.625 0l-1.640625 0l0 -6.984375l7.953125 0l0 6.984375l-3.421875 0l0 1.25l3.484375 0l0 1.1875l-3.484375 0l0 1.484375l4.15625 -0.140625zm-6.609375 -5.796875q-0.140625 -1.328125 -0.4375 -2.734375l0.8125 -0.234375q0.375 1.484375 0.453125 2.828125l-0.828125 0.140625zm4.15625 -2.375q-0.140625 1.125 -0.515625 2.3125l-0.890625 -0.078125q0.375 -1.34375 0.515625 -2.75l0.890625 0.078125q0.53125 0.140625 0 0.4375zm5.046875 5.421875l0 -8.234375l1.421875 0q0.59375 0.078125 0.0625 0.4375l0 2.609375l3.5625 0l0 1.40625l-3.5625 0l0 3.78125l3.265625 0l0 8.09375l-1.484375 0l0 -1.03125l-3.78125 0l0 1.328125l-1.484375 0l0 -8.390625l2.0 0zm-4.59375 -2.21875l0 -4.609375l-2.15625 0l0 4.609375l2.15625 0zm-3.421875 -4.609375l-2.0 0l0 4.609375l2.0 0l0 -4.609375zm11.28125 12.46875l0 -4.234375l-3.78125 0l0 4.234375l3.78125 0z" fill-rule="nonzero"/><path fill="#000000" fill-opacity="0.0" d="m431.41208 232.02887l89.22836 0l0 38.771667l-89.22836 0z" fill-rule="evenodd"/><path fill="#000000" d="m446.88083 253.342l1.390625 0.1875q-0.234375 1.421875 -1.171875 2.234375q-0.921875 0.81251526 -2.28125 0.81251526q-1.703125 0 -2.75 -1.1093903q-1.03125 -1.125 -1.03125 -3.203125q0 -1.34375 0.4375 -2.34375q0.453125 -1.015625 1.359375 -1.515625q0.921875 -0.5 1.984375 -0.5q1.359375 0 2.21875 0.6875q0.859375 0.671875 1.09375 1.9375l-1.359375 0.203125q-0.203125 -0.828125 -0.703125 -1.25q-0.484375 -0.421875 -1.1875 -0.421875q-1.0625 0 -1.734375 0.765625q-0.65625 0.75 -0.65625 2.40625q0 1.671875 0.640625 2.4375q0.640625 0.75 1.671875 0.75q0.828125 0 1.375 -0.5q0.5625 -0.515625 0.703125 -1.578125zm2.0625 -1.109375q0 -2.296875 1.28125 -3.40625q1.078125 -0.921875 2.609375 -0.921875q1.71875 0 2.796875 1.125q1.09375 1.109375 1.09375 3.09375q0 1.59375 -0.484375 2.515625q-0.484375 0.921875 -1.40625 1.4375153q-0.90625 0.5 -2.0 0.5q-1.734375 0 -2.8125 -1.1093903q-1.078125 -1.125 -1.078125 -3.234375zm1.453125 0q0 1.59375 0.6875 2.390625q0.703125 0.796875 1.75 0.796875q1.046875 0 1.734375 -0.796875q0.703125 -0.796875 0.703125 -2.4375q0 -1.53125 -0.703125 -2.328125q-0.6875 -0.796875 -1.734375 -0.796875q-1.046875 0 -1.75 0.796875q-0.6875 0.78125 -0.6875 2.375zm7.9765625 4.1562653l0 -8.29689l1.265625 0l0 1.171875q0.90625 -1.359375 2.640625 -1.359375q0.75 0 1.375 0.265625q0.625 0.265625 0.9375 0.703125q0.3125 0.4375 0.4375 1.046875q0.078125 0.390625 0.078125 1.359375l0 5.1093903l-1.40625 0l0 -5.0468903q0 -0.859375 -0.171875 -1.28125q-0.15625 -0.4375 -0.578125 -0.6875q-0.40625 -0.25 -0.96875 -0.25q-0.90625 0 -1.5625 0.578125q-0.640625 0.5625 -0.640625 2.15625l0 4.5312653l-1.40625 0zm8.8984375 0l0 -8.29689l1.265625 0l0 1.171875q0.90625 -1.359375 2.640625 -1.359375q0.75 0 1.375 0.265625q0.625 0.265625 0.9375 0.703125q0.3125 0.4375 0.4375 1.046875q0.078125 0.390625 0.078125 1.359375l0 5.1093903l-1.40625 0l0 -5.0468903q0 -0.859375 -0.171875 -1.28125q-0.15625 -0.4375 -0.578125 -0.6875q-0.40625 -0.25 -0.96875 -0.25q-0.90625 0 -1.5625 0.578125q-0.640625 0.5625 -0.640625 2.15625l0 4.5312653l-1.40625 0zm14.5703125 -2.6718903l1.453125 0.171875q-0.34375 1.28125 -1.28125 1.984375q-0.921875 0.70314026 -2.359375 0.70314026q-1.828125 0 -2.890625 -1.1250153q-1.0625 -1.125 -1.0625 -3.140625q0 -2.09375 1.078125 -3.25q1.078125 -1.15625 2.796875 -1.15625q1.65625 0 2.703125 1.140625q1.0625 1.125 1.0625 3.171875q0 0.125 0 0.375l-6.1875 0q0.078125 1.375 0.765625 2.109375q0.703125 0.71875 1.734375 0.71875q0.78125 0 1.328125 -0.40625q0.546875 -0.40625 0.859375 -1.296875zm-4.609375 -2.28125l4.625 0q-0.09375 -1.046875 -0.53125 -1.5625q-0.671875 -0.8125 -1.734375 -0.8125q-0.96875 0 -1.640625 0.65625q-0.65625 0.640625 -0.71875 1.71875zm13.2421875 1.90625l1.390625 0.1875q-0.234375 1.421875 -1.171875 2.234375q-0.921875 0.81251526 -2.28125 0.81251526q-1.703125 0 -2.75 -1.1093903q-1.03125 -1.125 -1.03125 -3.203125q0 -1.34375 0.4375 -2.34375q0.453125 -1.015625 1.359375 -1.515625q0.921875 -0.5 1.984375 -0.5q1.359375 0 2.21875 0.6875q0.859375 0.671875 1.09375 1.9375l-1.359375 0.203125q-0.203125 -0.828125 -0.703125 -1.25q-0.484375 -0.421875 -1.1875 -0.421875q-1.0625 0 -1.734375 0.765625q-0.65625 0.75 -0.65625 2.40625q0 1.671875 0.640625 2.4375q0.640625 0.75 1.671875 0.75q0.828125 0 1.375 -0.5q0.5625 -0.515625 0.703125 -1.578125zm5.65625 1.78125l0.203125 1.2500153q-0.59375 0.125 -1.0625 0.125q-0.765625 0 -1.1875 -0.234375q-0.421875 -0.25 -0.59375 -0.64064026q-0.171875 -0.40625 -0.171875 -1.671875l0 -4.765625l-1.03125 0l0 -1.09375l1.03125 0l0 -2.0625l1.40625 -0.84375l0 2.90625l1.40625 0l0 1.09375l-1.40625 0l0 4.84375q0 0.609375 0.0625 0.78125q0.078125 0.171875 0.25 0.28125q0.171875 0.09375 0.484375 0.09375q0.234375 0 0.609375 -0.0625zm4.0703125 4.6406403q-1.171875 -1.46875 -1.984375 -3.4375q-0.796875 -1.9843903 -0.796875 -4.0937653q0 -1.859375 0.609375 -3.5625q0.703125 -1.96875 2.171875 -3.9375l1.0 0q-0.9375 1.625 -1.25 2.328125q-0.46875 1.078125 -0.75 2.25q-0.328125 1.453125 -0.328125 2.9375q0 3.75 2.328125 7.5156403l-1.0 0zm3.5625 0l-1.015625 0q2.34375 -3.7656403 2.34375 -7.5156403q0 -1.46875 -0.34375 -2.921875q-0.265625 -1.171875 -0.734375 -2.25q-0.3125 -0.703125 -1.265625 -2.34375l1.015625 0q1.46875 1.96875 2.171875 3.9375q0.59375 1.703125 0.59375 3.5625q0 2.109375 -0.8125 4.0937653q-0.796875 1.96875 -1.953125 3.4375z" fill-rule="nonzero"/><path fill="#000000" fill-opacity="0.0" d="m234.43045 89.16798l68.47244 0" fill-rule="evenodd"/><path stroke="#000000" stroke-width="1.0" stroke-linejoin="round" stroke-linecap="butt" d="m234.43045 89.16798l62.472443 0" fill-rule="evenodd"/><path fill="#000000" stroke="#000000" stroke-width="1.0" stroke-linecap="butt" d="m296.9029 90.81971l4.538086 -1.6517334l-4.538086 -1.6517334z" fill-rule="evenodd"/><path fill="#cfe2f3" d="m515.67456 196.83202l132.12598 0l0 28.755905l-132.12598 0z" fill-rule="evenodd"/><path stroke="#000000" stroke-width="1.0" stroke-linejoin="round" stroke-linecap="butt" d="m515.67456 196.83202l132.12598 0l0 28.755905l-132.12598 0z" fill-rule="evenodd"/><path fill="#000000" d="m527.2851 217.34998l4.765625 -12.40625l1.765625 0l5.078125 12.40625l-1.859375 0l-1.453125 -3.75l-5.1875 0l-1.359375 3.75l-1.75 0zm3.578125 -5.09375l4.21875 0l-1.296875 -3.4375q-0.59375 -1.5625 -0.890625 -2.5625q-0.234375 1.1875 -0.65625 2.359375l-1.375 3.640625zm9.151489 5.09375l0 -8.984375l1.375 0l0 1.28125q0.984375 -1.484375 2.859375 -1.484375q0.8125 0 1.484375 0.296875q0.6875 0.28125 1.015625 0.765625q0.34375 0.46875 0.484375 1.125q0.078125 0.421875 0.078125 1.46875l0 5.53125l-1.515625 0l0 -5.46875q0 -0.921875 -0.1875 -1.375q-0.171875 -0.46875 -0.625 -0.75q-0.453125 -0.28125 -1.0625 -0.28125q-0.96875 0 -1.671875 0.625q-0.703125 0.609375 -0.703125 2.34375l0 4.90625l-1.53125 0zm15.49646 -1.109375q-0.84375 0.71875 -1.625 1.015625q-0.78125 0.296875 -1.671875 0.296875q-1.484375 0 -2.28125 -0.71875q-0.796875 -0.734375 -0.796875 -1.859375q0 -0.65625 0.296875 -1.203125q0.3125 -0.546875 0.796875 -0.875q0.484375 -0.328125 1.09375 -0.5q0.4375 -0.109375 1.34375 -0.21875q1.84375 -0.21875 2.71875 -0.53125q0.015625 -0.3125 0.015625 -0.390625q0 -0.9375 -0.4375 -1.3125q-0.578125 -0.515625 -1.734375 -0.515625q-1.078125 0 -1.59375 0.375q-0.5 0.375 -0.75 1.328125l-1.484375 -0.203125q0.203125 -0.953125 0.65625 -1.53125q0.46875 -0.59375 1.34375 -0.90625q0.890625 -0.328125 2.046875 -0.328125q1.15625 0 1.875 0.28125q0.71875 0.265625 1.046875 0.671875q0.34375 0.40625 0.484375 1.03125q0.078125 0.390625 0.078125 1.40625l0 2.03125q0 2.125 0.09375 2.6875q0.09375 0.5625 0.390625 1.078125l-1.59375 0q-0.234375 -0.46875 -0.3125 -1.109375zm-0.125 -3.40625q-0.828125 0.34375 -2.484375 0.578125q-0.9375 0.140625 -1.328125 0.3125q-0.390625 0.171875 -0.609375 0.5q-0.203125 0.3125 -0.203125 0.71875q0 0.609375 0.453125 1.015625q0.46875 0.40625 1.359375 0.40625q0.875 0 1.5625 -0.390625q0.6875 -0.390625 1.015625 -1.046875q0.234375 -0.515625 0.234375 -1.53125l0 -0.5625zm3.87146 4.515625l0 -12.40625l1.515625 0l0 12.40625l-1.515625 0zm3.8184814 3.453125l-0.171875 -1.421875q0.5 0.140625 0.875 0.140625q0.5 0 0.796875 -0.171875q0.3125 -0.171875 0.515625 -0.484375q0.140625 -0.21875 0.453125 -1.125q0.046875 -0.125 0.140625 -0.375l-3.40625 -9.0l1.640625 0l1.875 5.203125q0.359375 0.984375 0.640625 2.078125q0.265625 -1.046875 0.625 -2.046875l1.921875 -5.234375l1.53125 0l-3.421875 9.140625q-0.546875 1.484375 -0.859375 2.03125q-0.40625 0.75 -0.9375 1.09375q-0.515625 0.359375 -1.234375 0.359375q-0.453125 0 -0.984375 -0.1875zm8.1171875 -6.140625l1.515625 -0.234375q0.125 0.90625 0.703125 1.390625q0.578125 0.484375 1.609375 0.484375q1.0625 0 1.5625 -0.421875q0.515625 -0.4375 0.515625 -1.015625q0 -0.515625 -0.453125 -0.8125q-0.3125 -0.203125 -1.5625 -0.515625q-1.671875 -0.421875 -2.328125 -0.71875q-0.640625 -0.3125 -0.984375 -0.859375q-0.328125 -0.546875 -0.328125 -1.203125q0 -0.609375 0.28125 -1.109375q0.28125 -0.515625 0.75 -0.859375q0.359375 -0.265625 0.96875 -0.4375q0.609375 -0.1875 1.3125 -0.1875q1.0625 0 1.859375 0.3125q0.796875 0.296875 1.171875 0.828125q0.390625 0.515625 0.53125 1.375l-1.484375 0.203125q-0.109375 -0.6875 -0.59375 -1.078125q-0.484375 -0.390625 -1.375 -0.390625q-1.046875 0 -1.5 0.34375q-0.4375 0.34375 -0.4375 0.8125q0 0.296875 0.171875 0.53125q0.1875 0.25 0.59375 0.40625q0.21875 0.09375 1.34375 0.390625q1.609375 0.4375 2.25 0.71875q0.640625 0.265625 1.0 0.796875q0.375 0.515625 0.375 1.296875q0 0.765625 -0.453125 1.4375q-0.4375 0.671875 -1.28125 1.046875q-0.828125 0.359375 -1.890625 0.359375q-1.75 0 -2.671875 -0.71875q-0.921875 -0.734375 -1.171875 -2.171875zm15.4296875 -0.203125l1.5625 0.1875q-0.359375 1.390625 -1.375 2.15625q-1.0 0.75 -2.5625 0.75q-1.984375 0 -3.140625 -1.203125q-1.140625 -1.21875 -1.140625 -3.421875q0 -2.265625 1.15625 -3.515625q1.171875 -1.25 3.03125 -1.25q1.8125 0 2.953125 1.234375q1.140625 1.21875 1.140625 3.4375q0 0.140625 -0.015625 0.40625l-6.703125 0q0.09375 1.484375 0.84375 2.28125q0.75 0.78125 1.875 0.78125q0.84375 0 1.4375 -0.4375q0.59375 -0.4375 0.9375 -1.40625zm-5.0 -2.46875l5.015625 0q-0.109375 -1.125 -0.578125 -1.703125q-0.734375 -0.875 -1.890625 -0.875q-1.046875 0 -1.765625 0.703125q-0.703125 0.703125 -0.78125 1.875zm8.46521 5.359375l0 -8.984375l1.375 0l0 1.359375q0.515625 -0.953125 0.953125 -1.25q0.453125 -0.3125 0.984375 -0.3125q0.78125 0 1.5625 0.484375l-0.515625 1.421875q-0.5625 -0.328125 -1.125 -0.328125q-0.5 0 -0.890625 0.296875q-0.390625 0.296875 -0.5625 0.828125q-0.265625 0.8125 -0.265625 1.78125l0 4.703125l-1.515625 0zm5.957947 0l0 -12.40625l1.6875 0l6.515625 9.734375l0 -9.734375l1.578125 0l0 12.40625l-1.6875 0l-6.515625 -9.75l0 9.75l-1.578125 0zm11.779419 -4.5q0 -2.484375 1.390625 -3.6875q1.15625 -1.0 2.8125 -1.0q1.859375 0 3.03125 1.21875q1.1875 1.203125 1.1875 3.34375q0 1.734375 -0.53125 2.734375q-0.515625 1.0 -1.515625 1.546875q-0.984375 0.546875 -2.171875 0.546875q-1.875 0 -3.046875 -1.203125q-1.15625 -1.21875 -1.15625 -3.5zm1.5625 0q0 1.734375 0.75 2.59375q0.75 0.859375 1.890625 0.859375q1.140625 0 1.890625 -0.859375q0.75 -0.875 0.75 -2.640625q0 -1.65625 -0.75 -2.515625q-0.75 -0.859375 -1.890625 -0.859375q-1.140625 0 -1.890625 0.859375q-0.75 0.84375 -0.75 2.5625zm14.46521 4.5l0 -1.140625q-0.84375 1.34375 -2.515625 1.34375q-1.0625 0 -1.96875 -0.59375q-0.90625 -0.59375 -1.40625 -1.65625q-0.484375 -1.0625 -0.484375 -2.4375q0 -1.34375 0.4375 -2.4375q0.453125 -1.09375 1.34375 -1.671875q0.90625 -0.59375 2.015625 -0.59375q0.8125 0 1.4375 0.34375q0.640625 0.34375 1.046875 0.890625l0 -4.453125l1.515625 0l0 12.40625l-1.421875 0zm-4.8125 -4.484375q0 1.71875 0.71875 2.578125q0.734375 0.859375 1.734375 0.859375q0.984375 0 1.6875 -0.8125q0.703125 -0.828125 0.703125 -2.5q0 -1.84375 -0.71875 -2.703125q-0.703125 -0.859375 -1.75 -0.859375q-1.015625 0 -1.703125 0.828125q-0.671875 0.828125 -0.671875 2.609375zm14.77771 1.59375l1.5625 0.1875q-0.359375 1.390625 -1.375 2.15625q-1.0 0.75 -2.5625 0.75q-1.984375 0 -3.140625 -1.203125q-1.140625 -1.21875 -1.140625 -3.421875q0 -2.265625 1.15625 -3.515625q1.171875 -1.25 3.03125 -1.25q1.8125 0 2.953125 1.234375q1.140625 1.21875 1.140625 3.4375q0 0.140625 -0.015625 0.40625l-6.703125 0q0.09375 1.484375 0.84375 2.28125q0.75 0.78125 1.875 0.78125q0.84375 0 1.4375 -0.4375q0.59375 -0.4375 0.9375 -1.40625zm-5.0 -2.46875l5.015625 0q-0.109375 -1.125 -0.578125 -1.703125q-0.734375 -0.875 -1.890625 -0.875q-1.046875 0 -1.765625 0.703125q-0.703125 0.703125 -0.78125 1.875z" fill-rule="nonzero"/><path fill="#cfe2f3" d="m515.67456 225.58792l132.12598 0l0 80.91339l-132.12598 0z" fill-rule="evenodd"/><path stroke="#000000" stroke-width="1.0" stroke-linejoin="round" stroke-linecap="butt" d="m515.67456 225.58792l132.12598 0l0 80.91339l-132.12598 0z" fill-rule="evenodd"/><path fill="#000000" d="m569.42505 266.09213l0 0.8125l1.1875 -0.0625l-0.5 -0.4375l0.6875 -0.3125l-1.375 0zm-2.6875 3.8125q0.8125 0.6875 1.375 1.5l-0.9375 0.9375q-0.5625 -0.9375 -1.3125 -1.625l0.875 -0.8125zm2.6875 -8.625l0 0.8125l2.6875 0l0 4.0l-1.0 0q0.875 0.6875 1.75 1.625l-0.9375 0.6875l-0.5 -0.625l-0.8125 0.0625l0 1.0l2.4375 0l0 1.0l-2.4375 0l0 2.4375q0 1.0 -0.875 1.0l-1.0 0l-0.3125 -1.1875l0.875 0q0.25 0 0.25 -0.25l0 -2.0l-4.3125 0l0 -1.0l4.3125 0l0 -1.0l-3.6875 0.1875q-0.25 0.5625 -0.4375 0.0625l-0.25 -1.125l3.1875 -0.0625l0 -0.8125l-1.3125 0l-1.3125 0l0 -4.0l2.625 0l0 -0.8125l-3.0 0l0 -1.0l3.0 0l0 -1.375l1.0 0q0.5 0.0625 0.0625 0.375l0 1.0l3.375 0l0 1.0l-3.375 0zm1.625 4.0625l0 -0.875l-1.625 0l0 0.875l1.625 0zm-2.6875 -1.625l0 -0.875l-1.5625 0l0 0.875l1.5625 0zm2.6875 0l0 -0.875l-1.625 0l0 0.875l1.625 0zm-2.6875 0.75l-1.5625 0l0 0.875l1.5625 0l0 -0.875zm-6.0 2.6875l1.0 0l0 -1.25l-1.0 0l0 1.25zm-2.0625 0l1.0 0l0 -1.25l-1.0 0l0 1.25zm0 -2.25l1.0 0l0 -1.125l-1.0 0l0 1.125zm2.0625 0l1.0 0l0 -1.125l-1.0 0l0 1.125zm2.0625 -2.125l0 5.375l-2.0625 0l0 1.125l2.5625 0l0 1.1875l-2.5625 0l0 2.8125l-1.0625 0l0 -2.8125l-2.75 0l0 -1.1875l2.75 0l0 -1.125l-1.0625 0l-1.0 0l0 -5.375l2.0625 0l0 -1.0625l-2.375 0l0 -1.1875l2.375 0l0 -1.5l1.0 0q0.5 0.0625 0.0625 0.375l0 1.125l2.5 0l0 1.1875l-2.5 0l0 1.0625l2.0625 0zm16.625 7.0q-2.125 3.0625 -5.875 3.8125l-0.5625 -1.125q3.875 -0.8125 5.6875 -3.6875l0.875 0.6875q0.3125 0.3125 -0.125 0.3125zm-0.875 -4.125q1.5 1.25 2.125 2.1875l0 -5.625l1.875 0l0.3125 -1.625l-2.875 0l0 -1.1875l6.9375 0l0 1.1875l-2.875 0l-0.3125 1.625l2.8125 0l0 8.5l-1.75 0q0.8125 0.75 2.5625 1.5l-0.5625 1.125q-1.5625 -0.625 -2.8125 -1.75l0.6875 -0.875l-2.5 0l0.625 0.8125q0.25 0.375 -0.25 0.3125q-1.3125 1.0 -3.0 1.5625l-0.625 -1.1875q1.625 -0.4375 3.0 -1.5l-1.25 0l0 -2.5l-0.6875 0.6875q-1.0 -1.375 -2.1875 -2.5l0.75 -0.75zm-2.9375 0.875q0.3125 0.25 -0.125 0.25q-0.625 1.9375 -1.8125 3.4375l-0.9375 -0.8125q1.125 -1.375 1.875 -3.5l1.0 0.625zm-0.5 -6.0q0.5 0.0625 0.0625 0.375l0 3.125l1.1875 0l0 -4.9375l1.0 0q0.5 0.0625 0.0625 0.375l0 1.75l2.25 0l0 1.0l-2.25 0l0 1.8125l2.8125 0l0 1.0l-2.8125 0l0 4.1875q0 0.9375 -0.6875 0.9375l-1.125 0l-0.25 -1.0l0.75 0q0.25 0 0.25 -0.25l0 -3.875l-3.4375 0l0 -1.0l1.1875 0l0 -3.5l1.0 0zm10.1875 9.1875l0 -1.5625l-3.375 0l0 1.5625l3.375 0zm-3.375 -2.5625l3.375 0l0 -1.375l-3.375 0l0 1.375zm0 -2.375l3.375 0l0 -1.5625l-3.375 0l0 1.5625zm17.125 4.25q-0.5625 -2.8125 -0.5625 -6.0625l-5.0 0l0 1.0625l-1.6875 0l0 4.6875q0.625 -0.1875 1.5 -0.5l0.125 1.125q-2.125 0.875 -4.0 1.4375q-0.25 0.4375 -0.4375 0.1875l-0.3125 -1.4375q0.9375 -0.25 1.875 -0.5l0 -5.0l-1.5 0l0 -1.1875l1.5 0l0 -3.3125l1.1875 0q0.5 0.0625 0.0625 0.375l0 2.9375l1.6875 0l0 -1.0625l5.0 0l0 -2.5625l1.1875 0q0.5 0.0625 0.0625 0.375l0 2.1875l1.5625 0q-0.75 -1.25 -1.0 -1.4375l1.0 -0.75q0.4375 0.4375 1.125 1.4375l-1.0 0.75l1.5 0l0 1.1875l-3.1875 0q0 2.625 0.25 4.625q0.625 -1.125 1.3125 -3.375l1.125 0.5q0.1875 0.25 -0.125 0.3125q-0.6875 2.375 -1.75 4.125q0.3125 1.25 0.875 1.8125q0.3125 0.3125 0.375 -0.125l0.25 -1.375l1.1875 0.5625l-0.4375 1.75q-0.3125 1.25 -1.25 0.9375q-1.25 -0.4375 -2.0 -2.4375q-1.5625 1.6875 -4.6875 3.0l-0.5 -1.3125q3.0625 -1.25 4.6875 -2.9375zm-5.9375 0.5625q2.5 -0.4375 4.9375 -1.375l0.0625 1.1875q-2.25 0.875 -4.375 1.4375q-0.25 0.3125 -0.3125 0.125l-0.3125 -1.375zm1.8125 -1.8125l0 0.3125l-1.0625 0l0 -3.875l3.875 0l0 3.5625l-2.8125 0zm1.75 -1.0l0 -1.5625l-1.75 0l0 1.5625l1.75 0z" fill-rule="nonzero"/><path fill="#000000" fill-opacity="0.0" d="m435.02887 266.04462l80.66144 0" fill-rule="evenodd"/><path stroke="#000000" stroke-width="1.0" stroke-linejoin="round" stroke-linecap="butt" d="m435.02887 266.04462l74.66141 0" fill-rule="evenodd"/><path fill="#000000" stroke="#000000" stroke-width="1.0" stroke-linecap="butt" d="m509.69028 267.69635l4.5381165 -1.6517334l-4.5381165 -1.6517334z" fill-rule="evenodd"/><path fill="#000000" fill-opacity="0.0" d="m647.80054 266.04462l80.66138 0" fill-rule="evenodd"/><path stroke="#000000" stroke-width="1.0" stroke-linejoin="round" stroke-linecap="butt" d="m647.80054 266.04462l74.66138 0" fill-rule="evenodd"/><path fill="#000000" stroke="#000000" stroke-width="1.0" stroke-linecap="butt" d="m722.4619 267.69635l4.538147 -1.6517334l-4.538147 -1.6517334z" fill-rule="evenodd"/><path fill="#000000" fill-opacity="0.0" d="m644.967 232.02887l89.22833 0l0 38.771667l-89.22833 0z" fill-rule="evenodd"/><path fill="#000000" d="m660.4357 253.342l1.390625 0.1875q-0.234375 1.421875 -1.171875 2.234375q-0.921875 0.81251526 -2.28125 0.81251526q-1.703125 0 -2.75 -1.1093903q-1.03125 -1.125 -1.03125 -3.203125q0 -1.34375 0.4375 -2.34375q0.453125 -1.015625 1.359375 -1.515625q0.921875 -0.5 1.984375 -0.5q1.359375 0 2.21875 0.6875q0.859375 0.671875 1.09375 1.9375l-1.359375 0.203125q-0.203125 -0.828125 -0.703125 -1.25q-0.484375 -0.421875 -1.1875 -0.421875q-1.0625 0 -1.734375 0.765625q-0.65625 0.75 -0.65625 2.40625q0 1.671875 0.640625 2.4375q0.640625 0.75 1.671875 0.75q0.828125 0 1.375 -0.5q0.5625 -0.515625 0.703125 -1.578125zm2.0625 -1.109375q0 -2.296875 1.28125 -3.40625q1.078125 -0.921875 2.609375 -0.921875q1.71875 0 2.796875 1.125q1.09375 1.109375 1.09375 3.09375q0 1.59375 -0.484375 2.515625q-0.484375 0.921875 -1.40625 1.4375153q-0.90625 0.5 -2.0 0.5q-1.734375 0 -2.8125 -1.1093903q-1.078125 -1.125 -1.078125 -3.234375zm1.453125 0q0 1.59375 0.6875 2.390625q0.703125 0.796875 1.75 0.796875q1.046875 0 1.734375 -0.796875q0.703125 -0.796875 0.703125 -2.4375q0 -1.53125 -0.703125 -2.328125q-0.6875 -0.796875 -1.734375 -0.796875q-1.046875 0 -1.75 0.796875q-0.6875 0.78125 -0.6875 2.375zm7.9765625 4.1562653l0 -8.29689l1.265625 0l0 1.171875q0.90625 -1.359375 2.640625 -1.359375q0.75 0 1.375 0.265625q0.625 0.265625 0.9375 0.703125q0.3125 0.4375 0.4375 1.046875q0.078125 0.390625 0.078125 1.359375l0 5.1093903l-1.40625 0l0 -5.0468903q0 -0.859375 -0.171875 -1.28125q-0.15625 -0.4375 -0.578125 -0.6875q-0.40625 -0.25 -0.96875 -0.25q-0.90625 0 -1.5625 0.578125q-0.640625 0.5625 -0.640625 2.15625l0 4.5312653l-1.40625 0zm8.8984375 0l0 -8.29689l1.265625 0l0 1.171875q0.90625 -1.359375 2.640625 -1.359375q0.75 0 1.375 0.265625q0.625 0.265625 0.9375 0.703125q0.3125 0.4375 0.4375 1.046875q0.078125 0.390625 0.078125 1.359375l0 5.1093903l-1.40625 0l0 -5.0468903q0 -0.859375 -0.171875 -1.28125q-0.15625 -0.4375 -0.578125 -0.6875q-0.40625 -0.25 -0.96875 -0.25q-0.90625 0 -1.5625 0.578125q-0.640625 0.5625 -0.640625 2.15625l0 4.5312653l-1.40625 0zm14.5703125 -2.6718903l1.453125 0.171875q-0.34375 1.28125 -1.28125 1.984375q-0.921875 0.70314026 -2.359375 0.70314026q-1.828125 0 -2.890625 -1.1250153q-1.0625 -1.125 -1.0625 -3.140625q0 -2.09375 1.078125 -3.25q1.078125 -1.15625 2.796875 -1.15625q1.65625 0 2.703125 1.140625q1.0625 1.125 1.0625 3.171875q0 0.125 0 0.375l-6.1875 0q0.078125 1.375 0.765625 2.109375q0.703125 0.71875 1.734375 0.71875q0.78125 0 1.328125 -0.40625q0.546875 -0.40625 0.859375 -1.296875zm-4.609375 -2.28125l4.625 0q-0.09375 -1.046875 -0.53125 -1.5625q-0.671875 -0.8125 -1.734375 -0.8125q-0.96875 0 -1.640625 0.65625q-0.65625 0.640625 -0.71875 1.71875zm13.2421875 1.90625l1.390625 0.1875q-0.234375 1.421875 -1.171875 2.234375q-0.921875 0.81251526 -2.28125 0.81251526q-1.703125 0 -2.75 -1.1093903q-1.03125 -1.125 -1.03125 -3.203125q0 -1.34375 0.4375 -2.34375q0.453125 -1.015625 1.359375 -1.515625q0.921875 -0.5 1.984375 -0.5q1.359375 0 2.21875 0.6875q0.859375 0.671875 1.09375 1.9375l-1.359375 0.203125q-0.203125 -0.828125 -0.703125 -1.25q-0.484375 -0.421875 -1.1875 -0.421875q-1.0625 0 -1.734375 0.765625q-0.65625 0.75 -0.65625 2.40625q0 1.671875 0.640625 2.4375q0.640625 0.75 1.671875 0.75q0.828125 0 1.375 -0.5q0.5625 -0.515625 0.703125 -1.578125zm5.65625 1.78125l0.203125 1.2500153q-0.59375 0.125 -1.0625 0.125q-0.765625 0 -1.1875 -0.234375q-0.421875 -0.25 -0.59375 -0.64064026q-0.171875 -0.40625 -0.171875 -1.671875l0 -4.765625l-1.03125 0l0 -1.09375l1.03125 0l0 -2.0625l1.40625 -0.84375l0 2.90625l1.40625 0l0 1.09375l-1.40625 0l0 4.84375q0 0.609375 0.0625 0.78125q0.078125 0.171875 0.25 0.28125q0.171875 0.09375 0.484375 0.09375q0.234375 0 0.609375 -0.0625zm4.0703125 4.6406403q-1.171875 -1.46875 -1.984375 -3.4375q-0.796875 -1.9843903 -0.796875 -4.0937653q0 -1.859375 0.609375 -3.5625q0.703125 -1.96875 2.171875 -3.9375l1.0 0q-0.9375 1.625 -1.25 2.328125q-0.46875 1.078125 -0.75 2.25q-0.328125 1.453125 -0.328125 2.9375q0 3.75 2.328125 7.5156403l-1.0 0zm3.5625 0l-1.015625 0q2.34375 -3.7656403 2.34375 -7.5156403q0 -1.46875 -0.34375 -2.921875q-0.265625 -1.171875 -0.734375 -2.25q-0.3125 -0.703125 -1.265625 -2.34375l1.015625 0q1.46875 1.96875 2.171875 3.9375q0.59375 1.703125 0.59375 3.5625q0 2.109375 -0.8125 4.0937653q-0.796875 1.96875 -1.953125 3.4375z" fill-rule="nonzero"/><path fill="#000000" fill-opacity="0.0" d="m368.96588 129.62466l0 67.2126" fill-rule="evenodd"/><path stroke="#000000" stroke-width="1.0" stroke-linejoin="round" stroke-linecap="butt" d="m368.96588 129.62466l0 61.2126" fill-rule="evenodd"/><path fill="#000000" stroke="#000000" stroke-width="1.0" stroke-linecap="butt" d="m367.31415 190.83727l1.6517334 4.538101l1.6517334 -4.538101z" fill-rule="evenodd"/></g></svg>