<svg version="1.1" viewBox="0.0 0.0 952.2283464566929 454.4724409448819" fill="none" stroke="none" stroke-linecap="square" stroke-miterlimit="10" xmlns:xlink="http://www.w3.org/1999/xlink" xmlns="http://www.w3.org/2000/svg"><clipPath id="p.0"><path d="m0 0l952.22833 0l0 454.47244l-952.22833 0l0 -454.47244z" clip-rule="nonzero"/></clipPath><g clip-path="url(#p.0)"><path fill="#000000" fill-opacity="0.0" d="m0 0l952.22833 0l0 454.47244l-952.22833 0z" fill-rule="evenodd"/><path fill="#ffffff" d="m5.695538 5.695538l945.3858 0l0 444.2205l-945.3858 0z" fill-rule="evenodd"/><path stroke="#ffffff" stroke-width="1.0" stroke-linejoin="round" stroke-linecap="butt" d="m5.695538 5.695538l945.3858 0l0 444.2205l-945.3858 0z" fill-rule="evenodd"/><path fill="#cfe2f3" d="m218.16405 226.62862l0 0c0 -25.657333 31.19905 -46.456696 69.68504 -46.456696l0 0c38.485962 0 69.68503 20.799362 69.68503 46.456696l0 0c0 25.657318 -31.199066 46.45668 -69.68503 46.45668l0 0c-38.485992 0 -69.68504 -20.799362 -69.68504 -46.45668z" fill-rule="evenodd"/><path stroke="#000000" stroke-width="1.0" stroke-linejoin="round" stroke-linecap="butt" d="m218.16405 226.62862l0 0c0 -25.657333 31.19905 -46.456696 69.68504 -46.456696l0 0c38.485962 0 69.68503 20.799362 69.68503 46.456696l0 0c0 25.657318 -31.199066 46.45668 -69.68503 46.45668l0 0c-38.485992 0 -69.68504 -20.799362 -69.68504 -46.45668z" fill-rule="evenodd"/><path fill="#000000" fill-opacity="0.0" d="m252.1798 202.3924l71.33858 0l0 48.472427l-71.33858 0z" fill-rule="evenodd"/><path fill="#000000" d="m279.55478 225.61989q2.15625 3.1875 4.3125 9.28125l-2.0625 1.03125l-0.75 -2.34375l-8.4375 1.6875q-0.375 0.75 -0.75 0l-0.75 -2.15625l1.59375 -0.09375q2.0625 -8.15625 3.65625 -16.6875l2.15625 0.46875q0.9375 0.1875 0.09375 0.75q-1.875 7.6875 -3.75 15.28125l5.625 -0.84375q-1.21875 -3.0 -2.625 -5.4375l1.6875 -0.9375zm-17.4375 4.96875q3.5625 -3.1875 4.96875 -7.3125l-4.3125 0l0 -1.78125l4.3125 0l0 -3.09375q-1.96875 0.28125 -3.75 0.375l-0.375 -1.78125q4.59375 -0.1875 8.71875 -1.59375l0.9375 1.6875q0.46875 0.75 -0.5625 0.375q-1.40625 0.375 -3.09375 0.65625l0 3.375l4.03125 0l0 1.78125l-4.03125 0l0 1.78125q2.15625 1.03125 4.03125 2.625l-1.21875 1.875q-1.59375 -1.59375 -2.8125 -2.34375l0 9.1875l-1.875 0l0 -9.0q-1.6875 3.09375 -3.75 4.78125l-1.21875 -1.59375zm40.3125 -8.15625q0.1875 3.5625 0 7.125q2.8125 1.03125 5.4375 2.90625l-1.125 1.78125q-1.96875 -1.5 -4.3125 -2.625q0 1.6875 -1.03125 2.71875q-1.125 1.125 -3.28125 1.125q-2.15625 0 -3.28125 -1.125q-0.9375 -0.9375 -0.9375 -2.4375q0 -1.3125 0.75 -2.0625q1.125 -1.125 3.375 -1.125q1.21875 0 2.4375 0.28125q0.1875 -3.1875 0 -6.46875l-6.9375 0.46875l0 -1.96875l6.75 -0.375q-0.09375 -2.625 -0.375 -4.6875l1.96875 0q1.03125 0.1875 0.1875 0.75q0.09375 1.96875 0.1875 3.84375l5.0625 -0.28125l0 1.96875l-4.875 0.1875zm-14.15625 12.5625q-0.375 -2.625 -0.375 -6.09375q0 -7.59375 1.125 -12.1875l2.0625 0.375q0.65625 0.28125 -0.09375 0.65625q-1.03125 3.28125 -1.03125 11.15625q0 3.5625 0.46875 5.71875l-2.15625 0.375zm12.1875 -4.125q-1.59375 -0.46875 -2.4375 -0.46875q-1.3125 0 -1.875 0.5625q-0.46875 0.46875 -0.46875 0.9375q0 0.75 0.375 1.125q0.65625 0.65625 1.96875 0.65625q1.3125 0 1.875 -0.65625q0.65625 -0.75 0.5625 -2.15625z" fill-rule="nonzero"/><path fill="#cfe2f3" d="m602.46063 66.29527l0 0c0 -25.657322 31.199036 -46.456688 69.68506 -46.456688l0 0c38.485962 0 69.685 20.799368 69.685 46.456688l0 0c0 25.657326 -31.199036 46.456696 -69.685 46.456696l0 0c-38.486023 0 -69.68506 -20.79937 -69.68506 -46.456696z" fill-rule="evenodd"/><path stroke="#000000" stroke-width="1.0" stroke-linejoin="round" stroke-linecap="butt" d="m602.46063 66.29527l0 0c0 -25.657322 31.199036 -46.456688 69.68506 -46.456688l0 0c38.485962 0 69.685 20.799368 69.685 46.456688l0 0c0 25.657326 -31.199036 46.456696 -69.685 46.456696l0 0c-38.486023 0 -69.68506 -20.79937 -69.68506 -46.456696z" fill-rule="evenodd"/><path fill="#000000" fill-opacity="0.0" d="m628.2302 42.059055l94.55121 0l0 48.47244l-94.55121 0z" fill-rule="evenodd"/><path fill="#000000" d="m655.5115 73.16155l-0.375 -2.0625l1.5 0q1.3125 0 1.03125 -2.15625q-0.375 -2.625 -2.34375 -4.59375l1.6875 -6.281246l-3.09375 0l0 18.187496l-1.875 0l0 -19.968746l5.53125 0l0.1875 -0.28125l1.6875 1.40625l-0.375 0.28125l-2.0625 6.28125q2.8125 3.0937462 2.71875 5.531246q-0.09375 3.65625 -2.53125 3.65625l-1.6875 0zm-15.09375 -6.46875l8.90625 0l0 8.53125l-1.875 0l0 -1.03125l-5.15625 0l0 1.5l-1.875 0l0 -9.0zm1.875 1.78125l0 3.9375l5.15625 0l0 -3.9375l-5.15625 0zm1.59375 -13.781246l2.0625 0q0.9375 0.1875 0.09375 0.75l0 2.0625l4.40625 0l0 1.78125l-1.3125 0l-1.3125 3.9375l3.5625 0l0 1.7812462l-12.84375 0l0 -1.7812462l3.5625 0l-1.125 -3.9375l-1.21875 0l0 -1.78125l4.125 0l0 -2.8125zm3.09375 4.59375l-3.84375 0l0.9375 3.9375l1.78125 0l1.125 -3.9375zm35.8125 16.593746q-8.0625 -1.875 -10.6875 -8.53125l-2.90625 0l0 6.1875l5.25 -0.9375l0.375 1.59375l-9.65625 1.96875q-0.09375 0.75 -0.46875 0.375l-0.65625 -2.25l3.28125 -0.46875l0 -6.46875l-4.5 0l0 -1.78125l4.5 0l0 -10.124996l13.5 0l0 1.78125l-11.625 0l0 1.40625l10.3125 0l0 1.78125l-10.3125 0l0 1.59375l10.5 0l0 1.78125l-10.5 0l0 1.7812462l14.4375 0l0 1.78125l-9.65625 0q0.5625 1.21875 2.0625 2.71875l3.0 -2.34375l1.59375 1.125q0.65625 0.46875 -0.28125 0.46875l-2.90625 1.96875q1.875 1.3125 6.46875 2.53125l-1.125 2.0625zm18.46875 -2.90625q-4.40625 0 -7.3125 -2.8125l1.21875 -1.59375q2.53125 2.4375 6.09375 2.34375l5.15625 0l0 2.0625l-5.15625 0zm-13.40625 1.78125q-0.28125 -4.875 -0.28125 -8.34375q0 -4.218746 1.03125 -10.031246l1.875 0.46875q1.03125 0.1875 0.09375 0.84375q-0.9375 5.4375 -0.9375 8.718746q0 3.65625 0.375 8.15625l-2.15625 0.1875zm17.34375 -13.874996q-4.03125 -0.09375 -10.5 0.5625l0 -1.96875q6.75 -0.65625 10.5 -0.5625l0 1.96875z" fill-rule="nonzero"/><path fill="#cfe2f3" d="m602.46063 226.62862l0 0c0 -25.657333 31.199036 -46.456696 69.68506 -46.456696l0 0c38.485962 0 69.685 20.799362 69.685 46.456696l0 0c0 25.657318 -31.199036 46.45668 -69.685 46.45668l0 0c-38.486023 0 -69.68506 -20.799362 -69.68506 -46.45668z" fill-rule="evenodd"/><path stroke="#000000" stroke-width="1.0" stroke-linejoin="round" stroke-linecap="butt" d="m602.46063 226.62862l0 0c0 -25.657333 31.199036 -46.456696 69.68506 -46.456696l0 0c38.485962 0 69.685 20.799362 69.685 46.456696l0 0c0 25.657318 -31.199036 46.45668 -69.685 46.45668l0 0c-38.486023 0 -69.68506 -20.799362 -69.68506 -46.45668z" fill-rule="evenodd"/><path fill="#000000" fill-opacity="0.0" d="m628.2297 202.3924l94.55115 0l0 48.472427l-94.55115 0z" fill-rule="evenodd"/><path fill="#000000" d="m643.1359 234.52614q4.3125 -1.03125 6.84375 -3.375q-1.96875 -2.25 -3.1875 -5.34375q-1.5 6.1875 -6.5625 9.9375l-1.21875 -1.875q5.8125 -3.84375 6.5625 -13.03125l-6.1875 0l0 -1.78125l6.375 0l0.09375 -3.9375l1.875 0.09375q0.75 0.09375 0.09375 0.5625l-0.1875 3.28125l11.53125 0l0 1.78125l-11.625 0q-0.1875 1.5 -0.375 3.0l7.21875 0l0.375 -0.375l1.5 1.21875q0.46875 0.375 -0.1875 0.46875q-1.3125 3.5625 -3.28125 6.0q3.1875 2.15625 6.75 3.0l-0.65625 2.15625q-3.65625 -0.75 -7.5 -3.75q-2.71875 2.53125 -7.59375 4.03125l-0.65625 -2.0625zm5.53125 -8.90625q0.5625 1.6875 2.71875 4.3125q1.5 -1.78125 2.34375 -4.3125l-5.0625 0zm17.71875 -5.25q-1.5 -1.96875 -2.71875 -3.09375l1.5 -1.40625q1.3125 1.125 2.8125 3.09375l-1.59375 1.40625zm-3.84375 13.59375l3.46875 -1.59375l0 -6.28125l-3.375 0l0 -1.78125l5.25 0l0 7.96875q1.96875 1.78125 5.0625 1.78125l10.96875 0l-0.375 1.78125l-11.0625 0q-3.1875 0 -5.625 -2.25l-3.1875 2.4375l-1.125 -2.0625zm14.25 -19.03125q0.75 0.09375 0.09375 0.5625l0 1.40625l5.4375 0l0 1.5l-5.4375 0l0 1.59375l6.46875 0l0 1.5l-3.1875 0l-1.3125 2.25l3.46875 0l0 1.5l-5.4375 0l0 1.5l4.6875 0l0 1.5l-4.6875 0l0 1.5l6.46875 0l0 1.5l-6.46875 0l0 2.0625l-1.875 0l0 -2.0625l-6.28125 0l0 -1.5l6.28125 0l0 -1.5l-4.59375 0l0 -1.5l4.59375 0l0 -1.5l-5.34375 0l0 -1.5l3.375 0l-1.03125 -2.25l-3.28125 0l0 -1.5l6.28125 0l0 -1.59375l-5.71875 0l0 -1.5l5.71875 0l0 -1.96875l1.78125 0zm0.28125 8.8125l1.03125 -2.25l-4.125 0l1.03125 2.25l2.0625 0zm24.1875 9.5625q-4.40625 0 -7.3125 -2.8125l1.21875 -1.59375q2.53125 2.4375 6.09375 2.34375l5.15625 0l0 2.0625l-5.15625 0zm-13.40625 1.78125q-0.28125 -4.875 -0.28125 -8.34375q0 -4.21875 1.03125 -10.03125l1.875 0.46875q1.03125 0.1875 0.09375 0.84375q-0.9375 5.4375 -0.9375 8.71875q0 3.65625 0.375 8.15625l-2.15625 0.1875zm17.34375 -13.875q-4.03125 -0.09375 -10.5 0.5625l0 -1.96875q6.75 -0.65625 10.5 -0.5625l0 1.96875z" fill-rule="nonzero"/><path fill="#cfe2f3" d="m602.46063 386.96194l0 0c0 -25.657318 31.199036 -46.456696 69.68506 -46.456696l0 0c38.485962 0 69.685 20.799377 69.685 46.456696l0 0c0 25.657318 -31.199036 46.456696 -69.685 46.456696l0 0c-38.486023 0 -69.68506 -20.799377 -69.68506 -46.456696z" fill-rule="evenodd"/><path stroke="#000000" stroke-width="1.0" stroke-linejoin="round" stroke-linecap="butt" d="m602.46063 386.96194l0 0c0 -25.657318 31.199036 -46.456696 69.68506 -46.456696l0 0c38.485962 0 69.685 20.799377 69.685 46.456696l0 0c0 25.657318 -31.199036 46.456696 -69.685 46.456696l0 0c-38.486023 0 -69.68506 -20.799377 -69.68506 -46.456696z" fill-rule="evenodd"/><path fill="#000000" fill-opacity="0.0" d="m628.2297 360.4005l94.55115 0l0 48.472443l-94.55115 0z" fill-rule="evenodd"/><path fill="#000000" d="m641.1672 376.40924l0 -1.78125l13.6875 0l0.375 -0.28125l1.78125 1.78125l-0.5625 0.28125q-3.375 3.0 -6.0 4.5l0 2.15625l9.375 0l0 2.0625l-9.375 0l0 7.3125q0 1.5 -1.5 1.5l-2.71875 0l-0.46875 -2.0625l2.15625 0q0.375 0 0.375 -0.375l0 -6.375l-9.65625 0l0 -2.0625l9.65625 0l0 -4.21875l1.78125 0.28125q1.96875 -1.21875 3.46875 -2.71875l-12.375 0zm24.1875 6.46875q-0.9375 1.5 -1.78125 2.15625l-1.125 -1.78125q3.28125 -3.9375 4.21875 -10.21875l2.0625 0.46875q0.84375 0.28125 -0.09375 0.46875q-0.65625 2.71875 -1.5 5.34375q1.3125 0.375 0.09375 0.9375l0 14.25l-1.875 0l0 -11.625zm13.40625 4.96875q1.875 3.0 4.875 4.59375l-1.40625 1.78125q-2.90625 -1.40625 -5.25 -5.25l1.78125 -1.125zm-10.78125 4.6875q3.5625 -2.15625 4.875 -4.6875l1.59375 1.03125q0.65625 0.5625 -0.1875 0.5625q-2.34375 3.09375 -5.0625 4.875l-1.21875 -1.78125zm11.15625 -19.21875q0.9375 0.1875 0.09375 0.75l0 4.21875l3.46875 0l0 1.78125l-3.46875 0l0 5.25l4.40625 0l0 1.78125l-15.375 0l0 -1.78125l3.75 0l0 -5.25l-2.90625 0l0 -1.78125l2.90625 0l0 -4.875l1.78125 0q0.9375 0.1875 0.09375 0.75l0 4.125l3.46875 0l0 -4.96875l1.78125 0zm-1.78125 6.75l-3.46875 0l0 5.25l3.46875 0l0 -5.25zm23.90625 11.25q-4.40625 0 -7.3125 -2.8125l1.21875 -1.59375q2.53125 2.4375 6.09375 2.34375l5.15625 0l0 2.0625l-5.15625 0zm-13.40625 1.78125q-0.28125 -4.875 -0.28125 -8.34375q0 -4.21875 1.03125 -10.03125l1.875 0.46875q1.03125 0.1875 0.09375 0.84375q-0.9375 5.4375 -0.9375 8.71875q0 3.65625 0.375 8.15625l-2.15625 0.1875zm17.34375 -13.875q-4.03125 -0.09375 -10.5 0.5625l0 -1.96875q6.75 -0.65625 10.5 -0.5625l0 1.96875z" fill-rule="nonzero"/><path fill="#000000" fill-opacity="0.0" d="m337.1378 193.79134l265.32285 -127.49606" fill-rule="evenodd"/><path stroke="#000000" stroke-width="1.0" stroke-linejoin="round" stroke-linecap="butt" d="m342.5458 191.19261l259.91483 -124.89734" fill-rule="evenodd"/><path fill="#000000" stroke="#000000" stroke-width="1.0" stroke-linecap="butt" d="m341.8304 189.70384l-3.374939 3.4543152l4.805725 -0.47677612z" fill-rule="evenodd"/><path fill="#000000" fill-opacity="0.0" d="m357.53412 226.62862l244.91339 0" fill-rule="evenodd"/><path stroke="#000000" stroke-width="1.0" stroke-linejoin="round" stroke-linecap="butt" d="m363.53412 226.62862l238.91339 0" fill-rule="evenodd"/><path fill="#000000" stroke="#000000" stroke-width="1.0" stroke-linecap="butt" d="m363.53412 224.97688l-4.538086 1.6517334l4.538086 1.6517181z" fill-rule="evenodd"/><path fill="#000000" fill-opacity="0.0" d="m337.12384 259.47845l265.3228 127.49606" fill-rule="evenodd"/><path stroke="#000000" stroke-width="1.0" stroke-linejoin="round" stroke-linecap="butt" d="m342.53186 262.07718l259.91486 124.89734" fill-rule="evenodd"/><path fill="#000000" stroke="#000000" stroke-width="1.0" stroke-linecap="butt" d="m343.24725 260.5884l-4.805725 -0.47677612l3.374939 3.4543152z" fill-rule="evenodd"/><path fill="#000000" fill-opacity="0.0" d="m424.11417 186.4511l139.37009 0l0 48.472443l-139.37009 0z" fill-rule="evenodd"/><path fill="#000000" d="m441.08292 213.89735q-0.1875 2.0625 0.84375 3.09375q1.03125 1.03125 2.90625 1.03125q2.4375 0 3.28125 -0.84375q0.84375 -0.84375 0.84375 -2.8125q0 -1.40625 -0.5625 -3.375l1.96875 -0.28125q0.65625 2.625 0.65625 3.5625q0 2.90625 -1.40625 4.3125q-1.5 1.5 -4.875 1.5q-2.71875 0 -4.3125 -1.59375q-1.5 -1.5 -1.3125 -4.125l0.1875 -2.8125l-4.78125 0l0 -1.78125l5.0625 0l0.375 -3.65625l-4.40625 0l0 -1.78125l4.6875 0l0.46875 -5.34375l2.0625 0.28125q1.03125 0.28125 0.1875 0.75l-0.75 4.3125l3.65625 0l0 1.78125l-3.9375 0l-0.375 3.65625l4.5 0l0 1.78125l-4.78125 0l-0.1875 2.34375zm17.53125 3.75l2.25 0q4.6875 0 5.90625 -1.21875q1.03125 -1.03125 1.03125 -2.34375q0 -1.125 -0.9375 -2.0625q-0.84375 -0.84375 -2.8125 -0.84375q-4.125 0 -7.5 4.03125l-1.875 -0.1875l1.03125 -10.03125l1.96875 0.375q0.9375 0.375 0 0.75l-0.65625 6.09375q3.28125 -2.8125 7.5 -2.8125q2.53125 0 4.03125 1.5q1.21875 1.21875 1.21875 3.1875q0 2.15625 -1.59375 3.75q-1.875 1.875 -7.125 1.875l-1.6875 0l-0.75 -2.0625zm-1.125 -17.90625q2.625 0.65625 7.125 2.25l-0.9375 1.875q-3.375 -1.40625 -7.03125 -2.4375l0.84375 -1.6875zm19.21875 18.75q3.84375 -0.84375 6.0 -3.0q1.78125 -1.78125 1.78125 -4.21875q0 -1.6875 -0.9375 -2.625q-0.84375 -0.84375 -2.15625 -0.75q-2.625 0.28125 -7.5 1.875l-1.03125 -2.4375q3.5625 -0.65625 6.65625 -1.40625q1.59375 -0.375 2.4375 -0.375q2.0625 0 3.375 1.3125q1.5 1.5 1.5 4.3125q0 3.65625 -2.53125 6.1875q-2.25 2.25 -6.09375 3.28125l-1.5 -2.15625zm7.78125 -15.375q-3.75 -0.375 -9.09375 -1.5l0.5625 -2.34375q5.25 1.21875 9.0 1.59375l-0.46875 2.25z" fill-rule="nonzero"/><path fill="#000000" fill-opacity="0.0" d="m398.93152 116.70326l128.0315 -55.05512l19.149597 44.535435l-128.0315 55.055115z" fill-rule="evenodd"/><path fill="#000000" d="m427.65018 134.12807q0.07662964 2.3141937 -0.34024048 3.7180634q-0.5761719 1.9826202 -1.7819214 2.5010986q-2.1531372 0.9258728 -4.2605896 -1.1273499q-1.2324219 -1.204895 -3.306244 -6.027939q-1.4813232 -3.4450226 -2.655182 -7.1243134l1.9938049 -0.34710693q1.1445923 -0.18603516 0.45645142 0.8242264q1.0256958 3.3347855 2.1366882 5.918556q1.5183411 3.5311584 2.5785217 4.8101196q1.0601807 1.2789612 1.9214478 0.9086151q0.9473572 -0.40737915 1.0438538 -2.0816803q0.060272217 -1.0464172 -0.027557373 -2.4373627l2.2409668 0.46507263zm0.74853516 -12.261757q5.61615 2.38134 8.958588 7.78141l-2.0661316 1.602829q-3.6257935 -5.5843887 -8.256714 -7.572998l1.3642578 -1.8112411zm30.67926 2.5232773l0.81469727 1.8947678l-3.7894897 1.6295242q-3.2727356 1.4073181 -6.867584 1.1162415l0.108551025 -1.8835754q2.7576904 0.24285889 5.9443054 -1.1274261l3.7895203 -1.6295319zm-16.218079 -4.965912q2.0040588 8.220711 2.0350037 13.514008l-2.1539612 0.21188354q-0.0077209473 -6.42585 -1.6156006 -12.775909q-1.9929199 1.0610886 -3.629303 1.7647476l-1.085144 -1.5743713q2.4114685 -1.036972 4.232147 -2.0239944q-0.8034973 -2.8180313 -1.3968811 -4.9100266l1.870636 -0.39619446q1.0584717 -0.14900208 0.46850586 0.6149368q0.18600464 1.1446152 0.79229736 3.7413101q1.8697815 -1.1101837 3.320984 -2.2444687l1.0851746 1.5743713q-2.0540771 1.3935318 -3.9238586 2.503708zm12.713715 -1.997345q-4.921173 2.3202667 -7.2448425 4.7481766l-1.2573853 -1.5003052q3.0737915 -3.056633 7.3800354 -4.908371l1.1221924 1.6604996zm20.32547 -8.740196q-4.921173 2.3202667 -7.2448425 4.748169l-1.2574158 -1.5003052q3.073822 -3.056633 7.380066 -4.908371l1.1221924 1.6605072zm3.5043335 6.963257l0.8147278 1.8947601l-3.7894897 1.6295319q-3.2727356 1.4073181 -6.867584 1.1162415l0.108551025 -1.8835754q2.7576904 0.24285126 5.9443054 -1.1274338l3.7894897 -1.6295242zm-12.294189 -7.4696198q-2.0541077 1.3935318 -3.9238586 2.503708q2.0040283 8.220703 2.0350037 13.514008l-2.1539917 0.21188354q-0.0076904297 -6.4258575 -1.6155701 -12.775909q-2.079071 1.0981216 -3.629303 1.7647476l-1.0851746 -1.574379q2.411499 -1.036972 4.2321777 -2.0239868q-0.8034973 -2.818039 -1.3968811 -4.910034l1.870636 -0.39618683q1.0584717 -0.1490097 0.46850586 0.6149368q0.18600464 1.1446075 0.79229736 3.7413025q1.8697815 -1.1101761 3.320984 -2.244461l1.0851746 1.5743713zm2.649231 -8.078629q1.7113037 0.18257141 4.321747 0.7949066l-0.25668335 1.5390778q-2.4872742 -0.5632477 -4.3217163 -0.79491425l0.25665283 -1.5390701zm-0.9818115 2.4632034q1.9575806 0.28076172 4.3217163 0.79491425l-0.25668335 1.5390701q-2.4502258 -0.47711945 -4.3217163 -0.7949066l0.25668335 -1.5390778zm10.629425 5.0219345q-0.40734863 -0.9473877 0.16970825 -2.2160263q3.3391113 -7.660919 3.8274536 -11.034477l2.068695 0.53913116q1.1454773 0.5279465 -0.13433838 0.87418365q-0.47717285 2.4502869 -3.7671814 9.988045q-0.19638062 0.49264526 -0.08526611 0.75102234q0.22219849 0.51675415 0.6777954 0.6269913q6.452423 1.7155838 10.824951 3.8153076l-0.883667 2.2168808q-4.532715 -2.234932 -10.554504 -4.135689q-1.7733154 -0.56411743 -2.1436462 -1.4253693z" fill-rule="nonzero"/><path fill="#000000" fill-opacity="0.0" d="m438.09933 262.5299l126.61417 58.299225l-20.251953 44.031494l-126.6142 -58.299225z" fill-rule="evenodd"/><path fill="#000000" d="m442.04388 294.56213q-1.032135 1.7954102 -0.52633667 3.1636047q0.50579834 1.3682251 2.2089233 2.1524048q2.2140808 1.0194702 3.3330383 0.60580444q1.118988 -0.41366577 1.9416504 -2.202301q0.58761597 -1.2775879 0.899353 -3.3014832l1.9058228 0.5679016q-0.50079346 2.6593323 -0.8925476 3.5110474q-1.2144165 2.6403503 -3.0793762 3.3298035q-1.9893188 0.7353821 -5.0549316 -0.676178q-2.4695435 -1.137085 -3.2512512 -3.251587q-0.73568726 -1.9901428 0.53149414 -4.2965393l1.3455505 -2.4767761l-4.3429565 -1.9997253l0.7442932 -1.6182861l4.5984497 2.1173706l1.8684387 -3.164917l-4.00235 -1.842865l0.74432373 -1.6182861l4.2578125 1.9605103l2.6587524 -4.6588135l1.7559204 1.1181335q0.81918335 0.6868286 -0.14309692 0.75982666l-2.4832764 3.604248l3.321106 1.5292053l-0.74432373 1.6182861l-3.5765686 -1.6468201l-1.8684387 3.1648865l4.0875244 1.8820801l-0.74432373 1.6182861l-4.342987 -1.9996948l-1.1496887 2.0508728zm14.3573 10.739227l2.0437317 0.94104004q4.257843 1.9605103 5.8741455 1.3629761q1.3676453 -0.5055847 1.9160767 -1.697998q0.47009277 -1.0220642 0.010284424 -2.2658997q-0.41384888 -1.1194458 -2.202118 -1.9428711q-3.7468872 -1.7252502 -8.49704 0.52563477l-1.6247864 -0.9545593l5.128418 -8.68219l1.6315918 1.1641235q0.69485474 0.7327881 -0.313385 0.68136597l-3.142456 5.26178q4.1557007 -1.1828308 7.9877625 0.581604q2.2992249 1.0586853 3.0349426 3.0488281q0.5977478 1.6169739 -0.22491455 3.4055786q-0.9010315 1.9589844 -3.0146484 2.7403564q-2.4866333 0.9192505 -7.2554016 -1.2765198l-1.5328064 -0.70578l0.18060303 -2.1874695zm6.4604797 -16.738556q2.110138 1.6941223 5.5316772 5.0241394l-1.6350403 1.3113403q-2.4780273 -2.689148 -5.3681946 -5.155243l1.4715576 -1.1802368zm9.622131 25.072662q3.8439941 0.84106445 6.7036133 -0.21609497q2.3623047 -0.873291 3.3808289 -3.0877686q0.70513916 -1.5331116 0.24533081 -2.776947q-0.41384888 -1.1194458 -1.6452026 -1.5832214q-2.501892 -0.8423767 -7.5960083 -1.4333496l0.08181763 -2.645813q3.5101624 0.8937683 6.633728 1.5063171q1.6043701 0.32589722 2.370758 0.678772q1.8734436 0.8626404 2.517212 2.604004q0.73568726 1.9901123 -0.43954468 4.5453186q-1.5278015 3.3217163 -4.884735 4.5627136q-2.9839478 1.1031189 -6.906311 0.43240356l-0.46148682 -2.5863342zm13.492645 -10.713898q-3.2495728 -1.9091187 -7.6333923 -5.166168l1.4902954 -1.894043q4.259491 3.303009 7.5090637 5.212097l-1.3659668 1.848114z" fill-rule="nonzero"/></g></svg>