<svg version="1.1" viewBox="0.0 0.0 952.2283464566929 454.4724409448819" fill="none" stroke="none" stroke-linecap="square" stroke-miterlimit="10" xmlns:xlink="http://www.w3.org/1999/xlink" xmlns="http://www.w3.org/2000/svg"><clipPath id="p.0"><path d="m0 0l952.22833 0l0 454.47244l-952.22833 0l0 -454.47244z" clip-rule="nonzero"/></clipPath><g clip-path="url(#p.0)"><path fill="#000000" fill-opacity="0.0" d="m0 0l952.22833 0l0 454.47244l-952.22833 0z" fill-rule="evenodd"/><path fill="#ffffff" d="m5.695538 5.695538l945.3858 0l0 444.2205l-945.3858 0z" fill-rule="evenodd"/><path stroke="#ffffff" stroke-width="1.0" stroke-linejoin="round" stroke-linecap="butt" d="m5.695538 5.695538l945.3858 0l0 444.2205l-945.3858 0z" fill-rule="evenodd"/><path fill="#cfe2f3" d="m218.16405 226.62862l0 0c0 -25.657333 31.19905 -46.456696 69.68504 -46.456696l0 0c38.485962 0 69.68503 20.799362 69.68503 46.456696l0 0c0 25.657318 -31.199066 46.45668 -69.68503 46.45668l0 0c-38.485992 0 -69.68504 -20.799362 -69.68504 -46.45668z" fill-rule="evenodd"/><path stroke="#000000" stroke-width="1.0" stroke-linejoin="round" stroke-linecap="butt" d="m218.16405 226.62862l0 0c0 -25.657333 31.19905 -46.456696 69.68504 -46.456696l0 0c38.485962 0 69.68503 20.799362 69.68503 46.456696l0 0c0 25.657318 -31.199066 46.45668 -69.68503 46.45668l0 0c-38.485992 0 -69.68504 -20.799362 -69.68504 -46.45668z" fill-rule="evenodd"/><path fill="#000000" fill-opacity="0.0" d="m252.1798 202.3924l71.33858 0l0 48.472427l-71.33858 0z" fill-rule="evenodd"/><path fill="#000000" d="m279.55478 225.61989q2.15625 3.1875 4.3125 9.28125l-2.0625 1.03125l-0.75 -2.34375l-8.4375 1.6875q-0.375 0.75 -0.75 0l-0.75 -2.15625l1.59375 -0.09375q2.0625 -8.15625 3.65625 -16.6875l2.15625 0.46875q0.9375 0.1875 0.09375 0.75q-1.875 7.6875 -3.75 15.28125l5.625 -0.84375q-1.21875 -3.0 -2.625 -5.4375l1.6875 -0.9375zm-17.4375 4.96875q3.5625 -3.1875 4.96875 -7.3125l-4.3125 0l0 -1.78125l4.3125 0l0 -3.09375q-1.96875 0.28125 -3.75 0.375l-0.375 -1.78125q4.59375 -0.1875 8.71875 -1.59375l0.9375 1.6875q0.46875 0.75 -0.5625 0.375q-1.40625 0.375 -3.09375 0.65625l0 3.375l4.03125 0l0 1.78125l-4.03125 0l0 1.78125q2.15625 1.03125 4.03125 2.625l-1.21875 1.875q-1.59375 -1.59375 -2.8125 -2.34375l0 9.1875l-1.875 0l0 -9.0q-1.6875 3.09375 -3.75 4.78125l-1.21875 -1.59375zm40.3125 -8.15625q0.1875 3.5625 0 7.125q2.8125 1.03125 5.4375 2.90625l-1.125 1.78125q-1.96875 -1.5 -4.3125 -2.625q0 1.6875 -1.03125 2.71875q-1.125 1.125 -3.28125 1.125q-2.15625 0 -3.28125 -1.125q-0.9375 -0.9375 -0.9375 -2.4375q0 -1.3125 0.75 -2.0625q1.125 -1.125 3.375 -1.125q1.21875 0 2.4375 0.28125q0.1875 -3.1875 0 -6.46875l-6.9375 0.46875l0 -1.96875l6.75 -0.375q-0.09375 -2.625 -0.375 -4.6875l1.96875 0q1.03125 0.1875 0.1875 0.75q0.09375 1.96875 0.1875 3.84375l5.0625 -0.28125l0 1.96875l-4.875 0.1875zm-14.15625 12.5625q-0.375 -2.625 -0.375 -6.09375q0 -7.59375 1.125 -12.1875l2.0625 0.375q0.65625 0.28125 -0.09375 0.65625q-1.03125 3.28125 -1.03125 11.15625q0 3.5625 0.46875 5.71875l-2.15625 0.375zm12.1875 -4.125q-1.59375 -0.46875 -2.4375 -0.46875q-1.3125 0 -1.875 0.5625q-0.46875 0.46875 -0.46875 0.9375q0 0.75 0.375 1.125q0.65625 0.65625 1.96875 0.65625q1.3125 0 1.875 -0.65625q0.65625 -0.75 0.5625 -2.15625z" fill-rule="nonzero"/><path fill="#cfe2f3" d="m602.46063 66.29527l0 0c0 -25.657322 31.199036 -46.456688 69.68506 -46.456688l0 0c38.485962 0 69.685 20.799368 69.685 46.456688l0 0c0 25.657326 -31.199036 46.456696 -69.685 46.456696l0 0c-38.486023 0 -69.68506 -20.79937 -69.68506 -46.456696z" fill-rule="evenodd"/><path stroke="#000000" stroke-width="1.0" stroke-linejoin="round" stroke-linecap="butt" d="m602.46063 66.29527l0 0c0 -25.657322 31.199036 -46.456688 69.68506 -46.456688l0 0c38.485962 0 69.685 20.799368 69.685 46.456688l0 0c0 25.657326 -31.199036 46.456696 -69.685 46.456696l0 0c-38.486023 0 -69.68506 -20.79937 -69.68506 -46.456696z" fill-rule="evenodd"/><path fill="#000000" fill-opacity="0.0" d="m628.2302 42.059055l94.55121 0l0 48.47244l-94.55121 0z" fill-rule="evenodd"/><path fill="#000000" d="m655.5115 73.16155l-0.375 -2.0625l1.5 0q1.3125 0 1.03125 -2.15625q-0.375 -2.625 -2.34375 -4.59375l1.6875 -6.281246l-3.09375 0l0 18.187496l-1.875 0l0 -19.968746l5.53125 0l0.1875 -0.28125l1.6875 1.40625l-0.375 0.28125l-2.0625 6.28125q2.8125 3.0937462 2.71875 5.531246q-0.09375 3.65625 -2.53125 3.65625l-1.6875 0zm-15.09375 -6.46875l8.90625 0l0 8.53125l-1.875 0l0 -1.03125l-5.15625 0l0 1.5l-1.875 0l0 -9.0zm1.875 1.78125l0 3.9375l5.15625 0l0 -3.9375l-5.15625 0zm1.59375 -13.781246l2.0625 0q0.9375 0.1875 0.09375 0.75l0 2.0625l4.40625 0l0 1.78125l-1.3125 0l-1.3125 3.9375l3.5625 0l0 1.7812462l-12.84375 0l0 -1.7812462l3.5625 0l-1.125 -3.9375l-1.21875 0l0 -1.78125l4.125 0l0 -2.8125zm3.09375 4.59375l-3.84375 0l0.9375 3.9375l1.78125 0l1.125 -3.9375zm35.8125 16.593746q-8.0625 -1.875 -10.6875 -8.53125l-2.90625 0l0 6.1875l5.25 -0.9375l0.375 1.59375l-9.65625 1.96875q-0.09375 0.75 -0.46875 0.375l-0.65625 -2.25l3.28125 -0.46875l0 -6.46875l-4.5 0l0 -1.78125l4.5 0l0 -10.124996l13.5 0l0 1.78125l-11.625 0l0 1.40625l10.3125 0l0 1.78125l-10.3125 0l0 1.59375l10.5 0l0 1.78125l-10.5 0l0 1.7812462l14.4375 0l0 1.78125l-9.65625 0q0.5625 1.21875 2.0625 2.71875l3.0 -2.34375l1.59375 1.125q0.65625 0.46875 -0.28125 0.46875l-2.90625 1.96875q1.875 1.3125 6.46875 2.53125l-1.125 2.0625zm18.46875 -2.90625q-4.40625 0 -7.3125 -2.8125l1.21875 -1.59375q2.53125 2.4375 6.09375 2.34375l5.15625 0l0 2.0625l-5.15625 0zm-13.40625 1.78125q-0.28125 -4.875 -0.28125 -8.34375q0 -4.218746 1.03125 -10.031246l1.875 0.46875q1.03125 0.1875 0.09375 0.84375q-0.9375 5.4375 -0.9375 8.718746q0 3.65625 0.375 8.15625l-2.15625 0.1875zm17.34375 -13.874996q-4.03125 -0.09375 -10.5 0.5625l0 -1.96875q6.75 -0.65625 10.5 -0.5625l0 1.96875z" fill-rule="nonzero"/><path fill="#cfe2f3" d="m602.46063 226.62862l0 0c0 -25.657333 31.199036 -46.456696 69.68506 -46.456696l0 0c38.485962 0 69.685 20.799362 69.685 46.456696l0 0c0 25.657318 -31.199036 46.45668 -69.685 46.45668l0 0c-38.486023 0 -69.68506 -20.799362 -69.68506 -46.45668z" fill-rule="evenodd"/><path stroke="#000000" stroke-width="1.0" stroke-linejoin="round" stroke-linecap="butt" d="m602.46063 226.62862l0 0c0 -25.657333 31.199036 -46.456696 69.68506 -46.456696l0 0c38.485962 0 69.685 20.799362 69.685 46.456696l0 0c0 25.657318 -31.199036 46.45668 -69.685 46.45668l0 0c-38.486023 0 -69.68506 -20.799362 -69.68506 -46.45668z" fill-rule="evenodd"/><path fill="#000000" fill-opacity="0.0" d="m628.2297 202.3924l94.55115 0l0 48.472427l-94.55115 0z" fill-rule="evenodd"/><path fill="#000000" d="m643.1359 234.52614q4.3125 -1.03125 6.84375 -3.375q-1.96875 -2.25 -3.1875 -5.34375q-1.5 6.1875 -6.5625 9.9375l-1.21875 -1.875q5.8125 -3.84375 6.5625 -13.03125l-6.1875 0l0 -1.78125l6.375 0l0.09375 -3.9375l1.875 0.09375q0.75 0.09375 0.09375 0.5625l-0.1875 3.28125l11.53125 0l0 1.78125l-11.625 0q-0.1875 1.5 -0.375 3.0l7.21875 0l0.375 -0.375l1.5 1.21875q0.46875 0.375 -0.1875 0.46875q-1.3125 3.5625 -3.28125 6.0q3.1875 2.15625 6.75 3.0l-0.65625 2.15625q-3.65625 -0.75 -7.5 -3.75q-2.71875 2.53125 -7.59375 4.03125l-0.65625 -2.0625zm5.53125 -8.90625q0.5625 1.6875 2.71875 4.3125q1.5 -1.78125 2.34375 -4.3125l-5.0625 0zm17.71875 -5.25q-1.5 -1.96875 -2.71875 -3.09375l1.5 -1.40625q1.3125 1.125 2.8125 3.09375l-1.59375 1.40625zm-3.84375 13.59375l3.46875 -1.59375l0 -6.28125l-3.375 0l0 -1.78125l5.25 0l0 7.96875q1.96875 1.78125 5.0625 1.78125l10.96875 0l-0.375 1.78125l-11.0625 0q-3.1875 0 -5.625 -2.25l-3.1875 2.4375l-1.125 -2.0625zm14.25 -19.03125q0.75 0.09375 0.09375 0.5625l0 1.40625l5.4375 0l0 1.5l-5.4375 0l0 1.59375l6.46875 0l0 1.5l-3.1875 0l-1.3125 2.25l3.46875 0l0 1.5l-5.4375 0l0 1.5l4.6875 0l0 1.5l-4.6875 0l0 1.5l6.46875 0l0 1.5l-6.46875 0l0 2.0625l-1.875 0l0 -2.0625l-6.28125 0l0 -1.5l6.28125 0l0 -1.5l-4.59375 0l0 -1.5l4.59375 0l0 -1.5l-5.34375 0l0 -1.5l3.375 0l-1.03125 -2.25l-3.28125 0l0 -1.5l6.28125 0l0 -1.59375l-5.71875 0l0 -1.5l5.71875 0l0 -1.96875l1.78125 0zm0.28125 8.8125l1.03125 -2.25l-4.125 0l1.03125 2.25l2.0625 0zm24.1875 9.5625q-4.40625 0 -7.3125 -2.8125l1.21875 -1.59375q2.53125 2.4375 6.09375 2.34375l5.15625 0l0 2.0625l-5.15625 0zm-13.40625 1.78125q-0.28125 -4.875 -0.28125 -8.34375q0 -4.21875 1.03125 -10.03125l1.875 0.46875q1.03125 0.1875 0.09375 0.84375q-0.9375 5.4375 -0.9375 8.71875q0 3.65625 0.375 8.15625l-2.15625 0.1875zm17.34375 -13.875q-4.03125 -0.09375 -10.5 0.5625l0 -1.96875q6.75 -0.65625 10.5 -0.5625l0 1.96875z" fill-rule="nonzero"/><path fill="#cfe2f3" d="m602.46063 386.96194l0 0c0 -25.657318 31.199036 -46.456696 69.68506 -46.456696l0 0c38.485962 0 69.685 20.799377 69.685 46.456696l0 0c0 25.657318 -31.199036 46.456696 -69.685 46.456696l0 0c-38.486023 0 -69.68506 -20.799377 -69.68506 -46.456696z" fill-rule="evenodd"/><path stroke="#000000" stroke-width="1.0" stroke-linejoin="round" stroke-linecap="butt" d="m602.46063 386.96194l0 0c0 -25.657318 31.199036 -46.456696 69.68506 -46.456696l0 0c38.485962 0 69.685 20.799377 69.685 46.456696l0 0c0 25.657318 -31.199036 46.456696 -69.685 46.456696l0 0c-38.486023 0 -69.68506 -20.799377 -69.68506 -46.456696z" fill-rule="evenodd"/><path fill="#000000" fill-opacity="0.0" d="m628.2297 346.7257l94.55115 0l0 48.472443l-94.55115 0z" fill-rule="evenodd"/><path fill="#000000" d="m641.1672 362.73447l0 -1.78125l13.6875 0l0.375 -0.28125l1.78125 1.78125l-0.5625 0.28125q-3.375 3.0 -6.0 4.5l0 2.15625l9.375 0l0 2.0625l-9.375 0l0 7.3125q0 1.5 -1.5 1.5l-2.71875 0l-0.46875 -2.0625l2.15625 0q0.375 0 0.375 -0.375l0 -6.375l-9.65625 0l0 -2.0625l9.65625 0l0 -4.21875l1.78125 0.28125q1.96875 -1.21875 3.46875 -2.71875l-12.375 0zm24.1875 6.46875q-0.9375 1.5 -1.78125 2.15625l-1.125 -1.78125q3.28125 -3.9375 4.21875 -10.21875l2.0625 0.46875q0.84375 0.28125 -0.09375 0.46875q-0.65625 2.71875 -1.5 5.34375q1.3125 0.375 0.09375 0.9375l0 14.25l-1.875 0l0 -11.625zm13.40625 4.96875q1.875 3.0 4.875 4.59375l-1.40625 1.78125q-2.90625 -1.40625 -5.25 -5.25l1.78125 -1.125zm-10.78125 4.6875q3.5625 -2.15625 4.875 -4.6875l1.59375 1.03125q0.65625 0.5625 -0.1875 0.5625q-2.34375 3.09375 -5.0625 4.875l-1.21875 -1.78125zm11.15625 -19.21875q0.9375 0.1875 0.09375 0.75l0 4.21875l3.46875 0l0 1.78125l-3.46875 0l0 5.25l4.40625 0l0 1.78125l-15.375 0l0 -1.78125l3.75 0l0 -5.25l-2.90625 0l0 -1.78125l2.90625 0l0 -4.875l1.78125 0q0.9375 0.1875 0.09375 0.75l0 4.125l3.46875 0l0 -4.96875l1.78125 0zm-1.78125 6.75l-3.46875 0l0 5.25l3.46875 0l0 -5.25zm23.90625 11.25q-4.40625 0 -7.3125 -2.8125l1.21875 -1.59375q2.53125 2.4375 6.09375 2.34375l5.15625 0l0 2.0625l-5.15625 0zm-13.40625 1.78125q-0.28125 -4.875 -0.28125 -8.34375q0 -4.21875 1.03125 -10.03125l1.875 0.46875q1.03125 0.1875 0.09375 0.84375q-0.9375 5.4375 -0.9375 8.71875q0 3.65625 0.375 8.15625l-2.15625 0.1875zm17.34375 -13.875q-4.03125 -0.09375 -10.5 0.5625l0 -1.96875q6.75 -0.65625 10.5 -0.5625l0 1.96875z" fill-rule="nonzero"/><path fill="#000000" fill-opacity="0.0" d="m628.2297 378.7257l113.60626 0l0 48.472443l-113.60626 0z" fill-rule="evenodd"/><path fill="#000000" d="m650.0734 397.82822l9.0 0l0 2.0625l-8.8125 0q1.59375 6.84375 9.5625 9.65625l-1.3125 2.34375q-7.03125 -3.09375 -9.0 -8.90625q-1.6875 6.9375 -9.75 9.375l-0.9375 -2.25q8.71875 -2.625 9.09375 -10.21875l-8.53125 0l0 -2.0625l8.53125 0l0 -6.0l2.0625 0q0.9375 0.1875 0.09375 0.75l0 5.25zm3.1875 -5.0625q1.78125 1.125 3.1875 2.8125l-1.59375 1.6875q-1.59375 -1.78125 -3.09375 -2.90625l1.5 -1.59375z" fill-rule="nonzero"/><path fill="#000000" d="m661.2297 411.0626l4.984375 -17.765625l1.6875 0l-4.96875 17.765625l-1.703125 0z" fill-rule="nonzero"/><path fill="#000000" d="m669.1164 405.60947q4.125 -2.71875 6.0 -7.40625l1.6875 0.84375q0.46875 0.375 -0.1875 0.46875q-0.5625 1.21875 -1.125 2.15625l0 10.875l-1.875 0l0 -8.25q-1.5 1.875 -3.375 3.09375l-1.125 -1.78125zm20.15625 -4.5q0.375 0.5625 -0.375 0.46875q-4.03125 2.4375 -7.125 3.1875l0 4.96875q0 0.375 0.375 0.375l4.96875 0q0.65625 0 0.75 -0.5625l0.28125 -2.0625l2.0625 0.5625l-0.375 2.25q-0.28125 1.59375 -1.96875 1.59375l-6.1875 0q-1.78125 0 -1.78125 -1.78125l0 -11.71875l1.875 0q0.5625 0.09375 0 0.5625l0 4.03125q3.5625 -1.40625 6.09375 -3.375l1.40625 1.5zm-13.78125 -5.0625l-5.90625 0l0 -1.78125l5.90625 0l0 -2.71875l1.78125 0q0.75 0.09375 0.09375 0.5625l0 2.15625l4.6875 0l0 -2.71875l1.78125 0q0.75 0.09375 0.09375 0.5625l0 2.15625l5.90625 0l0 1.78125l-5.90625 0l0 1.875l-1.875 0l0 -1.875l-4.6875 0l0 1.875l-1.875 0l0 -1.875zm32.4375 13.59375q-4.40625 0 -7.3125 -2.8125l1.21875 -1.59375q2.53125 2.4375 6.09375 2.34375l5.15625 0l0 2.0625l-5.15625 0zm-13.40625 1.78125q-0.28125 -4.875 -0.28125 -8.34375q0 -4.21875 1.03125 -10.03125l1.875 0.46875q1.03125 0.1875 0.09375 0.84375q-0.9375 5.4375 -0.9375 8.71875q0 3.65625 0.375 8.15625l-2.15625 0.1875zm17.34375 -13.875q-4.03125 -0.09375 -10.5 0.5625l0 -1.96875q6.75 -0.65625 10.5 -0.5625l0 1.96875z" fill-rule="nonzero"/><path fill="#000000" fill-opacity="0.0" d="m337.1378 193.79134l265.32285 -127.49606" fill-rule="evenodd"/><path stroke="#000000" stroke-width="1.0" stroke-linejoin="round" stroke-linecap="butt" d="m337.1378 193.79134l259.91483 -124.89734" fill-rule="evenodd"/><path fill="#000000" stroke="#000000" stroke-width="1.0" stroke-linecap="butt" d="m597.768 70.38277l3.374939 -3.4543076l-4.805725 0.47677612z" fill-rule="evenodd"/><path fill="#000000" fill-opacity="0.0" d="m357.53412 226.62862l244.91339 0" fill-rule="evenodd"/><path stroke="#000000" stroke-width="1.0" stroke-linejoin="round" stroke-linecap="butt" d="m357.53412 226.62862l238.91339 0" fill-rule="evenodd"/><path fill="#000000" stroke="#000000" stroke-width="1.0" stroke-linecap="butt" d="m596.4475 228.28033l4.538086 -1.6517181l-4.538086 -1.6517334z" fill-rule="evenodd"/><path fill="#000000" fill-opacity="0.0" d="m337.12384 259.47845l265.3228 127.49606" fill-rule="evenodd"/><path stroke="#000000" stroke-width="1.0" stroke-linejoin="round" stroke-linecap="butt" d="m337.12384 259.47845l259.91486 124.89737" fill-rule="evenodd"/><path fill="#000000" stroke="#000000" stroke-width="1.0" stroke-linecap="butt" d="m596.32324 385.86456l4.805786 0.47677612l-3.374939 -3.4542847z" fill-rule="evenodd"/><path fill="#000000" fill-opacity="0.0" d="m424.11417 186.4511l139.37009 0l0 48.472443l-139.37009 0z" fill-rule="evenodd"/><path fill="#000000" d="m445.48917 218.58485q3.84375 -0.375 5.15625 -1.6875q1.03125 -1.03125 1.03125 -2.90625q0 -2.0625 -1.03125 -3.09375q-1.21875 -1.21875 -3.375 -1.40625q-1.5 4.875 -3.375 6.84375l0.5625 1.21875l-1.78125 1.3125l-0.46875 -1.03125q-2.4375 2.0625 -4.125 2.0625q-1.125 0 -2.0625 -0.9375q-1.03125 -1.03125 -1.03125 -2.8125q0 -3.1875 2.15625 -5.34375q1.3125 -1.3125 2.71875 -2.0625l0.1875 -3.5625l-3.9375 0.1875l-0.375 -2.0625l4.40625 -0.09375q0.09375 -2.15625 0.28125 -4.125l1.78125 0q0.9375 0.1875 0.1875 0.75q-0.1875 1.6875 -0.28125 3.28125q4.5 -0.28125 7.6875 -0.84375l0.375 2.0625q-3.9375 0.46875 -8.15625 0.65625l-0.1875 3.0q1.3125 -0.46875 3.65625 -0.5625l0.28125 -1.5l1.78125 0.28125q0.84375 0.1875 0.1875 0.75l-0.09375 0.65625q2.90625 0.28125 4.5 1.875q1.78125 1.78125 1.78125 4.59375q0 2.625 -1.59375 4.21875q-1.6875 1.6875 -5.625 2.34375l-1.21875 -2.0625zm-5.34375 -7.875q-0.75 0.375 -1.6875 1.3125q-1.6875 1.6875 -1.6875 4.40625q0 0.75 0.5625 1.3125q0.1875 0.1875 0.75 0.1875q1.40625 0 3.1875 -1.78125q-0.9375 -2.8125 -1.125 -5.4375zm1.875 -0.9375q0.09375 2.4375 0.9375 4.6875q1.5 -2.0625 2.15625 -5.15625q-1.6875 0 -3.09375 0.46875zm35.15625 -2.4375q-2.4375 0.28125 -4.6875 0.46875l0 3.1875q0 5.4375 -3.1875 9.375l-1.96875 -1.125q3.28125 -3.75 3.28125 -8.625l0 -2.625q-3.5625 0.28125 -6.75 0.28125l0 -2.0625q3.1875 0.09375 6.75 -0.1875l0 -5.71875l1.6875 0q0.84375 0.1875 0.1875 0.75l0 4.875q2.34375 -0.1875 4.40625 -0.5625l0.28125 1.96875zm-16.6875 3.375q0 3.375 0.75 7.125l-2.0625 0.375q-0.65625 -3.375 -0.65625 -7.5q0 -5.4375 0.9375 -9.46875l1.78125 0.46875q1.21875 0.28125 0.09375 0.84375q-0.84375 4.03125 -0.84375 8.15625zm14.71875 -12.28125q1.59375 0.84375 3.46875 2.25l-0.84375 1.3125q-1.96875 -1.5 -3.46875 -2.25l0.84375 -1.3125zm-1.125 2.34375q1.5 0.65625 3.46875 2.25l-0.84375 1.3125q-2.15625 -1.59375 -3.46875 -2.25l0.84375 -1.3125zm18.375 17.25q1.5 -0.1875 2.53125 -1.21875q1.125 -1.125 1.125 -3.0q0 -2.0625 -1.21875 -3.28125q-1.21875 -1.21875 -3.84375 -1.21875q-3.09375 0 -4.78125 1.21875q-1.59375 1.125 -4.125 4.03125l-1.59375 -1.40625q6.75 -6.75 10.21875 -11.25q-3.09375 0.375 -6.1875 0.65625l-0.65625 -2.15625q4.59375 0 8.15625 -0.46875l0.84375 -0.375l1.03125 1.03125q1.03125 0.9375 -0.46875 1.21875q-2.8125 3.1875 -5.625 6.28125q1.96875 -0.46875 3.28125 -0.46875q3.5625 0 5.25 1.6875q1.6875 1.6875 1.6875 4.3125q0 2.71875 -1.5 4.21875q-2.25 2.25 -5.71875 2.25q-3.28125 0 -4.78125 -1.5q-1.21875 -1.21875 -1.21875 -2.90625q0 -1.125 0.84375 -1.96875q0.9375 -0.9375 2.15625 -0.9375q1.6875 0 2.8125 1.125q1.3125 1.3125 1.78125 4.125zm-1.875 0.28125q-0.28125 -2.4375 -1.125 -3.28125q-0.65625 -0.65625 -1.3125 -0.65625q-0.75 0 -1.125 0.375q-0.46875 0.46875 -0.46875 1.03125q0 0.84375 0.75 1.59375q0.9375 0.9375 2.4375 0.9375q0.375 0 0.84375 0z" fill-rule="nonzero"/><path fill="#000000" fill-opacity="0.0" d="m398.93152 116.70326l128.0315 -55.05512l19.149597 44.535435l-128.0315 55.055115z" fill-rule="evenodd"/><path fill="#000000" d="m423.62906 127.38702q-3.4200134 1.7768021 -6.86499 3.2581863l-1.2574158 -1.5003052q4.2201233 -1.8146973 6.7297974 -3.097992q-1.8981628 -2.0411682 -3.1314392 -3.9600525l1.8947449 -0.8147583q0.8491821 -0.16106415 0.46850586 0.6149368q1.0481262 1.4882431 2.5888672 3.1728592q2.9032898 -1.554596 4.834198 -2.9972153l1.2453613 1.7095871q-2.3495178 1.4185104 -4.68692 2.627739q3.1297302 2.5320816 7.697754 3.4251785l-0.62527466 2.105774q-3.816162 -0.09384155 -6.9166565 1.2394104q-2.8421326 1.2221375 -3.4803162 2.823227q-0.29455566 0.7389679 0.11279297 1.6863403q0.3703308 0.8612671 1.4787598 1.3030853q1.7242126 0.6872711 6.2026978 -1.2385406l3.0143738 -1.2962189l0.38409424 2.0799408l-3.2727356 1.4073181q-4.4785156 1.9258118 -7.0648193 0.89489746q-1.8473511 -0.73635864 -2.5509949 -2.3727417q-0.7036133 -1.6363983 -0.16360474 -2.9911652q0.883667 -2.2168884 4.1564026 -3.6242065q3.2727356 -1.4073181 3.937622 -1.2850189q-3.1779785 -1.6949463 -4.7308044 -3.1702652zm27.793274 -2.0525742q-1.9628296 5.640396 -6.2690735 7.4921417q-3.1004944 1.333252 -5.194153 0.498703q-1.6010437 -0.6381836 -2.971283 -3.824829l-4.9624023 -11.540848l1.8086243 -0.7777252q0.84921265 -0.16106415 0.46853638 0.6149368l4.6661377 10.85183q0.92581177 2.1531525 2.0342102 2.5949707q1.3547363 0.5399933 3.2494812 -0.274765q3.3588867 -1.4443665 5.1744385 -6.7152786l1.9954834 1.080864zm13.599945 -2.072281q3.3829956 -1.8629303 4.070282 -3.5871735q0.54000854 -1.3547668 -0.20065308 -3.0772781q-0.8147278 -1.8947678 -2.1694336 -2.4347687q-1.6010742 -0.6381836 -3.6560059 0.041366577q0.5477295 5.0710907 -0.39709473 7.6204224l0.99816895 0.8974304l-1.1178894 1.9094162l-0.8380127 -0.76220703q-1.4244995 2.857666 -2.974762 3.524292q-1.0335083 0.44441986 -2.2650757 -0.04649353q-1.3547363 -0.5400009 -2.0583496 -2.176384q-1.2591248 -2.928276 -0.13000488 -5.7609634q0.6872864 -1.7242432 1.6828918 -2.968773l-1.2349854 -3.3468475l-3.5431824 1.7277145l-1.1592102 -1.7466278l4.0108337 -1.8267593q-0.765625 -2.0179214 -1.3710938 -3.9006348l1.636383 -0.70365906q0.93530273 -0.19809723 0.46850586 0.6149368q0.49435425 1.6243286 1.0377808 3.1255035q4.022888 -2.036049 6.728943 -3.8119812l1.1592102 1.7466278q-3.4320679 1.986084 -7.233612 3.8248978l1.0127869 2.8300934q1.0205994 -0.94911194 3.1366882 -1.9611053l-0.33416748 -1.4891205l1.747467 -0.44528198q0.84921265 -0.16105652 0.46853638 0.6149368l0.1730957 0.63991547q2.7809753 -0.88970184 4.874634 -0.055152893q2.3399963 0.932724 3.4509888 3.5164948q1.0369263 2.411522 0.20236206 4.505249q-0.883667 2.2168884 -4.2416687 4.375229l-1.9343567 -1.4133148zm-8.019867 -5.123581q-0.54086304 0.6407852 -1.0317993 1.8723907q-0.8836365 2.2168808 0.19030762 4.714531q0.29626465 0.689003 1.0352173 0.983551q0.24630737 0.09818268 0.7630615 -0.12403107q1.2918701 -0.5555191 2.2246094 -2.8955688q-1.972229 -2.2134247 -3.1813965 -4.550873zm1.3521729 -1.6019516q1.0489807 2.2022324 2.7128906 3.935936q0.56326294 -2.48732 -0.05593872 -5.588707q-1.5502625 0.666626 -2.656952 1.652771zm31.333954 -16.127296q-2.1281433 1.221283 -4.121063 2.282364l1.2590942 2.928276q2.1479187 4.9952927 0.77505493 9.87175l-2.2530212 -0.25577545q1.5330505 -4.741249 -0.39263916 -9.21978l-1.0369263 -2.411522q-3.1616516 1.6656952 -6.089905 2.924881l-0.81469727 -1.8947678q2.965271 -1.1730576 6.1269226 -2.8387527l-2.2590027 -5.253662l1.5502319 -0.666626q0.8491821 -0.16106415 0.46850586 0.6149368l1.9257202 4.478531q2.0790405 -1.0981216 3.8256836 -2.2573853l1.0360413 1.6975327zm-13.99704 9.692711q1.3331909 3.100525 3.5035095 6.249275l-1.7466125 1.1592636q-1.9360657 -2.841278 -3.5655212 -6.630806q-2.1478882 -4.9952927 -2.8790588 -9.069046l1.8215332 -0.27303314q1.2307129 -0.22306824 0.4194336 0.73809814q0.81729126 4.0367203 2.4467163 7.826248zm8.670319 -17.096916q1.7973938 0.14553833 4.075409 0.69672394l-0.25668335 1.5390778q-2.4011536 -0.60028076 -4.075409 -0.69673157l0.25668335 -1.5390701zm-0.10769653 2.597557q1.6372375 0.010322571 4.075409 0.69673157l-0.25665283 1.5390701q-2.610443 -0.6123352 -4.075409 -0.69673157l0.25665283 -1.5390701zm23.694519 8.58831q1.3039246 -0.764801 1.8439331 -2.1195679q0.5891113 -1.4779282 -0.1515503 -3.2004395q-0.8147278 -1.8947678 -2.4157715 -2.5329437q-1.6010437 -0.6381836 -4.0125427 0.39878845q-2.842102 1.2221451 -3.9109497 3.0084076q-1.0197144 1.6630936 -2.1970825 5.3329315l-2.0195923 -0.6622925q3.534607 -8.867554 4.9436646 -14.371872q-2.6940002 1.5666504 -5.4250183 3.0471725l-1.4546204 -1.7216492q4.2201233 -1.8146973 7.3077087 -3.652649l0.62698364 -0.6778183l1.3547363 0.5400009q1.317688 0.45387268 0.05078125 1.3048096q-1.3246155 4.0393143 -2.6862793 7.992508q1.6234741 -1.2083588 2.829193 -1.7268448q3.272766 -1.4073257 5.4895935 -0.52368927q2.2168274 0.8836365 3.2537537 3.2951584q1.0739441 2.4976425 0.28848267 4.4682083q-1.1781921 2.9558563 -4.3648376 4.3261414q-3.0143433 1.2962112 -4.984894 0.51075745q-1.6010437 -0.6381836 -2.2676392 -2.188446q-0.44436646 -1.0335083 -0.0025634766 -2.141945q0.49093628 -1.2316055 1.6105652 -1.7130585q1.5502319 -0.666626 3.0281372 -0.07753754q1.7242126 0.68727875 3.265808 3.0858688zm-1.6113892 0.99907684q-1.2212524 -2.1281662 -2.3296509 -2.5699844q-0.8621216 -0.34363556 -1.4649963 -0.08438873q-0.68899536 0.29627228 -0.88534546 0.78891754q-0.2454834 0.61579895 -0.023284912 1.1325531q0.333313 0.7751312 1.318573 1.1678619q1.2315674 0.49090576 2.609558 -0.10164642q0.34451294 -0.14813995 0.7751465 -0.333313z" fill-rule="nonzero"/><path fill="#000000" fill-opacity="0.0" d="m438.09933 262.5299l126.61417 58.299225l-20.251953 44.031494l-126.6142 -58.299225z" fill-rule="evenodd"/><path fill="#000000" d="m444.03845 287.53333q0.43606567 -2.0698547 1.6232605 -5.5484314l1.788269 0.8233948q0.7732239 0.56243896 -0.1430664 0.75979614q-0.62680054 1.362793 -1.2911072 4.1532288l4.962982 0.42739868l1.9723511 -3.8395386l1.6179504 0.7449951q0.85839844 0.60165405 -0.1430664 0.75979614l-1.5874023 2.7782593q0.8447571 0.18252563 1.611145 0.5354309q2.4695435 1.137085 3.1592712 3.0028381q0.7357178 1.9901123 -0.24365234 4.119446q-0.94018555 2.044159 -2.4321594 2.5957031q-1.8649597 0.6894226 -3.908722 -0.25161743q-2.725006 -1.2546997 -3.677002 -3.4476318l1.5107117 -1.2654114q1.2858276 2.1402283 2.818634 2.8460083q1.3625183 0.62734985 2.605835 0.16772461q0.7459717 -0.27575684 1.2944336 -1.4682007q0.62677 -1.3627625 0.16696167 -2.606598q-0.50579834 -1.3681946 -2.0386047 -2.0739746q-1.7031555 -0.7842102 -3.7196655 -0.8870239l-4.3276978 -0.23809814q-1.0986938 6.2027893 -0.96087646 11.73642l-2.3111877 -0.1352539q0.15682983 -5.50119 1.2555237 -11.7039795l-4.871002 -0.1786499l-0.15322876 -2.1347656l5.421112 0.32873535zm22.850586 23.00998q1.4408569 0.45703125 2.8085022 -0.048583984q1.4919739 -0.5515442 2.2754517 -2.255005q0.8618469 -1.8737793 0.26409912 -3.4907837q-0.5977783 -1.6169739 -2.9821472 -2.7148438q-2.8101807 -1.2939453 -4.8522644 -0.8924866q-1.9177551 0.35549927 -5.4313965 1.9371948l-0.8600464 -1.9441528q8.951843 -3.3093262 13.983032 -5.9468384q-2.9668884 -0.9532471 -5.894562 -1.9916687l0.30493164 -2.233429q4.1726685 1.9212952 7.604492 2.9854126l0.9230957 0.012176514l0.50579834 1.3682251q0.5449829 1.2830505 -0.9350586 0.91119385q-3.8866272 1.719574 -7.7341003 3.3539734q1.9841614 0.3975525 3.176361 0.9465027q3.235962 1.4899902 4.063629 3.7288818q0.82766724 2.2388916 -0.26922607 4.6237183q-1.1360474 2.4700012 -3.1253662 3.2054138q-2.9839478 1.1031189 -6.134735 -0.34765625q-2.9804688 -1.3723755 -3.7161865 -3.3624878q-0.5977478 -1.6169739 0.10739136 -3.1500854q0.47009277 -1.0220947 1.5890808 -1.4357605q1.2432861 -0.45962524 2.3503418 0.050109863q1.5328064 0.70578 2.0845947 2.1983948q0.6437378 1.7413635 -0.10571289 4.492584zm-1.8206482 -0.5286865q0.7630615 -2.3321228 0.34924316 -3.4515686q-0.3218994 -0.8706665 -0.91796875 -1.1451416q-0.6812744 -0.3136902 -1.1785889 -0.12982178q-0.62164307 0.22979736 -0.85672 0.7408447q-0.35256958 0.7665405 0.015289307 1.7615967q0.45983887 1.2438354 1.8223267 1.8712158q0.3406372 0.15682983 0.76641846 0.35287476z" fill-rule="nonzero"/><path fill="#000000" fill-opacity="0.0" d="m417.17355 301.23245l125.98428 59.590546l-20.724426 43.811035l-125.98425 -59.590576z" fill-rule="evenodd"/><path fill="#000000" d="m422.7553 339.4197q3.6350098 1.3045349 5.382721 0.67926025q1.3731995 -0.49127197 2.1749878 -2.1861877q0.881958 -1.8644104 0.39068604 -3.2375793q-0.5805664 -1.6228027 -2.449585 -2.7142944q-3.4405823 3.7654724 -5.9773865 4.743408l-0.012664795 1.3422241l-2.1714478 0.4248352l0.017242432 -1.1326599q-3.0854187 0.8222046 -4.6108704 0.10067749q-1.0169678 -0.48104858 -1.463562 -1.7293701q-0.49124146 -1.3731384 0.27041626 -2.9833374q1.3630371 -2.8813782 4.234253 -3.9085693q1.7477112 -0.62524414 3.3396606 -0.7019348l1.6928406 -3.1401978l-3.6395874 -1.5140991l0.54296875 -2.0247803l4.023224 1.7992859q1.0068054 -1.9090881 2.018158 -3.6085815l1.610199 0.7616272q0.76730347 0.570343 -0.1512146 0.7581482q-0.89108276 1.4452515 -1.6573486 2.8458557q4.1881714 1.6698914 7.3101196 2.5243225l-0.54293823 2.0247498q-3.7598572 -1.2598572 -7.6536865 -2.894226l-1.4523315 2.6317139q1.3869019 0.13748169 3.5456848 1.0548706l0.8956604 -1.2356873l1.4899597 1.0158691q0.68255615 0.53027344 -0.1512146 0.7581482l-0.36538696 0.5531311q2.5069275 1.4968872 3.2661438 3.619049q0.84851074 2.3717957 -0.35412598 4.914215q-1.1224976 2.3728943 -3.2447205 3.1321106q-2.2470398 0.80389404 -6.0870667 -0.2864685l-0.2197876 -2.3855286zm-1.4631653 -9.403595q-0.8383484 0.018310547 -2.086731 0.4649048q-2.2470398 0.80389404 -3.409607 3.2615356q-0.32070923 0.6779785 -0.052764893 1.4269714q0.08932495 0.2496643 0.59780884 0.49017334q1.2712097 0.60128784 3.6431274 -0.24725342q0.35516357 -2.9432678 1.3081665 -5.396332zm2.0958252 -0.04574585q-0.95755005 2.2434998 -1.1569519 4.6381836q2.237915 -1.223053 4.1540833 -3.7391052q-1.5254822 -0.7215271 -2.9971313 -0.89907837zm32.822754 12.828735q-2.3237305 -0.7879944 -4.4378357 -1.5805664l-1.3630066 2.8813782q-2.3251343 4.9153137 -6.8902893 7.1117554l-1.298645 -1.8587646q4.569702 -1.9868774 6.6543274 -6.3936768l1.122467 -2.3728943q-3.3406677 -1.269043 -6.222107 -2.631958l0.881958 -1.8644104q2.841339 1.4476624 6.182007 2.7166748l2.445404 -5.169525l1.5254822 0.7215271q0.68252563 0.53027344 -0.1512146 0.7581482l-2.0846252 4.40683q2.198883 0.8326416 4.223694 1.3755493l-0.58761597 1.8999329zm-16.52832 -4.084381q-1.4431763 3.0508728 -2.368744 6.7614136l-2.0248108 -0.5429077q0.8499756 -3.331482 2.613861 -7.0603027q2.3251343 -4.9153137 4.8964233 -8.158539l1.4097595 1.1853333q0.9814453 0.7753601 -0.2760315 0.8028259q-2.4865417 3.2833252 -4.250458 7.0121765zm18.557007 -4.8083496q1.0799255 1.4441833 2.1735535 3.5170898l-1.3239746 0.8256836q-1.1382751 -2.197754 -2.173523 -3.5170898l1.3239441 -0.8256836zm-2.019165 1.6376343q1.0753479 1.2346191 2.173523 3.5170898l-1.3239441 0.8256836q-1.2677002 -2.362671 -2.1735535 -3.5170898l1.3239746 -0.8256836zm9.234283 23.450165q1.4361267 0.4718933 2.8093262 -0.019378662q1.4980469 -0.5359497 2.2998047 -2.2308655q0.881958 -1.8644409 0.3013916 -3.4872437q-0.5805664 -1.6228333 -2.9535217 -2.7452087q-2.7966614 -1.3228455 -4.843292 -0.942688q-1.9217529 0.33551025 -5.4526978 1.8803406l-0.839386 -1.9526672q8.98822 -3.2155762 14.048126 -5.800232q-2.9570312 -0.9838257 -5.8739624 -2.0524292l0.3287964 -2.2297668q4.152649 1.9642029 7.573517 3.0637207l0.9230652 0.02178955l0.49127197 1.3731384q0.53134155 1.2884216 -0.9449158 0.90127563q-3.905426 1.678833 -7.7707825 3.2728882q1.980133 0.4180603 3.1665955 0.97927856q3.2204285 1.5232544 4.024292 3.7702332q0.8038635 2.2469788 -0.31860352 4.619873q-1.1625671 2.4576416 -3.1599426 3.1722107q-2.9960938 1.0718689 -6.1317444 -0.41131592q-2.9661865 -1.4029846 -3.680725 -3.400299q-0.5805664 -1.6228333 0.14102173 -3.1482544q0.48104858 -1.0169678 1.6045837 -1.4189148q1.248352 -0.44659424 2.3500977 0.074523926q1.5254517 0.7215271 2.0613708 2.219513q0.6252136 1.7476501 -0.15368652 4.4904785zm-1.8152466 -0.54748535q0.78808594 -2.3236694 0.38613892 -3.4471436q-0.31262207 -0.87384033 -0.9058533 -1.154419q-0.6779785 -0.3206787 -1.1773376 -0.14205933q-0.624176 0.22332764 -0.8647156 0.731781q-0.3607788 0.76272583 -0.0035095215 1.761383q0.44659424 1.2483215 1.8025513 1.8897095q0.33898926 0.16033936 0.76272583 0.3607483z" fill-rule="nonzero"/></g></svg>