<svg version="1.1" viewBox="0.0 0.0 948.6509186351706 118.83202099737532" fill="none" stroke="none" stroke-linecap="square" stroke-miterlimit="10" xmlns:xlink="http://www.w3.org/1999/xlink" xmlns="http://www.w3.org/2000/svg"><clipPath id="p.0"><path d="m0 0l948.65094 0l0 118.83202l-948.65094 0l0 -118.83202z" clip-rule="nonzero"/></clipPath><g clip-path="url(#p.0)"><path fill="#000000" fill-opacity="0.0" d="m0 0l948.65094 0l0 118.83202l-948.65094 0z" fill-rule="evenodd"/><path fill="#ffffff" d="m0.005249344 0l963.33856 0l0 118.83465l-963.33856 0z" fill-rule="evenodd"/><path stroke="#ffffff" stroke-width="1.0" stroke-linejoin="round" stroke-linecap="butt" d="m0.005249344 0l963.33856 0l0 118.83465l-963.33856 0z" fill-rule="evenodd"/><path fill="#000000" fill-opacity="0.0" d="m472.8399 77.13367l0 -35.11811" fill-rule="evenodd"/><path stroke="#000000" stroke-width="1.0" stroke-linejoin="round" stroke-linecap="butt" d="m472.8399 77.13367l0 -35.11811" fill-rule="evenodd"/><path fill="#000000" fill-opacity="0.0" d="m79.85827 77.13367l0 -35.11811" fill-rule="evenodd"/><path stroke="#000000" stroke-width="1.0" stroke-linejoin="round" stroke-linecap="butt" d="m79.85827 77.13367l0 -35.11811" fill-rule="evenodd"/><path fill="#000000" fill-opacity="0.0" d="m451.65714 0l68.47244 0l0 42.015747l-68.47244 0z" fill-rule="evenodd"/><path fill="#000000" d="m461.704 18.232498q5.484375 -2.21875 7.78125 -6.53125l1.5625 0.375q0.515625 0.078125 -0.078125 0.4375l-0.140625 0.296875q3.703125 3.5625 7.640625 4.6875l-0.59375 1.921875q-5.046875 -2.0 -7.859375 -5.5625q-2.015625 2.59375 -3.796875 3.78125l7.875 0l0 1.640625l-8.390625 0l0 -1.1875q-1.859375 1.25 -3.265625 1.78125l-0.734375 -1.640625zm12.765625 2.296875l1.328125 0.890625q0.296875 0.296875 -0.21875 0.375q-1.5625 4.53125 -2.828125 6.828125l-1.78125 -0.734375q1.5625 -2.75 2.53125 -5.34375l-9.5 0l0 -1.640625l10.234375 0l0.234375 -0.375z" fill-rule="nonzero"/><path fill="#000000" fill-opacity="0.0" d="m53.622047 0l68.47244 0l0 42.015747l-68.47244 0z" fill-rule="evenodd"/><path fill="#000000" d="m63.434547 26.623123q1.34375 -0.515625 2.671875 -1.34375l0 -4.8125l-2.21875 0l0 -1.421875l3.703125 0l0 6.171875q0.828125 1.40625 4.15625 1.40625l9.0625 0l-0.375 1.40625l-9.578125 0q-2.515625 0 -4.078125 -1.78125q-0.890625 0.890625 -2.515625 2.078125l-0.828125 -1.703125zm2.671875 -14.171875q1.484375 1.03125 2.3125 2.296875l-1.265625 1.265625q-1.109375 -1.484375 -2.296875 -2.453125l1.25 -1.109375zm7.203125 12.390625l-1.265625 0l0 -4.671875l4.90625 0l0 3.78125l-3.640625 0l0 0.890625zm2.375 -2.078125l0 -1.40625l-2.375 0l0 1.40625l2.375 0zm4.15625 1.625q0 1.265625 -1.265625 1.265625l-1.328125 0l-0.15625 -1.40625l0.96875 0q0.296875 0 0.296875 -0.296875l0 -4.828125l-7.859375 0l0 6.6875l-1.484375 0l0 -8.09375l1.625 0l0 -5.421875l7.71875 0l0 5.421875l1.484375 0l0 6.671875zm-2.75 -8.375l-2.21875 0l0 1.703125l2.21875 0l0 -1.703125zm0 -1.1875l0 -1.34375l-5.1875 0l0 4.234375l1.703125 0l0 -2.890625l3.484375 0zm20.421875 13.4375l-1.1875 -1.5l-11.734375 1.046875q-0.078125 0.59375 -0.375 0.296875l-0.515625 -2.078125l2.53125 -0.078125q1.625 -2.59375 2.8125 -5.484375l-6.234375 0l0 -1.421875l7.5 0l0 -3.1875l-5.796875 0l0 -1.40625l5.796875 0l0 -2.671875l1.40625 0q0.59375 0.078125 0.078125 0.4375l0 2.234375l5.78125 0l0 1.40625l-5.78125 0l0 3.1875l7.5 0l0 1.421875l-8.171875 0q-1.5625 3.109375 -3.109375 5.484375l7.421875 -0.4375q-1.421875 -1.640625 -2.53125 -2.609375l1.109375 -1.109375q2.375 1.703125 5.046875 5.28125l-1.546875 1.1875z" fill-rule="nonzero"/><path fill="#000000" fill-opacity="0.0" d="m80.69969 76.824875l782.6771 0" fill-rule="evenodd"/><path stroke="#000000" stroke-width="1.0" stroke-linejoin="round" stroke-linecap="butt" d="m80.69969 76.824875l776.6772 0" fill-rule="evenodd"/><path fill="#000000" stroke="#000000" stroke-width="1.0" stroke-linecap="butt" d="m857.3769 78.47661l4.538086 -1.6517334l-4.538086 -1.6517334z" fill-rule="evenodd"/><path fill="#000000" fill-opacity="0.0" d="m832.72363 0l64.031555 0l0 42.015747l-64.031555 0z" fill-rule="evenodd"/><path fill="#000000" d="m842.47363 25.435623q4.8125 -1.859375 7.265625 -5.421875l-6.53125 0l0 -1.625l7.203125 0l0 -2.234375l-5.71875 0l0 -1.625l5.71875 0l0 -2.671875l1.40625 0q0.75 0.140625 0.078125 0.59375l0 2.078125l5.5625 0l0 1.625l-5.5625 0l0 2.234375l7.265625 0l0 1.625l-6.59375 0q2.140625 3.265625 7.125 4.96875l-0.53125 1.78125q-4.515625 -1.40625 -7.265625 -5.34375l0 6.984375l-1.484375 0l0 -6.75q-3.5625 4.296875 -7.125 5.34375l-0.8125 -1.5625zm28.5 -6.15625q0.296875 0.4375 0.65625 0.953125q1.265625 -1.78125 2.234375 -4.078125l1.40625 0.296875q0.671875 0.21875 -0.078125 0.515625q-0.359375 0.75 -0.65625 1.265625q1.484375 0.59375 3.328125 2.15625l-0.890625 1.328125q-2.0 -1.625 -3.03125 -2.296875q-0.671875 1.046875 -1.265625 1.859375q4.078125 3.5625 6.078125 4.453125l-1.25 1.640625q-3.5 -2.15625 -6.53125 -5.71875l0 6.828125l-1.484375 0l0 -6.6875q-2.15625 3.125 -6.53125 6.015625l-1.125 -1.5625q5.28125 -3.046875 7.65625 -6.90625l0 -3.5625l-7.28125 0l0 -1.40625l7.28125 0l0 -2.75l1.40625 0q0.59375 0.078125 0.078125 0.453125l0 2.296875l7.265625 0l0 1.40625l-7.265625 0l0 3.5zm-4.390625 -0.671875q0.828125 0.4375 1.78125 1.265625l-0.890625 1.1875q-0.890625 -0.671875 -1.703125 -1.1875q-1.03125 1.25 -2.15625 2.140625l-1.109375 -1.1875q2.453125 -1.703125 3.484375 -4.59375l1.421875 0.21875q0.734375 0.21875 0 0.515625q-0.375 0.96875 -0.828125 1.640625z" fill-rule="nonzero"/><path fill="#000000" fill-opacity="0.0" d="m861.89954 77.13367l0 -35.11811" fill-rule="evenodd"/><path stroke="#000000" stroke-width="1.0" stroke-linejoin="round" stroke-linecap="butt" d="m861.89954 77.13367l0 -35.11811" fill-rule="evenodd"/><path fill="#000000" fill-opacity="0.0" d="m833.8058 76.82415l56.188965 0l0 42.015747l-56.188965 0z" fill-rule="evenodd"/><path fill="#000000" fill-opacity="0.0" d="m236.93448 76.82415l112.81891 0l0 42.015747l-112.81891 0z" fill-rule="evenodd"/><path fill="#000000" d="m255.5126 93.6504q-0.296875 8.984375 -6.828125 11.359375l-0.75 -1.421875q2.90625 -1.03125 4.609375 -3.703125q-1.046875 -1.109375 -2.53125 -2.15625q-0.734375 1.109375 -1.84375 2.078125l-0.96875 -1.265625q2.890625 -2.21875 3.40625 -7.421875l-3.40625 0l0 -1.40625l16.171875 0l0 1.40625l-5.34375 0l0 5.125q2.3125 -1.265625 3.640625 -2.59375l0.96875 1.1875q0.671875 0.671875 -0.21875 0.4375q-1.78125 1.1875 -4.390625 2.609375l0 4.59375q0 0.59375 0.53125 0.59375l2.4375 0q0.828125 0 0.96875 -0.734375l0.296875 -1.78125l1.703125 0.4375l-0.359375 1.9375q-0.296875 1.5625 -1.78125 1.5625l-4.015625 0q-1.265625 0 -1.265625 -1.34375l0 -12.03125l-4.375 0q-0.140625 1.34375 -0.4375 2.53125l3.78125 0zm-4.828125 2.890625q1.5625 0.96875 2.53125 1.859375q0.515625 -1.484375 0.734375 -3.5625l-2.59375 0q-0.21875 0.890625 -0.671875 1.703125zm22.71875 2.15625q-0.15625 -0.890625 -1.046875 -0.890625q-1.859375 0 -3.1875 2.21875q-0.8125 1.34375 -1.640625 3.421875l-1.703125 -0.890625q3.046875 -4.75 7.28125 -13.515625l1.625 0.890625q0.515625 0.53125 -0.21875 0.59375q-1.5625 2.3125 -3.71875 6.3125q1.265625 -0.515625 2.234375 -0.515625q0.890625 0 1.40625 0.515625q0.515625 0.515625 0.671875 2.078125l0.4375 2.828125q0.15625 0.953125 1.1875 0.953125q0.96875 0 1.640625 -0.65625q1.40625 -1.421875 2.21875 -5.578125l1.640625 0.828125q-0.96875 4.21875 -2.296875 5.5625q-1.484375 1.484375 -3.34375 1.484375q-2.296875 0 -2.671875 -2.453125l-0.515625 -3.1875zm25.679688 -2.078125q-4.3125 0.140625 -6.765625 1.1875l-0.4375 -1.484375q3.1875 -1.265625 6.90625 -1.265625l0.296875 1.5625zm0.359375 6.15625l0 1.640625l-3.265625 0q-2.8125 0 -5.34375 -1.34375l0.671875 -1.328125q1.9375 1.03125 4.671875 1.03125l3.265625 0zm-6.59375 -9.28125q-1.9375 0.375 -3.640625 0.59375q-1.109375 6.609375 -2.75 10.46875l-1.625 -0.515625q2.0 -4.671875 2.8125 -9.796875q-1.859375 0.140625 -3.1875 0.140625l-0.296875 -1.484375q2.078125 0 3.703125 -0.140625q0.296875 -2.296875 0.53125 -4.015625l1.484375 0.296875q0.8125 0.234375 0.140625 0.59375q-0.21875 0.890625 -0.59375 2.96875q1.703125 -0.21875 3.125 -0.59375l0.296875 1.484375zm4.453125 -5.046875q1.1875 0.671875 2.890625 1.9375l-0.671875 1.03125q-1.625 -1.1875 -2.890625 -1.921875l0.671875 -1.046875zm-1.484375 1.484375q1.328125 0.828125 2.890625 1.9375l-0.671875 1.03125q-1.625 -1.109375 -2.890625 -1.921875l0.671875 -1.046875z" fill-rule="nonzero"/><path fill="#000000" fill-opacity="0.0" d="m272.8399 77.13367l0 -35.11811" fill-rule="evenodd"/><path stroke="#000000" stroke-width="1.0" stroke-linejoin="round" stroke-linecap="butt" d="m272.8399 77.13367l0 -35.11811" fill-rule="evenodd"/><path fill="#000000" fill-opacity="0.0" d="m415.92392 76.82415l112.81888 0l0 42.015747l-112.81888 0z" fill-rule="evenodd"/><path fill="#000000" d="m434.50204 93.6504q-0.296875 8.984375 -6.828125 11.359375l-0.75 -1.421875q2.90625 -1.03125 4.609375 -3.703125q-1.046875 -1.109375 -2.53125 -2.15625q-0.734375 1.109375 -1.84375 2.078125l-0.96875 -1.265625q2.890625 -2.21875 3.40625 -7.421875l-3.40625 0l0 -1.40625l16.171875 0l0 1.40625l-5.34375 0l0 5.125q2.3125 -1.265625 3.640625 -2.59375l0.96875 1.1875q0.671875 0.671875 -0.21875 0.4375q-1.78125 1.1875 -4.390625 2.609375l0 4.59375q0 0.59375 0.53125 0.59375l2.4375 0q0.828125 0 0.96875 -0.734375l0.296875 -1.78125l1.703125 0.4375l-0.359375 1.9375q-0.296875 1.5625 -1.78125 1.5625l-4.015625 0q-1.265625 0 -1.265625 -1.34375l0 -12.03125l-4.375 0q-0.140625 1.34375 -0.4375 2.53125l3.78125 0zm-4.828125 2.890625q1.5625 0.96875 2.53125 1.859375q0.515625 -1.484375 0.734375 -3.5625l-2.59375 0q-0.21875 0.890625 -0.671875 1.703125zm22.71875 2.15625q-0.15625 -0.890625 -1.046875 -0.890625q-1.859375 0 -3.1875 2.21875q-0.8125 1.34375 -1.640625 3.421875l-1.703125 -0.890625q3.046875 -4.75 7.28125 -13.515625l1.625 0.890625q0.515625 0.53125 -0.21875 0.59375q-1.5625 2.3125 -3.71875 6.3125q1.265625 -0.515625 2.234375 -0.515625q0.890625 0 1.40625 0.515625q0.515625 0.515625 0.671875 2.078125l0.4375 2.828125q0.15625 0.953125 1.1875 0.953125q0.96875 0 1.640625 -0.65625q1.40625 -1.421875 2.21875 -5.578125l1.640625 0.828125q-0.96875 4.21875 -2.296875 5.5625q-1.484375 1.484375 -3.34375 1.484375q-2.296875 0 -2.671875 -2.453125l-0.515625 -3.1875zm25.820312 -6.609375q-2.59375 0 -4.078125 0.515625q-1.640625 0.59375 -3.046875 2.015625q-1.40625 1.40625 -1.40625 3.625q0 1.78125 1.109375 2.90625q1.484375 1.484375 5.71875 1.625l-0.59375 1.640625q-4.375 -0.21875 -6.09375 -1.9375q-1.703125 -1.703125 -1.703125 -4.15625q0 -3.484375 2.75 -5.484375q-3.484375 0.515625 -7.125 1.03125l-0.453125 -1.703125q7.28125 -0.515625 14.625 -1.78125l0.296875 1.703125zm-1.625 5.796875q-1.640625 -1.1875 -2.828125 -1.859375l0.75 -0.890625q1.109375 0.671875 2.8125 1.859375l-0.734375 0.890625zm1.484375 -1.78125q-1.78125 -1.265625 -2.828125 -1.859375l0.75 -0.890625q1.03125 0.59375 2.8125 1.859375l-0.734375 0.890625zm9.566406 3.921875q-0.671875 1.71875 -1.40625 2.609375q-1.046875 1.265625 -2.078125 1.265625q-1.859375 0 -2.75 -2.15625q-0.515625 -1.265625 -0.515625 -5.421875q0 -2.96875 0.296875 -6.015625l1.5625 0.375q0.890625 0.21875 0.0625 0.734375q-0.296875 2.75 -0.296875 4.984375q0 3.03125 0.375 4.296875q0.375 1.265625 1.109375 1.265625q0.828125 0 1.421875 -1.1875q0.359375 -0.75 0.734375 -1.78125l1.484375 1.03125zm4.375 -8.671875q3.34375 3.484375 4.09375 8.453125l-2.015625 0.515625q-0.890625 -5.1875 -3.625 -8.078125l1.546875 -0.890625zm15.7421875 12.015625q1.1875 -0.140625 2.0 -0.96875q0.890625 -0.890625 0.890625 -2.375q0 -1.625 -0.96875 -2.59375q-0.953125 -0.96875 -3.03125 -0.96875q-2.453125 0 -3.796875 0.96875q-1.25 0.890625 -3.265625 3.1875l-1.25 -1.109375q5.34375 -5.34375 8.078125 -8.90625q-2.4375 0.296875 -4.890625 0.515625l-0.515625 -1.703125q3.625 0 6.453125 -0.375l0.671875 -0.296875l0.8125 0.828125q0.8125 0.734375 -0.375 0.953125q-2.21875 2.53125 -4.453125 4.984375q1.5625 -0.375 2.59375 -0.375q2.828125 0 4.15625 1.328125q1.3437805 1.34375 1.3437805 3.421875q0 2.15625 -1.1875305 3.34375q-1.78125 1.78125 -4.53125 1.78125q-2.59375 0 -3.78125 -1.1875q-0.96875 -0.96875 -0.96875 -2.3125q0 -0.890625 0.671875 -1.546875q0.734375 -0.75 1.703125 -0.75q1.34375 0 2.234375 0.890625q1.03125 1.046875 1.40625 3.265625zm-1.484375 0.21875q-0.21875 -1.921875 -0.890625 -2.59375q-0.515625 -0.515625 -1.046875 -0.515625q-0.59375 0 -0.890625 0.296875q-0.359375 0.375 -0.359375 0.8125q0 0.671875 0.59375 1.265625q0.734375 0.734375 1.921875 0.734375q0.296875 0 0.671875 0z" fill-rule="nonzero"/></g></svg>