<svg version="1.1" viewBox="0.0 0.0 957.0603674540682 247.56430446194227" fill="none" stroke="none" stroke-linecap="square" stroke-miterlimit="10" xmlns:xlink="http://www.w3.org/1999/xlink" xmlns="http://www.w3.org/2000/svg"><clipPath id="p.0"><path d="m0 0l957.06036 0l0 247.5643l-957.06036 0l0 -247.5643z" clip-rule="nonzero"/></clipPath><g clip-path="url(#p.0)"><path fill="#000000" fill-opacity="0.0" d="m0 0l957.06036 0l0 247.5643l-957.06036 0z" fill-rule="evenodd"/><path fill="#ffffff" d="m4.07874 3.32021l947.30707 0l0 240.47244l-947.30707 0z" fill-rule="evenodd"/><path stroke="#ffffff" stroke-width="1.0" stroke-linejoin="round" stroke-linecap="butt" d="m4.07874 3.32021l947.30707 0l0 240.47244l-947.30707 0z" fill-rule="evenodd"/><path fill="#cfe2f3" d="m53.192913 120.03412l0 0c0 -43.40001 35.182667 -78.58267 78.58267 -78.58267l0 0c20.84143 0 40.82924 8.279224 55.566345 23.01633c14.737106 14.737114 23.016327 34.724922 23.016327 55.566345l0 0c0 43.40001 -35.182663 78.58267 -78.58267 78.58267l0 0c-43.40001 0 -78.58267 -35.182663 -78.58267 -78.58267z" fill-rule="evenodd"/><path stroke="#000000" stroke-width="1.0" stroke-linejoin="round" stroke-linecap="butt" d="m53.192913 120.03412l0 0c0 -43.40001 35.182667 -78.58267 78.58267 -78.58267l0 0c20.84143 0 40.82924 8.279224 55.566345 23.01633c14.737106 14.737114 23.016327 34.724922 23.016327 55.566345l0 0c0 43.40001 -35.182663 78.58267 -78.58267 78.58267l0 0c-43.40001 0 -78.58267 -35.182663 -78.58267 -78.58267z" fill-rule="evenodd"/><path fill="#000000" d="m140.79317 131.05911l0 3.375l-18.921875 0q-0.046875 -1.265625 0.40625 -2.4375q0.71875 -1.9375 2.3125 -3.8125q1.59375 -1.875 4.59375 -4.34375q4.671875 -3.828125 6.3125 -6.0625q1.640625 -2.234375 1.640625 -4.21875q0 -2.09375 -1.5 -3.53125q-1.484375 -1.4375 -3.890625 -1.4375q-2.53125 0 -4.0625 1.53125q-1.515625 1.515625 -1.546875 4.21875l-3.609375 -0.375q0.375 -4.046875 2.796875 -6.15625q2.421875 -2.125 6.5 -2.125q4.125 0 6.515625 2.28125q2.40625 2.28125 2.40625 5.671875q0 1.71875 -0.703125 3.375q-0.703125 1.65625 -2.328125 3.5q-1.625 1.828125 -5.421875 5.03125q-3.15625 2.65625 -4.0625 3.609375q-0.890625 0.9375 -1.484375 1.90625l14.046875 0z" fill-rule="nonzero"/><path fill="#cfe2f3" d="m285.34253 120.03412l0 0c0 -43.40001 35.182648 -78.58267 78.58267 -78.58267l0 0c20.84143 0 40.829224 8.279224 55.566345 23.01633c14.737091 14.737114 23.016327 34.724922 23.016327 55.566345l0 0c0 43.40001 -35.182648 78.58267 -78.58267 78.58267l0 0c-43.400024 0 -78.58267 -35.182663 -78.58267 -78.58267z" fill-rule="evenodd"/><path stroke="#000000" stroke-width="1.0" stroke-linejoin="round" stroke-linecap="butt" d="m285.34253 120.03412l0 0c0 -43.40001 35.182648 -78.58267 78.58267 -78.58267l0 0c20.84143 0 40.829224 8.279224 55.566345 23.01633c14.737091 14.737114 23.016327 34.724922 23.016327 55.566345l0 0c0 43.40001 -35.182648 78.58267 -78.58267 78.58267l0 0c-43.400024 0 -78.58267 -35.182663 -78.58267 -78.58267z" fill-rule="evenodd"/><path fill="#000000" d="m359.88028 118.90286q-2.1875 -0.796875 -3.25 -2.28125q-1.046875 -1.484375 -1.046875 -3.5625q0 -3.125 2.234375 -5.25q2.25 -2.125 5.984375 -2.125q3.75 0 6.03125 2.1875q2.28125 2.171875 2.28125 5.296875q0 1.984375 -1.046875 3.46875q-1.03125 1.46875 -3.171875 2.265625q2.640625 0.859375 4.015625 2.78125q1.375 1.90625 1.375 4.5625q0 3.671875 -2.59375 6.171875q-2.59375 2.5 -6.828125 2.5q-4.25 0 -6.84375 -2.5q-2.59375 -2.515625 -2.59375 -6.265625q0 -2.796875 1.40625 -4.671875q1.421875 -1.890625 4.046875 -2.578125zm-0.703125 -5.953125q0 2.03125 1.296875 3.328125q1.3125 1.28125 3.40625 1.28125q2.03125 0 3.328125 -1.28125q1.296875 -1.28125 1.296875 -3.140625q0 -1.921875 -1.34375 -3.234375q-1.328125 -1.328125 -3.328125 -1.328125q-2.0 0 -3.328125 1.296875q-1.328125 1.28125 -1.328125 3.078125zm-1.140625 13.21875q0 1.5 0.703125 2.90625q0.71875 1.40625 2.125 2.1875q1.40625 0.765625 3.03125 0.765625q2.515625 0 4.15625 -1.609375q1.640625 -1.625 1.640625 -4.125q0 -2.546875 -1.6875 -4.203125q-1.6875 -1.65625 -4.21875 -1.65625q-2.484375 0 -4.125 1.640625q-1.625 1.640625 -1.625 4.09375z" fill-rule="nonzero"/><path fill="#cfe2f3" d="m517.4921 120.03412l0 0c0 -43.40001 35.18268 -78.58267 78.5827 -78.58267l0 0c20.84137 0 40.829224 8.279224 55.566345 23.01633c14.737061 14.737114 23.016296 34.724922 23.016296 55.566345l0 0c0 43.40001 -35.18268 78.58267 -78.58264 78.58267l0 0c-43.400024 0 -78.5827 -35.182663 -78.5827 -78.58267z" fill-rule="evenodd"/><path stroke="#000000" stroke-width="1.0" stroke-linejoin="round" stroke-linecap="butt" d="m517.4921 120.03412l0 0c0 -43.40001 35.18268 -78.58267 78.5827 -78.58267l0 0c20.84137 0 40.829224 8.279224 55.566345 23.01633c14.737061 14.737114 23.016296 34.724922 23.016296 55.566345l0 0c0 43.40001 -35.18268 78.58267 -78.58264 78.58267l0 0c-43.400024 0 -78.5827 -35.182663 -78.5827 -78.58267z" fill-rule="evenodd"/><path fill="#000000" d="m588.735 134.43411l-3.515625 0l0 -22.40625q-1.265625 1.21875 -3.328125 2.4375q-2.0625 1.203125 -3.703125 1.796875l0 -3.390625q2.953125 -1.390625 5.15625 -3.359375q2.203125 -1.96875 3.125 -3.828125l2.265625 0l0 28.75zm8.996094 -7.5l3.703125 -0.3125q0.40625 2.6875 1.890625 4.046875q1.5 1.359375 3.609375 1.359375q2.546875 0 4.296875 -1.90625q1.765625 -1.921875 1.765625 -5.078125q0 -3.015625 -1.703125 -4.75q-1.6875 -1.734375 -4.421875 -1.734375q-1.6875 0 -3.0625 0.765625q-1.359375 0.765625 -2.140625 2.0l-3.3125 -0.421875l2.78125 -14.71875l14.234375 0l0 3.359375l-11.421875 0l-1.546875 7.703125q2.578125 -1.796875 5.40625 -1.796875q3.75 0 6.328125 2.59375q2.578125 2.59375 2.578125 6.6875q0 3.875 -2.265625 6.71875q-2.75 3.46875 -7.515625 3.46875q-3.90625 0 -6.375 -2.1875q-2.46875 -2.1875 -2.828125 -5.796875z" fill-rule="nonzero"/><path fill="#cfe2f3" d="m749.6417 120.03412l0 0c0 -43.40001 35.18268 -78.58267 78.5827 -78.58267l0 0c20.84143 0 40.829224 8.279224 55.566345 23.01633c14.737122 14.737114 23.016296 34.724922 23.016296 55.566345l0 0c0 43.40001 -35.182617 78.58267 -78.58264 78.58267l0 0c-43.400024 0 -78.5827 -35.182663 -78.5827 -78.58267z" fill-rule="evenodd"/><path stroke="#000000" stroke-width="1.0" stroke-linejoin="round" stroke-linecap="butt" d="m749.6417 120.03412l0 0c0 -43.40001 35.18268 -78.58267 78.5827 -78.58267l0 0c20.84143 0 40.829224 8.279224 55.566345 23.01633c14.737122 14.737114 23.016296 34.724922 23.016296 55.566345l0 0c0 43.40001 -35.182617 78.58267 -78.58264 78.58267l0 0c-43.400024 0 -78.5827 -35.182663 -78.5827 -78.58267z" fill-rule="evenodd"/><path fill="#000000" d="m807.66583 126.87161l3.515625 -0.46875q0.59375 2.984375 2.046875 4.3125q1.46875 1.3125 3.546875 1.3125q2.484375 0 4.1875 -1.71875q1.71875 -1.71875 1.71875 -4.25q0 -2.421875 -1.59375 -4.0q-1.578125 -1.578125 -4.015625 -1.578125q-1.0 0 -2.484375 0.390625l0.390625 -3.078125q0.359375 0.03125 0.578125 0.03125q2.234375 0 4.03125 -1.171875q1.796875 -1.171875 1.796875 -3.609375q0 -1.9375 -1.3125 -3.203125q-1.296875 -1.265625 -3.375 -1.265625q-2.046875 0 -3.421875 1.296875q-1.359375 1.28125 -1.75 3.859375l-3.515625 -0.625q0.640625 -3.53125 2.921875 -5.46875q2.296875 -1.953125 5.6875 -1.953125q2.34375 0 4.3125 1.015625q1.984375 1.0 3.03125 2.734375q1.046875 1.734375 1.046875 3.6875q0 1.859375 -1.0 3.390625q-1.0 1.515625 -2.953125 2.40625q2.546875 0.59375 3.953125 2.4375q1.40625 1.84375 1.40625 4.625q0 3.75 -2.734375 6.359375q-2.734375 2.609375 -6.921875 2.609375q-3.765625 0 -6.265625 -2.25q-2.484375 -2.25 -2.828125 -5.828125zm22.214844 -6.5625q0 -5.078125 1.046875 -8.171875q1.046875 -3.09375 3.109375 -4.765625q2.0625 -1.6875 5.1875 -1.6875q2.296875 0 4.03125 0.9375q1.75 0.921875 2.875 2.671875q1.140625 1.734375 1.78125 4.25q0.640625 2.515625 0.640625 6.765625q0 5.046875 -1.03125 8.140625q-1.03125 3.09375 -3.09375 4.78125q-2.0625 1.6875 -5.203125 1.6875q-4.140625 0 -6.5 -2.96875q-2.84375 -3.578125 -2.84375 -11.640625zm3.625 0q0 7.046875 1.640625 9.390625q1.65625 2.328125 4.078125 2.328125q2.421875 0 4.0625 -2.34375q1.65625 -2.34375 1.65625 -9.375q0 -7.0625 -1.65625 -9.390625q-1.640625 -2.328125 -4.109375 -2.328125q-2.421875 0 -3.859375 2.046875q-1.8125 2.625 -1.8125 9.671875z" fill-rule="nonzero"/><path fill="#000000" fill-opacity="0.0" d="m210.35826 120.03412l74.99214 0" fill-rule="evenodd"/><path stroke="#000000" stroke-width="1.0" stroke-linejoin="round" stroke-linecap="butt" d="m210.35826 120.03412l68.99214 0" fill-rule="evenodd"/><path fill="#000000" stroke="#000000" stroke-width="1.0" stroke-linecap="butt" d="m279.3504 121.68585l4.538086 -1.6517334l-4.538086 -1.6517334z" fill-rule="evenodd"/><path fill="#000000" fill-opacity="0.0" d="m442.50787 120.03412l74.99213 0" fill-rule="evenodd"/><path stroke="#000000" stroke-width="1.0" stroke-linejoin="round" stroke-linecap="butt" d="m442.50787 120.03412l68.99213 0" fill-rule="evenodd"/><path fill="#000000" stroke="#000000" stroke-width="1.0" stroke-linecap="butt" d="m511.5 121.68585l4.538086 -1.6517334l-4.538086 -1.6517334z" fill-rule="evenodd"/><path fill="#000000" fill-opacity="0.0" d="m674.6575 120.03412l74.99213 0" fill-rule="evenodd"/><path stroke="#000000" stroke-width="1.0" stroke-linejoin="round" stroke-linecap="butt" d="m674.6575 120.03412l68.99213 0" fill-rule="evenodd"/><path fill="#000000" stroke="#000000" stroke-width="1.0" stroke-linecap="butt" d="m743.6496 121.68585l4.538086 -1.6517334l-4.538086 -1.6517334z" fill-rule="evenodd"/></g></svg>