<svg height="512pt" viewBox="0 0 512 512" width="512pt" xmlns="http://www.w3.org/2000/svg"><path d="m286.910156 0h-135.425781c-14.496094 0-27.183594 9.742188-30.910156 23.761719l-119.472657 448c-5.425781 20.300781 9.886719 40.238281 30.910157 40.238281h78.640625c14.878906 0 27.777344-10.238281 31.167968-24.734375l16.625-71.265625h121.503907l16.625 71.265625c3.375 14.496094 16.285156 24.734375 31.148437 24.734375h78.640625c21.023438 0 36.335938-19.9375 30.914063-40.238281l-119.472656-448c-3.710938-14.019531-16.398438-23.761719-30.894532-23.761719zm-129.984375 320 43.742188-224h37.054687l43.746094 224zm0 0" fill="#48c8ef"/><path d="m415.996094 224h-144v96h128c8.832031 0 16 7.183594 16 16v16h-64c-44.113282 0-80 35.886719-80 80s35.886718 80 80 80h160v-192c0-52.945312-43.054688-96-96-96zm16 224h-64c-8.832032 0-16-7.167969-16-16s7.167968-16 16-16h64c8.832031 0 16 7.167969 16 16s-7.167969 16-16 16zm0 0" fill="#e76e54"/></svg>