<svg version="1.1" viewBox="0.0 0.0 962.3412073490814 110.63517060367454" fill="none" stroke="none" stroke-linecap="square" stroke-miterlimit="10" xmlns:xlink="http://www.w3.org/1999/xlink" xmlns="http://www.w3.org/2000/svg"><clipPath id="p.0"><path d="m0 0l962.3412 0l0 110.63517l-962.3412 0l0 -110.63517z" clip-rule="nonzero"/></clipPath><g clip-path="url(#p.0)"><path fill="#000000" fill-opacity="0.0" d="m0 0l962.3412 0l0 110.63517l-962.3412 0z" fill-rule="evenodd"/><path fill="#ffffff" d="m0 0l962.3307 0l0 124.69292l-962.3307 0z" fill-rule="evenodd"/><path stroke="#ffffff" stroke-width="1.0" stroke-linejoin="round" stroke-linecap="butt" d="m0 0l962.3307 0l0 124.69292l-962.3307 0z" fill-rule="evenodd"/><path fill="#000000" fill-opacity="0.0" d="m255.10153 73.81628l418.86612 0" fill-rule="evenodd"/><path stroke="#000000" stroke-width="1.0" stroke-linejoin="round" stroke-linecap="butt" stroke-dasharray="4.0,3.0" d="m255.10155 73.81628l412.86615 0" fill-rule="evenodd"/><path fill="#000000" stroke="#000000" stroke-width="1.0" stroke-linecap="butt" d="m667.9677 75.468l4.538086 -1.6517258l-4.538086 -1.6517334z" fill-rule="evenodd"/><path fill="#000000" fill-opacity="0.0" d="m394.61154 73.81628l138.58267 0l0 42.015747l-138.58267 0z" fill-rule="evenodd"/><path fill="#000000" d="m406.87717 95.986275q0.515625 0.140625 0 0.4375q0 2.53125 -0.671875 4.46875l-1.484375 -0.671875q0.671875 -2.15625 0.59375 -4.390625l1.5625 0.15625zm4.15625 -2.078125l-1.78125 0.21875l0 8.25l-1.484375 0l0 -8.03125l-2.75 0.234375q-0.0625 0.515625 -0.359375 0.21875l-0.296875 -1.703125l1.703125 0q0.59375 -0.59375 1.109375 -1.265625q-1.265625 -1.046875 -2.59375 -1.859375l0.734375 -1.1875l0.59375 0.296875q1.421875 -2.078125 2.234375 -3.78125l1.40625 0.8125q0.296875 0.296875 -0.296875 0.375q-0.734375 1.484375 -2.21875 3.34375l1.03125 0.8125q1.1875 -1.703125 2.078125 -3.34375l1.265625 0.75q0.4375 0.296875 -0.15625 0.359375q-1.03125 1.859375 -3.484375 4.609375l2.828125 -0.15625q-0.375 -0.734375 -0.890625 -1.40625l1.25 -0.515625q1.125 1.03125 2.015625 3.34375l-1.484375 0.65625l-0.453125 -1.03125zm-0.21875 5.859375q-0.296875 -2.296875 -0.890625 -3.859375l1.328125 -0.4375q0.828125 1.40625 1.125 3.859375l-1.5625 0.4375zm8.53125 0.078125l0 -3.484375l-4.453125 0l0 3.484375l4.453125 0zm-4.453125 1.40625l0 1.046875l-1.484375 0l0 -7.359375l7.421875 0l0 7.140625l-1.484375 0l0 -0.828125l-4.453125 0zm2.828125 -9.421875l3.40625 0l0 1.40625l-8.15625 0l0 -1.40625l3.265625 0l0 -2.296875l-3.859375 0l0 -1.421875l3.859375 0l0 -2.671875l1.40625 0q0.59375 0.078125 0.078125 0.453125l0 2.21875l3.921875 0l0 1.421875l-3.921875 0l0 2.296875zm5.9375 8.984375q2.078125 -1.484375 3.328125 -3.265625q-0.734375 -0.75 -1.40625 -1.265625l-0.21875 0.8125l-1.484375 -0.4375q0.8125 -2.90625 1.40625 -6.234375l-1.484375 0l0 -1.421875l1.703125 0q0.234375 -1.625 0.453125 -3.265625l1.625 0.296875q0.296875 0.234375 -0.296875 0.453125q-0.140625 1.265625 -0.359375 2.515625l1.703125 0l0.21875 -0.21875l1.109375 0.75l-0.21875 0.296875q0.078125 3.1875 -0.96875 7.1875q0.75 0.59375 1.484375 1.1875l-0.890625 1.640625q-0.515625 -0.59375 -1.25 -1.265625q-1.484375 2.078125 -3.5 3.5625l-0.953125 -1.328125zm3.921875 -4.6875q0.671875 -3.328125 0.671875 -5.703125l-1.5625 0q-0.359375 2.296875 -0.8125 4.515625q0.75 0.375 1.703125 1.1875zm10.546875 -3.921875q1.265625 1.328125 1.265625 -0.234375l0 -0.59375l1.40625 0.53125l-0.15625 1.546875q-0.140625 1.421875 -1.484375 1.046875l0 7.640625l-1.25 0l0 -0.8125l-4.90625 0l0 1.046875l-1.265625 0l0 -8.03125l6.984375 0q-2.375 -1.03125 -3.1875 -4.078125l-3.125 0l0 2.0q1.484375 -0.296875 2.96875 -0.59375l0.15625 1.1875q-1.859375 0.53125 -4.6875 1.046875q-0.140625 0.515625 -0.296875 0.21875l-0.4375 -1.484375q0.515625 -0.078125 1.03125 -0.140625l0 -6.09375l1.34375 0.21875q2.21875 -0.21875 5.421875 -1.03125l1.03125 1.265625q0.15625 0.296875 -0.515625 0.0625q-1.046875 0.234375 -2.078125 0.375l0.296875 1.78125l3.484375 0l0 1.1875l-3.1875 0q0.140625 0.8125 1.1875 1.9375zm-3.046875 -4.6875q-1.328125 0.15625 -2.671875 0.296875l0 1.265625l2.890625 0l-0.21875 -1.5625zm-2.078125 9.734375l4.90625 0l0 -1.71875l-4.90625 0l0 1.71875zm0 2.890625l4.90625 0l0 -1.703125l-4.90625 0l0 1.703125zm22.421875 -2.078125q-3.203125 3.484375 -6.90625 3.484375q-2.671875 0 -3.9375 -1.265625q-0.96875 -0.953125 -0.96875 -3.703125l0 -9.953125l1.5625 0q0.671875 0.15625 0.15625 0.59375l0 9.359375q0 1.859375 0.65625 2.515625q0.828125 0.828125 2.453125 0.828125q2.890625 0 5.859375 -3.265625l1.125 1.40625zm16.765625 -8.984375q-2.59375 0 -4.078125 0.515625q-1.640625 0.59375 -3.046875 2.015625q-1.40625 1.40625 -1.40625 3.625q0 1.78125 1.109375 2.90625q1.484375 1.484375 5.71875 1.625l-0.59375 1.640625q-4.375 -0.21875 -6.09375 -1.9375q-1.703125 -1.703125 -1.703125 -4.15625q0 -3.484375 2.75 -5.484375q-3.484375 0.515625 -7.125 1.03125l-0.453125 -1.703125q7.28125 -0.515625 14.625 -1.78125l0.296875 1.703125zm9.425781 7.9375q-0.671875 1.71875 -1.40625 2.609375q-1.046875 1.265625 -2.078125 1.265625q-1.859375 0 -2.75 -2.15625q-0.515625 -1.265625 -0.515625 -5.421875q0 -2.96875 0.296875 -6.015625l1.5625 0.375q0.890625 0.21875 0.0625 0.734375q-0.296875 2.75 -0.296875 4.984375q0 3.03125 0.375 4.296875q0.375 1.265625 1.109375 1.265625q0.828125 0 1.421875 -1.1875q0.359375 -0.75 0.734375 -1.78125l1.484375 1.03125zm4.375 -8.671875q3.34375 3.484375 4.09375 8.453125l-2.015625 0.515625q-0.890625 -5.1875 -3.625 -8.078125l1.546875 -0.890625zm15.7421875 12.015625q1.1875 -0.140625 2.0 -0.96875q0.890625 -0.890625 0.890625 -2.375q0 -1.625 -0.96875 -2.59375q-0.953125 -0.96875 -3.03125 -0.96875q-2.453125 0 -3.796875 0.96875q-1.25 0.890625 -3.265625 3.1875l-1.25 -1.109375q5.34375 -5.34375 8.078125 -8.90625q-2.4375 0.296875 -4.890625 0.515625l-0.515625 -1.703125q3.625 0 6.453125 -0.375l0.671875 -0.296875l0.8125 0.828125q0.8125 0.734375 -0.375 0.953125q-2.21875 2.53125 -4.453125 4.984375q1.5625 -0.375 2.59375 -0.375q2.828125 0 4.15625 1.328125q1.34375 1.34375 1.34375 3.421875q0 2.15625 -1.1875 3.34375q-1.78125 1.78125 -4.53125 1.78125q-2.59375 0 -3.78125 -1.1875q-0.96875 -0.96875 -0.96875 -2.3125q0 -0.890625 0.671875 -1.546875q0.734375 -0.75 1.703125 -0.75q1.34375 0 2.234375 0.890625q1.03125 1.046875 1.40625 3.265625zm-1.484375 0.21875q-0.21875 -1.921875 -0.890625 -2.59375q-0.515625 -0.515625 -1.046875 -0.515625q-0.59375 0 -0.890625 0.296875q-0.359375 0.375 -0.359375 0.8125q0 0.671875 0.59375 1.265625q0.734375 0.734375 1.921875 0.734375q0.296875 0 0.671875 0z" fill-rule="nonzero"/><path fill="#000000" fill-opacity="0.0" d="m255.85826 75.37757l0 -35.118114" fill-rule="evenodd"/><path stroke="#000000" stroke-width="1.0" stroke-linejoin="round" stroke-linecap="butt" d="m255.85826 75.37757l0 -35.118114" fill-rule="evenodd"/><path fill="#000000" fill-opacity="0.0" d="m224.56686 0l64.28348 0l0 42.015747l-64.28348 0z" fill-rule="evenodd"/><path fill="#000000" d="m234.37936 26.623123q1.34375 -0.515625 2.671875 -1.34375l0 -4.8125l-2.21875 0l0 -1.421875l3.703125 0l0 6.171875q0.828125 1.40625 4.15625 1.40625l9.0625 0l-0.375 1.40625l-9.578125 0q-2.515625 0 -4.078125 -1.78125q-0.890625 0.890625 -2.515625 2.078125l-0.828125 -1.703125zm2.671875 -14.171875q1.484375 1.03125 2.3125 2.296875l-1.265625 1.265625q-1.109375 -1.484375 -2.296875 -2.453125l1.25 -1.109375zm7.203125 12.390625l-1.265625 0l0 -4.671875l4.90625 0l0 3.78125l-3.640625 0l0 0.890625zm2.375 -2.078125l0 -1.40625l-2.375 0l0 1.40625l2.375 0zm4.15625 1.625q0 1.265625 -1.265625 1.265625l-1.328125 0l-0.15625 -1.40625l0.96875 0q0.296875 0 0.296875 -0.296875l0 -4.828125l-7.859375 0l0 6.6875l-1.484375 0l0 -8.09375l1.625 0l0 -5.421875l7.71875 0l0 5.421875l1.484375 0l0 6.671875zm-2.75 -8.375l-2.21875 0l0 1.703125l2.21875 0l0 -1.703125zm0 -1.1875l0 -1.34375l-5.1875 0l0 4.234375l1.703125 0l0 -2.890625l3.484375 0zm20.421875 13.4375l-1.1875 -1.5l-11.734375 1.046875q-0.078125 0.59375 -0.375 0.296875l-0.515625 -2.078125l2.53125 -0.078125q1.625 -2.59375 2.8125 -5.484375l-6.234375 0l0 -1.421875l7.5 0l0 -3.1875l-5.796875 0l0 -1.40625l5.796875 0l0 -2.671875l1.40625 0q0.59375 0.078125 0.078125 0.4375l0 2.234375l5.78125 0l0 1.40625l-5.78125 0l0 3.1875l7.5 0l0 1.421875l-8.171875 0q-1.5625 3.109375 -3.109375 5.484375l7.421875 -0.4375q-1.421875 -1.640625 -2.53125 -2.609375l1.109375 -1.109375q2.375 1.703125 5.046875 5.28125l-1.546875 1.1875z" fill-rule="nonzero"/><path fill="#000000" fill-opacity="0.0" d="m207.508 73.81628l109.165344 0l0 42.015747l-109.165344 0z" fill-rule="evenodd"/><path fill="#000000" d="m219.77362 95.986275q0.515625 0.140625 0 0.4375q0 2.53125 -0.671875 4.46875l-1.484375 -0.671875q0.671875 -2.15625 0.59375 -4.390625l1.5625 0.15625zm4.15625 -2.078125l-1.78125 0.21875l0 8.25l-1.484375 0l0 -8.03125l-2.75 0.234375q-0.0625 0.515625 -0.359375 0.21875l-0.296875 -1.703125l1.703125 0q0.59375 -0.59375 1.109375 -1.265625q-1.265625 -1.046875 -2.59375 -1.859375l0.734375 -1.1875l0.59375 0.296875q1.421875 -2.078125 2.234375 -3.78125l1.40625 0.8125q0.296875 0.296875 -0.296875 0.375q-0.734375 1.484375 -2.21875 3.34375l1.03125 0.8125q1.1875 -1.703125 2.078125 -3.34375l1.265625 0.75q0.4375 0.296875 -0.15625 0.359375q-1.03125 1.859375 -3.484375 4.609375l2.828125 -0.15625q-0.375 -0.734375 -0.890625 -1.40625l1.25 -0.515625q1.125 1.03125 2.015625 3.34375l-1.484375 0.65625l-0.453125 -1.03125zm-0.21875 5.859375q-0.296875 -2.296875 -0.890625 -3.859375l1.328125 -0.4375q0.828125 1.40625 1.125 3.859375l-1.5625 0.4375zm8.53125 0.078125l0 -3.484375l-4.453125 0l0 3.484375l4.453125 0zm-4.453125 1.40625l0 1.046875l-1.484375 0l0 -7.359375l7.421875 0l0 7.140625l-1.484375 0l0 -0.828125l-4.453125 0zm2.828125 -9.421875l3.40625 0l0 1.40625l-8.15625 0l0 -1.40625l3.265625 0l0 -2.296875l-3.859375 0l0 -1.421875l3.859375 0l0 -2.671875l1.40625 0q0.59375 0.078125 0.078125 0.453125l0 2.21875l3.921875 0l0 1.421875l-3.921875 0l0 2.296875zm5.9375 8.984375q2.078125 -1.484375 3.328125 -3.265625q-0.734375 -0.75 -1.40625 -1.265625l-0.21875 0.8125l-1.484375 -0.4375q0.8125 -2.90625 1.40625 -6.234375l-1.484375 0l0 -1.421875l1.703125 0q0.234375 -1.625 0.453125 -3.265625l1.625 0.296875q0.296875 0.234375 -0.296875 0.453125q-0.140625 1.265625 -0.359375 2.515625l1.703125 0l0.21875 -0.21875l1.109375 0.75l-0.21875 0.296875q0.078125 3.1875 -0.96875 7.1875q0.75 0.59375 1.484375 1.1875l-0.890625 1.640625q-0.515625 -0.59375 -1.25 -1.265625q-1.484375 2.078125 -3.5 3.5625l-0.953125 -1.328125zm3.921875 -4.6875q0.671875 -3.328125 0.671875 -5.703125l-1.5625 0q-0.359375 2.296875 -0.8125 4.515625q0.75 0.375 1.703125 1.1875zm10.546875 -3.921875q1.265625 1.328125 1.265625 -0.234375l0 -0.59375l1.40625 0.53125l-0.15625 1.546875q-0.140625 1.421875 -1.484375 1.046875l0 7.640625l-1.25 0l0 -0.8125l-4.90625 0l0 1.046875l-1.265625 0l0 -8.03125l6.984375 0q-2.375 -1.03125 -3.1875 -4.078125l-3.125 0l0 2.0q1.484375 -0.296875 2.96875 -0.59375l0.15625 1.1875q-1.859375 0.53125 -4.6875 1.046875q-0.140625 0.515625 -0.296875 0.21875l-0.4375 -1.484375q0.515625 -0.078125 1.03125 -0.140625l0 -6.09375l1.34375 0.21875q2.21875 -0.21875 5.421875 -1.03125l1.03125 1.265625q0.15625 0.296875 -0.515625 0.0625q-1.046875 0.234375 -2.078125 0.375l0.296875 1.78125l3.484375 0l0 1.1875l-3.1875 0q0.140625 0.8125 1.1875 1.9375zm-3.046875 -4.6875q-1.328125 0.15625 -2.671875 0.296875l0 1.265625l2.890625 0l-0.21875 -1.5625zm-2.078125 9.734375l4.90625 0l0 -1.71875l-4.90625 0l0 1.71875zm0 2.890625l4.90625 0l0 -1.703125l-4.90625 0l0 1.703125zm22.421875 -2.078125q-3.203125 3.484375 -6.90625 3.484375q-2.671875 0 -3.9375 -1.265625q-0.96875 -0.953125 -0.96875 -3.703125l0 -9.953125l1.5625 0q0.671875 0.15625 0.15625 0.59375l0 9.359375q0 1.859375 0.65625 2.515625q0.828125 0.828125 2.453125 0.828125q2.890625 0 5.859375 -3.265625l1.125 1.40625zm16.984375 1.703125l0 1.640625l-3.265625 0q-2.8125 0 -5.34375 -1.34375l0.671875 -1.328125q1.9375 1.03125 4.671875 1.03125l3.265625 0zm-10.234375 -8.6875q-1.109375 6.609375 -2.75 10.46875l-1.625 -0.515625q2.0 -4.671875 2.8125 -9.796875q-1.78125 0.140625 -3.1875 0.140625l-0.296875 -1.484375q2.078125 0 3.703125 -0.140625q0.296875 -2.296875 0.53125 -4.015625l1.484375 0.296875q0.8125 0.234375 0.140625 0.59375q-0.21875 0.890625 -0.59375 2.96875q1.703125 -0.21875 3.125 -0.59375l0.296875 1.484375q-1.9375 0.375 -3.640625 0.59375zm9.875 2.53125q-4.3125 0.140625 -6.765625 1.1875l-0.4375 -1.484375q3.1875 -1.265625 6.90625 -1.265625l0.296875 1.5625z" fill-rule="nonzero"/><path fill="#000000" fill-opacity="0.0" d="m364.937 0l212.69293 0l0 42.015747l-212.69293 0z" fill-rule="evenodd"/><path fill="#000000" d="m382.70264 27.294998q0.734375 -0.375 1.546875 -1.125l-8.3125 1.5625q-0.0625 0.53125 -0.359375 0.234375l-0.453125 -1.640625l4.3125 -0.515625l0 -1.34375l-3.5 0l0 -1.1875l3.5 0l0 -1.109375l-1.71875 0l-1.625 0l0 -5.265625l3.34375 0l0 -1.046875l-4.3125 0l0 -1.1875l4.3125 0l0 -0.890625q-1.859375 0.078125 -3.71875 0.15625l-0.21875 -1.265625q3.640625 0 7.796875 -0.8125l0.65625 1.25q0.234375 0.453125 -0.4375 0.15625q-1.5625 0.21875 -2.828125 0.375l0 1.03125l4.09375 0l0 1.1875l-4.09375 0l0 1.046875l3.421875 0l0 5.265625l-3.421875 0l0 1.109375l3.71875 0l0 1.1875l-3.71875 0l0 1.109375l3.71875 -0.59375l0 1.046875q2.15625 -1.9375 2.21875 -5.859375l0.078125 -2.90625l-1.78125 0l0 -1.40625l1.78125 0l0 -3.78125l1.40625 0q0.59375 0.078125 0.078125 0.4375l0 3.34375l3.265625 0l-0.140625 9.796875q-0.078125 2.671875 -1.9375 2.671875l-2.0 0l-0.21875 -1.40625l1.703125 0q0.890625 0 0.96875 -1.5625l0.21875 -8.09375l-1.859375 0l-0.078125 3.5q-0.0625 5.109375 -4.515625 7.9375l-0.890625 -1.40625zm-2.015625 -7.359375l0 1.34375l2.15625 0l0 -1.34375l-2.15625 0zm0 -2.140625l0 1.25l2.15625 0l0 -1.25l-2.15625 0zm-3.328125 2.140625l0 1.34375l2.078125 0l0 -1.34375l-2.078125 0zm0 -2.140625l0 1.25l2.078125 0l0 -1.25l-2.078125 0zm33.171875 -2.96875l0 1.40625l-5.34375 0l0 2.75l4.671875 0l0 1.40625l-4.671875 0l0 2.453125l4.96875 0l0 1.40625l-4.96875 0l0 4.15625l-1.484375 0l0 -12.171875l-0.75 0q-1.1875 2.515625 -2.515625 3.859375l-1.40625 -1.046875q2.96875 -3.109375 3.703125 -7.34375l1.5625 0.453125q0.4375 0.21875 -0.078125 0.359375q-0.140625 0.75 -0.734375 2.3125l7.046875 0zm-16.625 5.1875q3.265625 -3.78125 4.296875 -8.15625l1.640625 0.515625q0.4375 0.296875 -0.078125 0.375q-0.515625 1.703125 -1.484375 3.703125l0.453125 0.15625q0.296875 0.296875 -0.234375 0.359375l0 11.4375l-1.484375 0l0 -9.65625q-0.8125 1.34375 -1.921875 2.53125l-1.1875 -1.265625zm28.203125 -6.609375l7.046875 0l0 3.859375l-1.484375 0l0 -2.4375l-12.546875 0l0 2.4375l-1.484375 0l0 -3.859375l6.765625 0l0 -1.78125l1.625 0q0.75 0.15625 0.078125 0.59375l0 1.1875zm-6.015625 3.265625l10.46875 0l0 1.421875l-10.46875 0l0 -1.421875zm-2.8125 3.34375l16.171875 0l0 1.40625l-5.421875 0l0 4.609375q0 0.59375 0.53125 0.59375l2.515625 0q0.75 0 0.8125 -0.75l0.15625 -1.25l1.703125 0.359375l-0.375 1.859375q-0.296875 1.421875 -2.0 1.421875l-3.703125 0q-1.34375 0 -1.34375 -1.265625l0 -5.578125l-2.375 0l0 1.1875q0 4.6875 -6.15625 6.015625l-0.59375 -1.703125q5.046875 -0.8125 5.046875 -4.375l0 -1.125l-4.96875 0l0 -1.40625zm30.28125 2.15625q1.25 -1.9375 2.21875 -4.75l1.40625 0.8125q0.53125 0.296875 -0.140625 0.453125q-1.109375 2.734375 -2.671875 5.109375q1.625 2.3125 2.453125 2.3125q0.65625 0 0.890625 -1.78125l1.40625 0.734375q-0.59375 2.96875 -1.640625 2.96875q-2.078125 0 -4.15625 -3.1875q-2.078125 2.296875 -4.8125 3.640625l-0.890625 -1.40625q3.484375 -1.71875 4.890625 -3.640625q-1.03125 -2.53125 -1.03125 -6.6875l0 -0.671875l-6.3125 0l0 2.609375l4.75 0l-0.15625 5.046875q-0.0625 1.40625 -1.109375 1.40625l-1.921875 0l-0.234375 -1.40625l1.265625 0q0.59375 0 0.59375 -0.59375l0.15625 -3.046875l-3.34375 0l0 2.15625q0 3.703125 -1.859375 6.078125l-1.265625 -1.03125q1.640625 -2.015625 1.640625 -4.828125l0 -7.796875l7.796875 0l0 -3.1875l1.40625 0q0.59375 0.078125 0.078125 0.4375l0 2.75l5.640625 0l0 1.40625l-5.640625 0l0 0.671875q0 3.484375 0.59375 5.421875zm1.1875 -10.46875q1.1875 0.59375 2.078125 1.484375l-1.125 1.109375q-0.734375 -0.8125 -2.0 -1.546875l1.046875 -1.046875zm17.140625 14.40625q-2.296875 1.625 -6.15625 2.375l-0.53125 -1.5625q3.5625 -0.453125 5.578125 -1.859375q-0.828125 -0.96875 -1.421875 -2.15625q-1.03125 1.484375 -2.890625 2.671875l-0.890625 -1.1875q2.890625 -1.84375 3.78125 -4.375l-2.8125 0.15625q-0.078125 0.515625 -0.375 0.21875l-0.515625 -1.703125l2.96875 -0.078125l1.40625 -1.1875q-1.703125 -1.1875 -3.109375 -1.859375l0.8125 -1.265625l0.734375 0.375q1.265625 -1.5625 2.234375 -3.40625l1.265625 0.734375q0.65625 0.375 -0.078125 0.515625q-0.96875 1.34375 -2.296875 2.90625q0.734375 0.4375 1.40625 0.890625q1.328125 -1.265625 2.75 -3.265625l1.328125 0.8125q0.296875 0.296875 -0.21875 0.375q-1.40625 1.921875 -4.3125 4.375l4.453125 -0.296875q-0.59375 -0.671875 -1.1875 -1.265625l1.046875 -0.890625q1.703125 1.265625 2.8125 3.34375l-1.25 0.96875l-0.59375 -1.046875l-4.828125 0.453125l-0.59375 1.25l3.703125 0l0.234375 -0.359375l1.25 0.734375q0.53125 0.21875 -0.296875 0.453125q-1.03125 1.921875 -2.296875 3.109375q1.9375 1.1875 4.828125 1.640625l-0.59375 1.703125q-2.96875 -0.671875 -5.34375 -2.296875zm0 -1.859375q0.8125 -0.8125 1.5625 -1.9375l-2.90625 0q0.453125 1.046875 1.34375 1.9375zm-7.203125 4.234375l-1.484375 0l0 -7.65625q-0.671875 0.671875 -1.5625 1.421875l-0.65625 -1.484375q2.4375 -1.9375 4.0 -4.984375l1.34375 0.890625q0.296875 0.296875 -0.234375 0.375q-0.515625 0.890625 -1.40625 2.078125l0 9.359375zm1.34375 -15.375q-1.34375 1.9375 -3.9375 3.71875l-0.8125 -1.484375q2.21875 -1.484375 3.859375 -3.5625l1.328125 1.03125q0.078125 0.375 -0.4375 0.296875zm24.5625 3.265625q-0.75 2.078125 -2.375 3.9375l-1.109375 -1.328125q2.515625 -2.53125 3.1875 -7.203125l1.5625 0.515625q0.65625 0.296875 -0.078125 0.453125q-0.21875 1.03125 -0.59375 2.21875l5.34375 0l-0.375 10.09375q-0.078125 2.96875 -2.375 2.96875l-2.078125 0l-0.21875 -1.40625l1.921875 0q1.046875 0 1.125 -1.34375l0.359375 -8.90625l-4.296875 0zm0.890625 6.90625q-1.046875 -1.484375 -2.296875 -2.671875l1.25 -1.328125q1.484375 1.328125 2.375 2.59375l-1.328125 1.40625zm-8.765625 -8.3125q0.453125 -1.40625 0.828125 -3.265625l1.78125 0.671875q0.296875 0.296875 -0.234375 0.375q-0.21875 0.953125 -0.8125 2.21875l2.75 0l0 12.25l-1.484375 0l0 -0.890625l-3.265625 0l0 1.484375l-1.484375 0l0 -12.84375l1.921875 0zm2.828125 1.40625l-3.265625 0l0 3.265625l3.265625 0l0 -3.265625zm0 4.6875l-3.265625 0l0 3.859375l3.265625 0l0 -3.859375zm24.421875 6.015625l1.1875 0q0.296875 0 0.296875 -0.3125l0 -4.21875l-6.09375 0l0 -1.421875l6.09375 0l0 -2.0l-6.46875 0l0 -1.40625l4.3125 0l0 -2.15625l-3.421875 0l0 -1.40625l3.421875 0l0 -2.53125l1.40625 0q0.59375 0.078125 0.078125 0.453125l0 2.078125l3.703125 0l0 1.40625l-3.703125 0l0 2.15625l5.125 0l0 1.40625l-2.96875 0l0 2.0l2.59375 0l0 1.421875l-2.59375 0l0 4.75q0 1.1875 -1.1875 1.1875l-1.484375 0l-0.296875 -1.40625zm-9.796875 0l1.03125 0q0.296875 0 0.296875 -0.3125l0 -4.59375l-1.5625 0.515625q-0.296875 0.75 -0.515625 0.078125l-0.515625 -1.40625l2.59375 -0.671875l0 -4.375l-2.296875 0l0 -1.421875l2.296875 0l0 -3.328125l1.40625 0q0.59375 0.0625 0.078125 0.4375l0 2.890625l2.15625 0l0 1.421875l-2.15625 0l0 3.921875l1.859375 -0.65625l0.375 1.25l-2.234375 0.890625l0 5.578125q0 1.1875 -1.1875 1.1875l-1.328125 0l-0.296875 -1.40625zm7.265625 -3.71875q0.890625 0.59375 1.859375 1.859375l-1.1875 1.109375q-0.75 -0.96875 -1.78125 -1.9375l1.109375 -1.03125zm13.515625 -3.640625l2.21875 -0.078125l-0.734375 -1.328125l0.890625 -0.453125q0.953125 1.34375 1.546875 2.90625l-1.03125 0.59375l-0.296875 -0.828125l-1.484375 0.15625l0 7.875l-1.265625 0l0 -7.734375l-2.21875 0.15625q-0.375 0.671875 -0.59375 -0.078125l-0.234375 -1.109375l1.640625 0l1.1875 -1.859375l-2.59375 -1.921875l0.59375 -0.96875l0.4375 0.375l2.234375 -3.859375l1.1875 0.734375q0.65625 0.453125 -0.234375 0.59375l-2.078125 3.265625l0.96875 0.8125l1.9375 -3.1875l1.1875 0.75q0.515625 0.296875 -0.296875 0.515625l-2.96875 4.671875zm2.375 6.390625q-0.296875 -1.9375 -0.828125 -3.5625l1.265625 -0.296875q0.8125 1.84375 0.890625 3.40625l-1.328125 0.453125zm-5.28125 0.734375q0.59375 -1.859375 0.75 -4.453125l1.1875 0.078125q0.671875 0 0.078125 0.515625q-0.15625 2.671875 -0.671875 4.15625l-1.34375 -0.296875zm15.296875 -8.90625l-2.375 0q-0.75 0 -0.75 -0.671875l0 -0.734375l-1.25 0q0 1.703125 -2.078125 2.0l-0.53125 -0.59375q1.5625 -0.296875 1.5625 -1.40625l-1.921875 0l0 2.21875l7.34375 0l0 -0.8125zm0.296875 2.296875l0 6.015625l-7.9375 0l0 -6.015625l7.9375 0zm-9.71875 7.4375q2.296875 -0.296875 3.859375 -1.265625l0.734375 0.734375q0.515625 0.53125 -0.375 0.453125q-1.40625 0.8125 -3.5625 1.265625l-0.65625 -1.1875zm10.453125 1.109375q-2.078125 -0.296875 -4.0 -1.484375l0.8125 -0.890625q1.484375 0.734375 3.859375 1.03125l-0.671875 1.34375zm-9.859375 -16.265625l4.453125 0l0 -1.109375l1.1875 0q0.59375 0.078125 0.0625 0.453125l0 0.65625l4.6875 0l0 0.890625l-4.6875 0l0 0.671875l3.5625 0l0 0.890625l-8.15625 0l0 -0.890625l3.34375 0l0 -0.671875l-4.453125 0l0 -0.890625zm0.21875 7.125l0 -4.0l9.875 0l0 4.0l-9.875 0zm6.53125 -2.515625q0 0.296875 0.296875 0.296875l1.78125 0l0 -0.890625l-2.078125 0l0 0.59375zm-4.3125 4.828125l5.421875 0l0 -0.828125l-5.421875 0l0 0.828125zm0 1.703125l5.421875 0l0 -0.8125l-5.421875 0l0 0.8125zm0 1.703125l5.421875 0l0 -0.8125l-5.421875 0l0 0.8125zm15.59375 -13.4375q0.59375 0.078125 0.078125 0.453125l0 15.953125l-1.484375 0l0 -6.53125l-1.1875 0l0 2.234375q0 2.96875 -2.078125 4.375l-0.890625 -1.328125q1.484375 -1.046875 1.484375 -3.34375l0 -1.9375l-1.1875 0l0 -1.40625l3.859375 0l0 -2.234375l-1.859375 0l0 0.53125l-1.484375 0l0 -5.71875l1.484375 0l0 3.78125l1.859375 0l0 -4.828125l1.40625 0zm10.53125 16.265625q-4.15625 -2.609375 -5.265625 -7.359375q-0.375 5.125 -4.234375 7.5l-0.8125 -1.5625q3.859375 -2.21875 3.859375 -8.609375l-3.484375 0l0 -1.40625l3.5625 0l0 -5.046875l1.40625 0q0.59375 0.078125 0.078125 0.453125l0 4.59375l5.265625 0l0 1.40625l-4.890625 0q0.734375 5.578125 5.34375 8.171875l-0.828125 1.859375zm-2.8125 -15.515625q1.484375 0.8125 2.078125 2.0l-1.1875 1.1875q-0.75 -1.1875 -2.0 -2.078125l1.109375 -1.109375zm11.125 0.515625l0.890625 -0.671875q1.640625 1.125 2.671875 2.3125l-1.03125 0.890625l-0.671875 -0.671875l-6.375 0.515625q-0.078125 0.515625 -0.375 0.21875l-0.375 -1.484375l1.640625 0l1.484375 -2.8125l1.40625 0.375q0.296875 0.296875 -0.21875 0.359375l-1.34375 2.015625l3.265625 -0.15625l-0.96875 -0.890625zm2.234375 3.125l0 6.0q0 1.125 -0.8125 1.125l-1.5625 0l-0.296875 -1.1875l1.109375 0q0.296875 0 0.296875 -0.296875l0 -0.96875l-3.640625 0l0 2.453125l-1.25 0l0 -7.125l6.15625 0zm6.53125 7.5625q1.328125 0.96875 2.59375 2.828125l-1.40625 0.96875q-0.96875 -1.71875 -2.375 -2.984375l1.1875 -0.8125zm-3.421875 -4.375q2.234375 -0.59375 4.234375 -1.34375l0.8125 1.125q0.078125 0.515625 -0.4375 0.21875q-2.234375 0.671875 -4.609375 1.109375l0 0.96875q0 0.515625 0.53125 0.515625l3.1875 0q0.671875 0 0.734375 -1.40625l1.34375 0.4375q-0.21875 2.15625 -1.484375 2.15625l-4.234375 0q-1.328125 0 -1.328125 -1.328125l0 -4.15625l1.1875 0q0.59375 0.0625 0.0625 0.4375l0 1.265625zm-1.25 -7.875l1.1875 0q0.59375 0.078125 0.0625 0.453125l0 1.484375q1.9375 -0.453125 3.71875 -1.109375l0.8125 1.109375q0.078125 0.515625 -0.4375 0.21875q-1.9375 0.59375 -4.09375 0.96875l0 0.8125q0 0.515625 0.53125 0.515625l2.96875 0q0.4375 0 0.515625 -0.359375l0.140625 -0.96875l1.34375 0.4375l-0.296875 0.96875q-0.375 1.109375 -1.1875 1.109375l-3.9375 0q-1.328125 0 -1.328125 -1.328125l0 -4.3125zm-3.125 5.578125l-3.640625 0l0 1.03125l3.640625 0l0 -1.03125zm0 1.921875l-3.640625 0l0 0.96875l3.640625 0l0 -0.96875zm2.0 4.234375q1.046875 0.96875 1.5625 1.859375l-1.1875 0.890625q-0.59375 -1.125 -1.484375 -1.9375l1.109375 -0.8125zm-2.4375 0.59375q0.59375 0.078125 0.0625 0.4375l0 1.9375q0 0.59375 0.53125 0.59375l4.21875 0q1.046875 0 1.125 -1.484375l1.484375 0.4375q-0.53125 2.453125 -2.015625 2.453125l-5.484375 0q-1.34375 0 -1.34375 -1.25l0 -3.125l1.421875 0zm-5.578125 3.125q1.046875 -1.203125 1.78125 -2.828125l1.265625 0.671875q0.59375 0.359375 -0.140625 0.515625q-0.671875 1.40625 -1.71875 2.59375l-1.1875 -0.953125z" fill-rule="nonzero"/><path fill="#000000" fill-opacity="0.0" d="m671.9468 72.87626l0 -35.118114" fill-rule="evenodd"/><path stroke="#000000" stroke-width="1.0" stroke-linejoin="round" stroke-linecap="butt" d="m671.9468 72.87626l0 -35.118114" fill-rule="evenodd"/><path fill="#000000" fill-opacity="0.0" d="m639.8057 -4.257218l64.28345 0l0 42.015747l-64.28345 0z" fill-rule="evenodd"/><path fill="#000000" d="m649.69635 19.990906q1.703125 -0.296875 2.828125 -0.515625l0 -4.015625l-2.3125 0l0 -1.40625l2.3125 0l0 -3.9375l-2.671875 0l0 -1.40625l6.59375 0l0 1.40625l-2.4375 0l0 3.9375l2.078125 0l0 1.40625l-2.078125 0l0 3.71875l2.375 -0.671875l0.359375 1.265625q-3.1875 1.03125 -6.078125 1.78125q-0.21875 0.515625 -0.453125 0.21875l-0.515625 -1.78125zm14.546875 -8.984375l0 -1.78125l-5.640625 0l0 1.78125l5.640625 0zm0 2.96875l0 -1.78125l-5.640625 0l0 1.78125l5.640625 0zm0 2.96875l0 -1.78125l-5.640625 0l0 1.78125l5.640625 0zm-2.15625 1.1875l-1.40625 0l0 0.75q0 4.53125 -6.96875 5.34375l-0.53125 -1.640625q6.015625 -0.515625 6.015625 -3.78125l0 -0.671875l-1.03125 0l-1.046875 0l0 -10.09375l8.609375 0l0 10.09375l-2.15625 0l0 3.9375q0 0.59375 0.53125 0.59375l0.515625 0q0.4375 0 0.59375 -0.453125q0.140625 -0.4375 0.296875 -1.78125l1.5625 0.453125q-0.15625 1.03125 -0.296875 1.625q-0.375 1.5625 -1.484375 1.5625l-1.9375 0q-1.265625 0 -1.265625 -1.25l0 -4.6875zm9.875 -4.828125l0.96875 0.234375q0.4375 -0.453125 1.40625 -2.234375l-4.828125 0l0 -1.40625l5.421875 0q0.59375 -1.40625 0.890625 -2.6718755l1.640625 0.59375q0.296875 0.29687548 -0.234375 0.37500048q-0.140625 0.65625 -0.65625 1.703125l8.609375 0l0 1.40625l-9.203125 0q-0.890625 2.0 -2.53125 4.15625l0 8.765625l-1.484375 0l0 -7.359375q-0.96875 0.96875 -2.75 2.015625l-0.734375 -1.71875q2.078125 -0.953125 3.484375 -2.515625l0 -1.34375zm8.390625 -0.953125q0.59375 0.0625 0.078125 0.4375l0 2.890625l3.78125 0l0 1.421875l-3.78125 0l0 4.890625l4.890625 0l0 1.421875l-11.203125 0l0 -1.421875l4.828125 0l0 -4.890625l-4.09375 0l0 -1.421875l4.09375 0l0 -3.328125l1.40625 0z" fill-rule="nonzero"/></g></svg>