<svg version="1.1" viewBox="0.0 0.0 952.2283464566929 454.4724409448819" fill="none" stroke="none" stroke-linecap="square" stroke-miterlimit="10" xmlns:xlink="http://www.w3.org/1999/xlink" xmlns="http://www.w3.org/2000/svg"><clipPath id="p.0"><path d="m0 0l952.22833 0l0 454.47244l-952.22833 0l0 -454.47244z" clip-rule="nonzero"/></clipPath><g clip-path="url(#p.0)"><path fill="#000000" fill-opacity="0.0" d="m0 0l952.22833 0l0 454.47244l-952.22833 0z" fill-rule="evenodd"/><path fill="#ffffff" d="m0 0l952.22046 0l0 454.4882l-952.22046 0z" fill-rule="evenodd"/><path stroke="#ffffff" stroke-width="1.0" stroke-linejoin="round" stroke-linecap="butt" d="m0 0l952.22046 0l0 454.4882l-952.22046 0z" fill-rule="evenodd"/><path fill="#cfe2f3" d="m604.7257 226.62862l0 0c0 -25.657333 31.199097 -46.456696 69.68506 -46.456696l0 0c38.485962 0 69.68506 20.799362 69.68506 46.456696l0 0c0 25.657318 -31.199097 46.45668 -69.68506 46.45668l0 0c-38.485962 0 -69.68506 -20.799362 -69.68506 -46.45668z" fill-rule="evenodd"/><path stroke="#000000" stroke-width="1.0" stroke-linejoin="round" stroke-linecap="butt" d="m604.7257 226.62862l0 0c0 -25.657333 31.199097 -46.456696 69.68506 -46.456696l0 0c38.485962 0 69.68506 20.799362 69.68506 46.456696l0 0c0 25.657318 -31.199097 46.45668 -69.68506 46.45668l0 0c-38.485962 0 -69.68506 -20.799362 -69.68506 -46.45668z" fill-rule="evenodd"/><path fill="#000000" fill-opacity="0.0" d="m638.74146 202.3924l71.33862 0l0 48.472427l-71.33862 0z" fill-rule="evenodd"/><path fill="#000000" d="m666.11646 225.61989q2.15625 3.1875 4.3125 9.28125l-2.0625 1.03125l-0.75 -2.34375l-8.4375 1.6875q-0.375 0.75 -0.75 0l-0.75 -2.15625l1.59375 -0.09375q2.0625 -8.15625 3.65625 -16.6875l2.15625 0.46875q0.9375 0.1875 0.09375 0.75q-1.875 7.6875 -3.75 15.28125l5.625 -0.84375q-1.21875 -3.0 -2.625 -5.4375l1.6875 -0.9375zm-17.4375 4.96875q3.5625 -3.1875 4.96875 -7.3125l-4.3125 0l0 -1.78125l4.3125 0l0 -3.09375q-1.96875 0.28125 -3.75 0.375l-0.375 -1.78125q4.59375 -0.1875 8.71875 -1.59375l0.9375 1.6875q0.46875 0.75 -0.5625 0.375q-1.40625 0.375 -3.09375 0.65625l0 3.375l4.03125 0l0 1.78125l-4.03125 0l0 1.78125q2.15625 1.03125 4.03125 2.625l-1.21875 1.875q-1.59375 -1.59375 -2.8125 -2.34375l0 9.1875l-1.875 0l0 -9.0q-1.6875 3.09375 -3.75 4.78125l-1.21875 -1.59375zm39.09375 2.71875q-4.40625 0 -7.3125 -2.8125l1.21875 -1.59375q2.53125 2.4375 6.09375 2.34375l5.15625 0l0 2.0625l-5.15625 0zm-13.40625 1.78125q-0.28125 -4.875 -0.28125 -8.34375q0 -4.21875 1.03125 -10.03125l1.875 0.46875q1.03125 0.1875 0.09375 0.84375q-0.9375 5.4375 -0.9375 8.71875q0 3.65625 0.375 8.15625l-2.15625 0.1875zm17.34375 -13.875q-4.03125 -0.09375 -10.5 0.5625l0 -1.96875q6.75 -0.65625 10.5 -0.5625l0 1.96875z" fill-rule="nonzero"/><path fill="#cfe2f3" d="m202.46063 66.29527l0 0c0 -25.657322 31.19905 -46.456688 69.68503 -46.456688l0 0c38.485992 0 69.68506 20.799368 69.68506 46.456688l0 0c0 25.657326 -31.199066 46.456696 -69.68506 46.456696l0 0c-38.485977 0 -69.68503 -20.79937 -69.68503 -46.456696z" fill-rule="evenodd"/><path stroke="#000000" stroke-width="1.0" stroke-linejoin="round" stroke-linecap="butt" d="m202.46063 66.29527l0 0c0 -25.657322 31.19905 -46.456688 69.68503 -46.456688l0 0c38.485992 0 69.68506 20.799368 69.68506 46.456688l0 0c0 25.657326 -31.199066 46.456696 -69.68506 46.456696l0 0c-38.485977 0 -69.68503 -20.79937 -69.68503 -46.456696z" fill-rule="evenodd"/><path fill="#000000" fill-opacity="0.0" d="m228.23024 42.059055l94.55119 0l0 48.47244l-94.55119 0z" fill-rule="evenodd"/><path fill="#000000" d="m255.51149 73.16155l-0.375 -2.0625l1.4999847 0q1.3125 0 1.03125 -2.15625q-0.375 -2.625 -2.3437347 -4.59375l1.6874847 -6.281246l-3.0937347 0l0 18.187496l-1.875 0l0 -19.968746l5.5312347 0l0.1875 -0.28125l1.6875 1.40625l-0.375 0.28125l-2.0625 6.28125q2.8125 3.0937462 2.71875 5.531246q-0.09375 3.65625 -2.53125 3.65625l-1.6874847 0zm-15.09375 -6.46875l8.90625 0l0 8.53125l-1.875 0l0 -1.03125l-5.15625 0l0 1.5l-1.875 0l0 -9.0zm1.875 1.78125l0 3.9375l5.15625 0l0 -3.9375l-5.15625 0zm1.59375 -13.781246l2.0625 0q0.9375 0.1875 0.09375 0.75l0 2.0625l4.40625 0l0 1.78125l-1.3125 0l-1.3125 3.9375l3.5625 0l0 1.7812462l-12.84375 0l0 -1.7812462l3.5625 0l-1.125 -3.9375l-1.21875 0l0 -1.78125l4.125 0l0 -2.8125zm3.09375 4.59375l-3.84375 0l0.9375 3.9375l1.78125 0l1.125 -3.9375zm35.812485 16.593746q-8.0625 -1.875 -10.6875 -8.53125l-2.90625 0l0 6.1875l5.25 -0.9375l0.375 1.59375l-9.65625 1.96875q-0.09375 0.75 -0.46875 0.375l-0.65625 -2.25l3.28125 -0.46875l0 -6.46875l-4.5 0l0 -1.78125l4.5 0l0 -10.124996l13.5 0l0 1.78125l-11.625 0l0 1.40625l10.3125 0l0 1.78125l-10.3125 0l0 1.59375l10.5 0l0 1.78125l-10.5 0l0 1.7812462l14.4375 0l0 1.78125l-9.65625 0q0.5625 1.21875 2.0625 2.71875l3.0 -2.34375l1.59375 1.125q0.65625 0.46875 -0.28125 0.46875l-2.90625 1.96875q1.875 1.3125 6.46875 2.53125l-1.125 2.0625zm19.6875 -16.781246q3.84375 3.9375 5.25 9.468746l-2.0625 0.84375q-1.6875 -6.093746 -4.875 -9.093746l1.6875 -1.21875zm-2.8125 7.499996q0 5.4375 -1.59375 7.03125q-0.9375 0.9375 -2.15625 0.9375q-1.78125 0 -3.5625 -2.0625l1.21875 -1.6875q1.5 1.5 2.25 1.5q0.46875 0 0.84375 -0.375q1.03125 -1.03125 1.03125 -5.71875q0 -2.6249962 -0.5625 -3.1874962q-0.28125 -0.28125 -1.125 -0.28125q-0.84375 0 -2.34375 0.1875q-1.96875 6.937496 -4.6875 11.906246l-2.15625 -0.75q2.71875 -4.21875 4.78125 -10.968746q-2.0625 0.28125 -4.03125 0.46875l-0.1875 -2.0625q1.6875 0 4.6875 -0.28125q0.84375 -2.90625 1.40625 -5.90625l1.96875 0.65625q1.125 0.46875 -0.09375 0.84375q-0.5625 1.96875 -1.125 4.21875q1.125 -0.1875 2.34375 -0.1875q1.3125 0 1.96875 0.65625q1.125 1.125 1.125 5.062496zm5.25 -12.374996q1.6875 0.9375 3.75 2.625l-1.125 1.125q-2.0625 -1.59375 -3.75 -2.625l1.125 -1.125zm0.65625 6.0q-2.15625 -1.78125 -3.65625 -2.71875l1.125 -1.125q1.6875 0.9375 3.75 2.625l-1.21875 1.21875z" fill-rule="nonzero"/><path fill="#cfe2f3" d="m202.46063 226.62862l0 0c0 -25.657333 31.19905 -46.456696 69.68503 -46.456696l0 0c38.485992 0 69.68506 20.799362 69.68506 46.456696l0 0c0 25.657318 -31.199066 46.45668 -69.68506 46.45668l0 0c-38.485977 0 -69.68503 -20.799362 -69.68503 -46.45668z" fill-rule="evenodd"/><path stroke="#000000" stroke-width="1.0" stroke-linejoin="round" stroke-linecap="butt" d="m202.46063 226.62862l0 0c0 -25.657333 31.19905 -46.456696 69.68503 -46.456696l0 0c38.485992 0 69.68506 20.799362 69.68506 46.456696l0 0c0 25.657318 -31.199066 46.45668 -69.68506 46.45668l0 0c-38.485977 0 -69.68503 -20.799362 -69.68503 -46.45668z" fill-rule="evenodd"/><path fill="#000000" fill-opacity="0.0" d="m228.22966 202.3924l94.55119 0l0 48.472427l-94.55119 0z" fill-rule="evenodd"/><path fill="#000000" d="m243.13591 234.52614q4.3125 -1.03125 6.84375 -3.375q-1.96875 -2.25 -3.1875 -5.34375q-1.5 6.1875 -6.5625 9.9375l-1.21875 -1.875q5.8125 -3.84375 6.5625 -13.03125l-6.1875 0l0 -1.78125l6.375 0l0.09375 -3.9375l1.875 0.09375q0.75 0.09375 0.09375 0.5625l-0.1875 3.28125l11.531235 0l0 1.78125l-11.624985 0q-0.1875 1.5 -0.375 3.0l7.21875 0l0.375 -0.375l1.4999847 1.21875q0.46875 0.375 -0.1875 0.46875q-1.3124847 3.5625 -3.2812347 6.0q3.1875 2.15625 6.7499847 3.0l-0.65625 2.15625q-3.6562347 -0.75 -7.4999847 -3.75q-2.71875 2.53125 -7.59375 4.03125l-0.65625 -2.0625zm5.53125 -8.90625q0.5625 1.6875 2.71875 4.3125q1.5 -1.78125 2.34375 -4.3125l-5.0625 0zm17.718735 -5.25q-1.5 -1.96875 -2.71875 -3.09375l1.5 -1.40625q1.3125 1.125 2.8125 3.09375l-1.59375 1.40625zm-3.84375 13.59375l3.46875 -1.59375l0 -6.28125l-3.375 0l0 -1.78125l5.25 0l0 7.96875q1.96875 1.78125 5.0625 1.78125l10.96875 0l-0.375 1.78125l-11.0625 0q-3.1875 0 -5.625 -2.25l-3.1875 2.4375l-1.125 -2.0625zm14.25 -19.03125q0.75 0.09375 0.09375 0.5625l0 1.40625l5.4375 0l0 1.5l-5.4375 0l0 1.59375l6.46875 0l0 1.5l-3.1875 0l-1.3125 2.25l3.46875 0l0 1.5l-5.4375 0l0 1.5l4.6875 0l0 1.5l-4.6875 0l0 1.5l6.46875 0l0 1.5l-6.46875 0l0 2.0625l-1.875 0l0 -2.0625l-6.28125 0l0 -1.5l6.28125 0l0 -1.5l-4.59375 0l0 -1.5l4.59375 0l0 -1.5l-5.34375 0l0 -1.5l3.375 0l-1.03125 -2.25l-3.28125 0l0 -1.5l6.28125 0l0 -1.59375l-5.71875 0l0 -1.5l5.71875 0l0 -1.96875l1.78125 0zm0.28125 8.8125l1.03125 -2.25l-4.125 0l1.03125 2.25l2.0625 0zm25.40625 -4.3125q3.84375 3.9375 5.25 9.46875l-2.0625 0.84375q-1.6875 -6.09375 -4.875 -9.09375l1.6875 -1.21875zm-2.8125 7.5q0 5.4375 -1.59375 7.03125q-0.9375 0.9375 -2.15625 0.9375q-1.78125 0 -3.5625 -2.0625l1.21875 -1.6875q1.5 1.5 2.25 1.5q0.46875 0 0.84375 -0.375q1.03125 -1.03125 1.03125 -5.71875q0 -2.625 -0.5625 -3.1875q-0.28125 -0.28125 -1.125 -0.28125q-0.84375 0 -2.34375 0.1875q-1.96875 6.9375 -4.6875 11.90625l-2.15625 -0.75q2.71875 -4.21875 4.78125 -10.96875q-2.0625 0.28125 -4.03125 0.46875l-0.1875 -2.0625q1.6875 0 4.6875 -0.28125q0.84375 -2.90625 1.40625 -5.90625l1.96875 0.65625q1.125 0.46875 -0.09375 0.84375q-0.5625 1.96875 -1.125 4.21875q1.125 -0.1875 2.34375 -0.1875q1.3125 0 1.96875 0.65625q1.125 1.125 1.125 5.0625zm5.25 -12.375q1.6875 0.9375 3.75 2.625l-1.125 1.125q-2.0625 -1.59375 -3.75 -2.625l1.125 -1.125zm0.65625 6.0q-2.15625 -1.78125 -3.65625 -2.71875l1.125 -1.125q1.6875 0.9375 3.75 2.625l-1.21875 1.21875z" fill-rule="nonzero"/><path fill="#cfe2f3" d="m202.46063 386.96194l0 0c0 -25.657318 31.19905 -46.456696 69.68503 -46.456696l0 0c38.485992 0 69.68506 20.799377 69.68506 46.456696l0 0c0 25.657318 -31.199066 46.456696 -69.68506 46.456696l0 0c-38.485977 0 -69.68503 -20.799377 -69.68503 -46.456696z" fill-rule="evenodd"/><path stroke="#000000" stroke-width="1.0" stroke-linejoin="round" stroke-linecap="butt" d="m202.46063 386.96194l0 0c0 -25.657318 31.19905 -46.456696 69.68503 -46.456696l0 0c38.485992 0 69.68506 20.799377 69.68506 46.456696l0 0c0 25.657318 -31.199066 46.456696 -69.68506 46.456696l0 0c-38.485977 0 -69.68503 -20.799377 -69.68503 -46.456696z" fill-rule="evenodd"/><path fill="#000000" fill-opacity="0.0" d="m228.22966 360.4005l94.55119 0l0 48.472443l-94.55119 0z" fill-rule="evenodd"/><path fill="#000000" d="m241.16716 376.40924l0 -1.78125l13.6875 0l0.375 -0.28125l1.7812347 1.78125l-0.5625 0.28125q-3.3749847 3.0 -5.9999847 4.5l0 2.15625l9.374985 0l0 2.0625l-9.374985 0l0 7.3125q0 1.5 -1.5 1.5l-2.71875 0l-0.46875 -2.0625l2.15625 0q0.375 0 0.375 -0.375l0 -6.375l-9.65625 0l0 -2.0625l9.65625 0l0 -4.21875l1.78125 0.28125q1.96875 -1.21875 3.46875 -2.71875l-12.375 0zm24.187485 6.46875q-0.9375 1.5 -1.78125 2.15625l-1.125 -1.78125q3.28125 -3.9375 4.21875 -10.21875l2.0625 0.46875q0.84375 0.28125 -0.09375 0.46875q-0.65625 2.71875 -1.5 5.34375q1.3125 0.375 0.09375 0.9375l0 14.25l-1.875 0l0 -11.625zm13.40625 4.96875q1.875 3.0 4.875 4.59375l-1.40625 1.78125q-2.90625 -1.40625 -5.25 -5.25l1.78125 -1.125zm-10.78125 4.6875q3.5625 -2.15625 4.875 -4.6875l1.59375 1.03125q0.65625 0.5625 -0.1875 0.5625q-2.34375 3.09375 -5.0625 4.875l-1.21875 -1.78125zm11.15625 -19.21875q0.9375 0.1875 0.09375 0.75l0 4.21875l3.46875 0l0 1.78125l-3.46875 0l0 5.25l4.40625 0l0 1.78125l-15.375 0l0 -1.78125l3.75 0l0 -5.25l-2.90625 0l0 -1.78125l2.90625 0l0 -4.875l1.78125 0q0.9375 0.1875 0.09375 0.75l0 4.125l3.46875 0l0 -4.96875l1.78125 0zm-1.78125 6.75l-3.46875 0l0 5.25l3.46875 0l0 -5.25zm25.125 -2.625q3.84375 3.9375 5.25 9.46875l-2.0625 0.84375q-1.6875 -6.09375 -4.875 -9.09375l1.6875 -1.21875zm-2.8125 7.5q0 5.4375 -1.59375 7.03125q-0.9375 0.9375 -2.15625 0.9375q-1.78125 0 -3.5625 -2.0625l1.21875 -1.6875q1.5 1.5 2.25 1.5q0.46875 0 0.84375 -0.375q1.03125 -1.03125 1.03125 -5.71875q0 -2.625 -0.5625 -3.1875q-0.28125 -0.28125 -1.125 -0.28125q-0.84375 0 -2.34375 0.1875q-1.96875 6.9375 -4.6875 11.90625l-2.15625 -0.75q2.71875 -4.21875 4.78125 -10.96875q-2.0625 0.28125 -4.03125 0.46875l-0.1875 -2.0625q1.6875 0 4.6875 -0.28125q0.84375 -2.90625 1.40625 -5.90625l1.96875 0.65625q1.125 0.46875 -0.09375 0.84375q-0.5625 1.96875 -1.125 4.21875q1.125 -0.1875 2.34375 -0.1875q1.3125 0 1.96875 0.65625q1.125 1.125 1.125 5.0625zm5.25 -12.375q1.6875 0.9375 3.75 2.625l-1.125 1.125q-2.0625 -1.59375 -3.75 -2.625l1.125 -1.125zm0.65625 6.0q-2.15625 -1.78125 -3.65625 -2.71875l1.125 -1.125q1.6875 0.9375 3.75 2.625l-1.21875 1.21875z" fill-rule="nonzero"/><path fill="#000000" fill-opacity="0.0" d="m413.80447 189.33693l139.37009 0l0 48.472443l-139.37009 0z" fill-rule="evenodd"/><path fill="#000000" d="m424.39822 212.75192q0 -1.03125 1.03125 -1.96875q6.09375 -5.71875 7.875 -8.625l1.6875 1.3125q0.84375 0.9375 -0.46875 0.75q-1.40625 2.0625 -7.40625 7.6875q-0.375 0.375 -0.375 0.65625q0 0.5625 0.375 0.84375q5.25 4.125 8.4375 7.78125l-1.6875 1.6875q-3.28125 -3.84375 -8.0625 -7.96875q-1.40625 -1.21875 -1.40625 -2.15625zm28.21875 -2.0625q0.09375 -1.78125 -1.03125 -1.78125q-1.59375 0 -6.1875 4.59375l0 9.375l-1.875 0l0 -7.6875l-4.125 5.15625l-1.5 -1.5l3.75 -4.40625q1.03125 -1.3125 1.875 -2.71875l0 -2.25l-4.125 1.40625l-0.5625 -1.96875l4.6875 -1.21875l0 -5.53125l1.6875 0q0.84375 0.1875 0.1875 0.75l0 4.21875l1.03125 0.5625q0.84375 0.375 -0.1875 0.84375l-0.84375 1.78125l0 0.65625q4.40625 -4.125 6.65625 -4.125q2.8125 0 2.53125 3.75l-0.46875 7.21875q-0.09375 1.5 1.125 1.5q1.21875 0 1.78125 -0.65625q0.84375 -1.03125 1.40625 -2.4375l1.59375 1.3125q-0.9375 1.78125 -1.78125 2.625q-1.21875 1.21875 -2.8125 1.21875q-3.46875 0 -3.28125 -3.5625l0.46875 -7.125zm21.5625 10.21875q1.5 -0.1875 2.53125 -1.21875q1.125 -1.125 1.125 -3.0q0 -2.0625 -1.21875 -3.28125q-1.21875 -1.21875 -3.84375 -1.21875q-3.09375 0 -4.78125 1.21875q-1.59375 1.125 -4.125 4.03125l-1.59375 -1.40625q6.75 -6.75 10.21875 -11.25q-3.09375 0.375 -6.1875 0.65625l-0.65625 -2.15625q4.59375 0 8.15625 -0.46875l0.84375 -0.375l1.03125 1.03125q1.03125 0.9375 -0.46875 1.21875q-2.8125 3.1875 -5.625 6.28125q1.96875 -0.46875 3.28125 -0.46875q3.5625 0 5.25 1.6875q1.6875 1.6875 1.6875 4.3125q0 2.71875 -1.5 4.21875q-2.25 2.25 -5.71875 2.25q-3.28125 0 -4.78125 -1.5q-1.21875 -1.21875 -1.21875 -2.90625q0 -1.125 0.84375 -1.96875q0.9375 -0.9375 2.15625 -0.9375q1.6875 0 2.8125 1.125q1.3125 1.3125 1.78125 4.125zm-1.875 0.28125q-0.28125 -2.4375 -1.125 -3.28125q-0.65625 -0.65625 -1.3125 -0.65625q-0.75 0 -1.125 0.375q-0.46875 0.46875 -0.46875 1.03125q0 0.84375 0.75 1.59375q0.9375 0.9375 2.4375 0.9375q0.375 0 0.84375 0z" fill-rule="nonzero"/><path fill="#000000" fill-opacity="0.0" d="m427.0206 57.65378l126.77164 57.92126l-20.125977 44.094482l-126.77167 -57.921257z" fill-rule="evenodd"/><path fill="#000000" d="m426.9338 83.35735q0.42819214 -0.9381485 1.7554626 -1.3624496q7.9171753 -2.6700668 10.74408 -4.5737l0.9898987 1.8952866q0.37817383 1.2034988 -0.73779297 0.4874878q-2.1354675 1.2919006 -9.928436 3.9156418q-0.49679565 0.18530273 -0.6135864 0.4411621q-0.23355103 0.51171875 -0.009246826 0.92341614q3.0624084 5.934349 4.443451 10.585152l-2.2355652 0.83387756q-1.3884888 -4.8603363 -4.0245056 -10.599892q-0.7730408 -1.6931152 -0.38375854 -2.5459824zm29.830109 13.216919q-5.02359 -2.0891037 -8.382538 -2.1807709l0.26693726 -1.9394913q4.3283997 0.22541809 8.59198 2.1734161l-0.4763794 1.946846zm-2.804596 7.2735596l-0.8564148 1.876297l-3.7519226 -1.7142334q-3.2402954 -1.480484 -5.438843 -4.340271l1.4681396 -1.1845169q1.6720581 2.2069702 4.8270874 3.648491l3.7519531 1.7142334zm-2.7232666 -14.12822q-2.4116821 -0.58652496 -4.489685 -1.2267456q-4.7435913 7.0060806 -8.643768 10.583847l-1.6034851 -1.4541245q4.75473 -4.3211136 8.378693 -9.777306q-2.2096252 -0.80342865 -3.7445068 -1.5047073l0.43743896 -1.8615646q2.3876038 1.0908737 4.3414307 1.77742q1.547821 -2.4880295 2.698944 -4.332733l1.5497131 1.1203461q0.8211975 0.6844177 -0.14086914 0.76020813q-0.7229309 0.9065552 -2.2392578 3.0997696q2.0780334 0.64022064 3.8928223 0.95402527l-0.43746948 1.8615646zm7.763336 -3.4618683q1.013977 1.3909378 2.3134766 3.736885l-1.312439 0.84336853q-1.2531433 -2.2217026 -2.3134766 -3.736885l1.312439 -0.84336853zm-2.4839783 0.92652893q1.1066895 1.6394272 2.3134766 3.7368774l-1.3124084 0.84336853q-1.2920837 -2.1364136 -2.3134766 -3.7368774l1.3124084 -0.84336853zm12.177155 11.026482q-3.6128845 -1.3414993 -7.0237427 -2.8998947l0.26690674 -1.9394836q4.1782837 1.9090347 6.8143005 2.9072647q0.23724365 -2.7776184 0.8303833 -4.9803314l1.8759766 0.8571243q0.6896057 0.5212097 -0.14086914 0.76020813q-0.39852905 1.7762756 -0.61169434 4.0495453q3.1012878 1.1077347 5.4666443 1.570015l-0.4300537 2.0710983q-2.6285706 -0.78868866 -5.0940247 -1.7089996q0.22619629 4.0200806 2.6323547 8.005455l-1.9797363 0.95075226q-2.4932861 -2.891388 -5.5630493 -4.2939453q-2.8139648 -1.285675 -4.428528 -0.68343353q-0.74520874 0.2779541 -1.1734009 1.2161026q-0.3892517 0.8528671 0.027832031 1.971077q0.6488037 1.7394485 5.0829163 3.7653656l2.984497 1.3636017l-1.2827454 1.6814957l-3.2402954 -1.4804764q-4.4341125 -2.025917 -5.4073486 -4.635086q-0.6951599 -1.8636932 0.04446411 -3.4841385q0.7395935 -1.6204376 2.105774 -2.1300278q2.2355957 -0.83386993 5.475891 0.64660645q3.2402954 1.4804764 3.596222 2.0553818q-0.8786926 -3.4936218 -0.8286743 -5.635277zm15.141357 20.11119q1.4421997 0.4527893 2.8083801 -0.056800842q1.4903564 -0.55591583 2.268921 -2.2616425q0.8563843 -1.876297 0.25390625 -3.4915009q-0.602478 -1.6151962 -2.9900513 -2.7060776q-2.8139648 -1.285675 -4.854889 -0.87823486q-1.916748 0.3611145 -5.425812 1.9530716l-0.86569214 -1.9416122q8.942261 -3.335495 13.96582 -5.9877167q-2.9696655 -0.9445343 -5.9003906 -1.97435l0.29840088 -2.2343063q4.178314 1.9090347 7.6132507 2.9630814l0.92315674 0.009498596l0.5097656 1.3667068q0.54870605 1.2814255 -0.93240356 0.9139252q-3.8816528 1.7309341 -7.7243958 3.3765793q1.9853516 0.39172363 3.1791382 0.9371643q3.2402954 1.4804764 4.0744934 3.7169113q0.834198 2.236435 -0.25576782 4.6244507q-1.1288757 2.473297 -3.1160583 3.2145157q-2.9807434 1.1118317 -6.1357727 -0.3296814q-2.984497 -1.3636017 -3.7260132 -3.3515396q-0.602478 -1.6152039 0.09820557 -3.1503525q0.46713257 -1.0234375 1.5849304 -1.4403763q1.2419739 -0.46325684 2.3504944 0.04322052q1.5348816 0.7012787 2.0910034 2.1922302q0.6488342 1.7394485 -0.09262085 4.492836zm-1.8222046 -0.5233383q0.7562866 -2.33432 0.33917236 -3.4525375q-0.32440186 -0.8697281 -0.92129517 -1.1424484q-0.6821594 -0.31167603 -1.1789551 -0.12637329q-0.6210022 0.23163605 -0.8545532 0.7433548q-0.3503418 0.7675705 0.02041626 1.7615433q0.46343994 1.2424622 1.8277588 1.8658218q0.34109497 0.15583801 0.76745605 0.35063934z" fill-rule="nonzero"/><path fill="#000000" fill-opacity="0.0" d="m414.5663 309.35425l126.519684 -58.48819l20.346436 44.0l-126.519684 58.48819z" fill-rule="evenodd"/><path fill="#000000" d="m434.00995 326.16168q-0.4328308 -0.93603516 0.10974121 -2.219696q3.1310425 -7.7476807 3.5280762 -11.132996l2.0826416 0.4831848q1.1593628 0.4968872 -0.11071777 0.8774414q-0.4107666 2.4621277 -3.4960632 10.085388q-0.18301392 0.49771118 -0.064971924 0.7529907q0.2361145 0.5105591 0.69454956 0.60849q6.496765 1.5410767 10.924652 3.5221863l-0.8234863 2.239746q-4.591675 -2.111908 -10.662964 -3.849701q-1.7879944 -0.5161133 -2.1814575 -1.3670349zm24.748535 -13.713104q-0.6625366 -1.6560974 -1.6837158 -1.1840515q-1.4466248 0.6687622 -3.688324 6.76593l3.9348755 8.509277l-1.7019653 0.7867737l-3.2265625 -6.9776l-1.5801086 6.4110107l-1.9911194 -0.73205566l1.5545044 -5.5729065q0.38519287 -1.6240234 0.56082153 -3.254486l-0.94436646 -2.0422058l-3.1540222 3.0072937l-1.3369141 -1.5509033l3.7433167 -3.0731506l-2.3215637 -5.0204773l1.5317688 -0.70809937q0.84454346 -0.18386841 0.48495483 0.6020508l1.7706909 3.829193l1.1721497 0.077819824q0.9232788 -0.013702393 0.18395996 0.84451294l-0.018249512 1.9707947l0.27542114 0.5956421q2.2682495 -5.592987 4.3105774 -6.53714q2.552887 -1.1801758 3.8715515 2.3415527l2.6043396 6.7488403q0.5444946 1.4008179 1.6507568 0.8894043q1.1062622 -0.5114136 1.3414001 -1.3430786q0.33303833 -1.2901001 0.25338745 -2.8025208l1.9975281 0.5225525q-0.10336304 2.0101318 -0.5150757 3.1300354q-0.5947571 1.6176147 -2.0413818 2.286377q-3.14859 1.4555359 -4.473633 -1.8566589l-2.5650024 -6.663727zm23.861267 0.22711182q1.2828674 -0.7996216 1.7861023 -2.1683655q0.5489807 -1.4931946 -0.23797607 -3.1950378q-0.86569214 -1.8720398 -2.4834595 -2.4668274q-1.6177979 -0.5948181 -4.000519 0.50668335q-2.808197 1.2981873 -3.8283997 3.1124878q-0.9744873 1.6898804 -2.0523071 5.389923l-2.0368652 -0.6076355q3.2938843 -8.959076 4.5537415 -14.499084q-2.6507874 1.6385803 -5.3409424 3.192047l-1.5007019 -1.6817627q4.169739 -1.9276123 7.2066956 -3.8479614l0.60849 -0.6944275l1.3688965 0.5032959q1.3295288 0.41818237 0.08602905 1.302887q-1.2150574 4.0733337 -2.469452 8.061554q1.590271 -1.2515869 2.7816467 -1.8023376q3.233673 -1.494873 5.473694 -0.67129517q2.2400208 0.82354736 3.3417969 3.2061462q1.1410828 2.467682 0.40911865 4.4585876q-1.0979614 2.9863586 -4.2465515 4.441925q-2.9783936 1.3768616 -4.969513 0.6448059q-1.6177979 -0.5948181 -2.3260803 -2.1264648q-0.47216797 -1.0211182 -0.060455322 -2.1409912q0.457489 -1.2443237 1.5637512 -1.7557373q1.5317383 -0.70809937 3.0250854 -0.15905762q1.7422485 0.64053345 3.348175 2.996643zm-1.5838928 1.0420532q-1.2783508 -2.0943909 -2.398346 -2.506195q-0.87112427 -0.32025146 -1.4667969 -0.044891357q-0.68078613 0.31472778 -0.86376953 0.81243896q-0.22875977 0.62216187 0.0073547363 1.132721q0.35412598 0.7658386 1.3497009 1.1318665q1.2444458 0.45751953 2.6059875 -0.17190552q0.34039307 -0.15734863 0.76586914 -0.35403442z" fill-rule="nonzero"/><path fill="#000000" fill-opacity="0.0" d="m341.8281 226.62862l262.8976 0" fill-rule="evenodd"/><path stroke="#000000" stroke-width="1.0" stroke-linejoin="round" stroke-linecap="butt" d="m341.8281 226.62862l256.8976 0" fill-rule="evenodd"/><path fill="#000000" stroke="#000000" stroke-width="1.0" stroke-linecap="butt" d="m598.7257 228.28033l4.538086 -1.6517181l-4.538086 -1.6517334z" fill-rule="evenodd"/><path fill="#000000" fill-opacity="0.0" d="m341.82892 66.28271l283.30707 127.496056" fill-rule="evenodd"/><path stroke="#000000" stroke-width="1.0" stroke-linejoin="round" stroke-linecap="butt" d="m341.82892 66.28271l277.83563 125.033745" fill-rule="evenodd"/><path fill="#000000" stroke="#000000" stroke-width="1.0" stroke-linecap="butt" d="m618.9867 192.8227l4.816162 0.35612488l-3.4605103 -3.3685913z" fill-rule="evenodd"/><path fill="#000000" fill-opacity="0.0" d="m341.82892 386.97452l283.30707 -127.49606" fill-rule="evenodd"/><path stroke="#000000" stroke-width="1.0" stroke-linejoin="round" stroke-linecap="butt" d="m341.82892 386.97452l277.83563 -125.03375" fill-rule="evenodd"/><path fill="#000000" stroke="#000000" stroke-width="1.0" stroke-linecap="butt" d="m620.34235 263.447l3.4605103 -3.3685913l-4.816162 0.35614014z" fill-rule="evenodd"/></g></svg>